<?xml version="1.0" encoding="utf-8"?>
<svg version="1.1" xmlns:xlink="http://www.w3.org/1999/xlink" width="80px" height="35px" xmlns="http://www.w3.org/2000/svg">
  <g transform="matrix(1 0 0 1 -1440 -120 )">
    <path d="M 1440.5 125  A 4.5 4.5 0 0 1 1445 120.5 L 1515 120.5  A 4.5 4.5 0 0 1 1519.5 125 L 1519.5 150  A 4.5 4.5 0 0 1 1515 154.5 L 1445 154.5  A 4.5 4.5 0 0 1 1440.5 150 L 1440.5 125  Z " fill-rule="nonzero" fill="#f0f7ff" stroke="none" />
    <path d="M 1440.5 125  A 4.5 4.5 0 0 1 1445 120.5 L 1515 120.5  A 4.5 4.5 0 0 1 1519.5 125 L 1519.5 150  A 4.5 4.5 0 0 1 1515 154.5 L 1445 154.5  A 4.5 4.5 0 0 1 1440.5 150 L 1440.5 125  Z " stroke-width="1" stroke="#409eff" fill="none" />
  </g>
</svg>