<?xml version="1.0" encoding="utf-8"?>
<svg version="1.1" xmlns:xlink="http://www.w3.org/1999/xlink" width="84px" height="25px" xmlns="http://www.w3.org/2000/svg">
  <g transform="matrix(1 0 0 1 -1276 -15 )">
    <path d="M 1276.5 20  A 4.5 4.5 0 0 1 1281 15.5 L 1355 15.5  A 4.5 4.5 0 0 1 1359.5 20 L 1359.5 35  A 4.5 4.5 0 0 1 1355 39.5 L 1281 39.5  A 4.5 4.5 0 0 1 1276.5 35 L 1276.5 20  Z " fill-rule="nonzero" fill="#5daf34" stroke="none" />
    <path d="M 1276.5 20  A 4.5 4.5 0 0 1 1281 15.5 L 1355 15.5  A 4.5 4.5 0 0 1 1359.5 20 L 1359.5 35  A 4.5 4.5 0 0 1 1355 39.5 L 1281 39.5  A 4.5 4.5 0 0 1 1276.5 35 L 1276.5 20  Z " stroke-width="1" stroke="#5daf34" fill="none" />
  </g>
</svg>