<?xml version="1.0" encoding="utf-8"?>
<svg version="1.1" xmlns:xlink="http://www.w3.org/1999/xlink" width="80px" height="35px" xmlns="http://www.w3.org/2000/svg">
  <g transform="matrix(1 0 0 1 -1440 -120 )">
    <path d="M 1441 125  A 4 4 0 0 1 1445 121 L 1515 121  A 4 4 0 0 1 1519 125 L 1519 150  A 4 4 0 0 1 1515 154 L 1445 154  A 4 4 0 0 1 1441 150 L 1441 125  Z " fill-rule="nonzero" fill="#f0f7ff" stroke="none" />
    <path d="M 1440.5 125  A 4.5 4.5 0 0 1 1445 120.5 L 1515 120.5  A 4.5 4.5 0 0 1 1519.5 125 L 1519.5 150  A 4.5 4.5 0 0 1 1515 154.5 L 1445 154.5  A 4.5 4.5 0 0 1 1440.5 150 L 1440.5 125  Z " stroke-width="1" stroke="#7abbff" fill="none" stroke-opacity="0.996078431372549" />
  </g>
</svg>