<?xml version="1.0" encoding="utf-8"?>
<svg version="1.1" xmlns:xlink="http://www.w3.org/1999/xlink" width="965px" height="10px" preserveAspectRatio="xMinYMid meet" viewBox="121 5043  965 8" xmlns="http://www.w3.org/2000/svg">
  <path d="M 1081.5 383  L 1081.5 4159  A 3 3 0 0 1 1084.5 4162 A 3 3 0 0 1 1081.5 4165 L 1081.5 5042  A 5 5 0 0 1 1076.5 5047.5 L 126 5047.5  " stroke-width="1" stroke="#0099ff" fill="none" />
  <path d="M 1081.5 382  A 3 3 0 0 0 1078.5 385 A 3 3 0 0 0 1081.5 388 A 3 3 0 0 0 1084.5 385 A 3 3 0 0 0 1081.5 382 Z M 127 5053  L 127 5042  L 126 5042  L 126 5053  L 127 5053  Z " fill-rule="nonzero" fill="#0099ff" stroke="none" />
</svg>