<?xml version="1.0" encoding="utf-8"?>
<svg version="1.1" xmlns:xlink="http://www.w3.org/1999/xlink" width="10px" height="147px" preserveAspectRatio="xMidYMin meet" viewBox="396 97  8 147" xmlns="http://www.w3.org/2000/svg">
  <path d="M 458 239.5  L 405 239.5  A 5 5 0 0 1 400.5 234.5 L 400.5 107  A 5 5 0 0 1 405.5 102.5 L 417 102.5  " stroke-width="1" stroke="#0099ff" fill="none" />
  <path d="M 456 236.5  A 3 3 0 0 0 453 239.5 A 3 3 0 0 0 456 242.5 A 3 3 0 0 0 459 239.5 A 3 3 0 0 0 456 236.5 Z M 416 97  L 416 108  L 417 108  L 417 97  L 416 97  Z " fill-rule="nonzero" fill="#0099ff" stroke="none" />
</svg>