<?xml version="1.0" encoding="utf-8"?>
<svg version="1.1" xmlns:xlink="http://www.w3.org/1999/xlink" width="18px" height="18px" preserveAspectRatio="xMinYMid meet" viewBox="627 237  18 16" xmlns="http://www.w3.org/2000/svg">
  <path d="M 636.5 243  L 636.5 2821  A 3 3 0 0 1 639.5 2824 A 3 3 0 0 1 636.5 2827 L 636.5 3470  A 5 5 0 0 1 631.5 3475.5 L 126 3475.5  " stroke-width="1" stroke="#0099ff" fill="none" />
  <path d="M 636.5 242  A 3 3 0 0 0 633.5 245 A 3 3 0 0 0 636.5 248 A 3 3 0 0 0 639.5 245 A 3 3 0 0 0 636.5 242 Z M 127 3481  L 127 3470  L 126 3470  L 126 3481  L 127 3481  Z " fill-rule="nonzero" fill="#0099ff" stroke="none" />
</svg>