<?xml version="1.0" encoding="utf-8"?>
<svg version="1.1" xmlns:xlink="http://www.w3.org/1999/xlink" width="641px" height="10px" preserveAspectRatio="xMinYMid meet" viewBox="105 1563  641 8" xmlns="http://www.w3.org/2000/svg">
  <path d="M 741.5 722  L 741.5 1562  A 5 5 0 0 1 736 1567.5 L 678 1567.5  A 3 3 0 0 0 675 1564.5 A 3 3 0 0 0 672 1567.5 L 639 1567.5  A 3 3 0 0 0 636 1564.5 A 3 3 0 0 0 633 1567.5 L 309 1567.5  A 3 3 0 0 0 306 1564.5 A 3 3 0 0 0 303 1567.5 L 110 1567.5  " stroke-width="1" stroke="#0099ff" fill="none" />
  <path d="M 741.5 721  A 3 3 0 0 0 738.5 724 A 3 3 0 0 0 741.5 727 A 3 3 0 0 0 744.5 724 A 3 3 0 0 0 741.5 721 Z M 111 1573  L 111 1562  L 110 1562  L 110 1573  L 111 1573  Z " fill-rule="nonzero" fill="#0099ff" stroke="none" />
</svg>