<?xml version="1.0" encoding="utf-8"?>
<svg version="1.1" xmlns:xlink="http://www.w3.org/1999/xlink" width="18px" height="18px" preserveAspectRatio="xMinYMid meet" viewBox="879 554  18 16" xmlns="http://www.w3.org/2000/svg">
  <path d="M 888.5 564  L 888.5 545  A 5 5 0 0 1 893.5 540.5 L 925 540.5  A 5 5 0 0 1 930.5 545.5 L 930.5 560  A 5 5 0 0 1 925.5 565.5 L 920 565.5  " stroke-width="1" stroke="#0099ff" fill="none" />
  <path d="M 888.5 559  A 3 3 0 0 0 885.5 562 A 3 3 0 0 0 888.5 565 A 3 3 0 0 0 891.5 562 A 3 3 0 0 0 888.5 559 Z M 921 571  L 921 560  L 920 560  L 920 571  L 921 571  Z " fill-rule="nonzero" fill="#0099ff" stroke="none" />
</svg>