<?xml version="1.0" encoding="utf-8"?>
<svg version="1.1" xmlns:xlink="http://www.w3.org/1999/xlink" width="29px" height="10px" preserveAspectRatio="xMinYMid meet" viewBox="605 308  29 8" xmlns="http://www.w3.org/2000/svg">
  <path d="M 726 205.5  L 615 205.5  A 5 5 0 0 0 610.5 210.5 L 610.5 307  A 5 5 0 0 0 615.5 312.5 L 629 312.5  " stroke-width="1" stroke="#0099ff" fill="none" />
  <path d="M 724 202.5  A 3 3 0 0 0 721 205.5 A 3 3 0 0 0 724 208.5 A 3 3 0 0 0 727 205.5 A 3 3 0 0 0 724 202.5 Z M 628 307  L 628 318  L 629 318  L 629 307  L 628 307  Z " fill-rule="nonzero" fill="#0099ff" stroke="none" />
</svg>