<?xml version="1.0" encoding="utf-8"?>
<svg version="1.1" xmlns:xlink="http://www.w3.org/1999/xlink" width="18px" height="18px" preserveAspectRatio="xMinYMid meet" viewBox="790 982  18 16" xmlns="http://www.w3.org/2000/svg">
  <path d="M 801 990.5  L 545 990.5  A 5 5 0 0 1 540.5 985.5 L 540.5 794  A 5 5 0 0 1 545.5 789.5 L 557 789.5  " stroke-width="1" stroke="#0099ff" fill="none" />
  <path d="M 799 987.5  A 3 3 0 0 0 796 990.5 A 3 3 0 0 0 799 993.5 A 3 3 0 0 0 802 990.5 A 3 3 0 0 0 799 987.5 Z M 556 784  L 556 795  L 557 795  L 557 784  L 556 784  Z " fill-rule="nonzero" fill="#0099ff" stroke="none" />
</svg>