<?xml version="1.0" encoding="utf-8"?>
<svg version="1.1" xmlns:xlink="http://www.w3.org/1999/xlink" width="18px" height="18px" preserveAspectRatio="xMinYMid meet" viewBox="1081 350  18 16" xmlns="http://www.w3.org/2000/svg">
  <path d="M 1058.5 358  L 1058.5 345  A 5 5 0 0 1 1063.5 340.5 L 1095 340.5  A 5 5 0 0 1 1100.5 345.5 L 1100.5 354  A 5 5 0 0 1 1095.5 359.5 L 1090 359.5  " stroke-width="1" stroke="#0099ff" fill="none" />
  <path d="M 1058.5 353  A 3 3 0 0 0 1055.5 356 A 3 3 0 0 0 1058.5 359 A 3 3 0 0 0 1061.5 356 A 3 3 0 0 0 1058.5 353 Z M 1091 365  L 1091 354  L 1090 354  L 1090 365  L 1091 365  Z " fill-rule="nonzero" fill="#0099ff" stroke="none" />
</svg>