<?xml version="1.0" encoding="utf-8"?>
<svg version="1.1" xmlns:xlink="http://www.w3.org/1999/xlink" width="20px" height="10px" preserveAspectRatio="xMinYMid meet" viewBox="885 243  20 8" xmlns="http://www.w3.org/2000/svg">
  <path d="M 858.5 246  L 858.5 235  A 5 5 0 0 1 863.5 230.5 L 895 230.5  A 5 5 0 0 1 900.5 235.5 L 900.5 242  A 5 5 0 0 1 895.5 247.5 L 890 247.5  " stroke-width="1" stroke="#0099ff" fill="none" />
  <path d="M 858.5 241  A 3 3 0 0 0 855.5 244 A 3 3 0 0 0 858.5 247 A 3 3 0 0 0 861.5 244 A 3 3 0 0 0 858.5 241 Z M 891 253  L 891 242  L 890 242  L 890 253  L 891 253  Z " fill-rule="nonzero" fill="#0099ff" stroke="none" />
</svg>