<?xml version="1.0" encoding="utf-8"?>
<svg version="1.1" xmlns:xlink="http://www.w3.org/1999/xlink" width="18px" height="18px" preserveAspectRatio="xMinYMid meet" viewBox="751 710  18 16" xmlns="http://www.w3.org/2000/svg">
  <path d="M 728.5 718  L 728.5 705  A 5 5 0 0 1 733.5 700.5 L 765 700.5  A 5 5 0 0 1 770.5 705.5 L 770.5 714  A 5 5 0 0 1 765.5 719.5 L 760 719.5  " stroke-width="1" stroke="#0099ff" fill="none" />
  <path d="M 728.5 713  A 3 3 0 0 0 725.5 716 A 3 3 0 0 0 728.5 719 A 3 3 0 0 0 731.5 716 A 3 3 0 0 0 728.5 713 Z M 761 725  L 761 714  L 760 714  L 760 725  L 761 725  Z " fill-rule="nonzero" fill="#0099ff" stroke="none" />
</svg>