<?xml version="1.0" encoding="utf-8"?>
<svg version="1.1" xmlns:xlink="http://www.w3.org/1999/xlink" width="10px" height="35px" preserveAspectRatio="xMidYMin meet" viewBox="436 615  8 35" xmlns="http://www.w3.org/2000/svg">
  <path d="M 356 645.5  L 435 645.5  A 5 5 0 0 0 440.5 640.5 L 440.5 625  A 5 5 0 0 1 445.5 620.5 L 465 620.5  A 5 5 0 0 1 470.5 625.5 L 470.5 640  A 5 5 0 0 1 465.5 645.5 L 460 645.5  " stroke-width="1" stroke="#8400ff" fill="none" />
  <path d="M 358 642.5  A 3 3 0 0 0 355 645.5 A 3 3 0 0 0 358 648.5 A 3 3 0 0 0 361 645.5 A 3 3 0 0 0 358 642.5 Z M 461 651  L 461 640  L 460 640  L 460 651  L 461 651  Z " fill-rule="nonzero" fill="#8400ff" stroke="none" />
</svg>