<?xml version="1.0" encoding="utf-8"?>
<svg version="1.1" xmlns:xlink="http://www.w3.org/1999/xlink" width="10px" height="50px" preserveAspectRatio="xMidYMin meet" viewBox="1606 37  8 50" xmlns="http://www.w3.org/2000/svg">
  <path d="M 1827 42.5  L 1615 42.5  A 5 5 0 0 0 1610.5 47.5 L 1610.5 77  A 5 5 0 0 0 1615.5 82.5 L 1623 82.5  " stroke-width="1" stroke="#fb6260" fill="none" />
  <path d="M 1825 39.5  A 3 3 0 0 0 1822 42.5 A 3 3 0 0 0 1825 45.5 A 3 3 0 0 0 1828 42.5 A 3 3 0 0 0 1825 39.5 Z M 1622 77  L 1622 88  L 1623 88  L 1623 77  L 1622 77  Z " fill-rule="nonzero" fill="#fb6260" stroke="none" />
</svg>