<?xml version="1.0" encoding="utf-8"?>
<svg version="1.1" xmlns:xlink="http://www.w3.org/1999/xlink" width="10px" height="5px" preserveAspectRatio="xMinYMid meet" viewBox="1095 187  10 3" xmlns="http://www.w3.org/2000/svg">
  <path d="M 1560.5 41  L 1560.5 45  A 5 5 0 0 1 1555.5 50.5 L 1429 50.5  A 5 5 0 0 0 1424.5 55.5 L 1424.5 181  A 5 5 0 0 1 1419.5 186.5 L 1100 186.5  " stroke-width="1" stroke="#fb6260" fill="none" />
  <path d="M 1560.5 40  A 3 3 0 0 0 1557.5 43 A 3 3 0 0 0 1560.5 46 A 3 3 0 0 0 1563.5 43 A 3 3 0 0 0 1560.5 40 Z M 1101 192  L 1101 181  L 1100 181  L 1100 192  L 1101 192  Z " fill-rule="nonzero" fill="#fb6260" stroke="none" />
</svg>