<?xml version="1.0" encoding="utf-8"?>
<svg version="1.1" xmlns:xlink="http://www.w3.org/1999/xlink" width="18px" height="18px" preserveAspectRatio="xMinYMid meet" viewBox="1838 36  18 16" xmlns="http://www.w3.org/2000/svg">
  <path d="M 1849 44.5  L 1465 44.5  A 5 5 0 0 0 1460.5 49.5 L 1460.5 234  A 5 5 0 0 0 1465.5 239.5 L 1471 239.5  " stroke-width="1" stroke="#0099ff" fill="none" />
  <path d="M 1847 41.5  A 3 3 0 0 0 1844 44.5 A 3 3 0 0 0 1847 47.5 A 3 3 0 0 0 1850 44.5 A 3 3 0 0 0 1847 41.5 Z M 1470 234  L 1470 245  L 1471 245  L 1471 234  L 1470 234  Z " fill-rule="nonzero" fill="#0099ff" stroke="none" />
</svg>