<?xml version="1.0" encoding="utf-8"?>
<svg version="1.1" xmlns:xlink="http://www.w3.org/1999/xlink" width="25px" height="10px" preserveAspectRatio="xMinYMid meet" viewBox="390 662  25 8" xmlns="http://www.w3.org/2000/svg">
  <path d="M 445 449.5  L 415 449.5  A 5 5 0 0 0 410.5 454.5 L 410.5 661  A 5 5 0 0 1 405.5 666.5 L 395 666.5  " stroke-width="1" stroke="#fb6260" fill="none" />
  <path d="M 443 446.5  A 3 3 0 0 0 440 449.5 A 3 3 0 0 0 443 452.5 A 3 3 0 0 0 446 449.5 A 3 3 0 0 0 443 446.5 Z M 396 672  L 396 661  L 395 661  L 395 672  L 396 672  Z " fill-rule="nonzero" fill="#fb6260" stroke="none" />
</svg>