<?xml version="1.0" encoding="utf-8"?>
<svg version="1.1" xmlns:xlink="http://www.w3.org/1999/xlink" width="12px" height="12px" viewBox="25 239.5  12 12" xmlns="http://www.w3.org/2000/svg">
  <path d="M 31 239.5  C 34.36 239.5  37 242.14  37 245.5  C 37 248.86  34.36 251.5  31 251.5  C 27.64 251.5  25 248.86  25 245.5  C 25 242.14  27.64 239.5  31 239.5  Z " fill-rule="nonzero" fill="#ffffff" stroke="none" />
  <path d="M 31 240  C 34.08 240  36.5 242.42  36.5 245.5  C 36.5 248.58  34.08 251  31 251  C 27.92 251  25.5 248.58  25.5 245.5  C 25.5 242.42  27.92 240  31 240  Z " stroke-width="1" stroke="#13c2c2" fill="none" />
  <path d="M 31 248.5  C 29.32 248.5  28 247.18  28 245.5  C 28 243.82  29.32 242.5  31 242.5  C 32.68 242.5  34 243.82  34 245.5  C 34 247.18  32.68 248.5  31 248.5  " fill-rule="nonzero" fill="#13c2c2" stroke="none" />
</svg>