<?xml version="1.0" encoding="utf-8"?>
<svg version="1.1" xmlns:xlink="http://www.w3.org/1999/xlink" width="10px" height="5px" preserveAspectRatio="xMinYMid meet" viewBox="675 722  10 3" xmlns="http://www.w3.org/2000/svg">
  <path d="M 648.5 722  L 648.5 735  A 5 5 0 0 0 653.5 740.5 L 685 740.5  A 5 5 0 0 0 690.5 735.5 L 690.5 726  A 5 5 0 0 0 685.5 721.5 L 680 721.5  " stroke-width="1" stroke="#8400ff" fill="none" />
  <path d="M 648.5 721  A 3 3 0 0 0 645.5 724 A 3 3 0 0 0 648.5 727 A 3 3 0 0 0 651.5 724 A 3 3 0 0 0 648.5 721 Z M 681 727  L 681 716  L 680 716  L 680 727  L 681 727  Z " fill-rule="nonzero" fill="#8400ff" stroke="none" />
</svg>