<?xml version="1.0" encoding="utf-8"?>
<svg version="1.1" xmlns:xlink="http://www.w3.org/1999/xlink" width="71px" height="25px" xmlns="http://www.w3.org/2000/svg">
  <g transform="matrix(1 0 0 1 -210 -82 )">
    <path d="M 211 87  A 4 4 0 0 1 215 83 L 276 83  A 4 4 0 0 1 280 87 L 280 102  A 4 4 0 0 1 276 106 L 215 106  A 4 4 0 0 1 211 102 L 211 87  Z " fill-rule="nonzero" fill="#fef3f3" stroke="none" fill-opacity="0.996078431372549" />
    <path d="M 210.5 87  A 4.5 4.5 0 0 1 215 82.5 L 276 82.5  A 4.5 4.5 0 0 1 280.5 87 L 280.5 102  A 4.5 4.5 0 0 1 276 106.5 L 215 106.5  A 4.5 4.5 0 0 1 210.5 102 L 210.5 87  Z " stroke-width="1" stroke="#f89898" fill="none" stroke-opacity="0.996078431372549" />
  </g>
</svg>