<?xml version="1.0" encoding="utf-8"?>
<svg version="1.1" xmlns:xlink="http://www.w3.org/1999/xlink" width="60px" height="25px" xmlns="http://www.w3.org/2000/svg">
  <g transform="matrix(1 0 0 1 -724 -770 )">
    <path d="M 725 775  A 4 4 0 0 1 729 771 L 779 771  A 4 4 0 0 1 783 775 L 783 790  A 4 4 0 0 1 779 794 L 729 794  A 4 4 0 0 1 725 790 L 725 775  Z " fill-rule="nonzero" fill="#fef3f3" stroke="none" fill-opacity="0.996078431372549" />
    <path d="M 724.5 775  A 4.5 4.5 0 0 1 729 770.5 L 779 770.5  A 4.5 4.5 0 0 1 783.5 775 L 783.5 790  A 4.5 4.5 0 0 1 779 794.5 L 729 794.5  A 4.5 4.5 0 0 1 724.5 790 L 724.5 775  Z " stroke-width="1" stroke="#f89898" fill="none" stroke-opacity="0.996078431372549" />
  </g>
</svg>