<?xml version="1.0" encoding="utf-8"?>
<svg version="1.1" xmlns:xlink="http://www.w3.org/1999/xlink" width="60px" height="25px" xmlns="http://www.w3.org/2000/svg">
  <g transform="matrix(1 0 0 1 -724 -770 )">
    <path d="M 724.5 775  A 4.5 4.5 0 0 1 729 770.5 L 779 770.5  A 4.5 4.5 0 0 1 783.5 775 L 783.5 790  A 4.5 4.5 0 0 1 779 794.5 L 729 794.5  A 4.5 4.5 0 0 1 724.5 790 L 724.5 775  Z " fill-rule="nonzero" fill="#dd6161" stroke="none" />
    <path d="M 724.5 775  A 4.5 4.5 0 0 1 729 770.5 L 779 770.5  A 4.5 4.5 0 0 1 783.5 775 L 783.5 790  A 4.5 4.5 0 0 1 779 794.5 L 729 794.5  A 4.5 4.5 0 0 1 724.5 790 L 724.5 775  Z " stroke-width="1" stroke="#dd6161" fill="none" />
  </g>
</svg>