<?xml version="1.0" encoding="utf-8"?>
<svg version="1.1" xmlns:xlink="http://www.w3.org/1999/xlink" width="60px" height="25px" xmlns="http://www.w3.org/2000/svg">
  <g transform="matrix(1 0 0 1 -791 -770 )">
    <path d="M 791.5 775  A 4.5 4.5 0 0 1 796 770.5 L 846 770.5  A 4.5 4.5 0 0 1 850.5 775 L 850.5 790  A 4.5 4.5 0 0 1 846 794.5 L 796 794.5  A 4.5 4.5 0 0 1 791.5 790 L 791.5 775  Z " fill-rule="nonzero" fill="#f56c6c" stroke="none" />
    <path d="M 791.5 775  A 4.5 4.5 0 0 1 796 770.5 L 846 770.5  A 4.5 4.5 0 0 1 850.5 775 L 850.5 790  A 4.5 4.5 0 0 1 846 794.5 L 796 794.5  A 4.5 4.5 0 0 1 791.5 790 L 791.5 775  Z " stroke-width="1" stroke="#f56c6c" fill="none" />
  </g>
</svg>