<?xml version="1.0" encoding="utf-8"?>
<svg version="1.1" xmlns:xlink="http://www.w3.org/1999/xlink" width="60px" height="25px" xmlns="http://www.w3.org/2000/svg">
  <g transform="matrix(1 0 0 1 -719 -770 )">
    <path d="M 720 775  A 4 4 0 0 1 724 771 L 774 771  A 4 4 0 0 1 778 775 L 778 790  A 4 4 0 0 1 774 794 L 724 794  A 4 4 0 0 1 720 790 L 720 775  Z " fill-rule="nonzero" fill="#fef3f3" stroke="none" fill-opacity="0.996078431372549" />
    <path d="M 719.5 775  A 4.5 4.5 0 0 1 724 770.5 L 774 770.5  A 4.5 4.5 0 0 1 778.5 775 L 778.5 790  A 4.5 4.5 0 0 1 774 794.5 L 724 794.5  A 4.5 4.5 0 0 1 719.5 790 L 719.5 775  Z " stroke-width="1" stroke="#f89898" fill="none" stroke-opacity="0.996078431372549" />
  </g>
</svg>