<?xml version="1.0" encoding="utf-8"?>
<svg version="1.1" xmlns:xlink="http://www.w3.org/1999/xlink" width="10px" height="5px" preserveAspectRatio="xMinYMid meet" viewBox="500 893  10 3" xmlns="http://www.w3.org/2000/svg">
  <path d="M 1037 579.5  L 495 579.5  A 5 5 0 0 0 490.5 584.5 L 490.5 887  A 5 5 0 0 0 495.5 892.5 L 505 892.5  " stroke-width="1" stroke="#531dab" fill="none" />
  <path d="M 1035 576.5  A 3 3 0 0 0 1032 579.5 A 3 3 0 0 0 1035 582.5 A 3 3 0 0 0 1038 579.5 A 3 3 0 0 0 1035 576.5 Z M 504 887  L 504 898  L 505 898  L 505 887  L 504 887  Z " fill-rule="nonzero" fill="#531dab" stroke="none" />
</svg>