<?xml version="1.0" encoding="utf-8"?>
<svg version="1.1" xmlns:xlink="http://www.w3.org/1999/xlink" width="18px" height="18px" preserveAspectRatio="xMinYMid meet" viewBox="807 153  18 16" xmlns="http://www.w3.org/2000/svg">
  <path d="M 867 292.5  L 805 292.5  A 5 5 0 0 1 800.5 287.5 L 800.5 167  A 5 5 0 0 1 805.5 162.5 L 816 162.5  " stroke-width="1" stroke="#ce3232" fill="none" />
  <path d="M 865 289.5  A 3 3 0 0 0 862 292.5 A 3 3 0 0 0 865 295.5 A 3 3 0 0 0 868 292.5 A 3 3 0 0 0 865 289.5 Z M 815 157  L 815 168  L 816 168  L 816 157  L 815 157  Z " fill-rule="nonzero" fill="#ce3232" stroke="none" />
</svg>