<?xml version="1.0" encoding="utf-8"?>
<svg version="1.1" xmlns:xlink="http://www.w3.org/1999/xlink" width="18px" height="18px" preserveAspectRatio="xMinYMid meet" viewBox="389 286  18 16" xmlns="http://www.w3.org/2000/svg">
  <path d="M 398.5 296  L 398.5 285  A 5 5 0 0 1 403.5 280.5 L 435 280.5  A 5 5 0 0 1 440.5 285.5 L 440.5 292  A 5 5 0 0 1 435.5 297.5 L 430 297.5  " stroke-width="1" stroke="#ce3232" fill="none" />
  <path d="M 398.5 291  A 3 3 0 0 0 395.5 294 A 3 3 0 0 0 398.5 297 A 3 3 0 0 0 401.5 294 A 3 3 0 0 0 398.5 291 Z M 431 303  L 431 292  L 430 292  L 430 303  L 431 303  Z " fill-rule="nonzero" fill="#ce3232" stroke="none" />
</svg>