<?xml version="1.0" encoding="utf-8"?>
<svg version="1.1" xmlns:xlink="http://www.w3.org/1999/xlink" width="10px" height="5px" preserveAspectRatio="xMinYMid meet" viewBox="645 261  10 3" xmlns="http://www.w3.org/2000/svg">
  <path d="M 1038.5 578  L 1038.5 265  A 5 5 0 0 0 1033 260.5 L 803 260.5  A 3 3 0 0 0 800 257.5 A 3 3 0 0 0 797 260.5 L 650 260.5  " stroke-width="1" stroke="#ce3232" fill="none" />
  <path d="M 1038.5 573  A 3 3 0 0 0 1035.5 576 A 3 3 0 0 0 1038.5 579 A 3 3 0 0 0 1041.5 576 A 3 3 0 0 0 1038.5 573 Z M 651 266  L 651 255  L 650 255  L 650 266  L 651 266  Z " fill-rule="nonzero" fill="#ce3232" stroke="none" />
</svg>