<?xml version="1.0" encoding="utf-8"?>
<svg version="1.1" xmlns:xlink="http://www.w3.org/1999/xlink" width="18px" height="18px" preserveAspectRatio="xMinYMid meet" viewBox="355 767  18 16" xmlns="http://www.w3.org/2000/svg">
  <path d="M 366 775.5  L 115 775.5  A 5 5 0 0 1 110.5 770.5 L 110.5 723  A 5 5 0 0 1 115.5 718.5 L 128 718.5  " stroke-width="1" stroke="#531dab" fill="none" />
  <path d="M 364 772.5  A 3 3 0 0 0 361 775.5 A 3 3 0 0 0 364 778.5 A 3 3 0 0 0 367 775.5 A 3 3 0 0 0 364 772.5 Z M 127 713  L 127 724  L 128 724  L 128 713  L 127 713  Z " fill-rule="nonzero" fill="#531dab" stroke="none" />
</svg>