<?xml version="1.0" encoding="utf-8"?>
<svg version="1.1" xmlns:xlink="http://www.w3.org/1999/xlink" width="124px" height="10px" preserveAspectRatio="xMinYMid meet" viewBox="1265 160  124 8" xmlns="http://www.w3.org/2000/svg">
  <path d="M 1388 164.5  L 1275 164.5  A 5 5 0 0 0 1270.5 169.5 L 1270.5 194  A 5 5 0 0 0 1275.5 199.5 L 1285 199.5  " stroke-width="1" stroke="#fb6260" fill="none" />
  <path d="M 1386 161.5  A 3 3 0 0 0 1383 164.5 A 3 3 0 0 0 1386 167.5 A 3 3 0 0 0 1389 164.5 A 3 3 0 0 0 1386 161.5 Z M 1284 194  L 1284 205  L 1285 205  L 1285 194  L 1284 194  Z " fill-rule="nonzero" fill="#fb6260" stroke="none" />
</svg>