<?xml version="1.0" encoding="utf-8"?>
<!-- Generator: Adobe Illustrator 21.0.0, SVG Export Plug-In . SVG Version: 6.00 Build 0)  -->
<svg version="1.1" id="图层_1" xmlns="http://www.w3.org/2000/svg" xmlns:xlink="http://www.w3.org/1999/xlink" x="0px" y="0px"
	 viewBox="0 0 1024 1024" style="enable-background:new 0 0 1024 1024;" xml:space="preserve">
<style type="text/css">
	.st0{display:none;}
	.st1{display:inline;}
	.st2{opacity:0.25;}
	.st3{display:inline;opacity:0.25;}
	.st4{enable-background:new    ;}
	.st5{fill:url(#SVGID_1_);}
	.st6{fill:url(#SVGID_2_);}
	.st7{fill:url(#SVGID_3_);}
	.st8{fill:url(#SVGID_4_);}
	.st9{fill:url(#SVGID_5_);}
	.st10{fill:url(#SVGID_6_);}
	.st11{fill:url(#SVGID_7_);}
	.st12{fill:url(#SVGID_8_);}
	.st13{fill:url(#SVGID_9_);}
	.st14{fill:url(#SVGID_10_);}
	.st15{fill:url(#SVGID_11_);}
	.st16{fill:url(#SVGID_12_);}
	.st17{fill:url(#SVGID_13_);}
	.st18{fill:url(#SVGID_14_);}
</style>
<g id="图层_1_1_" class="st0">
	<g id="bg" class="st1">
		<g id="图层_2">
			<g id="图标参考线">
				<g id="图标尺寸" class="st2">
					<path d="M1018.2,5.8v1012.5H5.8V5.8H1018.2 M1024,0H0v1024h1024V0z"/>
					<path d="M512,28.8c266.9,0,483.2,216.4,483.2,483.2S778.9,995.2,512,995.2S28.8,778.9,28.8,512S245.1,28.8,512,28.8 M512,23
						C241.9,23,23,241.9,23,512s218.9,489,489,489s489-218.9,489-489C1000.7,242,782,23.3,512,23z"/>
					<path d="M949.2,74.8v874.4H74.8V74.8H949.2 M955,69H69v886h886V69z"/>
					<path d="M995.2,28.8v966.5H28.8V28.8H995.2 M1001,23H23v978h978V23z"/>
					<path d="M995.2,189.8v644.3H28.8V189.8H995.2 M1001,184.1H23v655.8h978V184.1z"/>
				</g>
			</g>
		</g>
	</g>
	<g id="图标尺寸_1_" class="st3">
		<g>
			<path d="M1017.1,4.6v1010.2H6.9V4.6H1017.1 M1021.7,0h-6.9H4.6H0v6.9v1010.2v6.9h6.9h1010.2h6.9v-6.9V6.9V0H1021.7z"/>
		</g>
		<g>
			<path d="M512,27.6c266.3,0,482.2,215.8,482.2,482.2S778.3,991.9,512,991.9S29.8,776.1,29.8,509.7S245.7,27.6,512,27.6 M512,23
				C243.4,23,23,241.1,23,509.7s218.1,486.7,489,486.7s489-218.1,489-486.7S780.6,23,512,23L512,23z"/>
		</g>
		<g>
			<path d="M948.2,73.5V946H75.8V73.5H948.2 M952.8,68.9h-6.9H73.5h-4.6v6.9v872.5v6.9h6.9h872.5h6.9v-6.9V75.8v-6.9H952.8z"/>
		</g>
		<g>
			<path d="M994.1,27.6v964.3H29.8V27.6H994.1 M998.7,23h-6.9H27.5h-4.6v6.9v964.3v6.9h6.9h964.3h6.9v-6.9V29.9V23H998.7z"/>
		</g>
		<g>
			<path d="M994.1,188.3v642.9H29.8V188.3H994.1 M998.7,183.7h-6.9H27.5h-4.6v4.6v642.9v6.9h6.9h964.3h6.9v-6.9V188.3v-4.6H998.7z"
				/>
		</g>
	</g>
</g>
<g>
	<g>
		<g class="st4">
			<linearGradient id="SVGID_1_" gradientUnits="userSpaceOnUse" x1="75.5402" y1="829.4053" x2="883.5712" y2="829.4053">
				<stop  offset="0" style="stop-color:#FFA21E"/>
				<stop  offset="1" style="stop-color:#FFCB27"/>
			</linearGradient>
			<path class="st5" d="M883.3,666.4c-0.1,2-0.2,4.1-0.4,6.1c-0.2,1.8-0.4,3.5-0.7,5.3c-0.3,2-0.6,4-1,6c-0.3,1.8-0.7,3.6-1.1,5.3
				c-0.4,2-0.9,3.9-1.4,5.9c-0.5,1.8-1,3.6-1.6,5.3c-0.6,2-1.2,3.9-1.9,5.8c-0.6,1.7-1.3,3.5-2,5.2c-0.8,2-1.7,4.1-2.6,6.1
				c-0.8,1.7-1.6,3.4-2.4,5.1c-1,2-2,4-3.1,6.1c-1.2,2.1-2.3,4.3-3.6,6.4c-0.3,0.5-0.6,1-0.9,1.5c-1.9,3.1-3.9,6.1-6,9.2
				c-0.4,0.6-0.8,1.1-1.2,1.7c-2.1,3-4.4,6-6.8,9c-0.4,0.6-0.9,1.1-1.4,1.7c-2.1,2.6-4.3,5.2-6.6,7.7c-0.6,0.7-1.2,1.4-1.9,2.1
				c-2.7,3-5.5,5.9-8.4,8.8c-0.5,0.5-1.1,1-1.6,1.6c-2.2,2.2-4.6,4.3-6.9,6.4c-1.9,1.7-3.8,3.4-5.8,5.1c-1.8,1.6-3.7,3.1-5.6,4.6
				c-2.1,1.7-4.2,3.3-6.3,4.9c-2,1.5-4,3-6,4.5c-2.2,1.6-4.5,3.2-6.8,4.8c-2.1,1.5-4.2,2.9-6.4,4.4c-2.4,1.6-4.9,3.1-7.3,4.6
				c-3.1,1.9-6.1,3.8-9.3,5.7c-6,3.5-12.3,6.8-18.6,10.1c-1.8,0.9-3.7,1.8-5.5,2.7c-4.9,2.4-9.9,4.8-15,7.1
				c-1.7,0.8-3.4,1.6-5.1,2.3c-6.6,2.9-13.3,5.6-20.1,8.2c-1.2,0.5-2.4,0.9-3.7,1.3c-5.8,2.1-11.6,4.2-17.5,6.1
				c-2.4,0.8-4.9,1.6-7.3,2.4c-3.3,1-6.5,2-9.8,3c-2.8,0.8-5.6,1.6-8.4,2.4c-3.3,0.9-6.7,1.8-10.1,2.7c-2.8,0.7-5.6,1.4-8.5,2.1
				c-3.4,0.8-6.9,1.6-10.3,2.4c-2.8,0.6-5.7,1.3-8.5,1.9c-3.5,0.7-7,1.4-10.6,2.1c-2.7,0.5-5.4,1-8.1,1.5
				c-7.6,1.3-15.2,2.6-22.8,3.6c-1.1,0.2-2.2,0.3-3.3,0.4c-6.7,0.9-13.4,1.7-20.1,2.4c-2.6,0.3-5.1,0.5-7.7,0.8
				c-4.3,0.4-8.6,0.8-13,1.1c-2.7,0.2-5.5,0.4-8.2,0.6c-4.5,0.3-9,0.5-13.6,0.7c-2.6,0.1-5.1,0.2-7.7,0.3c-3.9,0.1-7.9,0.2-11.8,0.2
				c-2.7,0-5.5,0.1-8.2,0.1c-4.2,0-8.4-0.1-12.6-0.1c-2.5,0-5,0-7.5-0.1c-3.9-0.1-7.7-0.3-11.5-0.5c-2.7-0.1-5.4-0.2-8.1-0.3
				c-4.1-0.2-8.3-0.5-12.4-0.8c-2.4-0.2-4.8-0.3-7.2-0.5c-5-0.4-9.9-0.9-14.8-1.4c-1.5-0.2-3.1-0.3-4.6-0.5
				c-6.5-0.7-12.9-1.5-19.3-2.4c-1-0.1-2.1-0.3-3.1-0.5c-5.5-0.8-11-1.7-16.4-2.6c-2.3-0.4-4.5-0.9-6.8-1.3
				c-4.2-0.8-8.4-1.5-12.5-2.4c-2.2-0.4-4.3-0.9-6.5-1.4c-4.6-1-9.1-2-13.6-3.1c-2.5-0.6-5-1.2-7.5-1.9c-4.1-1-8.2-2.1-12.3-3.2
				c-2.3-0.6-4.6-1.3-6.9-2c-6.4-1.9-12.8-3.8-19.1-5.9c-1.1-0.4-2.3-0.7-3.4-1.1c-7.2-2.5-14.3-5.1-21.3-7.8
				c-2.9-1.1-5.7-2.3-8.5-3.4c-2.2-0.9-4.5-1.8-6.7-2.8c-3.2-1.4-6.3-2.8-9.4-4.2c-2-0.9-4.1-1.8-6.1-2.8c-3.4-1.6-6.7-3.3-10.1-5
				c-1.7-0.8-3.3-1.6-5-2.5c-4.9-2.6-9.8-5.2-14.6-8c-79.6-46-119.4-106.3-119.2-166.6l-0.3,109.9c-0.2,60.3,39.6,120.6,119.2,166.6
				c4.8,2.7,9.6,5.4,14.6,8c1.6,0.9,3.3,1.7,5,2.5c3.3,1.7,6.7,3.4,10.1,5c2,1,4.1,1.9,6.1,2.8c3.1,1.4,6.2,2.8,9.4,4.2
				c2.2,1,4.5,1.9,6.7,2.8c2.1,0.9,4.3,1.8,6.4,2.7c0.7,0.3,1.4,0.5,2.1,0.8c7,2.7,14.1,5.4,21.4,7.8c1.1,0.4,2.3,0.7,3.4,1.1
				c6.3,2.1,12.7,4.1,19.1,5.9c1.1,0.3,2.1,0.7,3.2,1c1.2,0.3,2.5,0.6,3.7,1c4.1,1.1,8.2,2.2,12.3,3.2c2.5,0.6,5,1.3,7.5,1.9
				c4.5,1.1,9.1,2.1,13.6,3.1c1.7,0.4,3.4,0.8,5.1,1.1c0.5,0.1,0.9,0.2,1.4,0.3c4.2,0.9,8.3,1.6,12.5,2.4c2.3,0.4,4.5,0.9,6.8,1.3
				c5.5,0.9,11,1.8,16.6,2.6c0.9,0.1,1.9,0.3,2.8,0.4c0,0,0.1,0,0.1,0c6.4,0.9,12.8,1.7,19.3,2.4c1.4,0.2,2.8,0.3,4.2,0.4
				c5.1,0.5,10.2,1.1,15.3,1.5c0.1,0,0.2,0,0.4,0c2.2,0.2,4.4,0.3,6.6,0.5c4.2,0.3,8.4,0.6,12.6,0.9c2.7,0.1,5.4,0.2,8,0.3
				c3.9,0.2,7.7,0.4,11.6,0.5c0.3,0,0.6,0,0.9,0c2.2,0.1,4.3,0,6.5,0.1c4.2,0.1,8.4,0.1,12.6,0.1c2.8,0,5.5-0.1,8.3-0.1
				c3.9-0.1,7.9-0.1,11.8-0.2c0.7,0,1.5,0,2.2,0c1.8-0.1,3.6-0.2,5.5-0.3c4.5-0.2,9.1-0.4,13.6-0.7c2.7-0.2,5.4-0.4,8.2-0.6
				c4.3-0.3,8.7-0.7,13-1.1c1.5-0.1,3-0.2,4.5-0.4c1.1-0.1,2.1-0.3,3.2-0.4c6.7-0.7,13.4-1.5,20.1-2.4c1.1-0.1,2.2-0.3,3.3-0.4
				c7.7-1.1,15.3-2.3,22.8-3.6c0.7-0.1,1.4-0.2,2.1-0.3c2-0.4,4-0.8,6-1.2c3.5-0.7,7-1.3,10.5-2.1c2.9-0.6,5.7-1.2,8.6-1.9
				c3.4-0.8,6.9-1.6,10.3-2.4c2.8-0.7,5.7-1.4,8.5-2.1c3.4-0.9,6.7-1.8,10.1-2.7c2.8-0.8,5.6-1.6,8.4-2.4c3.3-1,6.6-2,9.8-3
				c1.4-0.4,2.9-0.8,4.3-1.3c1-0.3,2-0.7,3-1.1c5.9-2,11.7-4,17.5-6.1c1.2-0.5,2.5-0.9,3.7-1.3c6.8-2.6,13.5-5.3,20.1-8.2
				c1.7-0.7,3.4-1.5,5.1-2.3c5.1-2.3,10.1-4.6,15-7.1c1.8-0.9,3.7-1.8,5.5-2.7c6.3-3.2,12.6-6.6,18.6-10.1c1.7-1,3.3-1.9,4.9-2.9
				c1.5-0.9,2.9-1.9,4.4-2.8c2.5-1.5,4.9-3.1,7.3-4.7c2.2-1.4,4.3-2.9,6.4-4.4c2.3-1.6,4.6-3.2,6.8-4.8c2-1.5,4-3,6-4.5
				c2.1-1.6,4.3-3.3,6.3-4.9c1.9-1.5,3.7-3.1,5.6-4.6c2-1.7,3.9-3.4,5.8-5.1c0.8-0.7,1.6-1.4,2.4-2.1c1.6-1.4,3-2.9,4.5-4.3
				c0.5-0.5,1.1-1,1.6-1.6c2.9-2.9,5.7-5.8,8.4-8.8c0.6-0.7,1.2-1.4,1.9-2.1c2.3-2.6,4.5-5.1,6.6-7.7c0.5-0.6,0.9-1.1,1.4-1.7
				c0.2-0.3,0.4-0.5,0.6-0.8c2.1-2.7,4.2-5.5,6.1-8.3c0.4-0.6,0.8-1.1,1.2-1.7c2.1-3,4.1-6.1,6-9.2c0.3-0.5,0.6-1,0.9-1.5
				c0.7-1.2,1.4-2.3,2.1-3.5c0.5-1,1-2,1.5-2.9c1.1-2,2.1-4,3.1-6.1c0.8-1.7,1.6-3.4,2.4-5.1c0.9-2,1.8-4.1,2.6-6.1
				c0.4-0.9,0.8-1.8,1.1-2.7c0.3-0.8,0.5-1.6,0.8-2.5c0.7-1.9,1.3-3.9,1.9-5.9c0.6-1.8,1.1-3.5,1.6-5.3c0.5-2,1-3.9,1.4-5.9
				c0.2-1.1,0.6-2.1,0.8-3.2c0.1-0.7,0.2-1.4,0.3-2.2c0.4-2,0.7-4,1-6c0.2-1.8,0.5-3.5,0.7-5.3c0.2-2,0.3-4.1,0.4-6.1
				c0.1-1.2,0.2-2.4,0.3-3.6c0-1.2,0.1-2.4,0.1-3.5l0.3-109.9C883.6,661.6,883.4,664,883.3,666.4z"/>
			<g>
				<linearGradient id="SVGID_2_" gradientUnits="userSpaceOnUse" x1="75.8518" y1="658.0735" x2="883.5718" y2="658.0735">
					<stop  offset="0" style="stop-color:#FFCB27"/>
					<stop  offset="1" style="stop-color:#FFA21E"/>
				</linearGradient>
				<path class="st6" d="M764.3,492.7c158.2,91.4,159.1,239.5,1.9,330.8c-157.2,91.4-412.9,91.4-571.2,0
					C36.9,732.1,36,584,193.2,492.6C350.4,401.3,606.1,401.3,764.3,492.7z"/>
			</g>
		</g>
	</g>
</g>
<g>
	<g class="st4">
		<linearGradient id="SVGID_3_" gradientUnits="userSpaceOnUse" x1="166.2257" y1="708.2578" x2="792.8859" y2="708.2578">
			<stop  offset="0" style="stop-color:#C6CAD0"/>
			<stop  offset="1" style="stop-color:#C0C9CF"/>
		</linearGradient>
		<path class="st7" d="M792.9,586.8c0,1.8-0.1,3.7-0.2,5.5c-0.1,1.6-0.2,3.2-0.3,4.7c-0.1,1.4-0.3,2.7-0.5,4.1
			c-0.2,1.6-0.4,3.1-0.7,4.7c-0.3,1.4-0.6,2.8-0.9,4.1c-0.3,1.5-0.7,3.1-1.1,4.6c-0.4,1.4-0.8,2.8-1.2,4.1c-0.5,1.5-1,3-1.5,4.5
			c-0.5,1.4-1,2.7-1.5,4c-0.6,1.6-1.3,3.2-2,4.7c-0.6,1.3-1.2,2.7-1.9,4c-0.8,1.6-1.6,3.1-2.4,4.7c-0.7,1.3-1.4,2.5-2.1,3.8
			c-1.1,1.9-2.2,3.7-3.4,5.5c-0.7,1.1-1.4,2.2-2.2,3.4c-1.4,2-2.9,4.1-4.4,6.1c-0.7,0.9-1.4,1.9-2.1,2.8c-0.3,0.4-0.7,0.9-1.1,1.3
			c-1.6,2-3.3,4-5.1,6c-0.5,0.5-1,1.1-1.5,1.6c-2.1,2.3-4.3,4.6-6.5,6.8c-0.4,0.4-0.8,0.8-1.2,1.2c-1.7,1.7-3.6,3.3-5.4,5
			c-1.5,1.3-3,2.6-4.5,3.9c-1.4,1.2-2.8,2.4-4.3,3.6c-1.6,1.3-3.2,2.6-4.9,3.8c-1.5,1.2-3.1,2.3-4.7,3.5c-1.7,1.3-3.5,2.5-5.3,3.7
			c-1.6,1.1-3.3,2.3-5,3.4c-1.9,1.2-3.8,2.4-5.7,3.6c-2.4,1.5-4.8,3-7.3,4.4c-4.7,2.7-9.5,5.3-14.4,7.8c-1.4,0.7-2.8,1.4-4.3,2.1
			c-3.8,1.9-7.7,3.7-11.6,5.5c-1.3,0.6-2.6,1.2-4,1.8c-5.1,2.2-10.3,4.4-15.6,6.4c-0.9,0.4-1.9,0.7-2.8,1c-4.5,1.7-9,3.3-13.6,4.8
			c-1.9,0.6-3.8,1.2-5.7,1.8c-2.5,0.8-5.1,1.6-7.6,2.3c-2.1,0.6-4.3,1.3-6.5,1.9c-2.6,0.7-5.2,1.4-7.8,2.1c-2.2,0.6-4.4,1.1-6.6,1.7
			c-2.6,0.6-5.3,1.2-8,1.8c-2.2,0.5-4.4,1-6.6,1.5c-2.7,0.6-5.4,1.1-8.2,1.6c-2.1,0.4-4.2,0.8-6.3,1.2c-5.9,1-11.8,2-17.7,2.8
			c-0.8,0.1-1.7,0.2-2.5,0.3c-5.2,0.7-10.4,1.3-15.6,1.9c-2,0.2-4,0.4-6,0.6c-3.4,0.3-6.7,0.6-10.1,0.8c-2.1,0.2-4.2,0.3-6.3,0.4
			c-3.5,0.2-7,0.4-10.5,0.5c-2,0.1-4,0.2-5.9,0.2c-3,0.1-6.1,0.1-9.2,0.2c-2.1,0-4.3,0.1-6.4,0.1c-3.3,0-6.5,0-9.8-0.1
			c-1.9,0-3.9,0-5.8-0.1c-3-0.1-6-0.2-9-0.4c-2.1-0.1-4.2-0.1-6.3-0.3c-3.2-0.2-6.5-0.4-9.7-0.7c-1.8-0.1-3.7-0.2-5.5-0.4
			c-4-0.3-8.1-0.7-12.1-1.2c-1-0.1-2-0.2-3-0.3c-5-0.6-10-1.2-15-1.9c-0.8-0.1-1.6-0.3-2.4-0.4c-4.2-0.6-8.5-1.3-12.7-2
			c-1.8-0.3-3.5-0.7-5.3-1c-3.2-0.6-6.5-1.2-9.7-1.8c-1.7-0.3-3.4-0.7-5-1.1c-3.5-0.8-7-1.5-10.5-2.4c-2-0.5-3.9-1-5.8-1.5
			c-3.2-0.8-6.4-1.6-9.5-2.5c-1.8-0.5-3.6-1-5.3-1.5c-5-1.5-9.9-3-14.8-4.6c-0.9-0.3-1.7-0.5-2.6-0.8c-5.6-1.9-11.1-3.9-16.6-6
			c-2.2-0.9-4.4-1.8-6.6-2.7c-1.7-0.7-3.5-1.4-5.2-2.2c-2.5-1.1-4.9-2.2-7.3-3.3c-1.6-0.7-3.2-1.4-4.8-2.2c-2.6-1.3-5.2-2.6-7.8-3.9
			c-1.3-0.7-2.6-1.3-3.9-1.9c-3.8-2-7.6-4.1-11.3-6.2c-61.8-35.7-92.6-82.5-92.5-129.2l-0.2,64.2c-0.1,46.7,30.7,93.5,92.5,129.2
			c3.7,2.1,7.5,4.2,11.3,6.2c1.3,0.7,2.6,1.3,3.9,2c2.6,1.3,5.1,2.6,7.8,3.8c1.6,0.7,3.2,1.5,4.8,2.2c2.4,1.1,4.8,2.2,7.3,3.2
			c1.7,0.7,3.5,1.4,5.2,2.2c1.7,0.7,3.3,1.4,5,2.1c0.5,0.2,1.1,0.4,1.6,0.6c5.4,2.1,11,4.2,16.6,6.1c0.9,0.3,1.7,0.5,2.6,0.8
			c4.9,1.6,9.8,3.2,14.8,4.6c0.8,0.2,1.6,0.5,2.5,0.8c1,0.3,1.9,0.5,2.9,0.8c3.2,0.9,6.3,1.7,9.5,2.5c1.9,0.5,3.9,1,5.8,1.5
			c3.5,0.8,7,1.6,10.5,2.4c1.3,0.3,2.6,0.6,3.9,0.9c0.4,0.1,0.7,0.1,1.1,0.2c3.2,0.7,6.4,1.2,9.7,1.8c1.8,0.3,3.5,0.7,5.3,1
			c4.2,0.7,8.4,1.4,12.7,2c0.8,0.1,1.5,0.3,2.3,0.4c0,0,0.1,0,0.1,0c5,0.7,10,1.3,15,1.9c1.1,0.1,2.2,0.2,3.3,0.3
			c3.9,0.4,7.8,0.8,11.8,1.1c0.1,0,0.2,0,0.3,0c1.7,0.1,3.4,0.2,5.1,0.3c3.3,0.2,6.5,0.5,9.8,0.7c2.1,0.1,4.1,0.2,6.2,0.3
			c3,0.1,6,0.3,9,0.4c0.2,0,0.5,0,0.7,0c1.7,0,3.4,0,5,0.1c3.3,0.1,6.5,0.1,9.8,0.1c2.1,0,4.2-0.1,6.4-0.1c3.1,0,6.1-0.1,9.2-0.2
			c0.6,0,1.1,0,1.7,0c1.4,0,2.8-0.2,4.2-0.2c3.5-0.1,7-0.3,10.6-0.5c2.1-0.1,4.2-0.3,6.3-0.4c3.4-0.2,6.7-0.5,10.1-0.8
			c1.2-0.1,2.4-0.2,3.5-0.3c0.8-0.1,1.6-0.2,2.4-0.3c5.2-0.5,10.4-1.2,15.6-1.9c0.8-0.1,1.7-0.2,2.5-0.3c5.9-0.8,11.9-1.8,17.7-2.8
			c0.6-0.1,1.1-0.2,1.7-0.3c1.6-0.3,3.1-0.6,4.6-0.9c2.7-0.5,5.5-1,8.2-1.6c2.2-0.5,4.4-1,6.6-1.4c2.7-0.6,5.3-1.2,8-1.8
			c2.2-0.5,4.4-1.1,6.6-1.7c2.6-0.7,5.2-1.4,7.8-2.1c2.2-0.6,4.4-1.2,6.5-1.9c2.5-0.8,5.1-1.5,7.6-2.3c1.1-0.3,2.2-0.7,3.4-1
			c0.8-0.3,1.6-0.6,2.3-0.8c4.6-1.5,9.1-3.1,13.6-4.8c0.9-0.3,1.9-0.7,2.8-1c5.3-2,10.5-4.1,15.6-6.4c1.3-0.6,2.6-1.2,4-1.8
			c3.9-1.8,7.8-3.6,11.6-5.5c1.4-0.7,2.8-1.4,4.3-2.1c4.9-2.5,9.7-5.1,14.4-7.8c1.3-0.7,2.6-1.5,3.8-2.3c1.2-0.7,2.3-1.5,3.4-2.2
			c1.9-1.2,3.8-2.4,5.7-3.6c1.7-1.1,3.4-2.3,5-3.4c1.8-1.2,3.6-2.5,5.3-3.7c1.6-1.2,3.1-2.3,4.7-3.5c1.7-1.3,3.3-2.5,4.9-3.8
			c1.5-1.2,2.9-2.4,4.3-3.6c1.5-1.3,3-2.6,4.5-3.9c0.6-0.5,1.3-1.1,1.9-1.6c1.2-1.1,2.4-2.2,3.5-3.4c0.4-0.4,0.8-0.8,1.3-1.2
			c2.3-2.2,4.4-4.5,6.5-6.8c0.5-0.5,1-1.1,1.5-1.6c1.8-2,3.5-4,5.1-6c0.4-0.4,0.7-0.9,1.1-1.3c0.2-0.2,0.3-0.4,0.5-0.6
			c0.6-0.7,1.1-1.5,1.6-2.2c1.5-2,3-4,4.4-6.1c0.8-1.1,1.5-2.2,2.2-3.4c1.2-1.8,2.4-3.7,3.4-5.6c0.3-0.5,0.6-1,0.9-1.5
			c0.4-0.8,0.8-1.5,1.2-2.3c0.8-1.6,1.7-3.1,2.4-4.7c0.6-1.3,1.3-2.6,1.8-4c0.7-1.6,1.4-3.2,2-4.7c0.3-0.7,0.6-1.4,0.9-2.1
			c0.2-0.6,0.4-1.3,0.6-1.9c0.5-1.5,1-3,1.5-4.5c0.4-1.4,0.8-2.8,1.2-4.1c0.4-1.5,0.8-3,1.1-4.6c0.2-0.8,0.4-1.6,0.6-2.5
			c0.1-0.6,0.2-1.1,0.3-1.7c0.3-1.6,0.5-3.1,0.7-4.7c0.2-1.4,0.4-2.7,0.5-4.1c0.2-1.6,0.3-3.1,0.3-4.7c0.1-0.9,0.2-1.8,0.2-2.8
			c0-0.9,0-1.8,0-2.8l0,0L792.9,586.8z"/>
		<g>
			<linearGradient id="SVGID_4_" gradientUnits="userSpaceOnUse" x1="166.4077" y1="585.8729" x2="792.8863" y2="585.8729">
				<stop  offset="0" style="stop-color:#FBFBFB"/>
				<stop  offset="1" style="stop-color:#FBFBFB"/>
			</linearGradient>
			<path class="st8" d="M700.4,457.6c122.7,70.8,123.4,185.7,1.4,256.6c-121.9,70.8-320.3,70.9-443,0
				c-122.7-70.9-123.4-185.7-1.4-256.6C379.4,386.7,577.7,386.7,700.4,457.6z"/>
		</g>
	</g>
</g>
<g>
	<linearGradient id="SVGID_5_" gradientUnits="userSpaceOnUse" x1="309.7055" y1="499.5593" x2="708.4855" y2="499.5593">
		<stop  offset="0" style="stop-color:#6386DB"/>
		<stop  offset="1" style="stop-color:#8EB0EC"/>
	</linearGradient>
	<path class="st9" d="M408.3,303c-1.1,2.8-4.2,53.4,9.2,80.5c1.2,2.3,2.4,4.7,3.6,7c0.4,0.8,0.9,1.6,1.4,2.3
		c0.9,1.5,1.7,3.1,2.6,4.6c0.6,0.9,1.2,1.8,1.7,2.7c0.9,1.4,1.7,2.7,2.6,4.1c0.6,1,1.3,1.9,2,2.9c0.9,1.3,1.7,2.6,2.7,3.8
		c0.7,1,1.5,2,2.2,3c0.9,1.2,1.8,2.5,2.8,3.7c0.8,1,1.6,2,2.4,3c0.9,1.2,1.9,2.4,2.9,3.6c0.8,1,1.7,2,2.5,3c1,1.2,2,2.3,3,3.5
		c0.9,1,1.8,2,2.7,2.9c1,1.1,2.1,2.3,3.1,3.4c0.5,0.6,1.1,1.1,1.6,1.7c2.8,2.9,5.6,5.7,8.5,8.5c0.3,0.3,0.5,0.5,0.8,0.8
		c3.1,2.9,6.2,5.7,9.4,8.5c0.7,0.6,1.3,1.2,2,1.8c2.9,2.4,5.8,4.9,8.7,7.2c0.3,0.2,0.5,0.4,0.8,0.6c2.8,2.2,5.6,4.3,8.4,6.4
		c0.8,0.6,1.6,1.2,2.4,1.7c3,2.2,6.1,4.3,9.2,6.4c0,0,0.1,0.1,0.1,0.1c3.1,2.1,6.3,4.1,9.6,6.1c0.8,0.5,1.6,1,2.4,1.5
		c3.5,2.1,7.1,4.2,10.7,6.2c0.3,0.1,0.5,0.3,0.8,0.4c3.4,1.9,6.9,3.7,10.4,5.4c0.9,0.4,1.7,0.9,2.6,1.3c1.6,0.8,3.2,1.5,4.8,2.3
		c1.1,0.5,2.2,1,3.3,1.5c1.7,0.8,3.5,1.5,5.2,2.2c1,0.4,2,0.9,3,1.3c2.1,0.9,4.2,1.7,6.3,2.5c0.7,0.3,1.3,0.5,2,0.8
		c2.8,1,5.5,2,8.3,2.9c2.5,0.8,4.9,1.6,7.4,2.4c0.7,0.2,1.3,0.4,2,0.6c1.8,0.5,3.6,1,5.4,1.5c0.9,0.2,1.8,0.5,2.7,0.7
		c1.6,0.4,3.1,0.8,4.7,1.2c1,0.2,2,0.4,2.9,0.7c1.5,0.3,3,0.6,4.5,0.9c1,0.2,2,0.4,3,0.6c1.5,0.3,3.1,0.5,4.6,0.8
		c0.9,0.1,1.9,0.3,2.8,0.4c1.6,0.2,3.3,0.4,4.9,0.6c0.8,0.1,1.6,0.2,2.4,0.3c2.4,0.2,4.8,0.5,7.2,0.6c2.2,0.1,4.4,0.2,6.5,0.3
		c0.7,0,1.4,0,2.1,0c1.4,0,2.8,0,4.2,0c0.6,0,1.1,0,1.6-0.1c1.8-0.1,3.5-0.1,5.2-0.2c0.8,0,1.5-0.1,2.2-0.2c1.5-0.1,3-0.3,4.5-0.4
		c0.7-0.1,1.4-0.2,2.1-0.3c1.7-0.2,3.3-0.5,4.9-0.8c0.4-0.1,0.9-0.1,1.3-0.2c2-0.4,4-0.8,5.9-1.3c0.3-0.1,0.6-0.2,0.9-0.2
		c2.9-0.8,5.8-1.6,8.5-2.6c0,0,0.1,0,0.1,0c2.7-1,5.3-2.1,7.8-3.3c0.2-0.1,0.4-0.2,0.6-0.3c2.1-1.1,4.2-2.2,6.2-3.4
		c0.4-0.2,0.7-0.4,1.1-0.7c1.9-1.2,3.7-2.5,5.5-3.8c0.3-0.2,0.6-0.5,0.9-0.8c1.7-1.4,3.4-2.8,4.9-4.3l-178.7,176l0,0l0,0
		c0,0,0,0,0,0c-1.2,1.2-2.5,2.3-3.9,3.4c-0.2,0.1-0.3,0.2-0.5,0.3c-0.5,0.4-1.1,0.8-1.7,1.2c-1.1,0.8-2.2,1.5-3.3,2.2
		c-0.7,0.4-1.4,0.8-2.1,1.2c-0.6,0.3-1.3,0.7-1.9,1.1c-0.5,0.2-1,0.4-1.5,0.6c-0.9,0.4-1.8,0.8-2.8,1.2c-1.2,0.5-2.4,0.9-3.6,1.3
		c-1,0.3-2,0.6-3,0.9c-0.5,0.2-1,0.3-1.6,0.5c-1.2,0.3-2.5,0.6-3.8,0.8c-0.2,0-0.4,0.1-0.6,0.1c-2.2,0.4-4.5,0.8-6.9,1
		c-0.5,0.1-1.1,0.1-1.6,0.2c-2.3,0.2-4.6,0.4-7.1,0.4c-0.1,0-0.2,0-0.4,0c-0.2,0-0.4,0-0.6,0c-2.8,0-5.6,0-8.6-0.2
		c-2.9-0.2-5.9-0.5-8.8-0.9c-0.4-0.1-0.9-0.1-1.3-0.2c-2.8-0.4-5.7-0.9-8.5-1.5c-0.5-0.1-1.1-0.2-1.6-0.3c-2.9-0.6-5.7-1.3-8.6-2.1
		c-0.4-0.1-0.8-0.2-1.2-0.3c-2.9-0.8-5.8-1.7-8.8-2.7c-0.1,0-0.2-0.1-0.3-0.1c0,0-0.1,0-0.1,0c-2-0.7-4-1.4-6-2.1
		c-0.5-0.2-1-0.4-1.5-0.6c-1.5-0.6-3-1.2-4.5-1.8c-0.7-0.3-1.5-0.6-2.2-0.9c-1.2-0.5-2.5-1.1-3.7-1.6c-0.8-0.4-1.6-0.7-2.4-1.1
		c-1.2-0.5-2.3-1.1-3.5-1.6c-0.3-0.1-0.6-0.3-0.9-0.4c-0.3-0.2-0.6-0.3-1-0.5c-2.5-1.3-5-2.5-7.5-3.9c-0.2-0.1-0.4-0.2-0.6-0.3
		c-2.6-1.4-5.2-2.9-7.7-4.5c-0.3-0.2-0.6-0.3-0.9-0.5c-0.3-0.2-0.6-0.4-0.9-0.5c-2.3-1.4-4.6-2.9-6.9-4.4c0,0-0.1,0-0.1-0.1
		c-2.2-1.5-4.5-3.1-6.6-4.6c-0.3-0.2-0.6-0.4-0.8-0.6c-0.3-0.2-0.6-0.4-0.9-0.7c-2.1-1.5-4.1-3-6.1-4.6c-0.2-0.1-0.4-0.3-0.5-0.4
		c-2.1-1.7-4.2-3.4-6.3-5.2c-0.2-0.2-0.5-0.4-0.7-0.6c-0.3-0.2-0.5-0.4-0.7-0.7c-2.3-2-4.6-4.1-6.8-6.2c-0.2-0.2-0.4-0.4-0.6-0.6
		c-2.1-2-4.1-4.1-6.1-6.1c-0.2-0.2-0.5-0.5-0.7-0.7c-0.2-0.2-0.3-0.3-0.5-0.5c-0.8-0.8-1.5-1.6-2.2-2.4c-0.6-0.7-1.3-1.4-1.9-2.1
		c-0.7-0.8-1.4-1.7-2.1-2.5c-0.6-0.7-1.2-1.4-1.8-2.1c-0.7-0.8-1.4-1.7-2.1-2.6c-0.6-0.7-1.2-1.4-1.7-2.2c-0.7-0.9-1.3-1.8-2-2.7
		c-0.5-0.7-1.1-1.4-1.6-2.1c-0.7-0.9-1.3-1.9-1.9-2.8c-0.5-0.7-1-1.4-1.4-2.1c-0.7-1-1.3-2-1.9-3c-0.4-0.7-0.8-1.3-1.2-2
		c-0.7-1.1-1.3-2.2-1.9-3.4c-0.3-0.5-0.6-1.1-0.9-1.6c-0.9-1.7-1.8-3.4-2.6-5c-1.1-2.2-2-4.3-3-6.5c-0.3-0.6-0.6-1.3-0.8-1.9
		c-0.2-0.4-0.3-0.8-0.5-1.2c-0.4-1-0.8-1.9-1.1-2.9c0,0,0-0.1,0-0.1c-0.8-2.3-1.5-4.6-2.1-6.9c-0.2-0.9-0.4-1.7-0.7-2.6
		c-0.5-2.1-0.9-4.1-1.2-6.1c0-0.1,0-0.1,0-0.2c-0.4-2.4-0.6-4.8-0.7-7.2c0-0.8,0-1.5,0-2.2c0-0.4,0-0.9,0-1.3c0-0.4,0-0.8,0-1.2
		c0.1-1.9,0.2-3.8,0.4-5.6c0-0.2,0.1-0.5,0.1-0.7c0.1-0.9,0.3-1.7,0.4-2.6c0-0.1,0-0.2,0.1-0.3c0.4-2,0.9-4,1.6-6
		c0.1-0.3,0.3-0.7,0.4-1c0.2-0.7,0.5-1.3,0.7-2c0-0.1-0.1-0.3-0.1-0.4L408.3,303z"/>
	<g>
		<g class="st4">
			<g>
				<linearGradient id="SVGID_6_" gradientUnits="userSpaceOnUse" x1="359.0342" y1="534.9055" x2="595.3361" y2="534.9055">
					<stop  offset="0" style="stop-color:#6386DB"/>
					<stop  offset="1" style="stop-color:#8EB0EC"/>
				</linearGradient>
				<path class="st10" d="M585.1,541.6c26.6,53.8-0.2,94.4-59.7,90.7c-59.6-3.7-129.4-50.2-156-104s0.2-94.4,59.7-90.7
					C488.6,441.2,558.5,487.8,585.1,541.6z"/>
			</g>
		</g>
	</g>
	<linearGradient id="SVGID_7_" gradientUnits="userSpaceOnUse" x1="327.633" y1="387.1802" x2="864.8585" y2="387.1802">
		<stop  offset="0" style="stop-color:#6386DB"/>
		<stop  offset="1" style="stop-color:#8EB0EC"/>
	</linearGradient>
	<path class="st11" d="M460.4,122.3c-1.5,3.7-5.7,72,12.4,108.5c1.6,3.2,3.2,6.3,4.9,9.4c0.6,1.1,1.2,2.1,1.8,3.2
		c1.2,2.1,2.3,4.1,3.6,6.2c0.7,1.2,1.6,2.5,2.3,3.7c1.2,1.8,2.3,3.7,3.5,5.5c0.9,1.3,1.8,2.6,2.7,3.9c1.2,1.7,2.3,3.5,3.6,5.2
		c1,1.3,2,2.7,2.9,4c1.2,1.7,2.4,3.3,3.7,5c1,1.4,2.1,2.7,3.2,4c1.3,1.6,2.5,3.2,3.8,4.8c1.1,1.3,2.3,2.7,3.4,4
		c1.3,1.6,2.7,3.1,4,4.7c1.2,1.3,2.4,2.6,3.6,4c1.4,1.5,2.8,3,4.2,4.5c0.7,0.8,1.4,1.5,2.2,2.2c3.7,3.9,7.5,7.7,11.5,11.5
		c0.4,0.4,0.7,0.7,1.1,1.1c4.1,3.9,8.4,7.7,12.7,11.5c0.9,0.8,1.8,1.6,2.7,2.4c3.9,3.3,7.8,6.5,11.7,9.7c0.3,0.3,0.7,0.5,1,0.8
		c3.7,2.9,7.5,5.8,11.3,8.6c1.1,0.8,2.1,1.6,3.2,2.4c4.1,2.9,8.2,5.8,12.4,8.6c0.1,0,0.1,0.1,0.2,0.1c4.2,2.8,8.5,5.5,12.9,8.2
		c1.1,0.7,2.2,1.3,3.2,2c4.8,2.9,9.5,5.7,14.4,8.3c0.4,0.2,0.7,0.4,1.1,0.6c4.6,2.5,9.3,4.9,14,7.3c1.1,0.6,2.3,1.2,3.4,1.7
		c2.2,1.1,4.3,2.1,6.5,3.1c1.5,0.7,3,1.4,4.5,2.1c2.3,1,4.7,2,7,3c1.4,0.6,2.7,1.2,4.1,1.8c2.8,1.2,5.6,2.3,8.5,3.3
		c0.9,0.3,1.8,0.7,2.7,1.1c3.7,1.4,7.5,2.7,11.2,4c3.3,1.1,6.7,2.2,10,3.2c0.9,0.3,1.8,0.5,2.7,0.8c2.4,0.7,4.9,1.4,7.3,2.1
		c1.2,0.3,2.5,0.6,3.7,0.9c2.1,0.5,4.2,1.1,6.3,1.6c1.3,0.3,2.6,0.6,4,0.9c2,0.4,4.1,0.9,6.1,1.3c1.3,0.3,2.7,0.5,4,0.7
		c2.1,0.4,4.1,0.7,6.2,1c1.3,0.2,2.5,0.4,3.8,0.6c2.2,0.3,4.4,0.6,6.6,0.8c1.1,0.1,2.1,0.3,3.2,0.4c3.3,0.3,6.5,0.6,9.8,0.8
		c3,0.2,5.9,0.3,8.8,0.4c1,0,1.9,0,2.8,0c1.9,0,3.8,0,5.7,0c0.8,0,1.5-0.1,2.2-0.1c2.4-0.1,4.7-0.2,7-0.3c1-0.1,2-0.2,3-0.2
		c2-0.2,4-0.4,6-0.6c1-0.1,1.9-0.2,2.9-0.4c2.2-0.3,4.4-0.7,6.6-1c0.6-0.1,1.2-0.2,1.8-0.3c2.7-0.5,5.4-1.1,7.9-1.8
		c0.4-0.1,0.8-0.2,1.2-0.3c3.9-1,7.8-2.2,11.4-3.5c0,0,0.1,0,0.1-0.1c3.7-1.3,7.1-2.8,10.5-4.4c0.3-0.1,0.5-0.2,0.8-0.4
		c2.9-1.4,5.6-3,8.3-4.6c0.5-0.3,1-0.6,1.5-0.9c2.6-1.6,5-3.3,7.3-5.1c0.4-0.3,0.8-0.7,1.3-1c2.3-1.9,4.5-3.8,6.6-5.8L624.1,629.8
		l0,0c0,0,0,0,0,0c0,0,0,0,0,0c-1.6,1.6-3.4,3.2-5.2,4.6c-0.2,0.2-0.4,0.3-0.6,0.5c-0.7,0.6-1.5,1.1-2.3,1.6c-1.5,1-2.9,2-4.5,3
		c-0.9,0.5-1.9,1.1-2.8,1.6c-0.9,0.5-1.7,1-2.6,1.4c-0.6,0.3-1.4,0.6-2,0.9c-1.2,0.6-2.5,1.1-3.7,1.6c-1.6,0.6-3.2,1.2-4.8,1.7
		c-1.3,0.4-2.7,0.9-4.1,1.3c-0.7,0.2-1.4,0.5-2.1,0.7c-1.7,0.4-3.4,0.8-5.1,1.1c-0.3,0.1-0.6,0.1-0.8,0.2c-3,0.6-6.1,1-9.3,1.4
		c-0.7,0.1-1.4,0.2-2.2,0.2c-3.1,0.3-6.3,0.5-9.5,0.6c-0.2,0-0.3,0-0.5,0c-0.3,0-0.6,0-0.8,0c-3.7,0-7.6,0-11.5-0.3
		c-3.9-0.2-7.9-0.7-11.9-1.2c-0.6-0.1-1.2-0.1-1.8-0.2c-3.8-0.5-7.6-1.2-11.5-2c-0.7-0.1-1.5-0.3-2.2-0.5c-3.9-0.8-7.7-1.7-11.6-2.8
		c-0.6-0.1-1.1-0.3-1.7-0.5c-3.9-1.1-7.9-2.3-11.8-3.6c-0.1,0-0.3-0.1-0.4-0.1c-0.1,0-0.1,0-0.2-0.1c-2.7-0.9-5.4-1.9-8.1-2.9
		c-0.7-0.2-1.3-0.5-2-0.8c-2-0.8-4.1-1.6-6.1-2.4c-1-0.4-2-0.8-3-1.3c-1.7-0.7-3.4-1.4-5-2.2c-1.1-0.5-2.2-1-3.3-1.5
		c-1.6-0.7-3.1-1.5-4.7-2.2c-0.4-0.2-0.8-0.4-1.2-0.6c-0.4-0.2-0.9-0.5-1.3-0.7c-3.4-1.7-6.7-3.4-10.1-5.2c-0.3-0.1-0.5-0.3-0.8-0.4
		c-3.5-1.9-6.9-3.9-10.4-6c-0.4-0.2-0.8-0.5-1.2-0.7c-0.4-0.2-0.8-0.5-1.2-0.7c-3.1-1.9-6.2-3.9-9.3-5.9c0,0-0.1-0.1-0.1-0.1
		c-3-2-6-4.1-9-6.2c-0.4-0.3-0.8-0.5-1.1-0.8c-0.4-0.3-0.8-0.6-1.2-0.9c-2.8-2-5.5-4.1-8.2-6.2c-0.2-0.2-0.5-0.4-0.7-0.6
		c-2.9-2.3-5.7-4.6-8.5-7c-0.3-0.3-0.7-0.5-1-0.8c-0.3-0.3-0.7-0.6-1-0.9c-3.1-2.7-6.2-5.5-9.2-8.3c-0.3-0.3-0.5-0.5-0.8-0.8
		c-2.8-2.7-5.6-5.5-8.3-8.3c-0.3-0.3-0.6-0.6-0.9-0.9c-0.2-0.2-0.4-0.5-0.6-0.7c-1-1.1-2-2.2-3-3.3c-0.9-0.9-1.7-1.9-2.6-2.9
		c-1-1.1-1.9-2.2-2.9-3.4c-0.8-1-1.7-1.9-2.5-2.9c-0.9-1.1-1.9-2.3-2.8-3.4c-0.8-1-1.6-1.9-2.3-2.9c-0.9-1.2-1.8-2.4-2.7-3.6
		c-0.7-1-1.4-1.9-2.1-2.9c-0.9-1.3-1.7-2.5-2.6-3.8c-0.6-0.9-1.3-1.8-1.9-2.8c-0.9-1.3-1.7-2.7-2.5-4c-0.6-0.9-1.1-1.8-1.7-2.6
		c-0.9-1.5-1.8-3-2.6-4.5c-0.4-0.7-0.8-1.4-1.2-2.2c-1.2-2.3-2.4-4.5-3.5-6.8c-1.5-2.9-2.8-5.9-4-8.7c-0.4-0.8-0.7-1.7-1.1-2.5
		c-0.2-0.5-0.4-1.1-0.6-1.6c-0.5-1.3-1-2.6-1.5-3.9c0,0,0-0.1,0-0.1c-1.1-3.1-2-6.2-2.9-9.3c-0.3-1.2-0.6-2.3-0.9-3.5
		c-0.7-2.8-1.2-5.6-1.7-8.3c0-0.1,0-0.2,0-0.3c-0.5-3.3-0.8-6.5-1-9.7c0-1,0-2-0.1-3c0-0.6,0-1.2,0-1.8c0-0.6,0-1.1,0.1-1.7
		c0.1-2.6,0.2-5.1,0.6-7.6c0-0.3,0.1-0.6,0.1-0.9c0.2-1.2,0.3-2.3,0.6-3.5c0-0.1,0.1-0.3,0.1-0.4c0.5-2.8,1.2-5.4,2.1-8
		c0.2-0.5,0.3-0.9,0.5-1.4c0.3-0.9,0.6-1.8,1-2.6c0-0.2-0.1-0.3-0.1-0.5L460.4,122.3z"/>
	<g>
		<g class="st4">
			<g>
				<linearGradient id="SVGID_8_" gradientUnits="userSpaceOnUse" x1="444.2697" y1="258.9522" x2="881.2992" y2="258.9522">
					<stop  offset="0" style="stop-color:#6386DB"/>
					<stop  offset="1" style="stop-color:#8EB0EC"/>
				</linearGradient>
				<path class="st12" d="M862.3,271.3c49.2,99.4-0.3,174.6-110.5,167.8c-110.2-6.8-239.4-92.9-288.5-192.4s0.3-174.6,110.5-167.8
					C683.9,85.7,813.1,171.8,862.3,271.3z"/>
			</g>
		</g>
	</g>
	<g>
		<g class="st4">
			<g>
				<linearGradient id="SVGID_9_" gradientUnits="userSpaceOnUse" x1="496.8912" y1="254.2099" x2="838.1627" y2="254.2099">
					<stop  offset="0" style="stop-color:#6386DB"/>
					<stop  offset="1" style="stop-color:#8EB0EC"/>
				</linearGradient>
				<path class="st13" d="M823.3,263.8c38.4,77.7-0.2,136.3-86.3,131c-86-5.3-186.9-72.6-225.3-150.2s0.2-136.3,86.3-131
					C684,118.9,784.9,186.2,823.3,263.8z"/>
			</g>
		</g>
	</g>
</g>
<linearGradient id="SVGID_10_" gradientUnits="userSpaceOnUse" x1="367.1325" y1="421.2965" x2="757.9658" y2="421.2965">
	<stop  offset="0" style="stop-color:#FFCB27"/>
	<stop  offset="1" style="stop-color:#FFA21E"/>
</linearGradient>
<path class="st14" d="M367.1,350.4c0.6,20.1,3.5,45.3,12,62.5c1.4,2.8,2.8,5.5,4.3,8.2c0.5,0.9,1.1,1.8,1.6,2.8c1,1.8,2,3.6,3.1,5.4
	c0.7,1.1,1.4,2.2,2,3.2c1,1.6,2,3.2,3.1,4.8c0.8,1.1,1.6,2.3,2.3,3.4c1,1.5,2.1,3,3.1,4.5c0.8,1.2,1.7,2.3,2.6,3.5
	c1.1,1.5,2.1,2.9,3.3,4.4c0.9,1.2,1.9,2.4,2.8,3.5c1.1,1.4,2.2,2.8,3.4,4.2c1,1.2,2,2.3,3,3.5c1.2,1.4,2.3,2.7,3.5,4.1
	c1,1.2,2.1,2.3,3.1,3.5c1.2,1.3,2.4,2.7,3.7,4c0.6,0.7,1.3,1.3,1.9,2c3.3,3.4,6.6,6.8,10,10c0.3,0.3,0.6,0.6,1,0.9
	c3.6,3.4,7.3,6.8,11.1,10.1c0.8,0.7,1.6,1.4,2.4,2.1c3.4,2.9,6.8,5.7,10.3,8.5c0.3,0.2,0.6,0.5,0.9,0.7c3.3,2.6,6.6,5.1,9.9,7.5
	c0.9,0.7,1.9,1.4,2.8,2.1c3.6,2.6,7.2,5.1,10.9,7.6c0,0,0.1,0.1,0.1,0.1c3.7,2.5,7.5,4.9,11.3,7.2c0.9,0.6,1.9,1.2,2.8,1.7
	c4.2,2.5,8.3,5,12.6,7.3c0.3,0.2,0.6,0.3,0.9,0.5c4,2.2,8.1,4.3,12.2,6.4c1,0.5,2,1,3,1.5c1.9,0.9,3.8,1.8,5.7,2.7
	c1.3,0.6,2.6,1.2,3.9,1.8c2,0.9,4.1,1.8,6.1,2.7c1.2,0.5,2.4,1,3.6,1.5c2.5,1,4.9,2,7.4,2.9c0.8,0.3,1.6,0.6,2.4,0.9
	c3.3,1.2,6.5,2.4,9.8,3.5c2.9,1,5.8,1.9,8.7,2.8c0.8,0.2,1.6,0.5,2.4,0.7c2.1,0.6,4.3,1.2,6.4,1.8c1.1,0.3,2.1,0.5,3.2,0.8
	c1.9,0.5,3.7,0.9,5.6,1.4c1.2,0.3,2.3,0.5,3.5,0.8c1.8,0.4,3.6,0.8,5.3,1.1c1.2,0.2,2.3,0.4,3.5,0.7c1.8,0.3,3.6,0.6,5.4,0.9
	c1.1,0.2,2.2,0.4,3.3,0.5c1.9,0.3,3.9,0.5,5.8,0.7c0.9,0.1,1.9,0.2,2.8,0.3c2.9,0.3,5.7,0.5,8.5,0.7c2.6,0.2,5.2,0.3,7.7,0.3
	c0.8,0,1.7,0,2.5,0c1.7,0,3.4,0,5,0c0.7,0,1.3-0.1,1.9-0.1c2.1-0.1,4.1-0.2,6.1-0.3c0.9-0.1,1.8-0.1,2.6-0.2
	c1.8-0.1,3.5-0.3,5.3-0.5c0.8-0.1,1.7-0.2,2.5-0.3c2-0.3,3.9-0.6,5.8-0.9c0.5-0.1,1.1-0.2,1.6-0.3c1.3-0.2,2.4-0.5,3.7-0.8
	l81.7-80.4c-1.8,1.8-3.8,3.5-5.8,5.1c-0.4,0.3-0.7,0.6-1.1,0.9c-2,1.6-4.2,3.1-6.4,4.5c-0.4,0.3-0.9,0.5-1.3,0.8
	c-2.3,1.4-4.7,2.8-7.3,4c-0.2,0.1-0.5,0.2-0.7,0.3c-2.9,1.4-6,2.7-9.2,3.9c0,0-0.1,0-0.1,0c-3.2,1.2-6.5,2.2-10,3.1
	c-0.3,0.1-0.7,0.2-1,0.3c-2.3,0.6-4.6,1.1-7,1.5c-0.5,0.1-1.1,0.2-1.6,0.3c-1.9,0.3-3.8,0.6-5.8,0.9c-0.8,0.1-1.7,0.2-2.5,0.3
	c-1.7,0.2-3.5,0.4-5.3,0.5c-0.9,0.1-1.8,0.1-2.6,0.2c-2,0.1-4.1,0.2-6.1,0.3c-0.7,0-1.3,0.1-1.9,0.1c-1.6,0-3.3,0-5,0
	c-0.8,0-1.6,0-2.5,0c-2.5-0.1-5.1-0.2-7.7-0.3c-2.8-0.2-5.7-0.4-8.5-0.7c-0.9-0.1-1.9-0.2-2.8-0.3c-1.9-0.2-3.9-0.5-5.8-0.7
	c-1.1-0.2-2.2-0.3-3.3-0.5c-1.8-0.3-3.6-0.6-5.4-0.9c-1.2-0.2-2.3-0.4-3.5-0.7c-1.8-0.3-3.6-0.7-5.3-1.1c-1.2-0.3-2.3-0.5-3.5-0.8
	c-1.9-0.4-3.7-0.9-5.6-1.4c-1.1-0.3-2.1-0.5-3.2-0.8c-2.1-0.6-4.3-1.2-6.4-1.8c-0.8-0.2-1.6-0.4-2.4-0.7c-2.9-0.9-5.8-1.8-8.7-2.8
	c-3.3-1.1-6.5-2.3-9.8-3.5c-0.8-0.3-1.6-0.6-2.4-0.9c-2.5-0.9-4.9-1.9-7.4-2.9c-1.2-0.5-2.4-1-3.6-1.5c-2-0.9-4.1-1.7-6.1-2.7
	c-1.3-0.6-2.6-1.2-3.9-1.8c-1.9-0.9-3.8-1.8-5.7-2.7c-1-0.5-2-1-3-1.5c-4.1-2-8.2-4.2-12.2-6.4c-0.3-0.2-0.6-0.3-0.9-0.5
	c-4.2-2.3-8.4-4.8-12.6-7.3c-1-0.6-1.9-1.1-2.8-1.7c-3.8-2.3-7.6-4.7-11.3-7.2c0,0-0.1-0.1-0.1-0.1c-3.7-2.4-7.3-5-10.9-7.6
	c-0.9-0.7-1.9-1.4-2.8-2.1c-3.3-2.5-6.7-5-9.9-7.5c-0.3-0.2-0.6-0.5-0.9-0.7c-3.5-2.8-6.9-5.6-10.3-8.5c-0.8-0.7-1.6-1.4-2.4-2.1
	c-3.8-3.3-7.5-6.6-11.1-10.1c-0.3-0.3-0.6-0.6-1-0.9c-3.4-3.3-6.8-6.6-10-10c-0.6-0.7-1.3-1.3-1.9-2c-1.2-1.3-2.4-2.7-3.7-4
	c-1-1.2-2.1-2.3-3.1-3.5c-1.2-1.4-2.4-2.7-3.5-4.1c-1-1.2-2-2.3-3-3.5c-1.1-1.4-2.3-2.8-3.4-4.2c-0.9-1.2-1.9-2.3-2.8-3.5
	c-1.1-1.4-2.2-2.9-3.3-4.4c-0.9-1.2-1.7-2.3-2.6-3.5c-1.1-1.5-2.1-3-3.1-4.5c-0.8-1.1-1.6-2.3-2.3-3.4c-1.1-1.6-2-3.2-3.1-4.8
	c-0.7-1.1-1.4-2.2-2-3.2c-1.1-1.8-2.1-3.6-3.1-5.4c-0.5-0.9-1.1-1.8-1.6-2.8c-1.5-2.7-2.9-5.5-4.3-8.2c-15.8-32-12.2-91.7-10.9-95
	L367.1,350.4z"/>
<linearGradient id="SVGID_11_" gradientUnits="userSpaceOnUse" x1="713.7726" y1="567.9423" x2="990.8964" y2="567.9423">
	<stop  offset="0" style="stop-color:#FFCB27"/>
	<stop  offset="1" style="stop-color:#FFA21E"/>
</linearGradient>
<path class="st15" d="M713.8,692.9c0,0,41.6-222.9,231.6-250c0,0,42.3-0.8,45.5,39c0,0-1.7,35.5-59.3,41.9
	C931.6,523.9,778.6,540.9,713.8,692.9z"/>
<linearGradient id="SVGID_12_" gradientUnits="userSpaceOnUse" x1="20.0229" y1="318.3851" x2="297.1467" y2="318.3851">
	<stop  offset="0" style="stop-color:#FFCB27"/>
	<stop  offset="1" style="stop-color:#FFA21E"/>
</linearGradient>
<path class="st16" d="M297.1,443.4c0,0-41.6-222.9-231.6-250c0,0-42.3-0.8-45.5,39c0,0,1.7,35.5,59.3,41.9
	C79.3,274.3,232.3,291.4,297.1,443.4z"/>
<linearGradient id="SVGID_13_" gradientUnits="userSpaceOnUse" x1="310.8442" y1="135.862" x2="414.3995" y2="135.862" gradientTransform="matrix(0.9993 -3.781059e-02 3.781059e-02 0.9993 -35.8774 6.6859)">
	<stop  offset="0" style="stop-color:#FFCB27"/>
	<stop  offset="1" style="stop-color:#FFA21E"/>
</linearGradient>
<path class="st17" d="M333.4,36.6c18.1,18.3,62.2,76.2,50.2,197.7c0,0,2.9-108.4-79.4-150.7c-11.1-5-16.6-10.4-16.6-10.4
	c-7.9-8.4-18.6-25.3-2.1-44.3c0,0,10.1-12.7,34-2.2C319.4,26.6,327.5,30.8,333.4,36.6z"/>
<linearGradient id="SVGID_14_" gradientUnits="userSpaceOnUse" x1="488.3004" y1="2.0015" x2="591.8557" y2="2.0015" gradientTransform="matrix(0.9073 0.4204 -0.4204 0.9073 435.9609 -22.5567)">
	<stop  offset="0" style="stop-color:#FFCB27"/>
	<stop  offset="1" style="stop-color:#FFA21E"/>
</linearGradient>
<path class="st18" d="M959,120.6c-23.7,9.9-86.8,46.3-122.6,163c0,0,39.1-101.2,131.4-108.4c12.2-0.4,19.3-3.2,19.3-3.2
	c10.6-4.7,26.9-16.1,19.1-40.1c0,0-4.4-15.7-30.5-15.1C975.8,116.8,966.8,117.5,959,120.6z"/>
</svg>
