<?xml version="1.0" encoding="utf-8"?>
<!-- Generator: Adobe Illustrator 21.0.0, SVG Export Plug-In . SVG Version: 6.00 Build 0)  -->
<svg version="1.1" id="图层_1" xmlns="http://www.w3.org/2000/svg" xmlns:xlink="http://www.w3.org/1999/xlink" x="0px" y="0px"
	 viewBox="0 0 1024 1024" style="enable-background:new 0 0 1024 1024;" xml:space="preserve">
<style type="text/css">
	.st0{display:none;}
	.st1{display:inline;}
	.st2{opacity:0.25;}
	.st3{display:inline;opacity:0.25;}
	.st4{enable-background:new    ;}
	.st5{fill:url(#SVGID_1_);}
	.st6{fill:url(#SVGID_2_);}
	.st7{fill:url(#SVGID_3_);}
	.st8{fill:url(#SVGID_4_);}
	.st9{fill:url(#SVGID_8_);}
	.st10{fill:url(#SVGID_9_);}
	.st11{fill:url(#SVGID_10_);}
	.st12{fill:url(#SVGID_11_);}
	.st13{fill:url(#SVGID_12_);}
	.st14{fill:url(#SVGID_13_);}
	.st15{fill:url(#SVGID_14_);}
	.st16{fill:url(#SVGID_15_);}
	.st17{fill:url(#SVGID_16_);}
	.st18{fill:url(#SVGID_17_);}
	.st19{fill:url(#SVGID_18_);}
	.st20{fill:url(#SVGID_19_);}
	.st21{fill:url(#SVGID_20_);}
	.st22{fill:url(#SVGID_21_);}
	.st23{fill:url(#SVGID_22_);}
	.st24{fill:#F7AEB0;}
	.st25{fill:#242100;}
	.st26{fill:#536FFF;}
</style>
<g id="图层_1_1_" class="st0">
	<g id="bg" class="st1">
		<g id="图层_2">
			<g id="图标参考线">
				<g id="图标尺寸" class="st2">
					<path d="M1018.2,5.8v1012.5H5.8V5.8H1018.2 M1024,0H0v1024h1024V0z"/>
					<path d="M512,28.8c266.9,0,483.2,216.4,483.2,483.2S778.9,995.2,512,995.2S28.8,778.9,28.8,512S245.1,28.8,512,28.8 M512,23
						C241.9,23,23,241.9,23,512s218.9,489,489,489s489-218.9,489-489C1000.7,242,782,23.3,512,23z"/>
					<path d="M949.2,74.8v874.4H74.8V74.8H949.2 M955,69H69v886h886V69z"/>
					<path d="M995.2,28.8v966.5H28.8V28.8H995.2 M1001,23H23v978h978V23z"/>
					<path d="M995.2,189.8v644.3H28.8V189.8H995.2 M1001,184.1H23v655.8h978V184.1z"/>
				</g>
			</g>
		</g>
	</g>
	<g id="图标尺寸_1_" class="st3">
		<g>
			<path d="M1017.1,4.6v1010.2H6.9V4.6H1017.1 M1021.7,0h-6.9H4.6H0v6.9v1010.2v6.9h6.9h1010.2h6.9v-6.9V6.9V0H1021.7z"/>
		</g>
		<g>
			<path d="M512,27.6c266.3,0,482.2,215.8,482.2,482.2S778.3,991.9,512,991.9S29.8,776.1,29.8,509.7S245.7,27.6,512,27.6 M512,23
				C243.4,23,23,241.1,23,509.7s218.1,486.7,489,486.7s489-218.1,489-486.7S780.6,23,512,23L512,23z"/>
		</g>
		<g>
			<path d="M948.2,73.5V946H75.8V73.5H948.2 M952.8,68.9h-6.9H73.5h-4.6v6.9v872.5v6.9h6.9h872.5h6.9v-6.9V75.8v-6.9H952.8z"/>
		</g>
		<g>
			<path d="M994.1,27.6v964.3H29.8V27.6H994.1 M998.7,23h-6.9H27.5h-4.6v6.9v964.3v6.9h6.9h964.3h6.9v-6.9V29.9V23H998.7z"/>
		</g>
		<g>
			<path d="M994.1,188.3v642.9H29.8V188.3H994.1 M998.7,183.7h-6.9H27.5h-4.6v4.6v642.9v6.9h6.9h964.3h6.9v-6.9V188.3v-4.6H998.7z"
				/>
		</g>
	</g>
</g>
<g>
	<g class="st4">
		<linearGradient id="SVGID_1_" gradientUnits="userSpaceOnUse" x1="43.3514" y1="836.2836" x2="989.1401" y2="836.2836">
			<stop  offset="0" style="stop-color:#C6CAD0"/>
			<stop  offset="1" style="stop-color:#C0C9CF"/>
		</linearGradient>
		<path class="st5" d="M989,670.5c-0.1,0.7-0.1,1.4-0.2,2c-0.1,0.6-0.3,1.1-0.4,1.6c-0.2,0.6-0.3,1.3-0.6,1.9
			c-0.2,0.5-0.4,1-0.7,1.6c-0.3,0.7-0.6,1.3-0.9,2c-0.3,0.5-0.6,1-0.9,1.4c-0.5,0.8-1,1.5-1.5,2.2c-0.3,0.4-0.7,0.9-1,1.3
			c-0.8,1-1.7,2-2.7,2.9c-0.4,0.3-0.7,0.7-1.1,1c-0.6,0.6-1.3,1.1-2,1.6c-0.6,0.5-1.2,1-1.8,1.4c-0.7,0.5-1.5,1-2.3,1.5
			c-0.8,0.5-1.6,1.1-2.4,1.6L563.3,931.4c-1.9,1.1-4,2.1-6.1,3.1c-0.6,0.3-1.2,0.5-1.8,0.8c-1.6,0.7-3.3,1.3-5.1,1.9
			c-0.6,0.2-1.2,0.4-1.8,0.6c-1.1,0.3-2.2,0.6-3.3,0.9c-0.8,0.2-1.7,0.5-2.5,0.7c-1.2,0.3-2.4,0.5-3.6,0.8c-0.8,0.2-1.6,0.3-2.4,0.5
			c-2.4,0.4-4.8,0.8-7.3,1c-0.8,0.1-1.5,0.1-2.3,0.2c-1.4,0.1-2.9,0.2-4.3,0.3c-0.9,0-1.9,0.1-2.8,0.1c-1.2,0-2.3,0-3.5,0
			c-1,0-2,0-2.9-0.1c-1.1,0-2.2-0.1-3.3-0.2c-1-0.1-2-0.2-3-0.2c-1.1-0.1-2.1-0.2-3.2-0.4c-1-0.1-1.9-0.3-2.9-0.4
			c-1.1-0.2-2.3-0.4-3.4-0.6c-0.9-0.2-1.8-0.3-2.7-0.5c-1.3-0.3-2.7-0.6-4-1c-0.7-0.2-1.5-0.4-2.2-0.6c-2.4-0.7-4.7-1.5-6.9-2.3
			c-1.1-0.4-2.2-0.9-3.2-1.4c-0.6-0.2-1.1-0.5-1.7-0.7c-1.6-0.8-3.2-1.6-4.7-2.5L62.5,694.8c-12.7-7.3-19-16.9-19-26.5l-0.2,61.9
			c0,9.6,6.3,19.2,19,26.5l409.9,236.6c1.5,0.9,3.1,1.7,4.7,2.5c0.5,0.3,1.1,0.5,1.6,0.7c1,0.4,1.9,0.9,2.9,1.3
			c0.1,0,0.2,0.1,0.4,0.1c2.2,0.9,4.5,1.6,6.9,2.3c0.2,0.1,0.4,0.1,0.6,0.2c0.5,0.2,1.1,0.3,1.6,0.4c1.3,0.3,2.6,0.7,4,1
			c0.4,0.1,0.7,0.2,1.1,0.3c0.5,0.1,1.1,0.2,1.6,0.3c1.1,0.2,2.3,0.4,3.4,0.6c0.5,0.1,0.9,0.2,1.4,0.2c0.5,0.1,1,0.1,1.5,0.2
			c1.1,0.1,2.1,0.3,3.2,0.4c0.5,0,1,0.1,1.5,0.2c0.5,0,1,0,1.4,0.1c1.1,0.1,2.2,0.1,3.3,0.2c0.5,0,1.1,0.1,1.6,0.1
			c0.4,0,0.9,0,1.3,0c1.2,0,2.3,0,3.5,0c0.6,0,1.2,0,1.7,0c0.3,0,0.7-0.1,1-0.1c1.5-0.1,2.9-0.2,4.3-0.3c0.6,0,1.2-0.1,1.7-0.1
			c0.2,0,0.4-0.1,0.5-0.1c2.5-0.3,4.9-0.6,7.3-1c0.1,0,0.2,0,0.4,0c0.7-0.1,1.4-0.3,2.1-0.4c1.2-0.2,2.4-0.5,3.6-0.8
			c0.8-0.2,1.7-0.4,2.5-0.7c1.1-0.3,2.2-0.6,3.3-1c0.2-0.1,0.5-0.1,0.7-0.2c0.4-0.1,0.7-0.3,1.1-0.4c1.7-0.6,3.4-1.2,5.1-1.9
			c0.6-0.3,1.2-0.5,1.8-0.8c2.1-0.9,4.1-2,6.1-3.1l407.2-236.6c0.3-0.2,0.5-0.3,0.8-0.5c0.6-0.4,1.1-0.7,1.7-1.1
			c0.8-0.5,1.6-1,2.3-1.5c0.6-0.5,1.2-0.9,1.8-1.4c0.7-0.5,1.4-1.1,2-1.6c0.1-0.1,0.3-0.2,0.4-0.3c0.3-0.2,0.4-0.5,0.7-0.7
			c1-1,1.9-1.9,2.7-2.9c0.2-0.2,0.4-0.4,0.6-0.6c0.2-0.2,0.3-0.4,0.4-0.7c0.6-0.7,1-1.5,1.5-2.2c0.2-0.3,0.5-0.6,0.6-0.9
			c0.1-0.2,0.1-0.3,0.2-0.5c0.4-0.7,0.6-1.3,0.9-2c0.2-0.4,0.4-0.8,0.5-1.2c0-0.1,0.1-0.3,0.1-0.4c0.2-0.6,0.4-1.3,0.6-1.9
			c0.1-0.4,0.3-0.9,0.4-1.3c0-0.1,0-0.2,0-0.3c0.1-0.7,0.2-1.4,0.2-2c0-0.4,0.1-0.9,0.1-1.3c0-0.2,0-0.4,0-0.6l0.2-61.9
			C989.1,669.3,989,669.9,989,670.5z"/>
		<g>
			<linearGradient id="SVGID_2_" gradientUnits="userSpaceOnUse" x1="43.527" y1="668.496" x2="989.1404" y2="668.496">
				<stop  offset="0" style="stop-color:#D7D8D5"/>
				<stop  offset="1" style="stop-color:#F6F6F9"/>
			</linearGradient>
			<path class="st6" d="M970.2,642.2c25.2,14.5,25.3,38.1,0.3,52.7L563.3,931.4c-25,14.6-65.7,14.6-90.9,0L62.5,694.8
				c-25.2-14.5-25.3-38.1-0.3-52.7l407.2-236.6c25-14.5,65.7-14.6,90.9,0L970.2,642.2z"/>
		</g>
	</g>
</g>
<g>
	<g class="st4">
		<linearGradient id="SVGID_3_" gradientUnits="userSpaceOnUse" x1="118.5987" y1="380.6929" x2="621.5588" y2="380.6929">
			<stop  offset="0" style="stop-color:#8EB0EC"/>
			<stop  offset="1" style="stop-color:#6386DB"/>
		</linearGradient>
		<path class="st7" d="M603.5,46c0.8-0.3,1.6-0.6,2.3-0.8c0.5-0.1,1-0.3,1.5-0.4c0.5-0.1,0.9-0.2,1.3-0.3c0.6-0.1,1.2-0.2,1.8-0.3
			c0.3,0,0.7-0.1,1-0.1c0.7-0.1,1.5-0.1,2.2,0c0.1,0,0.3,0,0.4,0c0.8,0,1.7,0.2,2.4,0.3c0.2,0,0.4,0.1,0.6,0.1
			c0.6,0.1,1.2,0.3,1.8,0.5c0.2,0.1,0.4,0.1,0.6,0.2c0.8,0.3,1.5,0.6,2.2,1l-35.8-20.8c-0.1,0-0.1-0.1-0.2-0.1
			c-0.5-0.3-1.1-0.6-1.7-0.8c-0.1,0-0.2-0.1-0.3-0.1c-0.2-0.1-0.4-0.1-0.6-0.2c-0.3-0.1-0.6-0.2-0.9-0.3c-0.3-0.1-0.6-0.1-0.9-0.2
			c-0.2,0-0.4-0.1-0.6-0.1c-0.1,0-0.2-0.1-0.3-0.1c-0.7-0.1-1.3-0.2-2-0.2c0,0-0.1,0-0.1,0c-0.1,0-0.3,0-0.4,0c-0.5,0-1.1,0-1.7,0
			c-0.2,0-0.3,0-0.5,0.1c-0.3,0-0.7,0.1-1,0.1c-0.3,0-0.6,0-1,0.1c-0.3,0-0.5,0.1-0.8,0.2c-0.4,0.1-0.9,0.2-1.3,0.3
			c-0.3,0.1-0.5,0.1-0.8,0.2c-0.2,0.1-0.5,0.2-0.7,0.3c-0.8,0.2-1.5,0.5-2.3,0.8c-0.3,0.1-0.5,0.2-0.8,0.3c-0.2,0.1-0.3,0.2-0.5,0.2
			c-1.4,0.6-2.7,1.2-4.1,2L151.6,264.8c-1.7,1-3.4,2.2-5.1,3.5c-0.3,0.2-0.6,0.4-0.9,0.7c-1.6,1.3-3.1,2.6-4.6,4.1
			c-0.1,0.1-0.3,0.2-0.4,0.3c-0.2,0.2-0.5,0.5-0.7,0.8c-0.7,0.8-1.5,1.5-2.2,2.3c-0.2,0.3-0.5,0.5-0.7,0.7c-0.2,0.2-0.4,0.5-0.6,0.7
			c-0.4,0.5-0.9,1-1.3,1.6c-0.3,0.3-0.6,0.7-0.8,1c-0.2,0.3-0.4,0.6-0.7,0.9c-0.3,0.4-0.6,0.8-0.9,1.3c-0.2,0.3-0.4,0.6-0.6,0.8
			c-0.4,0.5-0.7,1-1,1.5c-0.2,0.3-0.4,0.6-0.6,1c-0.1,0.1-0.2,0.3-0.3,0.4c-0.6,0.9-1.2,1.9-1.7,2.8c0,0.1-0.1,0.1-0.1,0.2
			c-0.1,0.2-0.2,0.4-0.3,0.6c-0.4,0.7-0.8,1.4-1.1,2c-0.2,0.3-0.3,0.6-0.5,0.9c-0.2,0.3-0.3,0.7-0.5,1c-0.1,0.3-0.3,0.6-0.4,0.9
			c-0.4,0.7-0.7,1.5-1,2.2c-0.1,0.2-0.2,0.3-0.2,0.5c0,0,0,0.1-0.1,0.1c-0.4,1-0.8,2-1.2,3c-0.1,0.2-0.1,0.3-0.2,0.5
			c-0.1,0.4-0.3,0.7-0.4,1.1c-0.2,0.5-0.4,1-0.6,1.5c-0.1,0.4-0.2,0.7-0.3,1.1c-0.1,0.5-0.3,0.9-0.4,1.4c-0.1,0.3-0.2,0.6-0.3,0.9
			c-0.1,0.5-0.2,1-0.4,1.5c-0.1,0.6-0.3,1.1-0.4,1.7c0,0.2-0.1,0.4-0.2,0.6c-0.1,0.4-0.1,0.8-0.2,1.2c-0.2,0.9-0.3,1.7-0.4,2.6
			c0,0.3-0.1,0.5-0.1,0.8c0,0.2,0,0.4,0,0.7c-0.2,1.9-0.4,3.9-0.4,5.7l1.1,374.2c0,10.4,3.7,17.7,9.7,21.2l35.8,20.8
			c-5.9-3.5-9.6-10.8-9.7-21.2l-1.1-374.2c0-1.9,0.1-3.8,0.4-5.7c0.1-0.5,0.1-0.9,0.2-1.4c0.1-0.9,0.3-1.7,0.4-2.6
			c0.1-0.6,0.2-1.2,0.4-1.8c0.1-0.6,0.3-1.1,0.4-1.7c0.2-0.8,0.4-1.6,0.6-2.4c0.1-0.5,0.3-0.9,0.4-1.4c0.3-0.9,0.6-1.8,0.9-2.7
			c0.1-0.4,0.3-0.7,0.4-1.1c0.5-1.2,0.9-2.4,1.5-3.6c0.1-0.2,0.2-0.3,0.2-0.5c0.5-1.1,1-2.1,1.5-3.1c0.2-0.3,0.3-0.7,0.5-1
			c0.5-1,1.1-2,1.6-3c0.1-0.2,0.2-0.4,0.3-0.6c0.7-1.2,1.4-2.3,2.1-3.4c0.2-0.3,0.4-0.6,0.6-1c0.5-0.8,1.1-1.6,1.6-2.4
			c0.3-0.4,0.6-0.8,0.9-1.3c0.5-0.6,1-1.3,1.5-1.9c0.4-0.5,0.9-1.1,1.3-1.6c0.4-0.5,0.8-1,1.3-1.4c0.7-0.8,1.5-1.6,2.2-2.3
			c0.4-0.4,0.7-0.7,1.1-1.1c1.5-1.5,3-2.8,4.6-4.1c0.3-0.2,0.6-0.4,0.9-0.7c1.7-1.3,3.4-2.5,5.1-3.5L598,48.5c1.4-0.8,2.8-1.5,4.1-2
			C602.6,46.3,603,46.1,603.5,46z"/>
		<g>
			<linearGradient id="SVGID_4_" gradientUnits="userSpaceOnUse" x1="154.4267" y1="392.2239" x2="632.3134" y2="392.2239">
				<stop  offset="0" style="stop-color:#6386DB"/>
				<stop  offset="1" style="stop-color:#8EB0EC"/>
			</linearGradient>
			<path class="st8" d="M598,48.5c18.2-10.5,33.1-2,33.2,19l1.1,374.2c0.1,20.9-14.8,46.6-33,57.1L188.7,735.9
				c-18.2,10.5-33.2,2-33.2-18.9l-1.1-374.2c-0.1-20.9,14.8-46.7,33-57.2L598,48.5z"/>
		</g>
	</g>
</g>
<g>
	<g class="st4">
		<defs>
			<path id="SVGID_5_" class="st4" d="M577.5,106.1c15.6-9,28.4-1.7,28.4,16.2l0.9,302.1c0.1,17.9-12.7,39.9-28.3,49L206.6,688
				c-15.6,9-28.4,1.7-28.4-16.2l-0.9-302.1c-0.1-17.9,12.7-39.9,28.3-48.9L577.5,106.1z"/>
		</defs>
		<linearGradient id="SVGID_6_" gradientUnits="userSpaceOnUse" x1="177.2562" y1="397.0228" x2="606.7756" y2="397.0228">
			<stop  offset="0" style="stop-color:#8EB0EC"/>
			<stop  offset="1" style="stop-color:#6386DB"/>
		</linearGradient>
		<use xlink:href="#SVGID_5_"  style="overflow:visible;fill:url(#SVGID_6_);"/>
		<clipPath id="SVGID_7_">
			<use xlink:href="#SVGID_5_"  style="overflow:visible;"/>
		</clipPath>
	</g>
</g>
<g>
	<linearGradient id="SVGID_8_" gradientUnits="userSpaceOnUse" x1="216.9512" y1="303.5653" x2="567.2086" y2="303.5653">
		<stop  offset="0" style="stop-color:#FBFBFB"/>
		<stop  offset="1" style="stop-color:#FBFBFB"/>
	</linearGradient>
	<path class="st9" d="M551.9,192.9c8.4-4.8,15.2-0.9,15.3,8.7l0,1.8c0,9.6-6.8,21.4-15.2,26.2L232.2,414.3c-8.4,4.8-15.2,1-15.3-8.7
		l0-1.8c0-9.6,6.8-21.4,15.2-26.3L551.9,192.9z"/>
</g>
<g>
	<linearGradient id="SVGID_9_" gradientUnits="userSpaceOnUse" x1="228.4989" y1="396.1983" x2="578.7565" y2="396.1983">
		<stop  offset="0" style="stop-color:#FBFBFB"/>
		<stop  offset="1" style="stop-color:#FBFBFB"/>
	</linearGradient>
	<path class="st10" d="M563.5,285.5c8.4-4.8,15.2-0.9,15.3,8.7l0,1.8c0,9.6-6.8,21.4-15.2,26.3L243.8,506.9
		c-8.4,4.8-15.2,0.9-15.3-8.7l0-1.8c0-9.6,6.8-21.4,15.2-26.2L563.5,285.5z"/>
</g>
<g>
	<linearGradient id="SVGID_10_" gradientUnits="userSpaceOnUse" x1="232.0099" y1="488.7939" x2="582.2675" y2="488.7939">
		<stop  offset="0" style="stop-color:#FBFBFB"/>
		<stop  offset="1" style="stop-color:#FBFBFB"/>
	</linearGradient>
	<path class="st11" d="M567,378.1c8.4-4.8,15.2-0.9,15.3,8.7l0,1.8c0,9.6-6.8,21.4-15.2,26.2L247.3,599.5
		c-8.4,4.8-15.2,0.9-15.3-8.7l0-1.8c0-9.6,6.8-21.4,15.2-26.3L567,378.1z"/>
</g>
<g>
	<g class="st4">
		<g>
			<linearGradient id="SVGID_11_" gradientUnits="userSpaceOnUse" x1="467.5332" y1="593.0408" x2="589.9105" y2="593.0408">
				<stop  offset="0" style="stop-color:#FFCB27"/>
				<stop  offset="1" style="stop-color:#FFA21E"/>
			</linearGradient>
			<polygon class="st12" points="547,653.3 467.5,607.1 510.4,532.8 589.9,579 			"/>
		</g>
		<g>
			<linearGradient id="SVGID_12_" gradientUnits="userSpaceOnUse" x1="467.6034" y1="543.6945" x2="589.9104" y2="543.6945">
				<stop  offset="0" style="stop-color:#FFCB27"/>
				<stop  offset="1" style="stop-color:#FFA21E"/>
			</linearGradient>
			<polygon class="st13" points="547.1,554.6 467.6,508.4 510.4,532.8 589.9,579 			"/>
		</g>
		<g>
			<linearGradient id="SVGID_13_" gradientUnits="userSpaceOnUse" x1="467.6033" y1="435.0369" x2="658.5005" y2="435.0369">
				<stop  offset="0" style="stop-color:#FFCB27"/>
				<stop  offset="1" style="stop-color:#FFA21E"/>
			</linearGradient>
			<polygon class="st14" points="547.1,554.6 467.6,508.4 579,315.5 658.5,361.7 			"/>
		</g>
		<g>
			<linearGradient id="SVGID_14_" gradientUnits="userSpaceOnUse" x1="578.9996" y1="350.9934" x2="702.0784" y2="350.9934">
				<stop  offset="0" style="stop-color:#FFCB27"/>
				<stop  offset="1" style="stop-color:#FFA21E"/>
			</linearGradient>
			<polygon class="st15" points="658.5,361.7 579,315.5 622.6,340.3 702.1,386.5 			"/>
		</g>
		<g>
			<linearGradient id="SVGID_15_" gradientUnits="userSpaceOnUse" x1="367.3597" y1="586.4766" x2="490.4345" y2="586.4766">
				<stop  offset="0" style="stop-color:#FFCB27"/>
				<stop  offset="1" style="stop-color:#FFA21E"/>
			</linearGradient>
			<polygon class="st16" points="446.9,597.2 367.4,551 410.9,575.8 490.4,622 			"/>
		</g>
		<g>
			<linearGradient id="SVGID_16_" gradientUnits="userSpaceOnUse" x1="454.2324" y1="527.6875" x2="547.1044" y2="527.6875">
				<stop  offset="0" style="stop-color:#FFCB27"/>
				<stop  offset="1" style="stop-color:#FFA21E"/>
			</linearGradient>
			<polygon class="st17" points="533.7,547 454.2,500.8 467.6,508.4 547.1,554.6 			"/>
		</g>
		<g>
			<linearGradient id="SVGID_17_" gradientUnits="userSpaceOnUse" x1="629.5171" y1="339.9322" x2="738.7407" y2="339.9322">
				<stop  offset="0" style="stop-color:#FFCB27"/>
				<stop  offset="1" style="stop-color:#FFA21E"/>
			</linearGradient>
			<path class="st18" d="M733.9,277.3c2.3-1.3,4.5-0.7,4.5,2.6l0.3,114.6c0,3.5-2.2,6.8-4.6,8.1c-1.2,0.7-2.4,0.9-3.3,0.3
				l-28.8-16.4l-43.6-24.8l-27.7-15.8c-2.8-1.6-0.6-8.7,3.4-11L733.9,277.3z"/>
		</g>
		<linearGradient id="SVGID_18_" gradientUnits="userSpaceOnUse" x1="550.0345" y1="288.1607" x2="737.1521" y2="288.1607">
			<stop  offset="0" style="stop-color:#FFCB27"/>
			<stop  offset="1" style="stop-color:#FFA21E"/>
		</linearGradient>
		<path class="st19" d="M657.7,230.7C657.6,230.7,657.6,230.7,657.7,230.7c-0.1-0.1-0.2-0.1-0.2-0.1c-0.1,0-0.2-0.1-0.2-0.1
			c-0.1,0-0.2,0-0.2-0.1c-0.1,0-0.2,0-0.3,0c-0.1,0-0.2,0-0.3,0c-0.1,0-0.1,0-0.2,0c0,0,0,0,0,0c0,0-0.1,0-0.1,0
			c-0.1,0-0.3,0.1-0.4,0.1c-0.2,0-0.4,0.1-0.5,0.2c-0.2,0.1-0.4,0.2-0.6,0.3l-99.7,57.6c-0.5,0.3-1,0.7-1.4,1.1c0,0,0,0,0,0
			c-0.2,0.2-0.3,0.3-0.5,0.5c-0.1,0.1-0.2,0.3-0.4,0.4c-0.1,0.1-0.2,0.2-0.3,0.3c0,0,0,0,0,0c0,0,0,0,0,0c-0.1,0.1-0.2,0.3-0.3,0.4
			c-0.1,0.1-0.2,0.3-0.2,0.4c-0.1,0.1-0.2,0.3-0.2,0.4c-0.1,0.1-0.1,0.2-0.2,0.3c0,0,0,0,0,0c0,0,0,0,0,0.1
			c-0.1,0.1-0.1,0.3-0.2,0.4c-0.1,0.2-0.1,0.3-0.2,0.5c-0.1,0.2-0.1,0.3-0.2,0.5c0,0.1,0,0.1-0.1,0.2c0,0,0,0.1,0,0.1
			c0,0.1-0.1,0.2-0.1,0.3c-0.1,0.2-0.1,0.4-0.1,0.6c-0.1,0.2-0.1,0.5-0.1,0.7c0,0,0,0,0,0c0,0.1,0,0.1,0,0.2c0,0.4,0,0.8,0,1.2
			c0,0.1,0,0.3,0.1,0.4c0.1,0.3,0.1,0.6,0.3,0.8c0,0.1,0.1,0.2,0.1,0.3c0.2,0.3,0.4,0.6,0.8,0.8l79.5,46.2c-0.3-0.2-0.6-0.5-0.8-0.8
			c-0.1-0.1-0.1-0.2-0.1-0.3c-0.1-0.2-0.2-0.5-0.3-0.8c0-0.1-0.1-0.2-0.1-0.4c0-0.4,0-0.8,0-1.2c0-0.1,0-0.1,0-0.2
			c0.1-0.5,0.2-1,0.3-1.6c0,0,0-0.1,0-0.1c0.2-0.5,0.4-1.1,0.7-1.6c0,0,0,0,0,0c0.3-0.5,0.6-1.1,0.9-1.6c0,0,0,0,0,0
			c0.3-0.5,0.7-0.9,1.2-1.3c0.4-0.4,0.9-0.8,1.4-1.1l99.7-57.6c0.6-0.3,1.2-0.5,1.7-0.6c0,0,0,0,0,0c0.5-0.1,1.1,0,1.5,0.3
			L657.7,230.7z"/>
		<linearGradient id="SVGID_19_" gradientUnits="userSpaceOnUse" x1="350.4302" y1="575.3385" x2="702.0785" y2="575.3385">
			<stop  offset="0" style="stop-color:#FFCB27"/>
			<stop  offset="1" style="stop-color:#FFA21E"/>
		</linearGradient>
		<polygon class="st20" points="658.5,361.7 547.1,554.6 533.7,547 490,522 446.9,597.2 350.4,764.2 394,789 490.4,622 546.6,654 
			547,653.3 547,653.3 547.8,653.7 702.1,386.5 		"/>
		<g>
			<linearGradient id="SVGID_20_" gradientUnits="userSpaceOnUse" x1="410.4586" y1="511.405" x2="533.7333" y2="511.405">
				<stop  offset="0" style="stop-color:#FFCB27"/>
				<stop  offset="1" style="stop-color:#FFA21E"/>
			</linearGradient>
			<polygon class="st21" points="490,522 410.5,475.8 454.2,500.8 533.7,547 			"/>
		</g>
		<g>
			<linearGradient id="SVGID_21_" gradientUnits="userSpaceOnUse" x1="410.6695" y1="511.3873" x2="533.823" y2="511.3873">
				<stop  offset="0" style="stop-color:#FFCB27"/>
				<stop  offset="1" style="stop-color:#FFA21E"/>
			</linearGradient>
			<polygon class="st22" points="490.2,522.2 410.7,476 454.3,500.6 533.8,546.8 			"/>
		</g>
		<linearGradient id="SVGID_22_" gradientUnits="userSpaceOnUse" x1="270.9293" y1="620.0121" x2="489.9597" y2="620.0121">
			<stop  offset="0" style="stop-color:#FFCB27"/>
			<stop  offset="1" style="stop-color:#FFA21E"/>
		</linearGradient>
		<polygon class="st23" points="410.5,475.8 367.4,551 270.9,718 350.4,764.2 446.9,597.2 490,522 		"/>
	</g>
</g>
<g>
	<path class="st24" d="M652.9,787c0,0-7.9,17.2-22.2,14.7c0,0-25.4,0.1-22.9,13.6c0,0-2.6,9.4,35.8,11.5c0,0,12.2-1.9,13.3,2.1
		c0,0,20.4,3.6,22.2-4.6c0,0,1.8-25.4-4.3-40.1L652.9,787z"/>
	<path class="st24" d="M699.9,749c0,0-16.4-0.9-15.4,9.6c0,0-2.5,17.3,15.4,21.6c0,0,7.5,0,10.4,7.2c0,0,7.2,10.8,16.1,8.6
		c0,0,9.7-2.2,7.5-11.8c0,0-2.2-22.2-8.6-30.8L699.9,749z"/>
	<path class="st25" d="M641.1,557.2c0,0-0.4,195.4,6.1,229.1c0,0,2.8,9.3,15.4,9.7c0,0,15.4,0,19-7.2c0,0,4.7-216.1,2.2-229.4
		C683.7,559.4,641.1,553.9,641.1,557.2z"/>
	<path class="st25" d="M723.6,764.9c3.8-1.1,6.1-2.3,6.1-2.3c-0.4-3.6-13.5-116.9-13.5-116.9c1.6-38.7-4.5-101.1-4.5-101.1
		l-45.5,15.1l1.8,20.8c4.1,31.3,20.9,135.2,26.9,172.1C694.9,752.7,696.4,771.2,723.6,764.9z"/>
	<path class="st24" d="M728.3,521.3c0,0-3.6,25.6-10.6,35.8c0,0-11-7.5-11.4-9.8c-0.4-2.3-2.2-14.5-2.2-14.5s11.1-17.7,11.5-18.7
		C715.6,514.2,728.1,519.1,728.3,521.3z"/>
	<path class="st24" d="M655.2,376.2c0,0-16.3,34.1-4.3,46.1c0,0,8.6,3,8.8,6.1c0,0,4.1,11.5,0,16.8c0,0,16.5,7.9,28.1-8.6
		c0,0-3.9-7.3-2.7-25c0,0,8.8-25.9-0.7-29.9C684.5,381.8,664.9,372.1,655.2,376.2z"/>
	<path class="st26" d="M663.9,363.4c0,0-14.2-1.8-12.9,9.8c0,0-0.8,7.8,12.9,12.1c0,0,1.1,1.9,0,4.8c0,0-8.3,9.9-1.1,19.9
		c0,0,3.2,1.6,5.4-2.4c0,0,4.3-1.8,5.9,2.7c0,0,1.6,2.6-4,5.1c0,0-3.3,4.6,4.2,9.4c0,0,5.2,3.5,11.9,0c0,0,0.8-1.6,2.2-4.6
		c0,0,2.4-3.2,6.2-5.6c0,0,12.6-5.4,10.2-23.9C704.8,390.7,699.4,360.6,663.9,363.4z"/>
	<path class="st26" d="M661.2,441.8c0,0-0.7,0.4-1.8,1.1c-4.7,3-17.7,11.8-23.7,22.6c0,0-12.9,4.3-18.8,58.5c0,0-2.6,4.3-8.6,0
		c0,0-14.1-6.6-23.9-10.9c0,0-4.1-0.9-6.8,3.6c0,0-3.3,3.3-0.6,11.6c0,0,20.6,23.6,35.6,29.4c0,0,12.5,6,17.2-1.2l8.9-17.9
		c0,0,0.3,9.6-1.1,18.6c0,0,0.6,9.3,11.3,10.4c0,0,38.1,9.4,64.2-14c0,0,3-6.4,0-11.8c0,0-4.8-54.8-0.9-69.9c0,0,3.4-2.5,9.1,8.1
		c0,0-5.4,29.6-7.5,35.8c0,0-1.8,0.4-0.2,1.8c0,0,9-2,14.7,9.1c0,0,0.7,0.5,1.3-3c0,0,18-42.3,19.6-55.6c0,0-0.6-6.5-9.7-15.4
		c0,0-21.9-31.2-53.2-21"/>
	<path class="st24" d="M577.8,527.4c0,0-0.7-0.7-1.8-1.8c-3.2-3.2-9.6-9.7-12-11.7c0,0-2.3-0.9-5.5-1.1c0,0-21.1-7.1-20.5-14.4
		c0,0,2.6-1.2,7.9-1.1c0,0,18.8,1.9,19.8,2.3c0,0,3.8,0.8,3.8-2.3c0,0-1.6-8.7,3.1-10.5c0,0,2.5-0.9,3.5,2.6c0,0,0.1,13.3,3.2,16.7
		c0,0,6.5,9.1,7.1,10.4C586.2,516.3,582.7,529.6,577.8,527.4z"/>
</g>
</svg>
