<?xml version="1.0" encoding="utf-8"?>
<svg version="1.1" xmlns:xlink="http://www.w3.org/1999/xlink" width="10px" height="22px" preserveAspectRatio="xMidYMin meet" viewBox="654 503  8 22" xmlns="http://www.w3.org/2000/svg">
  <path d="M 658.5 504  L 658.5 515  A 5 5 0 0 0 663.5 520.5 L 695 520.5  A 5 5 0 0 0 700.5 515.5 L 700.5 508  A 5 5 0 0 0 695.5 503.5 L 690 503.5  " stroke-width="1" stroke="#0099ff" fill="none" />
  <path d="M 658.5 503  A 3 3 0 0 0 655.5 506 A 3 3 0 0 0 658.5 509 A 3 3 0 0 0 661.5 506 A 3 3 0 0 0 658.5 503 Z M 691 509  L 691 498  L 690 498  L 690 509  L 691 509  Z " fill-rule="nonzero" fill="#0099ff" stroke="none" />
</svg>