<?xml version="1.0" encoding="utf-8"?>
<svg version="1.1" xmlns:xlink="http://www.w3.org/1999/xlink" width="10px" height="27px" preserveAspectRatio="xMidYMin meet" viewBox="396 488  8 27" xmlns="http://www.w3.org/2000/svg">
  <path d="M 358.5 494  L 358.5 505  A 5 5 0 0 0 363.5 510.5 L 395 510.5  A 5 5 0 0 0 400.5 505.5 L 400.5 498  A 5 5 0 0 0 395.5 493.5 L 390 493.5  " stroke-width="1" stroke="#0099ff" fill="none" />
  <path d="M 358.5 493  A 3 3 0 0 0 355.5 496 A 3 3 0 0 0 358.5 499 A 3 3 0 0 0 361.5 496 A 3 3 0 0 0 358.5 493 Z M 391 499  L 391 488  L 390 488  L 390 499  L 391 499  Z " fill-rule="nonzero" fill="#0099ff" stroke="none" />
</svg>