<?xml version="1.0" encoding="utf-8"?>
<svg version="1.1" xmlns:xlink="http://www.w3.org/1999/xlink" width="18px" height="18px" preserveAspectRatio="xMinYMid meet" viewBox="208 243  18 16" xmlns="http://www.w3.org/2000/svg">
  <path d="M 351 131.5  L 205 131.5  A 5 5 0 0 0 200.5 136.5 L 200.5 247  A 5 5 0 0 0 205.5 252.5 L 217 252.5  " stroke-width="1" stroke="#fb6260" fill="none" />
  <path d="M 349 128.5  A 3 3 0 0 0 346 131.5 A 3 3 0 0 0 349 134.5 A 3 3 0 0 0 352 131.5 A 3 3 0 0 0 349 128.5 Z M 216 247  L 216 258  L 217 258  L 217 247  L 216 247  Z " fill-rule="nonzero" fill="#fb6260" stroke="none" />
</svg>