<?xml version="1.0" encoding="utf-8"?>
<svg version="1.1" xmlns:xlink="http://www.w3.org/1999/xlink" width="80px" height="80px" xmlns="http://www.w3.org/2000/svg">
  <g transform="matrix(1 0 0 1 -125 -54 )">
    <path d="M 165 54  C 187.4 54  205 71.6  205 94  C 205 116.4  187.4 134  165 134  C 142.6 134  125 116.4  125 94  C 125 71.6  142.6 54  165 54  Z " fill-rule="nonzero" fill="#ffffff" stroke="none" />
    <path d="M 165 54.5  C 187.12 54.5  204.5 71.88  204.5 94  C 204.5 116.12  187.12 133.5  165 133.5  C 142.88 133.5  125.5 116.12  125.5 94  C 125.5 71.88  142.88 54.5  165 54.5  Z " stroke-width="1" stroke="#f2f2f2" fill="none" />
  </g>
</svg>