<?xml version="1.0" encoding="utf-8"?>
<svg version="1.1" xmlns:xlink="http://www.w3.org/1999/xlink" width="110px" height="110px" xmlns="http://www.w3.org/2000/svg">
  <g transform="matrix(1 0 0 1 -1164 -1291 )">
    <path d="M 1165 1296  A 4 4 0 0 1 1169 1292 L 1269 1292  A 4 4 0 0 1 1273 1296 L 1273 1396  A 4 4 0 0 1 1269 1400 L 1169 1400  A 4 4 0 0 1 1165 1396 L 1165 1296  Z " fill-rule="nonzero" fill="#f0f7ff" stroke="none" />
    <path d="M 1164.5 1296  A 4.5 4.5 0 0 1 1169 1291.5 L 1269 1291.5  A 4.5 4.5 0 0 1 1273.5 1296 L 1273.5 1396  A 4.5 4.5 0 0 1 1269 1400.5 L 1169 1400.5  A 4.5 4.5 0 0 1 1164.5 1396 L 1164.5 1296  Z " stroke-width="1" stroke="#7abbff" fill="none" stroke-opacity="0.996078431372549" />
  </g>
</svg>