<?xml version="1.0" encoding="utf-8"?>
<svg version="1.1" xmlns:xlink="http://www.w3.org/1999/xlink" width="110px" height="110px" xmlns="http://www.w3.org/2000/svg">
  <g transform="matrix(1 0 0 1 -1164 -1291 )">
    <path d="M 1164.5 1296  A 4.5 4.5 0 0 1 1169 1291.5 L 1269 1291.5  A 4.5 4.5 0 0 1 1273.5 1296 L 1273.5 1396  A 4.5 4.5 0 0 1 1269 1400.5 L 1169 1400.5  A 4.5 4.5 0 0 1 1164.5 1396 L 1164.5 1296  Z " fill-rule="nonzero" fill="#f9f9f9" stroke="none" fill-opacity="0" />
    <path d="M 1164.5 1296  A 4.5 4.5 0 0 1 1169 1291.5 L 1269 1291.5  A 4.5 4.5 0 0 1 1273.5 1296 L 1273.5 1396  A 4.5 4.5 0 0 1 1269 1400.5 L 1169 1400.5  A 4.5 4.5 0 0 1 1164.5 1396 L 1164.5 1296  Z " stroke-width="1" stroke="#ffffff" fill="none" />
  </g>
</svg>