<?xml version="1.0" encoding="utf-8"?>
<svg version="1.1" xmlns:xlink="http://www.w3.org/1999/xlink" width="12px" height="12px" viewBox="25 317.5  12 12" xmlns="http://www.w3.org/2000/svg">
  <path d="M 31 317.5  C 34.36 317.5  37 320.14  37 323.5  C 37 326.86  34.36 329.5  31 329.5  C 27.64 329.5  25 326.86  25 323.5  C 25 320.14  27.64 317.5  31 317.5  Z " fill-rule="nonzero" fill="#ffffff" stroke="none" />
  <path d="M 31 318  C 34.08 318  36.5 320.42  36.5 323.5  C 36.5 326.58  34.08 329  31 329  C 27.92 329  25.5 326.58  25.5 323.5  C 25.5 320.42  27.92 318  31 318  Z " stroke-width="1" stroke="#d7d7d7" fill="none" />
  <path d="M 31 326.5  C 29.32 326.5  28 325.18  28 323.5  C 28 321.82  29.32 320.5  31 320.5  C 32.68 320.5  34 321.82  34 323.5  C 34 325.18  32.68 326.5  31 326.5  " fill-rule="nonzero" fill="#d7d7d7" stroke="none" />
</svg>