<?xml version="1.0" encoding="utf-8"?>
<svg version="1.1" xmlns:xlink="http://www.w3.org/1999/xlink" width="21px" height="10px" preserveAspectRatio="xMinYMid meet" viewBox="665 808  21 8" xmlns="http://www.w3.org/2000/svg">
  <path d="M 706 720.5  L 675 720.5  A 5 5 0 0 0 670.5 725.5 L 670.5 807  A 5 5 0 0 0 675.5 812.5 L 681 812.5  " stroke-width="1" stroke="#531dab" fill="none" />
  <path d="M 704 717.5  A 3 3 0 0 0 701 720.5 A 3 3 0 0 0 704 723.5 A 3 3 0 0 0 707 720.5 A 3 3 0 0 0 704 717.5 Z M 680 807  L 680 818  L 681 818  L 681 807  L 680 807  Z " fill-rule="nonzero" fill="#531dab" stroke="none" />
</svg>