<?xml version="1.0" encoding="utf-8"?>
<svg version="1.1" xmlns:xlink="http://www.w3.org/1999/xlink" width="10px" height="5px" preserveAspectRatio="xMinYMid meet" viewBox="1034 649  10 3" xmlns="http://www.w3.org/2000/svg">
  <path d="M 1172 504.5  L 1025 504.5  A 5 5 0 0 0 1020.5 509.5 L 1020.5 643  A 5 5 0 0 0 1025.5 648.5 L 1039 648.5  " stroke-width="1" stroke="#0099ff" fill="none" />
  <path d="M 1170 501.5  A 3 3 0 0 0 1167 504.5 A 3 3 0 0 0 1170 507.5 A 3 3 0 0 0 1173 504.5 A 3 3 0 0 0 1170 501.5 Z M 1038 643  L 1038 654  L 1039 654  L 1039 643  L 1038 643  Z " fill-rule="nonzero" fill="#0099ff" stroke="none" />
</svg>