<?xml version="1.0" encoding="utf-8"?>
<svg version="1.1" xmlns:xlink="http://www.w3.org/1999/xlink" width="10px" height="77px" preserveAspectRatio="xMidYMin meet" viewBox="1386 706  8 77" xmlns="http://www.w3.org/2000/svg">
  <path d="M 1487 711.5  L 1395 711.5  A 5 5 0 0 0 1390.5 716.5 L 1390.5 773  A 5 5 0 0 0 1395.5 778.5 L 1402 778.5  " stroke-width="1" stroke="#0099ff" fill="none" />
  <path d="M 1485 708.5  A 3 3 0 0 0 1482 711.5 A 3 3 0 0 0 1485 714.5 A 3 3 0 0 0 1488 711.5 A 3 3 0 0 0 1485 708.5 Z M 1401 773  L 1401 784  L 1402 784  L 1402 773  L 1401 773  Z " fill-rule="nonzero" fill="#0099ff" stroke="none" />
</svg>