<?xml version="1.0" encoding="utf-8"?>
<svg version="1.1" xmlns:xlink="http://www.w3.org/1999/xlink" width="10px" height="23px" preserveAspectRatio="xMidYMin meet" viewBox="344 85  8 23" xmlns="http://www.w3.org/2000/svg">
  <path d="M 348.5 107  L 348.5 95  A 5 5 0 0 1 353.5 90.5 L 385 90.5  A 5 5 0 0 1 390.5 95.5 L 390.5 103  A 5 5 0 0 1 385.5 108.5 L 380 108.5  " stroke-width="1" stroke="#ce3232" fill="none" />
  <path d="M 348.5 102  A 3 3 0 0 0 345.5 105 A 3 3 0 0 0 348.5 108 A 3 3 0 0 0 351.5 105 A 3 3 0 0 0 348.5 102 Z M 381 114  L 381 103  L 380 103  L 380 114  L 381 114  Z " fill-rule="nonzero" fill="#ce3232" stroke="none" />
</svg>