<?xml version="1.0" encoding="utf-8"?>
<svg version="1.1" xmlns:xlink="http://www.w3.org/1999/xlink" width="18px" height="18px" preserveAspectRatio="xMinYMid meet" viewBox="471 7954  18 16" xmlns="http://www.w3.org/2000/svg">
  <path d="M 266 2029.5  L 485 2029.5  A 5 5 0 0 1 490.5 2034 L 490.5 2338  A 3 3 0 0 1 493.5 2341 A 3 3 0 0 1 490.5 2344 L 490.5 3378  A 3 3 0 0 1 493.5 3381 A 3 3 0 0 1 490.5 3384 L 490.5 4536  A 3 3 0 0 1 493.5 4539 A 3 3 0 0 1 490.5 4542 L 490.5 7958  A 5 5 0 0 1 485.5 7963.5 L 480 7963.5  " stroke-width="1" stroke="#0099ff" fill="none" />
  <path d="M 268 2026.5  A 3 3 0 0 0 265 2029.5 A 3 3 0 0 0 268 2032.5 A 3 3 0 0 0 271 2029.5 A 3 3 0 0 0 268 2026.5 Z M 481 7969  L 481 7958  L 480 7958  L 480 7969  L 481 7969  Z " fill-rule="nonzero" fill="#0099ff" stroke="none" />
</svg>