<svg class="icon" viewBox="0 0 1024 1024" version="1.1" xmlns="http://www.w3.org/2000/svg" p-id="2013" height="128" width="128"><path d="M816.763 166C894.213 166 957 228.85 957 306.38v414.24C957 798.15 894.214 861 816.763 861H205.237C127.787 861 65 798.15 65 720.62V306.38C65 228.85 127.786 166 205.237 166zM362.716 292.573c-70.467 0-127.592 57.184-127.592 127.723 0 34.928 14.005 66.58 36.7 89.639-60.11 31.941-101.071 95.795-101.071 169.26 0 16.523 13.38 29.918 29.886 29.918s29.887-13.395 29.887-29.918l0.017-2.172c1.139-71.536 58.43-129.003 128.725-129.003 71.005 0 128.742 58.634 128.742 131.175l0.008 0.707c0.375 16.196 13.609 29.21 29.879 29.21 16.506 0 29.887-13.394 29.887-29.917 0-71.643-38.955-134.146-96.636-166.83 24.14-23.237 39.161-55.897 39.161-92.069 0-70.54-57.125-127.723-127.593-127.723zM823.66 610.156H591.464l-0.706 0.008c-16.18 0.375-29.18 13.622-29.18 29.909 0 16.523 13.38 29.917 29.886 29.917H823.66l0.705-0.008c16.18-0.375 29.181-13.622 29.181-29.91 0-16.522-13.38-29.916-29.886-29.916zM786.7 474.377l-195.412 1.152-0.705 0.012c-16.178 0.47-29.1 13.794-29.006 30.08 0.098 16.523 13.557 29.838 30.063 29.742l195.412-1.152 0.705-0.012c16.178-0.47 29.101-13.794 29.006-30.08-0.098-16.523-13.557-29.838-30.063-29.742z m-423.984-121.97c37.456 0 67.82 30.395 67.82 67.89 0 37.493-30.364 67.888-67.82 67.888-37.455 0-67.82-30.395-67.82-67.889s30.365-67.889 67.82-67.889zM713.31 339.75H591.464l-0.706 0.008c-16.18 0.375-29.18 13.622-29.18 29.91 0 16.522 13.38 29.916 29.886 29.916h121.845l0.706-0.008c16.18-0.375 29.18-13.622 29.18-29.909 0-16.523-13.38-29.917-29.886-29.917z" fill="#333333" p-id="2014"></path></svg>