<?xml version="1.0" encoding="utf-8"?>
<svg version="1.1" xmlns:xlink="http://www.w3.org/1999/xlink" width="154px" height="44px" xmlns="http://www.w3.org/2000/svg">
  <g transform="matrix(1 0 0 1 -503 -791 )">
    <path d="M 505 795  A 2 2 0 0 1 507 793 L 653 793  A 2 2 0 0 1 655 795 L 655 831  A 2 2 0 0 1 653 833 L 507 833  A 2 2 0 0 1 505 831 L 505 795  Z " fill-rule="nonzero" fill="#ff3399" stroke="none" fill-opacity="0.0980392156862745" />
    <path d="M 504 795  A 3 3 0 0 1 507 792 L 653 792  A 3 3 0 0 1 656 795 L 656 831  A 3 3 0 0 1 653 834 L 507 834  A 3 3 0 0 1 504 831 L 504 795  Z " stroke-width="2" stroke-dasharray="6,2" stroke="#ff3399" fill="none" />
  </g>
</svg>