<?xml version="1.0" encoding="utf-8"?>
<svg version="1.1" xmlns:xlink="http://www.w3.org/1999/xlink" width="24px" height="10px" preserveAspectRatio="xMinYMid meet" viewBox="405 849  24 8" xmlns="http://www.w3.org/2000/svg">
  <path d="M 94 776.5  L 102.584033613445 776.5  A 0.415966386554601 0.415966386554601 0 0 0 103.5 776.084033613445 A 0.415966386554601 0.415966386554601 0 0 1 103.915966386555 775.668067226891 L 405 775.668067226891  A 5 5 0 0 1 410.5 780.668067226891 L 410.5 848  A 5 5 0 0 0 415.5 853.5 L 424 853.5  " stroke-width="1" stroke="#fb6260" fill="none" />
  <path d="M 96 773.5  A 3 3 0 0 0 93 776.5 A 3 3 0 0 0 96 779.5 A 3 3 0 0 0 99 776.5 A 3 3 0 0 0 96 773.5 Z M 423 848  L 423 859  L 424 859  L 424 848  L 423 848  Z " fill-rule="nonzero" fill="#fb6260" stroke="none" />
</svg>