<?xml version="1.0" encoding="utf-8"?>
<svg version="1.1" xmlns:xlink="http://www.w3.org/1999/xlink" width="18px" height="18px" preserveAspectRatio="xMinYMid meet" viewBox="96 890  18 16" xmlns="http://www.w3.org/2000/svg">
  <path d="M 105.5 900  L 105.5 858  A 5 5 0 0 1 110.5 853.5 L 419 853.5  A 5 5 0 0 1 424.5 858.5 L 424.5 943  " stroke-width="1" stroke="#0099ff" fill="none" />
  <path d="M 105.5 895  A 3 3 0 0 0 102.5 898 A 3 3 0 0 0 105.5 901 A 3 3 0 0 0 108.5 898 A 3 3 0 0 0 105.5 895 Z M 430 942  L 419 942  L 419 943  L 430 943  L 430 942  Z " fill-rule="nonzero" fill="#0099ff" stroke="none" />
</svg>