<?xml version="1.0" encoding="utf-8"?>
<svg version="1.1" xmlns:xlink="http://www.w3.org/1999/xlink" width="18px" height="18px" preserveAspectRatio="xMinYMid meet" viewBox="392 628  18 16" xmlns="http://www.w3.org/2000/svg">
  <path d="M 403 636.5  L 155 636.5  A 5 5 0 0 1 150.5 631.5 L 150.5 534  A 5 5 0 0 1 155.5 529.5 L 165 529.5  " stroke-width="1" stroke="#0099ff" fill="none" />
  <path d="M 401 633.5  A 3 3 0 0 0 398 636.5 A 3 3 0 0 0 401 639.5 A 3 3 0 0 0 404 636.5 A 3 3 0 0 0 401 633.5 Z M 164 524  L 164 535  L 165 535  L 165 524  L 164 524  Z " fill-rule="nonzero" fill="#0099ff" stroke="none" />
</svg>