<?xml version="1.0" encoding="utf-8"?>
<svg version="1.1" xmlns:xlink="http://www.w3.org/1999/xlink" width="10px" height="77px" preserveAspectRatio="xMidYMin meet" viewBox="186 631  8 77" xmlns="http://www.w3.org/2000/svg">
  <path d="M 403 636.5  L 195 636.5  A 5 5 0 0 0 190.5 641.5 L 190.5 698  A 5 5 0 0 0 195.5 703.5 L 207 703.5  " stroke-width="1" stroke="#fb6260" fill="none" />
  <path d="M 401 633.5  A 3 3 0 0 0 398 636.5 A 3 3 0 0 0 401 639.5 A 3 3 0 0 0 404 636.5 A 3 3 0 0 0 401 633.5 Z M 206 698  L 206 709  L 207 709  L 207 698  L 206 698  Z " fill-rule="nonzero" fill="#fb6260" stroke="none" />
</svg>