<?xml version="1.0" encoding="utf-8"?>
<svg version="1.1" xmlns:xlink="http://www.w3.org/1999/xlink" width="872px" height="10px" preserveAspectRatio="xMinYMid meet" viewBox="233 18  872 8" xmlns="http://www.w3.org/2000/svg">
  <path d="M 234 22.5  L 1095 22.5  A 5 5 0 0 1 1100.5 27.5 L 1100.5 1901  A 5 5 0 0 0 1105.5 1906.5 L 1114 1906.5  " stroke-width="1" stroke="#0099ff" fill="none" />
  <path d="M 236 19.5  A 3 3 0 0 0 233 22.5 A 3 3 0 0 0 236 25.5 A 3 3 0 0 0 239 22.5 A 3 3 0 0 0 236 19.5 Z M 1113 1901  L 1113 1912  L 1114 1912  L 1114 1901  L 1113 1901  Z " fill-rule="nonzero" fill="#0099ff" stroke="none" />
</svg>