<?xml version="1.0" encoding="utf-8"?>
<svg version="1.1" xmlns:xlink="http://www.w3.org/1999/xlink" width="29.8860759493671px" height="10px" preserveAspectRatio="xMinYMid meet" viewBox="1085.11392405063 3499  29.8860759493671 8" xmlns="http://www.w3.org/2000/svg">
  <path d="M 458 22.5  L 1085.11392405063 22.5  A 5 5 0 0 1 1090.61392405063 27.5 L 1090.61392405063 3498  A 5 5 0 0 0 1095.61392405063 3503.5 L 1110 3503.5  " stroke-width="1" stroke="#531dab" fill="none" />
  <path d="M 460 19.5  A 3 3 0 0 0 457 22.5 A 3 3 0 0 0 460 25.5 A 3 3 0 0 0 463 22.5 A 3 3 0 0 0 460 19.5 Z M 1109 3498  L 1109 3509  L 1110 3509  L 1110 3498  L 1109 3498  Z " fill-rule="nonzero" fill="#531dab" stroke="none" />
</svg>