<?xml version="1.0" encoding="utf-8"?>
<svg version="1.1" xmlns:xlink="http://www.w3.org/1999/xlink" width="708px" height="10px" preserveAspectRatio="xMinYMid meet" viewBox="397 18  708 8" xmlns="http://www.w3.org/2000/svg">
  <path d="M 398 22.5  L 1095 22.5  A 5 5 0 0 1 1100.5 27.5 L 1100.5 2653  A 5 5 0 0 0 1105.5 2658.5 L 1114 2658.5  " stroke-width="1" stroke="#ce3232" fill="none" />
  <path d="M 400 19.5  A 3 3 0 0 0 397 22.5 A 3 3 0 0 0 400 25.5 A 3 3 0 0 0 403 22.5 A 3 3 0 0 0 400 19.5 Z M 1113 2653  L 1113 2664  L 1114 2664  L 1114 2653  L 1113 2653  Z " fill-rule="nonzero" fill="#ce3232" stroke="none" />
</svg>