<?xml version="1.0" encoding="utf-8"?>
<svg version="1.1" xmlns:xlink="http://www.w3.org/1999/xlink" width="10px" height="26px" preserveAspectRatio="xMidYMin meet" viewBox="446 362  8 26" xmlns="http://www.w3.org/2000/svg">
  <path d="M 180 383.5  L 328 383.5  A 3 3 0 0 1 331 380.5 A 3 3 0 0 1 334 383.5 L 445 383.5  A 5 5 0 0 0 450.5 378.5 L 450.5 372  A 5 5 0 0 1 455.5 367.5 L 469 367.5  " stroke-width="1" stroke="#ce3232" fill="none" />
  <path d="M 182 380.5  A 3 3 0 0 0 179 383.5 A 3 3 0 0 0 182 386.5 A 3 3 0 0 0 185 383.5 A 3 3 0 0 0 182 380.5 Z M 468 362  L 468 373  L 469 373  L 469 362  L 468 362  Z " fill-rule="nonzero" fill="#ce3232" stroke="none" />
</svg>