<?xml version="1.0" encoding="utf-8"?>
<svg version="1.1" xmlns:xlink="http://www.w3.org/1999/xlink" width="10px" height="56px" preserveAspectRatio="xMidYMin meet" viewBox="209 453  8 56" xmlns="http://www.w3.org/2000/svg">
  <path d="M 213.5 454  L 213.5 499  A 5 5 0 0 0 218 504.5 L 328 504.5  A 3 3 0 0 1 331 501.5 A 3 3 0 0 1 334 504.5 L 469 504.5  " stroke-width="1" stroke="#0099ff" fill="none" />
  <path d="M 213.5 453  A 3 3 0 0 0 210.5 456 A 3 3 0 0 0 213.5 459 A 3 3 0 0 0 216.5 456 A 3 3 0 0 0 213.5 453 Z M 468 499  L 468 510  L 469 510  L 469 499  L 468 499  Z " fill-rule="nonzero" fill="#0099ff" stroke="none" />
</svg>