<?xml version="1.0" encoding="utf-8"?>
<svg version="1.1" xmlns:xlink="http://www.w3.org/1999/xlink" width="18px" height="18px" preserveAspectRatio="xMinYMid meet" viewBox="459 943  18 16" xmlns="http://www.w3.org/2000/svg">
  <path d="M 167.5 1053  L 167.5 957  A 5 5 0 0 1 172 952.5 L 224 952.5  A 3 3 0 0 1 227 949.5 A 3 3 0 0 1 230 952.5 L 290 952.5  A 3 3 0 0 1 293 949.5 A 3 3 0 0 1 296 952.5 L 468 952.5  " stroke-width="1" stroke="#ce3232" fill="none" />
  <path d="M 167.5 1048  A 3 3 0 0 0 164.5 1051 A 3 3 0 0 0 167.5 1054 A 3 3 0 0 0 170.5 1051 A 3 3 0 0 0 167.5 1048 Z M 467 947  L 467 958  L 468 958  L 468 947  L 467 947  Z " fill-rule="nonzero" fill="#ce3232" stroke="none" />
</svg>