<?xml version="1.0" encoding="utf-8"?>
<svg version="1.1" xmlns:xlink="http://www.w3.org/1999/xlink" width="18px" height="18px" preserveAspectRatio="xMinYMid meet" viewBox="284 811  18 16" xmlns="http://www.w3.org/2000/svg">
  <path d="M 293.5 817  L 293.5 1244  A 3 3 0 0 1 296.5 1247 A 3 3 0 0 1 293.5 1250 L 293.5 1617  A 5 5 0 0 0 298.5 1622.5 L 468 1622.5  " stroke-width="1" stroke="#0099ff" fill="none" />
  <path d="M 293.5 816  A 3 3 0 0 0 290.5 819 A 3 3 0 0 0 293.5 822 A 3 3 0 0 0 296.5 819 A 3 3 0 0 0 293.5 816 Z M 467 1617  L 467 1628  L 468 1628  L 468 1617  L 467 1617  Z " fill-rule="nonzero" fill="#0099ff" stroke="none" />
</svg>