<?xml version="1.0" encoding="utf-8"?>
<svg version="1.1" xmlns:xlink="http://www.w3.org/1999/xlink" width="1035px" height="10px" preserveAspectRatio="xMinYMid meet" viewBox="70 18  1035 8" xmlns="http://www.w3.org/2000/svg">
  <path d="M 71 22.5  L 1095 22.5  A 5 5 0 0 1 1100.5 27.5 L 1100.5 256  A 5 5 0 0 0 1105.5 261.5 L 1114 261.5  " stroke-width="1" stroke="#0099ff" fill="none" />
  <path d="M 73 19.5  A 3 3 0 0 0 70 22.5 A 3 3 0 0 0 73 25.5 A 3 3 0 0 0 76 22.5 A 3 3 0 0 0 73 19.5 Z M 1113 256  L 1113 267  L 1114 267  L 1114 256  L 1113 256  Z " fill-rule="nonzero" fill="#0099ff" stroke="none" />
</svg>