<?xml version="1.0" encoding="utf-8"?>
<svg version="1.1" xmlns:xlink="http://www.w3.org/1999/xlink" width="18px" height="18px" preserveAspectRatio="xMinYMid meet" viewBox="1105 1160  18 16" xmlns="http://www.w3.org/2000/svg">
  <path d="M 180 22.5  L 1095 22.5  A 5 5 0 0 1 1100.5 27.5 L 1100.5 1164  A 5 5 0 0 0 1105.5 1169.5 L 1114 1169.5  " stroke-width="1" stroke="#0099ff" fill="none" />
  <path d="M 182 19.5  A 3 3 0 0 0 179 22.5 A 3 3 0 0 0 182 25.5 A 3 3 0 0 0 185 22.5 A 3 3 0 0 0 182 19.5 Z M 1113 1164  L 1113 1175  L 1114 1175  L 1114 1164  L 1113 1164  Z " fill-rule="nonzero" fill="#0099ff" stroke="none" />
</svg>