<?xml version="1.0" encoding="utf-8"?>
<svg version="1.1" xmlns:xlink="http://www.w3.org/1999/xlink" width="18px" height="18px" preserveAspectRatio="xMinYMid meet" viewBox="262 269  18 16" xmlns="http://www.w3.org/2000/svg">
  <path d="M 271.5 275  L 271.5 811  A 3 3 0 0 1 274.5 814 A 3 3 0 0 1 271.5 817 L 271.5 1089  A 5 5 0 0 0 276.5 1094.5 L 473 1094.5  " stroke-width="1" stroke="#fb6260" fill="none" />
  <path d="M 271.5 274  A 3 3 0 0 0 268.5 277 A 3 3 0 0 0 271.5 280 A 3 3 0 0 0 274.5 277 A 3 3 0 0 0 271.5 274 Z M 472 1089  L 472 1100  L 473 1100  L 473 1089  L 472 1089  Z " fill-rule="nonzero" fill="#fb6260" stroke="none" />
</svg>