<?xml version="1.0" encoding="utf-8"?>
<svg version="1.1" xmlns:xlink="http://www.w3.org/1999/xlink" width="10px" height="5px" preserveAspectRatio="xMinYMid meet" viewBox="1203 1025  10 3" xmlns="http://www.w3.org/2000/svg">
  <path d="M 1242 746.5  L 1225 746.5  A 5 5 0 0 0 1220.5 751.5 L 1220.5 1019  A 5 5 0 0 1 1215.5 1024.5 L 1208 1024.5  " stroke-width="1" stroke="#fb6260" fill="none" />
  <path d="M 1240 743.5  A 3 3 0 0 0 1237 746.5 A 3 3 0 0 0 1240 749.5 A 3 3 0 0 0 1243 746.5 A 3 3 0 0 0 1240 743.5 Z M 1209 1030  L 1209 1019  L 1208 1019  L 1208 1030  L 1209 1030  Z " fill-rule="nonzero" fill="#fb6260" stroke="none" />
</svg>