<?xml version="1.0" encoding="utf-8"?>
<svg version="1.1" xmlns:xlink="http://www.w3.org/1999/xlink" width="18px" height="18px" preserveAspectRatio="xMinYMid meet" viewBox="591 647  18 16" xmlns="http://www.w3.org/2000/svg">
  <path d="M 563 561.5  L 605 561.5  A 5 5 0 0 1 610.5 566.5 L 610.5 651  A 5 5 0 0 1 605.5 656.5 L 600 656.5  " stroke-width="1" stroke="#531dab" fill="none" />
  <path d="M 565 558.5  A 3 3 0 0 0 562 561.5 A 3 3 0 0 0 565 564.5 A 3 3 0 0 0 568 561.5 A 3 3 0 0 0 565 558.5 Z M 601 662  L 601 651  L 600 651  L 600 662  L 601 662  Z " fill-rule="nonzero" fill="#531dab" stroke="none" />
</svg>