<?xml version="1.0" encoding="utf-8"?>
<svg version="1.1" xmlns:xlink="http://www.w3.org/1999/xlink" width="281px" height="77px" xmlns="http://www.w3.org/2000/svg">
  <g transform="matrix(1 0 0 1 -138 -348 )">
    <path d="M 140 352  A 2 2 0 0 1 142 350 L 415 350  A 2 2 0 0 1 417 352 L 417 421  A 2 2 0 0 1 415 423 L 142 423  A 2 2 0 0 1 140 421 L 140 352  Z " fill-rule="nonzero" fill="#ff3399" stroke="none" fill-opacity="0.0980392156862745" />
    <path d="M 139 352  A 3 3 0 0 1 142 349 L 415 349  A 3 3 0 0 1 418 352 L 418 421  A 3 3 0 0 1 415 424 L 142 424  A 3 3 0 0 1 139 421 L 139 352  Z " stroke-width="2" stroke-dasharray="34,16" stroke="#ff3399" fill="none" />
  </g>
</svg>