<?xml version="1.0" encoding="utf-8"?>
<svg version="1.1" xmlns:xlink="http://www.w3.org/1999/xlink" width="10px" height="93px" preserveAspectRatio="xMidYMin meet" viewBox="186 185  8 93" xmlns="http://www.w3.org/2000/svg">
  <path d="M 333 190.5  L 195 190.5  A 5 5 0 0 0 190.5 195.5 L 190.5 268  A 5 5 0 0 0 195.5 273.5 L 205 273.5  " stroke-width="1" stroke="#0099ff" fill="none" />
  <path d="M 331 187.5  A 3 3 0 0 0 328 190.5 A 3 3 0 0 0 331 193.5 A 3 3 0 0 0 334 190.5 A 3 3 0 0 0 331 187.5 Z M 204 268  L 204 279  L 205 279  L 205 268  L 204 268  Z " fill-rule="nonzero" fill="#0099ff" stroke="none" />
</svg>