<?xml version="1.0" encoding="utf-8"?>
<svg version="1.1" xmlns:xlink="http://www.w3.org/1999/xlink" width="18px" height="18px" preserveAspectRatio="xMinYMid meet" viewBox="887 314  18 16" xmlns="http://www.w3.org/2000/svg">
  <path d="M 896.5 324  L 896.5 310  A 5 5 0 0 1 901.5 305.5 L 1115 305.5  A 5 5 0 0 0 1120.5 300.5 L 1120.5 291  A 5 5 0 0 0 1115.5 286.5 L 1110 286.5  " stroke-width="1" stroke="#fb6260" fill="none" />
  <path d="M 896.5 319  A 3 3 0 0 0 893.5 322 A 3 3 0 0 0 896.5 325 A 3 3 0 0 0 899.5 322 A 3 3 0 0 0 896.5 319 Z M 1111 292  L 1111 281  L 1110 281  L 1110 292  L 1111 292  Z " fill-rule="nonzero" fill="#fb6260" stroke="none" />
</svg>