<?xml version="1.0" encoding="utf-8"?>
<svg version="1.1" xmlns:xlink="http://www.w3.org/1999/xlink" width="119px" height="39px" xmlns="http://www.w3.org/2000/svg">
  <g transform="matrix(1 0 0 1 -281 -352 )">
    <path d="M 283 356  A 2 2 0 0 1 285 354 L 396 354  A 2 2 0 0 1 398 356 L 398 387  A 2 2 0 0 1 396 389 L 285 389  A 2 2 0 0 1 283 387 L 283 356  Z " fill-rule="nonzero" fill="#ff3399" stroke="none" fill-opacity="0.0980392156862745" />
    <path d="M 282 356  A 3 3 0 0 1 285 353 L 396 353  A 3 3 0 0 1 399 356 L 399 387  A 3 3 0 0 1 396 390 L 285 390  A 3 3 0 0 1 282 387 L 282 356  Z " stroke-width="2" stroke-dasharray="34,16" stroke="#ff3399" fill="none" />
  </g>
</svg>