<?xml version="1.0" encoding="utf-8"?>
<svg version="1.1" xmlns:xlink="http://www.w3.org/1999/xlink" width="55px" height="57px" xmlns="http://www.w3.org/2000/svg">
  <g transform="matrix(1 0 0 1 -362 -624 )">
    <path d="M 364 628  A 2 2 0 0 1 366 626 L 413 626  A 2 2 0 0 1 415 628 L 415 677  A 2 2 0 0 1 413 679 L 366 679  A 2 2 0 0 1 364 677 L 364 628  Z " fill-rule="nonzero" fill="#ff3399" stroke="none" fill-opacity="0.0980392156862745" />
    <path d="M 363 628  A 3 3 0 0 1 366 625 L 413 625  A 3 3 0 0 1 416 628 L 416 677  A 3 3 0 0 1 413 680 L 366 680  A 3 3 0 0 1 363 677 L 363 628  Z " stroke-width="2" stroke-dasharray="34,16" stroke="#ff3399" fill="none" />
  </g>
</svg>