<?xml version="1.0" encoding="utf-8"?>
<svg version="1.1" xmlns:xlink="http://www.w3.org/1999/xlink" width="5px" height="5px" xmlns="http://www.w3.org/2000/svg">
  <g transform="matrix(1 0 0 1 -81 -622 )">
    <path d="M 83.5 622  C 84.9 622  86 623.1  86 624.5  C 86 625.9  84.9 627  83.5 627  C 82.1 627  81 625.9  81 624.5  C 81 623.1  82.1 622  83.5 622  Z " fill-rule="nonzero" fill="#d9001b" stroke="none" />
    <path d="M 83.5 622.5  C 84.62 622.5  85.5 623.38  85.5 624.5  C 85.5 625.62  84.62 626.5  83.5 626.5  C 82.38 626.5  81.5 625.62  81.5 624.5  C 81.5 623.38  82.38 622.5  83.5 622.5  Z " stroke-width="1" stroke="#d9001b" fill="none" />
  </g>
</svg>