<?xml version="1.0" encoding="utf-8"?>
<svg version="1.1" xmlns:xlink="http://www.w3.org/1999/xlink" width="10px" height="11px" preserveAspectRatio="xMidYMin meet" viewBox="166 631  8 11" xmlns="http://www.w3.org/2000/svg">
  <path d="M 407 636.5  L 170.5 636.5  A 0.5 0.5 0 0 0 170.5 637 A 0.5 0.5 0 0 1 170 637.5 L 154 637.5  " stroke-width="1" stroke="#fb6260" fill="none" />
  <path d="M 405 633.5  A 3 3 0 0 0 402 636.5 A 3 3 0 0 0 405 639.5 A 3 3 0 0 0 408 636.5 A 3 3 0 0 0 405 633.5 Z M 155 643  L 155 632  L 154 632  L 154 643  L 155 643  Z " fill-rule="nonzero" fill="#fb6260" stroke="none" />
</svg>