<?xml version="1.0" encoding="utf-8"?>
<svg version="1.1" xmlns:xlink="http://www.w3.org/1999/xlink" width="18px" height="18px" preserveAspectRatio="xMinYMid meet" viewBox="396 628  18 16" xmlns="http://www.w3.org/2000/svg">
  <path d="M 407 636.5  L 25 636.5  A 5 5 0 0 0 20.5 641.5 L 20.5 693  A 5 5 0 0 0 25.5 698.5 L 38 698.5  " stroke-width="1" stroke="#fb6260" fill="none" />
  <path d="M 405 633.5  A 3 3 0 0 0 402 636.5 A 3 3 0 0 0 405 639.5 A 3 3 0 0 0 408 636.5 A 3 3 0 0 0 405 633.5 Z M 37 693  L 37 704  L 38 704  L 38 693  L 37 693  Z " fill-rule="nonzero" fill="#fb6260" stroke="none" />
</svg>