<?xml version="1.0" encoding="utf-8"?>
<svg version="1.1" xmlns:xlink="http://www.w3.org/1999/xlink" width="84px" height="25px" xmlns="http://www.w3.org/2000/svg">
  <g transform="matrix(1 0 0 1 -1175 -15 )">
    <path d="M 1176 20  A 4 4 0 0 1 1180 16 L 1254 16  A 4 4 0 0 1 1258 20 L 1258 35  A 4 4 0 0 1 1254 39 L 1180 39  A 4 4 0 0 1 1176 35 L 1176 20  Z " fill-rule="nonzero" fill="#e7f4ee" stroke="none" />
    <path d="M 1175.5 20  A 4.5 4.5 0 0 1 1180 15.5 L 1254 15.5  A 4.5 4.5 0 0 1 1258.5 20 L 1258.5 35  A 4.5 4.5 0 0 1 1254 39.5 L 1180 39.5  A 4.5 4.5 0 0 1 1175.5 35 L 1175.5 20  Z " stroke-width="1" stroke="#84dcb0" fill="none" stroke-opacity="0.996078431372549" />
  </g>
</svg>