<?xml version="1.0" encoding="utf-8"?>
<svg version="1.1" xmlns:xlink="http://www.w3.org/1999/xlink" width="20px" height="10px" preserveAspectRatio="xMinYMid meet" viewBox="875 135  20 8" xmlns="http://www.w3.org/2000/svg">
  <path d="M 848.5 138  L 848.5 125  A 5 5 0 0 1 853.5 120.5 L 885 120.5  A 5 5 0 0 1 890.5 125.5 L 890.5 134  A 5 5 0 0 1 885.5 139.5 L 880 139.5  " stroke-width="1" stroke="#fb6260" fill="none" />
  <path d="M 848.5 133  A 3 3 0 0 0 845.5 136 A 3 3 0 0 0 848.5 139 A 3 3 0 0 0 851.5 136 A 3 3 0 0 0 848.5 133 Z M 881 145  L 881 134  L 880 134  L 880 145  L 881 145  Z " fill-rule="nonzero" fill="#fb6260" stroke="none" />
</svg>