<?xml version="1.0" encoding="utf-8"?>
<svg version="1.1" xmlns:xlink="http://www.w3.org/1999/xlink" width="10px" height="83px" preserveAspectRatio="xMidYMin meet" viewBox="1286 259  8 83" xmlns="http://www.w3.org/2000/svg">
  <path d="M 1422 264.5  L 1295 264.5  A 5 5 0 0 0 1290.5 269.5 L 1290.5 332  A 5 5 0 0 0 1295.5 337.5 L 1304 337.5  " stroke-width="1" stroke="#fb6260" fill="none" />
  <path d="M 1420 261.5  A 3 3 0 0 0 1417 264.5 A 3 3 0 0 0 1420 267.5 A 3 3 0 0 0 1423 264.5 A 3 3 0 0 0 1420 261.5 Z M 1303 332  L 1303 343  L 1304 343  L 1304 332  L 1303 332  Z " fill-rule="nonzero" fill="#fb6260" stroke="none" />
</svg>