<?xml version="1.0" encoding="utf-8"?>
<svg version="1.1" xmlns:xlink="http://www.w3.org/1999/xlink" width="84px" height="25px" xmlns="http://www.w3.org/2000/svg">
  <g transform="matrix(1 0 0 1 -1292 -15 )">
    <path d="M 1293 20  A 4 4 0 0 1 1297 16 L 1371 16  A 4 4 0 0 1 1375 20 L 1375 35  A 4 4 0 0 1 1371 39 L 1297 39  A 4 4 0 0 1 1293 35 L 1293 20  Z " fill-rule="nonzero" fill="#e7f4ee" stroke="none" />
    <path d="M 1292.5 20  A 4.5 4.5 0 0 1 1297 15.5 L 1371 15.5  A 4.5 4.5 0 0 1 1375.5 20 L 1375.5 35  A 4.5 4.5 0 0 1 1371 39.5 L 1297 39.5  A 4.5 4.5 0 0 1 1292.5 35 L 1292.5 20  Z " stroke-width="1" stroke="#84dcb0" fill="none" stroke-opacity="0.996078431372549" />
  </g>
</svg>