<?xml version="1.0" encoding="utf-8"?>
<svg version="1.1" xmlns:xlink="http://www.w3.org/1999/xlink" width="26px" height="28px" xmlns="http://www.w3.org/2000/svg">
  <g transform="matrix(1 0 0 1 -663 -1564 )">
    <path d="M 25.4259510869565 11.2233632862644  C 25.8086503623188 11.6726572528883  26 12.2148053059478  26 12.8498074454429  L 26 15.1501925545571  C 26 15.7851946940522  25.8086503623188 16.3273427471117  25.4259510869565 16.7766367137356  C 25.0432518115942 17.2259306803594  24.5457427536232 17.4505776636714  23.9334239130435 17  L 11.4986413043478 17  L 16.6739130434783 22.7342747111682  C 17.1213768115942 23.1655969191271  17.3451086956522 23.7047496790757  17.3451086956522 24.3517329910141  C 17.3451086956522 24.9987163029525  17.1213768115942 25.5378690629012  16.6739130434783 25.9691912708601  L 15.3491847826087 27.3350449293967  C 14.9134963768116 27.7783483097989  14.3836050724638 28  13.7595108695652 28  C 13.1471920289855 28  12.6114130434783 27.7783483097989  12.1521739130435 27.3350449293967  L 0.653532608695652 15.617458279846  C 0.217844202898551 15.1741548994437  0 14.6350021394951  0 14  C 0 13.3769790329482  0.217844202898551 12.8318356867779  0.653532608695652 12.3645699614891  L 12.1521739130435 0.682926829268293  C 12.5996376811594 0.227642276422762  13.1354166666667 0  13.7595108695652 0  C 14.3718297101449 0  14.9017210144928 0.227642276422762  15.3491847826087 0.682926829268293  L 16.6739130434783 2.01283697047497  C 17.1213768115942 2.4681215233205  17.3451086956522 3.0132648694908  17.3451086956522 3.64826700898588  C 17.3451086956522 4.28326914848096  17.1213768115942 4.82841249465126  16.6739130434783 5.28369704749679  L 11.4986413043478 11  L 23.9334239130435 11  C 24.5457427536232 10.5494223363286  25.0432518115942 10.7740693196406  25.4259510869565 11.2233632862644  Z " fill-rule="nonzero" fill="#ffffff" stroke="none" transform="matrix(1 0 0 1 663 1564 )" />
  </g>
</svg>