<?xml version="1.0" encoding="utf-8"?>
<svg version="1.1" xmlns:xlink="http://www.w3.org/1999/xlink" width="18px" height="18px" preserveAspectRatio="xMinYMid meet" viewBox="1816 28  18 16" xmlns="http://www.w3.org/2000/svg">
  <path d="M 1827 36.5  L 1615 36.5  A 5 5 0 0 0 1610.5 41.5 L 1610.5 144  A 5 5 0 0 0 1615.5 149.5 L 1627 149.5  " stroke-width="1" stroke="#0099ff" fill="none" />
  <path d="M 1825 33.5  A 3 3 0 0 0 1822 36.5 A 3 3 0 0 0 1825 39.5 A 3 3 0 0 0 1828 36.5 A 3 3 0 0 0 1825 33.5 Z M 1626 144  L 1626 155  L 1627 155  L 1627 144  L 1626 144  Z " fill-rule="nonzero" fill="#0099ff" stroke="none" />
</svg>