<?xml version="1.0" encoding="utf-8"?>
<svg version="1.1" xmlns:xlink="http://www.w3.org/1999/xlink" width="10px" height="27px" preserveAspectRatio="xMidYMin meet" viewBox="276 85  8 27" xmlns="http://www.w3.org/2000/svg">
  <path d="M 238.5 106  L 238.5 95  A 5 5 0 0 1 243.5 90.5 L 275 90.5  A 5 5 0 0 1 280.5 95.5 L 280.5 102  A 5 5 0 0 1 275.5 107.5 L 270 107.5  " stroke-width="1" stroke="#fb6260" fill="none" />
  <path d="M 238.5 101  A 3 3 0 0 0 235.5 104 A 3 3 0 0 0 238.5 107 A 3 3 0 0 0 241.5 104 A 3 3 0 0 0 238.5 101 Z M 271 113  L 271 102  L 270 102  L 270 113  L 271 113  Z " fill-rule="nonzero" fill="#fb6260" stroke="none" />
</svg>