<?xml version="1.0" encoding="utf-8"?>
<svg version="1.1" xmlns:xlink="http://www.w3.org/1999/xlink" width="10px" height="5px" preserveAspectRatio="xMinYMid meet" viewBox="1721 680  10 3" xmlns="http://www.w3.org/2000/svg">
  <path d="M 1786 642.5  L 1715 642.5  A 5 5 0 0 0 1710.5 647.5 L 1710.5 674  A 5 5 0 0 0 1715.5 679.5 L 1726 679.5  " stroke-width="1" stroke="#fb6260" fill="none" />
  <path d="M 1784 639.5  A 3 3 0 0 0 1781 642.5 A 3 3 0 0 0 1784 645.5 A 3 3 0 0 0 1787 642.5 A 3 3 0 0 0 1784 639.5 Z M 1725 674  L 1725 685  L 1726 685  L 1726 674  L 1725 674  Z " fill-rule="nonzero" fill="#fb6260" stroke="none" />
</svg>