<?xml version="1.0" encoding="utf-8"?>
<svg version="1.1" xmlns:xlink="http://www.w3.org/1999/xlink" width="30px" height="30px" xmlns="http://www.w3.org/2000/svg">
  <g transform="matrix(1 0 0 1 -296 -1293 )">
    <path d="M 311 1293  C 319.4 1293  326 1299.6  326 1308  C 326 1316.4  319.4 1323  311 1323  C 302.6 1323  296 1316.4  296 1308  C 296 1299.6  302.6 1293  311 1293  Z " fill-rule="nonzero" fill="#ffffff" stroke="none" />
    <path d="M 311 1293.5  C 319.12 1293.5  325.5 1299.88  325.5 1308  C 325.5 1316.12  319.12 1322.5  311 1322.5  C 302.88 1322.5  296.5 1316.12  296.5 1308  C 296.5 1299.88  302.88 1293.5  311 1293.5  Z " stroke-width="1" stroke="#fb6260" fill="none" />
  </g>
</svg>