<?xml version="1.0" encoding="utf-8"?>
<svg version="1.1" xmlns:xlink="http://www.w3.org/1999/xlink" width="30px" height="30px" xmlns="http://www.w3.org/2000/svg">
  <g transform="matrix(1 0 0 1 -296 -1400 )">
    <path d="M 311 1400  C 319.4 1400  326 1406.6  326 1415  C 326 1423.4  319.4 1430  311 1430  C 302.6 1430  296 1423.4  296 1415  C 296 1406.6  302.6 1400  311 1400  Z " fill-rule="nonzero" fill="#ffffff" stroke="none" />
    <path d="M 311 1400.5  C 319.12 1400.5  325.5 1406.88  325.5 1415  C 325.5 1423.12  319.12 1429.5  311 1429.5  C 302.88 1429.5  296.5 1423.12  296.5 1415  C 296.5 1406.88  302.88 1400.5  311 1400.5  Z " stroke-width="1" stroke="#ffa94c" fill="none" />
  </g>
</svg>