<?xml version="1.0" encoding="utf-8"?>
<svg version="1.1" xmlns:xlink="http://www.w3.org/1999/xlink" width="30px" height="30px" xmlns="http://www.w3.org/2000/svg">
  <g transform="matrix(1 0 0 1 -296 -1187 )">
    <path d="M 311 1187  C 319.4 1187  326 1193.6  326 1202  C 326 1210.4  319.4 1217  311 1217  C 302.6 1217  296 1210.4  296 1202  C 296 1193.6  302.6 1187  311 1187  Z " fill-rule="nonzero" fill="#ffffff" stroke="none" />
    <path d="M 311 1187.5  C 319.12 1187.5  325.5 1193.88  325.5 1202  C 325.5 1210.12  319.12 1216.5  311 1216.5  C 302.88 1216.5  296.5 1210.12  296.5 1202  C 296.5 1193.88  302.88 1187.5  311 1187.5  Z " stroke-width="1" stroke="#58a3f7" fill="none" />
  </g>
</svg>