<?xml version="1.0" encoding="utf-8"?>
<svg version="1.1" xmlns:xlink="http://www.w3.org/1999/xlink" width="30px" height="30px" xmlns="http://www.w3.org/2000/svg">
  <g transform="matrix(1 0 0 1 -296 -1612 )">
    <path d="M 311 1612  C 319.4 1612  326 1618.6  326 1627  C 326 1635.4  319.4 1642  311 1642  C 302.6 1642  296 1635.4  296 1627  C 296 1618.6  302.6 1612  311 1612  Z " fill-rule="nonzero" fill="#ffffff" stroke="none" />
    <path d="M 311 1612.5  C 319.12 1612.5  325.5 1618.88  325.5 1627  C 325.5 1635.12  319.12 1641.5  311 1641.5  C 302.88 1641.5  296.5 1635.12  296.5 1627  C 296.5 1618.88  302.88 1612.5  311 1612.5  Z " stroke-width="1" stroke="#4bced0" fill="none" />
  </g>
</svg>