<?xml version="1.0" encoding="utf-8"?>
<svg version="1.1" xmlns:xlink="http://www.w3.org/1999/xlink" width="30px" height="30px" xmlns="http://www.w3.org/2000/svg">
  <g transform="matrix(1 0 0 1 -296 -1513 )">
    <path d="M 311 1513  C 319.4 1513  326 1519.6  326 1528  C 326 1536.4  319.4 1543  311 1543  C 302.6 1543  296 1536.4  296 1528  C 296 1519.6  302.6 1513  311 1513  Z " fill-rule="nonzero" fill="#ffffff" stroke="none" />
    <path d="M 311 1513.5  C 319.12 1513.5  325.5 1519.88  325.5 1528  C 325.5 1536.12  319.12 1542.5  311 1542.5  C 302.88 1542.5  296.5 1536.12  296.5 1528  C 296.5 1519.88  302.88 1513.5  311 1513.5  Z " stroke-width="1" stroke="#8167f5" fill="none" />
  </g>
</svg>