<?xml version="1.0" encoding="utf-8"?>
<svg version="1.1" xmlns:xlink="http://www.w3.org/1999/xlink" width="15px" height="15px" xmlns="http://www.w3.org/2000/svg">
  <g transform="matrix(1 0 0 1 -90 -338 )">
    <path d="M 11.25 6.962890625  C 11.4583333333333 7.080078125  11.5625 7.25911458333333  11.5625 7.5  C 11.5625 7.74088541666667  11.4583333333333 7.919921875  11.25 8.037109375  L 5.9375 11.162109375  C 5.83984375 11.220703125  5.73567708333333 11.25  5.625 11.25  C 5.52083333333333 11.25  5.41666666666667 11.2239583333333  5.3125 11.171875  C 5.10416666666667 11.0481770833333  5 10.8658854166667  5 10.625  L 5 4.375  C 5 4.13411458333333  5.10416666666667 3.95182291666667  5.3125 3.828125  C 5.52734375 3.7109375  5.73567708333333 3.71419270833333  5.9375 3.837890625  L 11.25 6.962890625  Z M 12.099609375 10.166015625  C 12.5748697916667 9.35221354166666  12.8125 8.46354166666667  12.8125 7.5  C 12.8125 6.53645833333333  12.5748697916667 5.64778645833333  12.099609375 4.833984375  C 11.6243489583333 4.02018229166667  10.9798177083333 3.37565104166667  10.166015625 2.900390625  C 9.35221354166667 2.42513020833333  8.46354166666667 2.1875  7.5 2.1875  C 6.53645833333333 2.1875  5.64778645833333 2.42513020833333  4.833984375 2.900390625  C 4.02018229166667 3.37565104166667  3.37565104166667 4.02018229166667  2.900390625 4.833984375  C 2.42513020833333 5.64778645833333  2.1875 6.53645833333333  2.1875 7.5  C 2.1875 8.46354166666667  2.42513020833333 9.35221354166666  2.900390625 10.166015625  C 3.37565104166667 10.9798177083333  4.02018229166667 11.6243489583333  4.833984375 12.099609375  C 5.64778645833333 12.5748697916667  6.53645833333333 12.8125  7.5 12.8125  C 8.46354166666667 12.8125  9.35221354166667 12.5748697916667  10.166015625 12.099609375  C 10.9798177083333 11.6243489583333  11.6243489583333 10.9798177083333  12.099609375 10.166015625  Z M 13.994140625 3.7353515625  C 14.6647135416667 4.88444010416667  15 6.13932291666666  15 7.5  C 15 8.86067708333333  14.6647135416667 10.1155598958333  13.994140625 11.2646484375  C 13.3235677083333 12.4137369791667  12.4137369791667 13.3235677083333  11.2646484375 13.994140625  C 10.1155598958333 14.6647135416667  8.86067708333333 15  7.5 15  C 6.13932291666667 15  4.88444010416667 14.6647135416667  3.7353515625 13.994140625  C 2.58626302083333 13.3235677083333  1.67643229166667 12.4137369791667  1.005859375 11.2646484375  C 0.335286458333333 10.1155598958333  0 8.86067708333333  0 7.5  C 0 6.13932291666666  0.335286458333333 4.88444010416667  1.005859375 3.7353515625  C 1.67643229166667 2.58626302083333  2.58626302083333 1.67643229166667  3.7353515625 1.005859375  C 4.88444010416667 0.335286458333332  6.13932291666667 0  7.5 0  C 8.86067708333333 0  10.1155598958333 0.335286458333332  11.2646484375 1.005859375  C 12.4137369791667 1.67643229166667  13.3235677083333 2.58626302083333  13.994140625 3.7353515625  Z " fill-rule="nonzero" fill="#ffffff" stroke="none" transform="matrix(1 0 0 1 90 338 )" />
  </g>
</svg>