<?xml version="1.0" encoding="utf-8"?>
<svg version="1.1" xmlns:xlink="http://www.w3.org/1999/xlink" width="100px" height="30px" xmlns="http://www.w3.org/2000/svg">
  <g transform="matrix(1 0 0 1 -1339 -222 )">
    <path d="M 1339.5 227  A 4.5 4.5 0 0 1 1344 222.5 L 1434 222.5  A 4.5 4.5 0 0 1 1438.5 227 L 1438.5 247  A 4.5 4.5 0 0 1 1434 251.5 L 1344 251.5  A 4.5 4.5 0 0 1 1339.5 247 L 1339.5 227  Z " fill-rule="nonzero" fill="#19be6b" stroke="none" />
    <path d="M 1339.5 227  A 4.5 4.5 0 0 1 1344 222.5 L 1434 222.5  A 4.5 4.5 0 0 1 1438.5 227 L 1438.5 247  A 4.5 4.5 0 0 1 1434 251.5 L 1344 251.5  A 4.5 4.5 0 0 1 1339.5 247 L 1339.5 227  Z " stroke-width="1" stroke="#19be6b" fill="none" />
  </g>
</svg>