<?xml version="1.0" encoding="utf-8"?>
<svg version="1.1" xmlns:xlink="http://www.w3.org/1999/xlink" width="100px" height="30px" xmlns="http://www.w3.org/2000/svg">
  <g transform="matrix(1 0 0 1 -1464 -222 )">
    <path d="M 1464.5 227  A 4.5 4.5 0 0 1 1469 222.5 L 1559 222.5  A 4.5 4.5 0 0 1 1563.5 227 L 1563.5 247  A 4.5 4.5 0 0 1 1559 251.5 L 1469 251.5  A 4.5 4.5 0 0 1 1464.5 247 L 1464.5 227  Z " fill-rule="nonzero" fill="#f56c6c" stroke="none" />
    <path d="M 1464.5 227  A 4.5 4.5 0 0 1 1469 222.5 L 1559 222.5  A 4.5 4.5 0 0 1 1563.5 227 L 1563.5 247  A 4.5 4.5 0 0 1 1559 251.5 L 1469 251.5  A 4.5 4.5 0 0 1 1464.5 247 L 1464.5 227  Z " stroke-width="1" stroke="#f56c6c" fill="none" />
  </g>
</svg>