<?xml version="1.0" encoding="utf-8"?>
<svg version="1.1" xmlns:xlink="http://www.w3.org/1999/xlink" width="100px" height="30px" xmlns="http://www.w3.org/2000/svg">
  <g transform="matrix(1 0 0 1 -1464 -222 )">
    <path d="M 1465 227  A 4 4 0 0 1 1469 223 L 1559 223  A 4 4 0 0 1 1563 227 L 1563 247  A 4 4 0 0 1 1559 251 L 1469 251  A 4 4 0 0 1 1465 247 L 1465 227  Z " fill-rule="nonzero" fill="#fef3f3" stroke="none" fill-opacity="0.996078431372549" />
    <path d="M 1464.5 227  A 4.5 4.5 0 0 1 1469 222.5 L 1559 222.5  A 4.5 4.5 0 0 1 1563.5 227 L 1563.5 247  A 4.5 4.5 0 0 1 1559 251.5 L 1469 251.5  A 4.5 4.5 0 0 1 1464.5 247 L 1464.5 227  Z " stroke-width="1" stroke="#f89898" fill="none" stroke-opacity="0.996078431372549" />
  </g>
</svg>