<?xml version="1.0" encoding="utf-8"?>
<svg version="1.1" xmlns:xlink="http://www.w3.org/1999/xlink" width="100px" height="30px" xmlns="http://www.w3.org/2000/svg">
  <defs>
    <mask fill="white" id="clip464">
      <path d="M 0 25  L 0 5  C 0 2.2  2.20000000000005 0  5 0  L 58.4489795918369 0  L 95 0  C 97.8 0  100 2.2  100 5  L 100 25  C 100 27.8  97.8 30  95 30  L 5 30  C 2.20000000000005 30  0 27.8  0 25  Z " fill-rule="evenodd" />
    </mask>
  </defs>
  <g transform="matrix(1 0 0 1 -1464 -20 )">
    <path d="M 0 25  L 0 5  C 0 2.2  2.20000000000005 0  5 0  L 58.4489795918369 0  L 95 0  C 97.8 0  100 2.2  100 5  L 100 25  C 100 27.8  97.8 30  95 30  L 5 30  C 2.20000000000005 30  0 27.8  0 25  Z " fill-rule="nonzero" fill="#5daf34" stroke="none" transform="matrix(1 0 0 1 1464 20 )" />
    <path d="M 0 25  L 0 5  C 0 2.2  2.20000000000005 0  5 0  L 58.4489795918369 0  L 95 0  C 97.8 0  100 2.2  100 5  L 100 25  C 100 27.8  97.8 30  95 30  L 5 30  C 2.20000000000005 30  0 27.8  0 25  Z " stroke-width="2" stroke="#5daf34" fill="none" transform="matrix(1 0 0 1 1464 20 )" mask="url(#clip464)" />
  </g>
</svg>