<?xml version="1.0" encoding="utf-8"?>
<svg version="1.1" xmlns:xlink="http://www.w3.org/1999/xlink" width="30px" height="30px" xmlns="http://www.w3.org/2000/svg">
  <g transform="matrix(1 0 0 1 -775 -181 )">
    <path d="M 790 182  C 797.84 182  804 188.16  804 196  C 804 203.84  797.84 210  790 210  C 782.16 210  776 203.84  776 196  C 776 188.16  782.16 182  790 182  Z " fill-rule="nonzero" fill="#ffffff" stroke="none" />
    <path d="M 790 182  C 797.84 182  804 188.16  804 196  C 804 203.84  797.84 210  790 210  C 782.16 210  776 203.84  776 196  C 776 188.16  782.16 182  790 182  Z " stroke-width="2" stroke="#409eff" fill="none" />
  </g>
</svg>