<?xml version="1.0" encoding="utf-8"?>
<svg version="1.1" xmlns:xlink="http://www.w3.org/1999/xlink" width="10px" height="24px" preserveAspectRatio="xMidYMin meet" viewBox="44 61  8 24" xmlns="http://www.w3.org/2000/svg">
  <path d="M 48.5 62  L 48.5 75  A 5 5 0 0 0 53.5 80.5 L 85 80.5  A 5 5 0 0 0 90.5 75.5 L 90.5 66  A 5 5 0 0 0 85.5 61.5 L 80 61.5  " stroke-width="1" stroke="#8400ff" fill="none" />
  <path d="M 48.5 61  A 3 3 0 0 0 45.5 64 A 3 3 0 0 0 48.5 67 A 3 3 0 0 0 51.5 64 A 3 3 0 0 0 48.5 61 Z M 81 67  L 81 56  L 80 56  L 80 67  L 81 67  Z " fill-rule="nonzero" fill="#8400ff" stroke="none" />
</svg>