<?xml version="1.0" encoding="utf-8"?>
<svg version="1.1" xmlns:xlink="http://www.w3.org/1999/xlink" width="70px" height="10px" preserveAspectRatio="xMinYMid meet" viewBox="585 864  70 8" xmlns="http://www.w3.org/2000/svg">
  <path d="M 586 868.5  L 649.5 868.5  A 0.5 0.5 0 0 1 650.5 869 A 0.5 0.5 0 0 0 651 869.5 L 664 869.5  " stroke-width="1" stroke="#0099ff" fill="none" />
  <path d="M 588 865.5  A 3 3 0 0 0 585 868.5 A 3 3 0 0 0 588 871.5 A 3 3 0 0 0 591 868.5 A 3 3 0 0 0 588 865.5 Z M 663 864  L 663 875  L 664 875  L 664 864  L 663 864  Z " fill-rule="nonzero" fill="#0099ff" stroke="none" />
</svg>