<?xml version="1.0" encoding="utf-8"?>
<svg version="1.1" xmlns:xlink="http://www.w3.org/1999/xlink" width="18px" height="18px" preserveAspectRatio="xMinYMid meet" viewBox="265 684  18 16" xmlns="http://www.w3.org/2000/svg">
  <path d="M 343.5 638  L 343.5 665  A 5 5 0 0 1 338.5 670.5 L 265 670.5  A 5 5 0 0 0 260.5 675.5 L 260.5 688  A 5 5 0 0 0 265.5 693.5 L 274 693.5  " stroke-width="1" stroke="#0099ff" fill="none" />
  <path d="M 343.5 637  A 3 3 0 0 0 340.5 640 A 3 3 0 0 0 343.5 643 A 3 3 0 0 0 346.5 640 A 3 3 0 0 0 343.5 637 Z M 273 688  L 273 699  L 274 699  L 274 688  L 273 688  Z " fill-rule="nonzero" fill="#0099ff" stroke="none" />
</svg>