<?xml version="1.0" encoding="utf-8"?>
<svg version="1.1" xmlns:xlink="http://www.w3.org/1999/xlink" width="28px" height="10px" preserveAspectRatio="xMinYMid meet" viewBox="75 923  28 8" xmlns="http://www.w3.org/2000/svg">
  <path d="M 346 839.5  L 85 839.5  A 5 5 0 0 0 80.5 844.5 L 80.5 922  A 5 5 0 0 0 85.5 927.5 L 98 927.5  " stroke-width="1" stroke="#0099ff" fill="none" />
  <path d="M 344 836.5  A 3 3 0 0 0 341 839.5 A 3 3 0 0 0 344 842.5 A 3 3 0 0 0 347 839.5 A 3 3 0 0 0 344 836.5 Z M 97 922  L 97 933  L 98 933  L 98 922  L 97 922  Z " fill-rule="nonzero" fill="#0099ff" stroke="none" />
</svg>