<?xml version="1.0" encoding="utf-8"?>
<svg version="1.1" xmlns:xlink="http://www.w3.org/1999/xlink" width="185px" height="44px" xmlns="http://www.w3.org/2000/svg">
  <g transform="matrix(1 0 0 1 -526 -199 )">
    <path d="M 528 203  A 2 2 0 0 1 530 201 L 707 201  A 2 2 0 0 1 709 203 L 709 239  A 2 2 0 0 1 707 241 L 530 241  A 2 2 0 0 1 528 239 L 528 203  Z " fill-rule="nonzero" fill="#ff3399" stroke="none" fill-opacity="0.0980392156862745" />
    <path d="M 527 203  A 3 3 0 0 1 530 200 L 707 200  A 3 3 0 0 1 710 203 L 710 239  A 3 3 0 0 1 707 242 L 530 242  A 3 3 0 0 1 527 239 L 527 203  Z " stroke-width="2" stroke-dasharray="6,2" stroke="#ff3399" fill="none" />
  </g>
</svg>