<?xml version="1.0" encoding="utf-8"?>
<svg version="1.1" xmlns:xlink="http://www.w3.org/1999/xlink" width="72px" height="32px" xmlns="http://www.w3.org/2000/svg">
  <g transform="matrix(1 0 0 1 -612 -869 )">
    <path d="M 614 873  A 2 2 0 0 1 616 871 L 680 871  A 2 2 0 0 1 682 873 L 682 897  A 2 2 0 0 1 680 899 L 616 899  A 2 2 0 0 1 614 897 L 614 873  Z " fill-rule="nonzero" fill="#ff3399" stroke="none" fill-opacity="0.0980392156862745" />
    <path d="M 613 873  A 3 3 0 0 1 616 870 L 680 870  A 3 3 0 0 1 683 873 L 683 897  A 3 3 0 0 1 680 900 L 616 900  A 3 3 0 0 1 613 897 L 613 873  Z " stroke-width="2" stroke-dasharray="6,2" stroke="#ff3399" fill="none" />
  </g>
</svg>