<?xml version="1.0" encoding="utf-8"?>
<svg version="1.1" xmlns:xlink="http://www.w3.org/1999/xlink" width="53px" height="34px" xmlns="http://www.w3.org/2000/svg">
  <g transform="matrix(1 0 0 1 -522 -150 )">
    <path d="M 524 154  A 2 2 0 0 1 526 152 L 571 152  A 2 2 0 0 1 573 154 L 573 180  A 2 2 0 0 1 571 182 L 526 182  A 2 2 0 0 1 524 180 L 524 154  Z " fill-rule="nonzero" fill="#ff3399" stroke="none" fill-opacity="0.0980392156862745" />
    <path d="M 523 154  A 3 3 0 0 1 526 151 L 571 151  A 3 3 0 0 1 574 154 L 574 180  A 3 3 0 0 1 571 183 L 526 183  A 3 3 0 0 1 523 180 L 523 154  Z " stroke-width="2" stroke-dasharray="6,2" stroke="#ff3399" fill="none" />
  </g>
</svg>