<?xml version="1.0" encoding="utf-8"?>
<svg version="1.1" xmlns:xlink="http://www.w3.org/1999/xlink" width="97px" height="43px" xmlns="http://www.w3.org/2000/svg">
  <g transform="matrix(1 0 0 1 -522 -252 )">
    <path d="M 524 256  A 2 2 0 0 1 526 254 L 615 254  A 2 2 0 0 1 617 256 L 617 291  A 2 2 0 0 1 615 293 L 526 293  A 2 2 0 0 1 524 291 L 524 256  Z " fill-rule="nonzero" fill="#ff3399" stroke="none" fill-opacity="0.0980392156862745" />
    <path d="M 523 256  A 3 3 0 0 1 526 253 L 615 253  A 3 3 0 0 1 618 256 L 618 291  A 3 3 0 0 1 615 294 L 526 294  A 3 3 0 0 1 523 291 L 523 256  Z " stroke-width="2" stroke-dasharray="34,16" stroke="#ff3399" fill="none" />
  </g>
</svg>