<?xml version="1.0" encoding="utf-8"?>
<svg version="1.1" xmlns:xlink="http://www.w3.org/1999/xlink" width="49px" height="41px" xmlns="http://www.w3.org/2000/svg">
  <g transform="matrix(1 0 0 1 -578 -1980 )">
    <path d="M 580 1984  A 2 2 0 0 1 582 1982 L 623 1982  A 2 2 0 0 1 625 1984 L 625 2017  A 2 2 0 0 1 623 2019 L 582 2019  A 2 2 0 0 1 580 2017 L 580 1984  Z " fill-rule="nonzero" fill="#ff3399" stroke="none" fill-opacity="0.0980392156862745" />
    <path d="M 579 1984  A 3 3 0 0 1 582 1981 L 623 1981  A 3 3 0 0 1 626 1984 L 626 2017  A 3 3 0 0 1 623 2020 L 582 2020  A 3 3 0 0 1 579 2017 L 579 1984  Z " stroke-width="2" stroke-dasharray="6,2" stroke="#ff3399" fill="none" />
  </g>
</svg>