<?xml version="1.0" encoding="utf-8"?>
<svg version="1.1" xmlns:xlink="http://www.w3.org/1999/xlink" width="10px" height="1112px" preserveAspectRatio="xMidYMin meet" viewBox="299 903  8 1112" xmlns="http://www.w3.org/2000/svg">
  <path d="M 513 2010  L 459 2010  A 3 3 0 0 0 456 2007 A 3 3 0 0 0 453 2010 L 308 2010  A 5 5 0 0 1 303 2005 L 303 913  A 5 5 0 0 1 308 908 L 453 908  A 3 3 0 0 1 456 905 A 3 3 0 0 1 459 908 L 475 908  " stroke-width="2" stroke="#ff3399" fill="none" />
  <path d="M 474 915.6  L 481 908  L 474 900.4  L 474 915.6  Z " fill-rule="nonzero" fill="#ff3399" stroke="none" />
</svg>