<?xml version="1.0" encoding="utf-8"?>
<svg version="1.1" xmlns:xlink="http://www.w3.org/1999/xlink" width="18px" height="18px" preserveAspectRatio="xMinYMid meet" viewBox="999 778  18 16" xmlns="http://www.w3.org/2000/svg">
  <path d="M 1008.5 784  L 1008.5 795  A 5 5 0 0 0 1013.5 800.5 L 1045 800.5  A 5 5 0 0 0 1050.5 795.5 L 1050.5 788  A 5 5 0 0 0 1045.5 783.5 L 1040 783.5  " stroke-width="1" stroke="#0099ff" fill="none" />
  <path d="M 1008.5 783  A 3 3 0 0 0 1005.5 786 A 3 3 0 0 0 1008.5 789 A 3 3 0 0 0 1011.5 786 A 3 3 0 0 0 1008.5 783 Z M 1041 789  L 1041 778  L 1040 778  L 1040 789  L 1041 789  Z " fill-rule="nonzero" fill="#0099ff" stroke="none" />
</svg>