<?xml version="1.0" encoding="utf-8"?>
<svg version="1.1" xmlns:xlink="http://www.w3.org/1999/xlink" width="10px" height="28px" preserveAspectRatio="xMidYMin meet" viewBox="1026 607  8 28" xmlns="http://www.w3.org/2000/svg">
  <path d="M 988.5 613  L 988.5 625  A 5 5 0 0 0 993.5 630.5 L 1025 630.5  A 5 5 0 0 0 1030.5 625.5 L 1030.5 617  A 5 5 0 0 0 1025.5 612.5 L 1020 612.5  " stroke-width="1" stroke="#fb6260" fill="none" />
  <path d="M 988.5 612  A 3 3 0 0 0 985.5 615 A 3 3 0 0 0 988.5 618 A 3 3 0 0 0 991.5 615 A 3 3 0 0 0 988.5 612 Z M 1021 618  L 1021 607  L 1020 607  L 1020 618  L 1021 618  Z " fill-rule="nonzero" fill="#fb6260" stroke="none" />
</svg>