<?xml version="1.0" encoding="utf-8"?>
<svg version="1.1" xmlns:xlink="http://www.w3.org/1999/xlink" width="30px" height="30px" xmlns="http://www.w3.org/2000/svg">
  <g transform="matrix(1 0 0 1 -435 -181 )">
    <path d="M 450 182  C 457.84 182  464 188.16  464 196  C 464 203.84  457.84 210  450 210  C 442.16 210  436 203.84  436 196  C 436 188.16  442.16 182  450 182  Z " fill-rule="nonzero" fill="#409eff" stroke="none" />
    <path d="M 450 182  C 457.84 182  464 188.16  464 196  C 464 203.84  457.84 210  450 210  C 442.16 210  436 203.84  436 196  C 436 188.16  442.16 182  450 182  Z " stroke-width="2" stroke="#409eff" fill="none" />
  </g>
</svg>