<?xml version="1.0" encoding="utf-8"?>
<svg version="1.1" xmlns:xlink="http://www.w3.org/1999/xlink" width="30px" height="30px" xmlns="http://www.w3.org/2000/svg">
  <g transform="matrix(1 0 0 1 -1115 -181 )">
    <path d="M 1130 182  C 1137.84 182  1144 188.16  1144 196  C 1144 203.84  1137.84 210  1130 210  C 1122.16 210  1116 203.84  1116 196  C 1116 188.16  1122.16 182  1130 182  Z " fill-rule="nonzero" fill="#ffffff" stroke="none" />
    <path d="M 1130 182  C 1137.84 182  1144 188.16  1144 196  C 1144 203.84  1137.84 210  1130 210  C 1122.16 210  1116 203.84  1116 196  C 1116 188.16  1122.16 182  1130 182  Z " stroke-width="2" stroke="#e4e4e4" fill="none" />
  </g>
</svg>