<?xml version="1.0" encoding="utf-8"?>
<svg version="1.1" xmlns:xlink="http://www.w3.org/1999/xlink" width="80px" height="35px" xmlns="http://www.w3.org/2000/svg">
  <g transform="matrix(1 0 0 1 -1440 -170 )">
    <path d="M 1440.5 175  A 4.5 4.5 0 0 1 1445 170.5 L 1515 170.5  A 4.5 4.5 0 0 1 1519.5 175 L 1519.5 200  A 4.5 4.5 0 0 1 1515 204.5 L 1445 204.5  A 4.5 4.5 0 0 1 1440.5 200 L 1440.5 175  Z " fill-rule="nonzero" fill="#f9f9f9" stroke="none" fill-opacity="0" />
    <path d="M 1440.5 175  A 4.5 4.5 0 0 1 1445 170.5 L 1515 170.5  A 4.5 4.5 0 0 1 1519.5 175 L 1519.5 200  A 4.5 4.5 0 0 1 1515 204.5 L 1445 204.5  A 4.5 4.5 0 0 1 1440.5 200 L 1440.5 175  Z " stroke-width="1" stroke="#e4e4e4" fill="none" />
  </g>
</svg>