<?xml version="1.0" encoding="utf-8"?>
<svg version="1.1" xmlns:xlink="http://www.w3.org/1999/xlink" width="80px" height="35px" xmlns="http://www.w3.org/2000/svg">
  <g transform="matrix(1 0 0 1 -1440 -170 )">
    <path d="M 1441 175  A 4 4 0 0 1 1445 171 L 1515 171  A 4 4 0 0 1 1519 175 L 1519 200  A 4 4 0 0 1 1515 204 L 1445 204  A 4 4 0 0 1 1441 200 L 1441 175  Z " fill-rule="nonzero" fill="#f0f7ff" stroke="none" />
    <path d="M 1440.5 175  A 4.5 4.5 0 0 1 1445 170.5 L 1515 170.5  A 4.5 4.5 0 0 1 1519.5 175 L 1519.5 200  A 4.5 4.5 0 0 1 1515 204.5 L 1445 204.5  A 4.5 4.5 0 0 1 1440.5 200 L 1440.5 175  Z " stroke-width="1" stroke="#7abbff" fill="none" stroke-opacity="0.996078431372549" />
  </g>
</svg>