<?xml version="1.0" encoding="utf-8"?>
<svg version="1.1" xmlns:xlink="http://www.w3.org/1999/xlink" width="120px" height="40px" xmlns="http://www.w3.org/2000/svg">
  <defs>
    <mask fill="white" id="clip1609">
      <path d="M 0 32  L 0 8  C 0 3.51999999999998  3.61643835616446 0  8.21917808219178 0  L 45.0131157097056 0  L 111.780821917808 0  C 116.383561643836 0  120 3.51999999999998  120 8  L 120 32  C 120 36.48  116.383561643836 40  111.780821917808 40  L 35.3949285922473 40  L 8.21917808219178 40  C 3.61643835616446 40  0 36.48  0 32  Z " fill-rule="evenodd" />
    </mask>
  </defs>
  <g transform="matrix(1 0 0 1 -1061 -46 )">
    <path d="M 0 32  L 0 8  C 0 3.51999999999998  3.61643835616446 0  8.21917808219178 0  L 45.0131157097056 0  L 111.780821917808 0  C 116.383561643836 0  120 3.51999999999998  120 8  L 120 32  C 120 36.48  116.383561643836 40  111.780821917808 40  L 35.3949285922473 40  L 8.21917808219178 40  C 3.61643835616446 40  0 36.48  0 32  Z " fill-rule="nonzero" fill="#f0f7ff" stroke="none" transform="matrix(1 0 0 1 1061 46 )" />
    <path d="M 0 32  L 0 8  C 0 3.51999999999998  3.61643835616446 0  8.21917808219178 0  L 45.0131157097056 0  L 111.780821917808 0  C 116.383561643836 0  120 3.51999999999998  120 8  L 120 32  C 120 36.48  116.383561643836 40  111.780821917808 40  L 35.3949285922473 40  L 8.21917808219178 40  C 3.61643835616446 40  0 36.48  0 32  Z " stroke-width="2" stroke="#7abbff" fill="none" transform="matrix(1 0 0 1 1061 46 )" mask="url(#clip1609)" />
  </g>
</svg>