<?xml version="1.0" encoding="utf-8"?>
<svg version="1.1" xmlns:xlink="http://www.w3.org/1999/xlink" width="15px" height="15px" xmlns="http://www.w3.org/2000/svg">
  <g transform="matrix(1 0 0 1 -103 -438 )">
    <path d="M 110.5 441.5  C 112.74 441.5  114.5 443.26  114.5 445.5  C 114.5 447.74  112.74 449.5  110.5 449.5  C 108.26 449.5  106.5 447.74  106.5 445.5  C 106.5 443.26  108.26 441.5  110.5 441.5  Z " fill-rule="nonzero" fill="#0079fe" stroke="none" />
    <path d="M 110.5 440  C 113.58 440  116 442.42  116 445.5  C 116 448.58  113.58 451  110.5 451  C 107.42 451  105 448.58  105 445.5  C 105 442.42  107.42 440  110.5 440  Z " stroke-width="4" stroke="#0079fe" fill="none" stroke-opacity="0.298039215686275" />
  </g>
</svg>