<?xml version="1.0" encoding="utf-8"?>
<svg version="1.1" xmlns:xlink="http://www.w3.org/1999/xlink" width="15px" height="15px" xmlns="http://www.w3.org/2000/svg">
  <g transform="matrix(1 0 0 1 -103 -2137 )">
    <path d="M 110.5 2138  C 114.14 2138  117 2140.86  117 2144.5  C 117 2148.14  114.14 2151  110.5 2151  C 106.86 2151  104 2148.14  104 2144.5  C 104 2140.86  106.86 2138  110.5 2138  Z " fill-rule="nonzero" fill="#ffffff" stroke="none" />
    <path d="M 110.5 2138  C 114.14 2138  117 2140.86  117 2144.5  C 117 2148.14  114.14 2151  110.5 2151  C 106.86 2151  104 2148.14  104 2144.5  C 104 2140.86  106.86 2138  110.5 2138  Z " stroke-width="2" stroke="#0079fe" fill="none" />
  </g>
</svg>