<?xml version="1.0" encoding="utf-8"?>
<svg version="1.1" xmlns:xlink="http://www.w3.org/1999/xlink" width="15px" height="15px" xmlns="http://www.w3.org/2000/svg">
  <g transform="matrix(1 0 0 1 -103 -2037 )">
    <path d="M 110.5 2038  C 114.14 2038  117 2040.86  117 2044.5  C 117 2048.14  114.14 2051  110.5 2051  C 106.86 2051  104 2048.14  104 2044.5  C 104 2040.86  106.86 2038  110.5 2038  Z " fill-rule="nonzero" fill="#ffffff" stroke="none" />
    <path d="M 110.5 2038  C 114.14 2038  117 2040.86  117 2044.5  C 117 2048.14  114.14 2051  110.5 2051  C 106.86 2051  104 2048.14  104 2044.5  C 104 2040.86  106.86 2038  110.5 2038  Z " stroke-width="2" stroke="#0079fe" fill="none" />
  </g>
</svg>