<?xml version="1.0" encoding="utf-8"?>
<svg version="1.1" xmlns:xlink="http://www.w3.org/1999/xlink" width="15px" height="15px" xmlns="http://www.w3.org/2000/svg">
  <g transform="matrix(1 0 0 1 -103 -338 )">
    <path d="M 110.5 341.5  C 112.74 341.5  114.5 343.26  114.5 345.5  C 114.5 347.74  112.74 349.5  110.5 349.5  C 108.26 349.5  106.5 347.74  106.5 345.5  C 106.5 343.26  108.26 341.5  110.5 341.5  Z " fill-rule="nonzero" fill="#0079fe" stroke="none" />
    <path d="M 110.5 340  C 113.58 340  116 342.42  116 345.5  C 116 348.58  113.58 351  110.5 351  C 107.42 351  105 348.58  105 345.5  C 105 342.42  107.42 340  110.5 340  Z " stroke-width="4" stroke="#0079fe" fill="none" stroke-opacity="0.298039215686275" />
  </g>
</svg>