<?xml version="1.0" encoding="utf-8"?>
<svg version="1.1" xmlns:xlink="http://www.w3.org/1999/xlink" width="18px" height="18px" preserveAspectRatio="xMinYMid meet" viewBox="241 337  18 16" xmlns="http://www.w3.org/2000/svg">
  <path d="M 218.5 347  L 218.5 365  A 5 5 0 0 0 223.5 370.5 L 255 370.5  A 5 5 0 0 0 260.5 365.5 L 260.5 351  A 5 5 0 0 0 255.5 346.5 L 250 346.5  " stroke-width="1" stroke="#fb6260" fill="none" />
  <path d="M 218.5 346  A 3 3 0 0 0 215.5 349 A 3 3 0 0 0 218.5 352 A 3 3 0 0 0 221.5 349 A 3 3 0 0 0 218.5 346 Z M 251 352  L 251 341  L 250 341  L 250 352  L 251 352  Z " fill-rule="nonzero" fill="#fb6260" stroke="none" />
</svg>