<?xml version="1.0" encoding="utf-8"?>
<svg version="1.1" xmlns:xlink="http://www.w3.org/1999/xlink" width="18px" height="18px" preserveAspectRatio="xMinYMid meet" viewBox="1209 612  18 16" xmlns="http://www.w3.org/2000/svg">
  <path d="M 1220 620.5  L 1165 620.5  A 5 5 0 0 1 1160.5 615.5 L 1160.5 386  A 5 5 0 0 1 1165.5 381.5 L 1177 381.5  " stroke-width="1" stroke="#fb6260" fill="none" />
  <path d="M 1218 617.5  A 3 3 0 0 0 1215 620.5 A 3 3 0 0 0 1218 623.5 A 3 3 0 0 0 1221 620.5 A 3 3 0 0 0 1218 617.5 Z M 1176 376  L 1176 387  L 1177 387  L 1177 376  L 1176 376  Z " fill-rule="nonzero" fill="#fb6260" stroke="none" />
</svg>