<?xml version="1.0" encoding="utf-8"?>
<svg version="1.1" xmlns:xlink="http://www.w3.org/1999/xlink" width="18px" height="18px" preserveAspectRatio="xMinYMid meet" viewBox="1193 375  18 16" xmlns="http://www.w3.org/2000/svg">
  <path d="M 1204 383.5  L 1145 383.5  A 5 5 0 0 0 1140.5 388.5 L 1140.5 454  A 5 5 0 0 0 1145.5 459.5 L 1153 459.5  " stroke-width="1" stroke="#fb6260" fill="none" />
  <path d="M 1202 380.5  A 3 3 0 0 0 1199 383.5 A 3 3 0 0 0 1202 386.5 A 3 3 0 0 0 1205 383.5 A 3 3 0 0 0 1202 380.5 Z M 1152 454  L 1152 465  L 1153 465  L 1153 454  L 1152 454  Z " fill-rule="nonzero" fill="#fb6260" stroke="none" />
</svg>