<?xml version="1.0" encoding="utf-8"?>
<svg version="1.1" xmlns:xlink="http://www.w3.org/1999/xlink" width="48px" height="10px" preserveAspectRatio="xMinYMid meet" viewBox="1195 742  48 8" xmlns="http://www.w3.org/2000/svg">
  <path d="M 1242 746.5  L 1205 746.5  A 5 5 0 0 0 1200.5 751.5 L 1200.5 866  A 5 5 0 0 0 1205.5 871.5 L 1219 871.5  " stroke-width="1" stroke="#0099ff" fill="none" />
  <path d="M 1240 743.5  A 3 3 0 0 0 1237 746.5 A 3 3 0 0 0 1240 749.5 A 3 3 0 0 0 1243 746.5 A 3 3 0 0 0 1240 743.5 Z M 1218 866  L 1218 877  L 1219 877  L 1219 866  L 1218 866  Z " fill-rule="nonzero" fill="#0099ff" stroke="none" />
</svg>