<?xml version="1.0" encoding="utf-8"?>
<svg version="1.1" xmlns:xlink="http://www.w3.org/1999/xlink" width="18px" height="18px" preserveAspectRatio="xMinYMid meet" viewBox="265 310  18 16" xmlns="http://www.w3.org/2000/svg">
  <path d="M 276 318.5  L 215 318.5  A 5 5 0 0 0 210.5 323.5 L 210.5 406  A 5 5 0 0 0 215.5 411.5 L 225 411.5  " stroke-width="1" stroke="#fb6260" fill="none" />
  <path d="M 274 315.5  A 3 3 0 0 0 271 318.5 A 3 3 0 0 0 274 321.5 A 3 3 0 0 0 277 318.5 A 3 3 0 0 0 274 315.5 Z M 224 406  L 224 417  L 225 417  L 225 406  L 224 406  Z " fill-rule="nonzero" fill="#fb6260" stroke="none" />
</svg>