<?xml version="1.0" encoding="utf-8"?>
<svg version="1.1" xmlns:xlink="http://www.w3.org/1999/xlink" width="10px" height="27px" preserveAspectRatio="xMidYMin meet" viewBox="136 388  8 27" xmlns="http://www.w3.org/2000/svg">
  <path d="M 98.5 394  L 98.5 405  A 5 5 0 0 0 103.5 410.5 L 135 410.5  A 5 5 0 0 0 140.5 405.5 L 140.5 398  A 5 5 0 0 0 135.5 393.5 L 130 393.5  " stroke-width="1" stroke="#0099ff" fill="none" />
  <path d="M 98.5 393  A 3 3 0 0 0 95.5 396 A 3 3 0 0 0 98.5 399 A 3 3 0 0 0 101.5 396 A 3 3 0 0 0 98.5 393 Z M 131 399  L 131 388  L 130 388  L 130 399  L 131 399  Z " fill-rule="nonzero" fill="#0099ff" stroke="none" />
</svg>