<?xml version="1.0" encoding="utf-8"?>
<svg version="1.1" xmlns:xlink="http://www.w3.org/1999/xlink" width="323px" height="10px" preserveAspectRatio="xMinYMid meet" viewBox="142 106  323 8" xmlns="http://www.w3.org/2000/svg">
  <path d="M 147.5 143  L 147.5 115  A 5 5 0 0 1 152.5 110.5 L 455 110.5  A 5 5 0 0 0 460.5 105.5 L 460.5 91  A 5 5 0 0 0 455.5 86.5 L 450 86.5  " stroke-width="1" stroke="#ce3232" fill="none" />
  <path d="M 147.5 138  A 3 3 0 0 0 144.5 141 A 3 3 0 0 0 147.5 144 A 3 3 0 0 0 150.5 141 A 3 3 0 0 0 147.5 138 Z M 451 92  L 451 81  L 450 81  L 450 92  L 451 92  Z " fill-rule="nonzero" fill="#ce3232" stroke="none" />
</svg>