<?xml version="1.0" encoding="utf-8"?>
<svg version="1.1" xmlns:xlink="http://www.w3.org/1999/xlink" width="18px" height="18px" preserveAspectRatio="xMinYMid meet" viewBox="297 291  18 16" xmlns="http://www.w3.org/2000/svg">
  <path d="M 304 299.5  L 455 299.5  A 5 5 0 0 0 460.5 294.5 L 460.5 285  A 5 5 0 0 0 455.5 280.5 L 450 280.5  " stroke-width="1" stroke="#ce3232" fill="none" />
  <path d="M 306 296.5  A 3 3 0 0 0 303 299.5 A 3 3 0 0 0 306 302.5 A 3 3 0 0 0 309 299.5 A 3 3 0 0 0 306 296.5 Z M 451 286  L 451 275  L 450 275  L 450 286  L 451 286  Z " fill-rule="nonzero" fill="#ce3232" stroke="none" />
</svg>