<?xml version="1.0" encoding="utf-8"?>
<svg version="1.1" xmlns:xlink="http://www.w3.org/1999/xlink" width="10px" height="5px" preserveAspectRatio="xMinYMid meet" viewBox="445 33  10 3" xmlns="http://www.w3.org/2000/svg">
  <path d="M 198.5 54  L 198.5 48  A 5 5 0 0 1 203.5 43.5 L 455 43.5  A 5 5 0 0 0 460.5 38.5 L 460.5 37  A 5 5 0 0 0 455.5 32.5 L 450 32.5  " stroke-width="1" stroke="#ce3232" fill="none" />
  <path d="M 198.5 49  A 3 3 0 0 0 195.5 52 A 3 3 0 0 0 198.5 55 A 3 3 0 0 0 201.5 52 A 3 3 0 0 0 198.5 49 Z M 451 38  L 451 27  L 450 27  L 450 38  L 451 38  Z " fill-rule="nonzero" fill="#ce3232" stroke="none" />
</svg>