<?xml version="1.0" encoding="utf-8"?>
<svg version="1.1" xmlns:xlink="http://www.w3.org/1999/xlink" width="30px" height="30px" xmlns="http://www.w3.org/2000/svg">
  <g transform="matrix(1 0 0 1 -280 -732 )">
    <path d="M 295 732  C 303.4 732  310 738.6  310 747  C 310 755.4  303.4 762  295 762  C 286.6 762  280 755.4  280 747  C 280 738.6  286.6 732  295 732  Z " fill-rule="nonzero" fill="#ffffff" stroke="none" />
    <path d="M 295 732.5  C 303.12 732.5  309.5 738.88  309.5 747  C 309.5 755.12  303.12 761.5  295 761.5  C 286.88 761.5  280.5 755.12  280.5 747  C 280.5 738.88  286.88 732.5  295 732.5  Z " stroke-width="1" stroke="#ffa94c" fill="none" />
  </g>
</svg>