<?xml version="1.0" encoding="utf-8"?>
<svg version="1.1" xmlns:xlink="http://www.w3.org/1999/xlink" width="30px" height="30px" xmlns="http://www.w3.org/2000/svg">
  <g transform="matrix(1 0 0 1 -280 -845 )">
    <path d="M 295 845  C 303.4 845  310 851.6  310 860  C 310 868.4  303.4 875  295 875  C 286.6 875  280 868.4  280 860  C 280 851.6  286.6 845  295 845  Z " fill-rule="nonzero" fill="#ffffff" stroke="none" />
    <path d="M 295 845.5  C 303.12 845.5  309.5 851.88  309.5 860  C 309.5 868.12  303.12 874.5  295 874.5  C 286.88 874.5  280.5 868.12  280.5 860  C 280.5 851.88  286.88 845.5  295 845.5  Z " stroke-width="1" stroke="#8167f5" fill="none" />
  </g>
</svg>