<?xml version="1.0" encoding="utf-8"?>
<svg version="1.1" xmlns:xlink="http://www.w3.org/1999/xlink" width="30px" height="30px" xmlns="http://www.w3.org/2000/svg">
  <g transform="matrix(1 0 0 1 -280 -944 )">
    <path d="M 295 944  C 303.4 944  310 950.6  310 959  C 310 967.4  303.4 974  295 974  C 286.6 974  280 967.4  280 959  C 280 950.6  286.6 944  295 944  Z " fill-rule="nonzero" fill="#ffffff" stroke="none" />
    <path d="M 295 944.5  C 303.12 944.5  309.5 950.88  309.5 959  C 309.5 967.12  303.12 973.5  295 973.5  C 286.88 973.5  280.5 967.12  280.5 959  C 280.5 950.88  286.88 944.5  295 944.5  Z " stroke-width="1" stroke="#4bced0" fill="none" />
  </g>
</svg>