<?xml version="1.0" encoding="utf-8"?>
<svg version="1.1" xmlns:xlink="http://www.w3.org/1999/xlink" width="30px" height="30px" xmlns="http://www.w3.org/2000/svg">
  <g transform="matrix(1 0 0 1 -280 -519 )">
    <path d="M 295 519  C 303.4 519  310 525.6  310 534  C 310 542.4  303.4 549  295 549  C 286.6 549  280 542.4  280 534  C 280 525.6  286.6 519  295 519  Z " fill-rule="nonzero" fill="#ffffff" stroke="none" />
    <path d="M 295 519.5  C 303.12 519.5  309.5 525.88  309.5 534  C 309.5 542.12  303.12 548.5  295 548.5  C 286.88 548.5  280.5 542.12  280.5 534  C 280.5 525.88  286.88 519.5  295 519.5  Z " stroke-width="1" stroke="#58a3f7" fill="none" />
  </g>
</svg>