<?xml version="1.0" encoding="utf-8"?>
<svg version="1.1" xmlns:xlink="http://www.w3.org/1999/xlink" width="30px" height="30px" xmlns="http://www.w3.org/2000/svg">
  <g transform="matrix(1 0 0 1 -280 -625 )">
    <path d="M 295 625  C 303.4 625  310 631.6  310 640  C 310 648.4  303.4 655  295 655  C 286.6 655  280 648.4  280 640  C 280 631.6  286.6 625  295 625  Z " fill-rule="nonzero" fill="#ffffff" stroke="none" />
    <path d="M 295 625.5  C 303.12 625.5  309.5 631.88  309.5 640  C 309.5 648.12  303.12 654.5  295 654.5  C 286.88 654.5  280.5 648.12  280.5 640  C 280.5 631.88  286.88 625.5  295 625.5  Z " stroke-width="1" stroke="#fb6260" fill="none" />
  </g>
</svg>