<?xml version="1.0" encoding="utf-8"?>
<svg version="1.1" xmlns:xlink="http://www.w3.org/1999/xlink" width="10px" height="25px" preserveAspectRatio="xMidYMin meet" viewBox="186 815  8 25" xmlns="http://www.w3.org/2000/svg">
  <path d="M 158.5 839  L 158.5 825  A 5 5 0 0 1 163.5 820.5 L 185 820.5  A 5 5 0 0 1 190.5 825.5 L 190.5 840  " stroke-width="1" stroke="#ce3232" fill="none" />
  <path d="M 158.5 834  A 3 3 0 0 0 155.5 837 A 3 3 0 0 0 158.5 840 A 3 3 0 0 0 161.5 837 A 3 3 0 0 0 158.5 834 Z M 196 839  L 185 839  L 185 840  L 196 840  L 196 839  Z " fill-rule="nonzero" fill="#ce3232" stroke="none" />
</svg>