<?xml version="1.0" encoding="utf-8"?>
<svg version="1.1" xmlns:xlink="http://www.w3.org/1999/xlink" width="5px" height="5px" xmlns="http://www.w3.org/2000/svg">
  <g transform="matrix(1 0 0 1 -142 -129 )">
    <path d="M 144.5 129  C 145.9 129  147 130.1  147 131.5  C 147 132.9  145.9 134  144.5 134  C 143.1 134  142 132.9  142 131.5  C 142 130.1  143.1 129  144.5 129  Z " fill-rule="nonzero" fill="#d9001b" stroke="none" />
    <path d="M 144.5 129.5  C 145.62 129.5  146.5 130.38  146.5 131.5  C 146.5 132.62  145.62 133.5  144.5 133.5  C 143.38 133.5  142.5 132.62  142.5 131.5  C 142.5 130.38  143.38 129.5  144.5 129.5  Z " stroke-width="1" stroke="#d9001b" fill="none" />
  </g>
</svg>