<?xml version="1.0" encoding="utf-8"?>
<svg version="1.1" xmlns:xlink="http://www.w3.org/1999/xlink" width="100px" height="60px" xmlns="http://www.w3.org/2000/svg">
  <defs>
    <linearGradient gradientUnits="userSpaceOnUse" x1="521" y1="197" x2="521" y2="257" id="LinearGradient271">
      <stop id="Stop272" stop-color="#ffffff" offset="0" />
      <stop id="Stop273" stop-color="#f2f2f2" offset="0" />
      <stop id="Stop274" stop-color="#e4e4e4" offset="1" />
      <stop id="Stop275" stop-color="#ffffff" offset="1" />
    </linearGradient>
  </defs>
  <g transform="matrix(1 0 0 1 -471 -197 )">
    <path d="M 521 197  C 549 197  571 210.2  571 227  C 571 243.8  549 257  521 257  C 493 257  471 243.8  471 227  C 471 210.2  493 197  521 197  Z " fill-rule="nonzero" fill="url(#LinearGradient271)" stroke="none" />
    <path d="M 521 197.5  C 548.72 197.5  570.5 210.48  570.5 227  C 570.5 243.52  548.72 256.5  521 256.5  C 493.28 256.5  471.5 243.52  471.5 227  C 471.5 210.48  493.28 197.5  521 197.5  Z " stroke-width="1" stroke="#f2f2f2" fill="none" />
  </g>
</svg>