<?xml version="1.0" encoding="utf-8"?>
<svg version="1.1" xmlns:xlink="http://www.w3.org/1999/xlink" width="121px" height="75px" xmlns="http://www.w3.org/2000/svg">
  <defs>
    <linearGradient gradientUnits="userSpaceOnUse" x1="60" y1="0" x2="60" y2="74" id="LinearGradient108">
      <stop id="Stop109" stop-color="#ffffff" offset="0" />
      <stop id="Stop110" stop-color="#f2f2f2" offset="0" />
      <stop id="Stop111" stop-color="#e4e4e4" offset="1" />
      <stop id="Stop112" stop-color="#ffffff" offset="1" />
    </linearGradient>
    <mask fill="white" id="clip113">
      <path d="M 120 0  L 0 0  L 0 74  L 120 74  L 120 0  Z " fill-rule="evenodd" />
    </mask>
  </defs>
  <g transform="matrix(1 0 0 1 -272 -986 )">
    <path d="M 120 0  L 0 0  L 0 74  L 120 74  L 120 0  Z " fill-rule="nonzero" fill="url(#LinearGradient108)" stroke="none" transform="matrix(1 0 0 1 272 986 )" />
    <path d="M 120 0  L 0 0  L 0 74  L 120 74  L 120 0  Z " stroke-width="2" stroke="#f2f2f2" fill="none" transform="matrix(1 0 0 1 272 986 )" mask="url(#clip113)" />
    <path d="M 12.5 0  L 12.5 74  M 107.5 0  L 107.5 74  " stroke-width="1" stroke="#f2f2f2" fill="none" transform="matrix(1 0 0 1 272 986 )" mask="url(#clip113)" />
  </g>
</svg>