<?xml version="1.0" encoding="utf-8"?>
<svg version="1.1" xmlns:xlink="http://www.w3.org/1999/xlink" width="139px" height="108px" xmlns="http://www.w3.org/2000/svg">
  <defs>
    <linearGradient gradientUnits="userSpaceOnUse" x1="69" y1="0" x2="69" y2="107" id="LinearGradient1710">
      <stop id="Stop1711" stop-color="#ffffff" offset="0" />
      <stop id="Stop1712" stop-color="#f2f2f2" offset="0" />
      <stop id="Stop1713" stop-color="#e4e4e4" offset="1" />
      <stop id="Stop1714" stop-color="#ffffff" offset="1" />
    </linearGradient>
    <mask fill="white" id="clip1715">
      <path d="M 138 0  L 0 0  L 0 107  L 138 107  L 138 0  Z " fill-rule="evenodd" />
    </mask>
  </defs>
  <g transform="matrix(1 0 0 1 -641 -977 )">
    <path d="M 138 0  L 0 0  L 0 107  L 138 107  L 138 0  Z " fill-rule="nonzero" fill="url(#LinearGradient1710)" stroke="none" transform="matrix(1 0 0 1 641 977 )" />
    <path d="M 138 0  L 0 0  L 0 107  L 138 107  L 138 0  Z " stroke-width="2" stroke="#f2f2f2" fill="none" transform="matrix(1 0 0 1 641 977 )" mask="url(#clip1715)" />
    <path d="M 14.5 0  L 14.5 107  M 123.5 0  L 123.5 107  " stroke-width="1" stroke="#f2f2f2" fill="none" transform="matrix(1 0 0 1 641 977 )" mask="url(#clip1715)" />
  </g>
</svg>