<?xml version="1.0" encoding="utf-8"?>
<svg version="1.1" xmlns:xlink="http://www.w3.org/1999/xlink" width="10px" height="253px" preserveAspectRatio="xMidYMin meet" viewBox="366 796  8 253" xmlns="http://www.w3.org/2000/svg">
  <path d="M 729 801.5  L 375 801.5  A 5 5 0 0 0 370.5 806.5 L 370.5 1039  A 5 5 0 0 1 365.5 1044.5 L 358 1044.5  " stroke-width="1" stroke="#ce3232" fill="none" />
  <path d="M 727 798.5  A 3 3 0 0 0 724 801.5 A 3 3 0 0 0 727 804.5 A 3 3 0 0 0 730 801.5 A 3 3 0 0 0 727 798.5 Z M 359 1050  L 359 1039  L 358 1039  L 358 1050  L 359 1050  Z " fill-rule="nonzero" fill="#ce3232" stroke="none" />
</svg>