<?xml version="1.0" encoding="utf-8"?>
<svg version="1.1" xmlns:xlink="http://www.w3.org/1999/xlink" width="18px" height="18px" preserveAspectRatio="xMinYMid meet" viewBox="394 616  18 16" xmlns="http://www.w3.org/2000/svg">
  <path d="M 405 624.5  L 25 624.5  A 5 5 0 0 0 20.5 629.5 L 20.5 703  A 5 5 0 0 0 25.5 708.5 L 38 708.5  " stroke-width="1" stroke="#fb6260" fill="none" />
  <path d="M 403 621.5  A 3 3 0 0 0 400 624.5 A 3 3 0 0 0 403 627.5 A 3 3 0 0 0 406 624.5 A 3 3 0 0 0 403 621.5 Z M 37 703  L 37 714  L 38 714  L 38 703  L 37 703  Z " fill-rule="nonzero" fill="#fb6260" stroke="none" />
</svg>