<?xml version="1.0" encoding="utf-8"?>
<svg version="1.1" xmlns:xlink="http://www.w3.org/1999/xlink" width="18px" height="18px" preserveAspectRatio="xMinYMid meet" viewBox="591 176  18 16" xmlns="http://www.w3.org/2000/svg">
  <path d="M 301.5 221  L 301.5 208  A 5 5 0 0 1 306.5 203.5 L 605 203.5  A 5 5 0 0 0 610.5 198.5 L 610.5 190  A 5 5 0 0 0 605.5 185.5 L 600 185.5  " stroke-width="1" stroke="#ce3232" fill="none" />
  <path d="M 301.5 216  A 3 3 0 0 0 298.5 219 A 3 3 0 0 0 301.5 222 A 3 3 0 0 0 304.5 219 A 3 3 0 0 0 301.5 216 Z M 601 191  L 601 180  L 600 180  L 600 191  L 601 191  Z " fill-rule="nonzero" fill="#ce3232" stroke="none" />
</svg>