<?xml version="1.0" encoding="utf-8"?>
<svg version="1.1" xmlns:xlink="http://www.w3.org/1999/xlink" width="257px" height="43px" xmlns="http://www.w3.org/2000/svg">
  <g transform="matrix(1 0 0 1 -1838 -1393 )">
    <path d="M 1840 1397  A 2 2 0 0 1 1842 1395 L 2091 1395  A 2 2 0 0 1 2093 1397 L 2093 1432  A 2 2 0 0 1 2091 1434 L 1842 1434  A 2 2 0 0 1 1840 1432 L 1840 1397  Z " fill-rule="nonzero" fill="#ff3399" stroke="none" fill-opacity="0.0980392156862745" />
    <path d="M 1839 1397  A 3 3 0 0 1 1842 1394 L 2091 1394  A 3 3 0 0 1 2094 1397 L 2094 1432  A 3 3 0 0 1 2091 1435 L 1842 1435  A 3 3 0 0 1 1839 1432 L 1839 1397  Z " stroke-width="2" stroke-dasharray="34,16" stroke="#ff3399" fill="none" />
  </g>
</svg>