<?xml version="1.0" encoding="utf-8"?>
<svg version="1.1" xmlns:xlink="http://www.w3.org/1999/xlink" width="80px" height="116px" xmlns="http://www.w3.org/2000/svg">
  <g transform="matrix(1 0 0 1 -2106 -588 )">
    <path d="M 2108 592  A 2 2 0 0 1 2110 590 L 2182 590  A 2 2 0 0 1 2184 592 L 2184 700  A 2 2 0 0 1 2182 702 L 2110 702  A 2 2 0 0 1 2108 700 L 2108 592  Z " fill-rule="nonzero" fill="#ff3399" stroke="none" fill-opacity="0.0980392156862745" />
    <path d="M 2107 592  A 3 3 0 0 1 2110 589 L 2182 589  A 3 3 0 0 1 2185 592 L 2185 700  A 3 3 0 0 1 2182 703 L 2110 703  A 3 3 0 0 1 2107 700 L 2107 592  Z " stroke-width="2" stroke-dasharray="34,16" stroke="#ff3399" fill="none" />
  </g>
</svg>