<?xml version="1.0" encoding="utf-8"?>
<svg version="1.1" xmlns:xlink="http://www.w3.org/1999/xlink" width="185px" height="43px" xmlns="http://www.w3.org/2000/svg">
  <g transform="matrix(1 0 0 1 -1815 -548 )">
    <path d="M 1817 552  A 2 2 0 0 1 1819 550 L 1996 550  A 2 2 0 0 1 1998 552 L 1998 587  A 2 2 0 0 1 1996 589 L 1819 589  A 2 2 0 0 1 1817 587 L 1817 552  Z " fill-rule="nonzero" fill="#ff3399" stroke="none" fill-opacity="0.0980392156862745" />
    <path d="M 1816 552  A 3 3 0 0 1 1819 549 L 1996 549  A 3 3 0 0 1 1999 552 L 1999 587  A 3 3 0 0 1 1996 590 L 1819 590  A 3 3 0 0 1 1816 587 L 1816 552  Z " stroke-width="2" stroke-dasharray="34,16" stroke="#ff3399" fill="none" />
  </g>
</svg>