<?xml version="1.0" encoding="utf-8"?>
<svg version="1.1" xmlns:xlink="http://www.w3.org/1999/xlink" width="371px" height="55px" xmlns="http://www.w3.org/2000/svg">
  <g transform="matrix(1 0 0 1 -1815 -471 )">
    <path d="M 1817 475  A 2 2 0 0 1 1819 473 L 2182 473  A 2 2 0 0 1 2184 475 L 2184 522  A 2 2 0 0 1 2182 524 L 1819 524  A 2 2 0 0 1 1817 522 L 1817 475  Z " fill-rule="nonzero" fill="#ff3399" stroke="none" fill-opacity="0.0980392156862745" />
    <path d="M 1816 475  A 3 3 0 0 1 1819 472 L 2182 472  A 3 3 0 0 1 2185 475 L 2185 522  A 3 3 0 0 1 2182 525 L 1819 525  A 3 3 0 0 1 1816 522 L 1816 475  Z " stroke-width="2" stroke-dasharray="34,16" stroke="#ff3399" fill="none" />
  </g>
</svg>