<?xml version="1.0" encoding="utf-8"?>
<svg version="1.1" xmlns:xlink="http://www.w3.org/1999/xlink" width="183px" height="26px" xmlns="http://www.w3.org/2000/svg">
  <g transform="matrix(1 0 0 1 -1860 -1986 )">
    <path d="M 1862 1990  A 2 2 0 0 1 1864 1988 L 2039 1988  A 2 2 0 0 1 2041 1990 L 2041 2008  A 2 2 0 0 1 2039 2010 L 1864 2010  A 2 2 0 0 1 1862 2008 L 1862 1990  Z " fill-rule="nonzero" fill="#ff3399" stroke="none" fill-opacity="0.0980392156862745" />
    <path d="M 1861 1990  A 3 3 0 0 1 1864 1987 L 2039 1987  A 3 3 0 0 1 2042 1990 L 2042 2008  A 3 3 0 0 1 2039 2011 L 1864 2011  A 3 3 0 0 1 1861 2008 L 1861 1990  Z " stroke-width="2" stroke-dasharray="34,16" stroke="#ff3399" fill="none" />
  </g>
</svg>