<?xml version="1.0" encoding="utf-8"?>
<svg version="1.1" xmlns:xlink="http://www.w3.org/1999/xlink" width="202px" height="47px" xmlns="http://www.w3.org/2000/svg">
  <g transform="matrix(1 0 0 1 -1915 -288 )">
    <path d="M 1917 292  A 2 2 0 0 1 1919 290 L 2113 290  A 2 2 0 0 1 2115 292 L 2115 331  A 2 2 0 0 1 2113 333 L 1919 333  A 2 2 0 0 1 1917 331 L 1917 292  Z " fill-rule="nonzero" fill="#ff3399" stroke="none" fill-opacity="0.0980392156862745" />
    <path d="M 1916 292  A 3 3 0 0 1 1919 289 L 2113 289  A 3 3 0 0 1 2116 292 L 2116 331  A 3 3 0 0 1 2113 334 L 1919 334  A 3 3 0 0 1 1916 331 L 1916 292  Z " stroke-width="2" stroke-dasharray="34,16" stroke="#ff3399" fill="none" />
  </g>
</svg>