<?xml version="1.0" encoding="utf-8"?>
<svg version="1.1" xmlns:xlink="http://www.w3.org/1999/xlink" width="15px" height="15px" xmlns="http://www.w3.org/2000/svg">
  <g transform="matrix(1 0 0 1 -20 -120 )">
    <path d="M 27.5 121  C 31.14 121  34 123.86  34 127.5  C 34 131.14  31.14 134  27.5 134  C 23.86 134  21 131.14  21 127.5  C 21 123.86  23.86 121  27.5 121  Z " fill-rule="nonzero" fill="#ffffff" stroke="none" />
    <path d="M 27.5 121  C 31.14 121  34 123.86  34 127.5  C 34 131.14  31.14 134  27.5 134  C 23.86 134  21 131.14  21 127.5  C 21 123.86  23.86 121  27.5 121  Z " stroke-width="2" stroke="#0079fe" fill="none" />
  </g>
</svg>