<?xml version="1.0" encoding="utf-8"?>
<svg version="1.1" xmlns:xlink="http://www.w3.org/1999/xlink" width="18px" height="18px" preserveAspectRatio="xMinYMid meet" viewBox="1508 737  18 16" xmlns="http://www.w3.org/2000/svg">
  <path d="M 1517.5 743  L 1517.5 775  A 5 5 0 0 1 1512.5 780.5 L 1475 780.5  A 5 5 0 0 1 1470.5 775.5 L 1470.5 766  A 5 5 0 0 1 1475.5 761.5 L 1482 761.5  " stroke-width="1" stroke="#0099ff" fill="none" />
  <path d="M 1517.5 742  A 3 3 0 0 0 1514.5 745 A 3 3 0 0 0 1517.5 748 A 3 3 0 0 0 1520.5 745 A 3 3 0 0 0 1517.5 742 Z M 1481 756  L 1481 767  L 1482 767  L 1482 756  L 1481 756  Z " fill-rule="nonzero" fill="#0099ff" stroke="none" />
</svg>