<?xml version="1.0" encoding="utf-8"?>
<svg version="1.1" xmlns:xlink="http://www.w3.org/1999/xlink" width="24px" height="10px" preserveAspectRatio="xMinYMid meet" viewBox="1595 865  24 8" xmlns="http://www.w3.org/2000/svg">
  <path d="M 1741 836.5  L 1605 836.5  A 5 5 0 0 0 1600.5 841.5 L 1600.5 864  A 5 5 0 0 0 1605.5 869.5 L 1614 869.5  " stroke-width="1" stroke="#e85858" fill="none" />
  <path d="M 1739 833.5  A 3 3 0 0 0 1736 836.5 A 3 3 0 0 0 1739 839.5 A 3 3 0 0 0 1742 836.5 A 3 3 0 0 0 1739 833.5 Z M 1613 864  L 1613 875  L 1614 875  L 1614 864  L 1613 864  Z " fill-rule="nonzero" fill="#e85858" stroke="none" />
</svg>