<?xml version="1.0" encoding="utf-8"?>
<svg version="1.1" xmlns:xlink="http://www.w3.org/1999/xlink" width="25px" height="10px" preserveAspectRatio="xMinYMid meet" viewBox="-5 427  25 8" xmlns="http://www.w3.org/2000/svg">
  <path d="M 57 38.5  L 5 38.5  A 5 5 0 0 0 0.5 43.5 L 0.5 426  A 5 5 0 0 0 5.5 431.5 L 15 431.5  " stroke-width="1" stroke="#0099ff" fill="none" />
  <path d="M 55 35.5  A 3 3 0 0 0 52 38.5 A 3 3 0 0 0 55 41.5 A 3 3 0 0 0 58 38.5 A 3 3 0 0 0 55 35.5 Z M 14 426  L 14 437  L 15 437  L 15 426  L 14 426  Z " fill-rule="nonzero" fill="#0099ff" stroke="none" />
</svg>