<?xml version="1.0" encoding="utf-8"?>
<svg version="1.1" xmlns:xlink="http://www.w3.org/1999/xlink" width="172px" height="44px" xmlns="http://www.w3.org/2000/svg">
  <g transform="matrix(1 0 0 1 -551 -122 )">
    <path d="M 553 126  A 2 2 0 0 1 555 124 L 719 124  A 2 2 0 0 1 721 126 L 721 162  A 2 2 0 0 1 719 164 L 555 164  A 2 2 0 0 1 553 162 L 553 126  Z " fill-rule="nonzero" fill="#ff3399" stroke="none" fill-opacity="0.0980392156862745" />
    <path d="M 552 126  A 3 3 0 0 1 555 123 L 719 123  A 3 3 0 0 1 722 126 L 722 162  A 3 3 0 0 1 719 165 L 555 165  A 3 3 0 0 1 552 162 L 552 126  Z " stroke-width="2" stroke-dasharray="6,2" stroke="#ff3399" fill="none" />
  </g>
</svg>