<?xml version="1.0" encoding="utf-8"?>
<svg version="1.1" xmlns:xlink="http://www.w3.org/1999/xlink" width="32px" height="32px" xmlns="http://www.w3.org/2000/svg">
  <g transform="matrix(1 0 0 1 -738 -825 )">
    <path d="M 740 829  A 2 2 0 0 1 742 827 L 766 827  A 2 2 0 0 1 768 829 L 768 853  A 2 2 0 0 1 766 855 L 742 855  A 2 2 0 0 1 740 853 L 740 829  Z " fill-rule="nonzero" fill="#ff3399" stroke="none" fill-opacity="0.0980392156862745" />
    <path d="M 739 829  A 3 3 0 0 1 742 826 L 766 826  A 3 3 0 0 1 769 829 L 769 853  A 3 3 0 0 1 766 856 L 742 856  A 3 3 0 0 1 739 853 L 739 829  Z " stroke-width="2" stroke-dasharray="6,2" stroke="#ff3399" fill="none" />
  </g>
</svg>