<?xml version="1.0" encoding="utf-8"?>
<svg version="1.1" xmlns:xlink="http://www.w3.org/1999/xlink" width="84px" height="29px" xmlns="http://www.w3.org/2000/svg">
  <g transform="matrix(1 0 0 1 -571 -1320 )">
    <path d="M 573 1324  A 2 2 0 0 1 575 1322 L 651 1322  A 2 2 0 0 1 653 1324 L 653 1345  A 2 2 0 0 1 651 1347 L 575 1347  A 2 2 0 0 1 573 1345 L 573 1324  Z " fill-rule="nonzero" fill="#ff3399" stroke="none" fill-opacity="0.0980392156862745" />
    <path d="M 572 1324  A 3 3 0 0 1 575 1321 L 651 1321  A 3 3 0 0 1 654 1324 L 654 1345  A 3 3 0 0 1 651 1348 L 575 1348  A 3 3 0 0 1 572 1345 L 572 1324  Z " stroke-width="2" stroke-dasharray="6,2" stroke="#ff3399" fill="none" />
  </g>
</svg>