<?xml version="1.0" encoding="utf-8"?>
<svg version="1.1" xmlns:xlink="http://www.w3.org/1999/xlink" width="61px" height="59px" xmlns="http://www.w3.org/2000/svg">
  <g transform="matrix(1 0 0 1 -510 -1320 )">
    <path d="M 512 1324  A 2 2 0 0 1 514 1322 L 567 1322  A 2 2 0 0 1 569 1324 L 569 1375  A 2 2 0 0 1 567 1377 L 514 1377  A 2 2 0 0 1 512 1375 L 512 1324  Z " fill-rule="nonzero" fill="#ff3399" stroke="none" fill-opacity="0.0980392156862745" />
    <path d="M 511 1324  A 3 3 0 0 1 514 1321 L 567 1321  A 3 3 0 0 1 570 1324 L 570 1375  A 3 3 0 0 1 567 1378 L 514 1378  A 3 3 0 0 1 511 1375 L 511 1324  Z " stroke-width="2" stroke-dasharray="6,2" stroke="#ff3399" fill="none" />
  </g>
</svg>