<?xml version="1.0" encoding="utf-8"?>
<svg version="1.1" xmlns:xlink="http://www.w3.org/1999/xlink" width="49px" height="29px" xmlns="http://www.w3.org/2000/svg">
  <g transform="matrix(1 0 0 1 -1138 -1086 )">
    <path d="M 1140 1090  A 2 2 0 0 1 1142 1088 L 1183 1088  A 2 2 0 0 1 1185 1090 L 1185 1111  A 2 2 0 0 1 1183 1113 L 1142 1113  A 2 2 0 0 1 1140 1111 L 1140 1090  Z " fill-rule="nonzero" fill="#ff3399" stroke="none" fill-opacity="0.0980392156862745" />
    <path d="M 1139 1090  A 3 3 0 0 1 1142 1087 L 1183 1087  A 3 3 0 0 1 1186 1090 L 1186 1111  A 3 3 0 0 1 1183 1114 L 1142 1114  A 3 3 0 0 1 1139 1111 L 1139 1090  Z " stroke-width="2" stroke-dasharray="6,2" stroke="#ff3399" fill="none" />
  </g>
</svg>