<?xml version="1.0" encoding="utf-8"?>
<svg version="1.1" xmlns:xlink="http://www.w3.org/1999/xlink" width="36px" height="29px" xmlns="http://www.w3.org/2000/svg">
  <g transform="matrix(1 0 0 1 -1098 -1088 )">
    <path d="M 1100 1092  A 2 2 0 0 1 1102 1090 L 1130 1090  A 2 2 0 0 1 1132 1092 L 1132 1113  A 2 2 0 0 1 1130 1115 L 1102 1115  A 2 2 0 0 1 1100 1113 L 1100 1092  Z " fill-rule="nonzero" fill="#ff3399" stroke="none" fill-opacity="0.0980392156862745" />
    <path d="M 1099 1092  A 3 3 0 0 1 1102 1089 L 1130 1089  A 3 3 0 0 1 1133 1092 L 1133 1113  A 3 3 0 0 1 1130 1116 L 1102 1116  A 3 3 0 0 1 1099 1113 L 1099 1092  Z " stroke-width="2" stroke-dasharray="6,2" stroke="#ff3399" fill="none" />
  </g>
</svg>