<?xml version="1.0" encoding="utf-8"?>
<svg version="1.1" xmlns:xlink="http://www.w3.org/1999/xlink" width="46px" height="44px" xmlns="http://www.w3.org/2000/svg">
  <g transform="matrix(1 0 0 1 -503 -122 )">
    <path d="M 505 126  A 2 2 0 0 1 507 124 L 545 124  A 2 2 0 0 1 547 126 L 547 162  A 2 2 0 0 1 545 164 L 507 164  A 2 2 0 0 1 505 162 L 505 126  Z " fill-rule="nonzero" fill="#ff3399" stroke="none" fill-opacity="0.0980392156862745" />
    <path d="M 504 126  A 3 3 0 0 1 507 123 L 545 123  A 3 3 0 0 1 548 126 L 548 162  A 3 3 0 0 1 545 165 L 507 165  A 3 3 0 0 1 504 162 L 504 126  Z " stroke-width="2" stroke-dasharray="6,2" stroke="#ff3399" fill="none" />
  </g>
</svg>