<?xml version="1.0" encoding="utf-8"?>
<svg version="1.1" xmlns:xlink="http://www.w3.org/1999/xlink" width="239px" height="41px" xmlns="http://www.w3.org/2000/svg">
  <g transform="matrix(1 0 0 1 -571 -2437 )">
    <path d="M 573 2441  A 2 2 0 0 1 575 2439 L 806 2439  A 2 2 0 0 1 808 2441 L 808 2474  A 2 2 0 0 1 806 2476 L 575 2476  A 2 2 0 0 1 573 2474 L 573 2441  Z " fill-rule="nonzero" fill="#ff3399" stroke="none" fill-opacity="0.0980392156862745" />
    <path d="M 572 2441  A 3 3 0 0 1 575 2438 L 806 2438  A 3 3 0 0 1 809 2441 L 809 2474  A 3 3 0 0 1 806 2477 L 575 2477  A 3 3 0 0 1 572 2474 L 572 2441  Z " stroke-width="2" stroke-dasharray="6,2" stroke="#ff3399" fill="none" />
  </g>
</svg>