<?xml version="1.0" encoding="utf-8"?>
<svg version="1.1" xmlns:xlink="http://www.w3.org/1999/xlink" width="10px" height="21px" preserveAspectRatio="xMidYMin meet" viewBox="1099 2044  8 21" xmlns="http://www.w3.org/2000/svg">
  <path d="M 1103 2044  L 1103 2055  A 5 5 0 0 1 1098 2060 L 1019 2060  A 5 5 0 0 1 1014 2055 L 1014 1930  A 3 3 0 0 0 1017 1927 A 3 3 0 0 0 1014 1924 L 1014 1409  A 3 3 0 0 0 1017 1406 A 3 3 0 0 0 1014 1403 L 1014 1369  A 3 3 0 0 0 1017 1366 A 3 3 0 0 0 1014 1363 L 1014 1173  A 3 3 0 0 0 1017 1170 A 3 3 0 0 0 1014 1167 L 1014 680  A 5 5 0 0 0 1009 675 L 890 675  " stroke-width="2" stroke="#ff3399" fill="none" />
  <path d="M 891 667.4  L 884 675  L 891 682.6  L 891 667.4  Z " fill-rule="nonzero" fill="#ff3399" stroke="none" />
</svg>