<?xml version="1.0" encoding="utf-8"?>
<svg version="1.1" xmlns:xlink="http://www.w3.org/1999/xlink" width="10px" height="15px" preserveAspectRatio="xMidYMin meet" viewBox="833 815  8 15" xmlns="http://www.w3.org/2000/svg">
  <path d="M 837 815  L 837 820  A 5 5 0 0 0 842 825 L 961.666666666667 825  A 5 5 0 0 1 966.666666666667 830 L 966.666666666667 1167  A 3 3 0 0 1 969.666666666667 1170 A 3 3 0 0 1 966.666666666667 1173 L 966.666666666667 1363  A 3 3 0 0 1 969.666666666667 1366 A 3 3 0 0 1 966.666666666667 1369 L 966.666666666667 1403  A 3 3 0 0 1 969.666666666667 1406 A 3 3 0 0 1 966.666666666667 1409 L 966.666666666667 1924  A 3 3 0 0 1 969.666666666667 1927 A 3 3 0 0 1 966.666666666667 1930 L 966.666666666667 2151  A 5 5 0 0 0 971.666666666667 2156 L 1035 2156  " stroke-width="2" stroke="#ff3399" fill="none" />
  <path d="M 1034 2163.6  L 1041 2156  L 1034 2148.4  L 1034 2163.6  Z " fill-rule="nonzero" fill="#ff3399" stroke="none" />
</svg>