<?xml version="1.0" encoding="utf-8"?>
<svg version="1.1" xmlns:xlink="http://www.w3.org/1999/xlink" width="44px" height="31px" xmlns="http://www.w3.org/2000/svg">
  <g transform="matrix(1 0 0 1 -815 -784 )">
    <path d="M 817 788  A 2 2 0 0 1 819 786 L 855 786  A 2 2 0 0 1 857 788 L 857 811  A 2 2 0 0 1 855 813 L 819 813  A 2 2 0 0 1 817 811 L 817 788  Z " fill-rule="nonzero" fill="#ff3399" stroke="none" fill-opacity="0.0980392156862745" />
    <path d="M 816 788  A 3 3 0 0 1 819 785 L 855 785  A 3 3 0 0 1 858 788 L 858 811  A 3 3 0 0 1 855 814 L 819 814  A 3 3 0 0 1 816 811 L 816 788  Z " stroke-width="2" stroke-dasharray="6,2" stroke="#ff3399" fill="none" />
  </g>
</svg>