<?xml version="1.0" encoding="utf-8"?>
<svg version="1.1" xmlns:xlink="http://www.w3.org/1999/xlink" width="123px" height="44px" xmlns="http://www.w3.org/2000/svg">
  <g transform="matrix(1 0 0 1 -558 -123 )">
    <path d="M 560 127  A 2 2 0 0 1 562 125 L 677 125  A 2 2 0 0 1 679 127 L 679 163  A 2 2 0 0 1 677 165 L 562 165  A 2 2 0 0 1 560 163 L 560 127  Z " fill-rule="nonzero" fill="#ff3399" stroke="none" fill-opacity="0.0980392156862745" />
    <path d="M 559 127  A 3 3 0 0 1 562 124 L 677 124  A 3 3 0 0 1 680 127 L 680 163  A 3 3 0 0 1 677 166 L 562 166  A 3 3 0 0 1 559 163 L 559 127  Z " stroke-width="2" stroke-dasharray="6,2" stroke="#ff3399" fill="none" />
  </g>
</svg>