<?xml version="1.0" encoding="utf-8"?>
<svg version="1.1" xmlns:xlink="http://www.w3.org/1999/xlink" width="49px" height="44px" xmlns="http://www.w3.org/2000/svg">
  <g transform="matrix(1 0 0 1 -503 -123 )">
    <path d="M 505 127  A 2 2 0 0 1 507 125 L 548 125  A 2 2 0 0 1 550 127 L 550 163  A 2 2 0 0 1 548 165 L 507 165  A 2 2 0 0 1 505 163 L 505 127  Z " fill-rule="nonzero" fill="#ff3399" stroke="none" fill-opacity="0.0980392156862745" />
    <path d="M 504 127  A 3 3 0 0 1 507 124 L 548 124  A 3 3 0 0 1 551 127 L 551 163  A 3 3 0 0 1 548 166 L 507 166  A 3 3 0 0 1 504 163 L 504 127  Z " stroke-width="2" stroke-dasharray="6,2" stroke="#ff3399" fill="none" />
  </g>
</svg>