<?xml version="1.0" encoding="utf-8"?>
<svg version="1.1" xmlns:xlink="http://www.w3.org/1999/xlink" width="246px" height="279px" xmlns="http://www.w3.org/2000/svg">
  <g transform="matrix(1 0 0 1 -88 -511 )">
    <path d="M 90 515  A 2 2 0 0 1 92 513 L 330 513  A 2 2 0 0 1 332 515 L 332 786  A 2 2 0 0 1 330 788 L 92 788  A 2 2 0 0 1 90 786 L 90 515  Z " fill-rule="nonzero" fill="#ff3399" stroke="none" fill-opacity="0.0980392156862745" />
    <path d="M 89 515  A 3 3 0 0 1 92 512 L 330 512  A 3 3 0 0 1 333 515 L 333 786  A 3 3 0 0 1 330 789 L 92 789  A 3 3 0 0 1 89 786 L 89 515  Z " stroke-width="2" stroke-dasharray="34,16" stroke="#ff3399" fill="none" />
  </g>
</svg>