<?xml version="1.0" encoding="utf-8"?>
<svg version="1.1" xmlns:xlink="http://www.w3.org/1999/xlink" width="18px" height="18px" preserveAspectRatio="xMinYMid meet" viewBox="435 582  18 16" xmlns="http://www.w3.org/2000/svg">
  <path d="M 408 690.5  L 425 690.5  A 5 5 0 0 0 430.5 685.5 L 430.5 596  A 5 5 0 0 1 435.5 591.5 L 444 591.5  " stroke-width="1" stroke="#0099ff" fill="none" />
  <path d="M 410 687.5  A 3 3 0 0 0 407 690.5 A 3 3 0 0 0 410 693.5 A 3 3 0 0 0 413 690.5 A 3 3 0 0 0 410 687.5 Z M 443 586  L 443 597  L 444 597  L 444 586  L 443 586  Z " fill-rule="nonzero" fill="#0099ff" stroke="none" />
</svg>