<?xml version="1.0" encoding="utf-8"?>
<svg version="1.1" xmlns:xlink="http://www.w3.org/1999/xlink" width="26px" height="10px" preserveAspectRatio="xMinYMid meet" viewBox="185 536  26 8" xmlns="http://www.w3.org/2000/svg">
  <path d="M 410 616.5  L 195 616.5  A 5 5 0 0 1 190.5 611.5 L 190.5 545  A 5 5 0 0 1 195.5 540.5 L 206 540.5  " stroke-width="1" stroke="#0099ff" fill="none" />
  <path d="M 408 613.5  A 3 3 0 0 0 405 616.5 A 3 3 0 0 0 408 619.5 A 3 3 0 0 0 411 616.5 A 3 3 0 0 0 408 613.5 Z M 205 535  L 205 546  L 206 546  L 206 535  L 205 535  Z " fill-rule="nonzero" fill="#0099ff" stroke="none" />
</svg>