<?xml version="1.0" encoding="utf-8"?>
<svg version="1.1" xmlns:xlink="http://www.w3.org/1999/xlink" width="10px" height="28px" preserveAspectRatio="xMidYMin meet" viewBox="646 385  8 28" xmlns="http://www.w3.org/2000/svg">
  <path d="M 608.5 407  L 608.5 395  A 5 5 0 0 1 613.5 390.5 L 645 390.5  A 5 5 0 0 1 650.5 395.5 L 650.5 403  A 5 5 0 0 1 645.5 408.5 L 640 408.5  " stroke-width="1" stroke="#fb6260" fill="none" />
  <path d="M 608.5 402  A 3 3 0 0 0 605.5 405 A 3 3 0 0 0 608.5 408 A 3 3 0 0 0 611.5 405 A 3 3 0 0 0 608.5 402 Z M 641 414  L 641 403  L 640 403  L 640 414  L 641 414  Z " fill-rule="nonzero" fill="#fb6260" stroke="none" />
</svg>