<?xml version="1.0" encoding="utf-8"?>
<svg version="1.1" xmlns:xlink="http://www.w3.org/1999/xlink" width="72px" height="10px" preserveAspectRatio="xMinYMid meet" viewBox="803 776  72 8" xmlns="http://www.w3.org/2000/svg">
  <path d="M 808.5 754  L 808.5 775  A 5 5 0 0 0 813.5 780.5 L 865 780.5  A 5 5 0 0 0 870.5 775.5 L 870.5 761  A 5 5 0 0 0 865.5 756.5 L 860 756.5  " stroke-width="1" stroke="#0099ff" fill="none" />
  <path d="M 808.5 753  A 3 3 0 0 0 805.5 756 A 3 3 0 0 0 808.5 759 A 3 3 0 0 0 811.5 756 A 3 3 0 0 0 808.5 753 Z M 861 762  L 861 751  L 860 751  L 860 762  L 861 762  Z " fill-rule="nonzero" fill="#0099ff" stroke="none" />
</svg>