<?xml version="1.0" encoding="utf-8"?>
<!-- Generator: Adobe Illustrator 21.0.0, SVG Export Plug-In . SVG Version: 6.00 Build 0)  -->
<svg version="1.1" id="图层_1" xmlns="http://www.w3.org/2000/svg" xmlns:xlink="http://www.w3.org/1999/xlink" x="0px" y="0px"
	 viewBox="0 0 1024 1024" style="enable-background:new 0 0 1024 1024;" xml:space="preserve">
<style type="text/css">
	.st0{display:none;}
	.st1{display:inline;}
	.st2{opacity:0.25;}
	.st3{display:inline;opacity:0.25;}
	.st4{enable-background:new    ;}
	.st5{fill:url(#SVGID_1_);}
	.st6{fill:url(#SVGID_2_);}
	.st7{fill:url(#SVGID_3_);}
	.st8{fill:url(#SVGID_4_);}
	.st9{fill:#FFFFFF;}
	.st10{fill:url(#SVGID_13_);}
	.st11{fill:url(#SVGID_14_);}
	.st12{fill:url(#SVGID_15_);}
	.st13{fill:url(#SVGID_16_);}
	.st14{fill:url(#SVGID_17_);}
	.st15{fill:url(#SVGID_18_);}
	.st16{fill:url(#SVGID_19_);}
	.st17{fill:url(#SVGID_20_);}
	.st18{fill:url(#SVGID_21_);}
	.st19{fill:url(#SVGID_22_);}
	.st20{fill:url(#SVGID_23_);}
	.st21{fill:url(#SVGID_24_);}
</style>
<g id="图层_1_1_" class="st0">
	<g id="bg" class="st1">
		<g id="图层_2">
			<g id="图标参考线">
				<g id="图标尺寸" class="st2">
					<path d="M1018.2,5.8v1012.5H5.8V5.8H1018.2 M1024,0H0v1024h1024V0z"/>
					<path d="M512,28.8c266.9,0,483.2,216.4,483.2,483.2S778.9,995.2,512,995.2S28.8,778.9,28.8,512S245.1,28.8,512,28.8 M512,23
						C241.9,23,23,241.9,23,512s218.9,489,489,489s489-218.9,489-489C1000.7,242,782,23.3,512,23z"/>
					<path d="M949.2,74.8v874.4H74.8V74.8H949.2 M955,69H69v886h886V69z"/>
					<path d="M995.2,28.8v966.5H28.8V28.8H995.2 M1001,23H23v978h978V23z"/>
					<path d="M995.2,189.8v644.3H28.8V189.8H995.2 M1001,184.1H23v655.8h978V184.1z"/>
				</g>
			</g>
		</g>
	</g>
	<g id="图标尺寸_1_" class="st3">
		<g>
			<path d="M1017.1,4.6v1010.2H6.9V4.6H1017.1 M1021.7,0h-6.9H4.6H0v6.9v1010.2v6.9h6.9h1010.2h6.9v-6.9V6.9V0H1021.7z"/>
		</g>
		<g>
			<path d="M512,27.6c266.3,0,482.2,215.8,482.2,482.2S778.3,991.9,512,991.9S29.8,776.1,29.8,509.7S245.7,27.6,512,27.6 M512,23
				C243.4,23,23,241.1,23,509.7s218.1,486.7,489,486.7s489-218.1,489-486.7S780.6,23,512,23L512,23z"/>
		</g>
		<g>
			<path d="M948.2,73.5V946H75.8V73.5H948.2 M952.8,68.9h-6.9H73.5h-4.6v6.9v872.5v6.9h6.9h872.5h6.9v-6.9V75.8v-6.9H952.8z"/>
		</g>
		<g>
			<path d="M994.1,27.6v964.3H29.8V27.6H994.1 M998.7,23h-6.9H27.5h-4.6v6.9v964.3v6.9h6.9h964.3h6.9v-6.9V29.9V23H998.7z"/>
		</g>
		<g>
			<path d="M994.1,188.3v642.9H29.8V188.3H994.1 M998.7,183.7h-6.9H27.5h-4.6v4.6v642.9v6.9h6.9h964.3h6.9v-6.9V188.3v-4.6H998.7z"
				/>
		</g>
	</g>
</g>
<g>
	<g class="st4">
		<linearGradient id="SVGID_1_" gradientUnits="userSpaceOnUse" x1="41.608" y1="837.2914" x2="987.4011" y2="837.2914">
			<stop  offset="0" style="stop-color:#F6F6F9"/>
			<stop  offset="1" style="stop-color:#D7D8D5"/>
		</linearGradient>
		<path class="st5" d="M987.2,671.6c-0.1,0.7-0.1,1.4-0.2,2c-0.1,0.6-0.3,1.1-0.4,1.6c-0.2,0.6-0.3,1.3-0.6,1.9
			c-0.2,0.5-0.4,1-0.7,1.6c-0.3,0.7-0.6,1.3-0.9,2c-0.3,0.5-0.6,1-0.9,1.4c-0.5,0.8-1,1.5-1.5,2.2c-0.3,0.4-0.7,0.9-1,1.3
			c-0.8,1-1.7,2-2.7,2.9c-0.4,0.3-0.7,0.7-1.1,1c-0.6,0.6-1.3,1.1-2,1.6c-0.6,0.5-1.2,1-1.8,1.4c-0.7,0.5-1.5,1-2.3,1.5
			c-0.8,0.5-1.6,1.1-2.4,1.6L561.5,932.5c-1.9,1.1-4,2.1-6.1,3.1c-0.6,0.3-1.2,0.5-1.8,0.8c-1.6,0.7-3.3,1.3-5.1,1.9
			c-0.6,0.2-1.2,0.4-1.8,0.6c-1.1,0.3-2.2,0.6-3.3,0.9c-0.8,0.2-1.7,0.5-2.5,0.7c-1.2,0.3-2.4,0.5-3.5,0.8c-0.8,0.2-1.6,0.3-2.4,0.5
			c-2.4,0.4-4.8,0.8-7.3,1c-0.8,0.1-1.5,0.1-2.3,0.2c-1.4,0.1-2.9,0.2-4.3,0.3c-0.9,0-1.9,0.1-2.8,0.1c-1.2,0-2.3,0-3.5,0
			c-1,0-2,0-3-0.1c-1.1,0-2.2-0.1-3.2-0.2c-1-0.1-2-0.2-3-0.2c-1.1-0.1-2.1-0.2-3.2-0.4c-1-0.1-1.9-0.3-2.9-0.4
			c-1.1-0.2-2.3-0.4-3.4-0.6c-0.9-0.2-1.8-0.3-2.7-0.5c-1.3-0.3-2.7-0.6-4-1c-0.7-0.2-1.5-0.4-2.2-0.6c-2.4-0.7-4.7-1.5-6.9-2.3
			c-1.1-0.4-2.2-0.9-3.3-1.4c-0.5-0.2-1.1-0.5-1.6-0.7c-1.6-0.8-3.2-1.6-4.7-2.5L60.8,695.8c-6.3-3.7-11.1-7.9-14.3-12.4
			c-3.2-4.5-4.7-9.3-4.7-14.1l-0.2,61.9c0,9.6,6.3,19.2,19,26.5l409.9,236.6c1.5,0.9,3.1,1.7,4.7,2.5c0.5,0.3,1.1,0.5,1.6,0.7
			c1,0.4,1.9,0.9,2.9,1.3c0.1,0,0.2,0.1,0.4,0.1c2.2,0.9,4.5,1.6,6.9,2.3c0.2,0.1,0.4,0.1,0.6,0.2c0.5,0.2,1.1,0.3,1.6,0.4
			c1.3,0.3,2.6,0.7,4,1c0.4,0.1,0.7,0.2,1.1,0.3c0.5,0.1,1.1,0.2,1.6,0.3c1.1,0.2,2.3,0.4,3.4,0.6c0.5,0.1,0.9,0.2,1.4,0.2
			c0.5,0.1,1,0.1,1.5,0.2c1.1,0.1,2.1,0.3,3.2,0.4c0.5,0,1,0.1,1.5,0.2c0.5,0,1,0,1.4,0.1c1.1,0.1,2.2,0.1,3.2,0.2
			c0.5,0,1.1,0.1,1.6,0.1c0.4,0,0.9,0,1.3,0c1.2,0,2.3,0,3.5,0c0.6,0,1.2,0,1.7,0c0.3,0,0.7-0.1,1-0.1c1.5-0.1,2.9-0.2,4.3-0.3
			c0.6,0,1.2-0.1,1.8-0.1c0.2,0,0.4-0.1,0.5-0.1c2.5-0.3,4.9-0.6,7.3-1c0.1,0,0.2,0,0.4,0c0.7-0.1,1.4-0.3,2.1-0.4
			c1.2-0.2,2.4-0.5,3.5-0.8c0.9-0.2,1.7-0.4,2.5-0.7c1.1-0.3,2.2-0.6,3.3-0.9c0.2-0.1,0.5-0.1,0.7-0.2c0.4-0.1,0.7-0.3,1.1-0.4
			c1.7-0.6,3.4-1.2,5.1-1.9c0.6-0.3,1.2-0.5,1.8-0.8c2.1-0.9,4.1-1.9,6.1-3.1l407.2-236.6c0.3-0.2,0.5-0.3,0.8-0.5
			c0.6-0.4,1.1-0.7,1.7-1.1c0.8-0.5,1.6-1,2.3-1.5c0.6-0.5,1.2-0.9,1.8-1.4c0.7-0.5,1.4-1.1,2-1.6c0.1-0.1,0.3-0.2,0.4-0.3
			c0.3-0.2,0.4-0.5,0.7-0.7c1-1,1.9-1.9,2.7-2.9c0.2-0.2,0.4-0.4,0.6-0.6c0.2-0.2,0.3-0.4,0.4-0.7c0.6-0.7,1-1.5,1.5-2.2
			c0.2-0.3,0.5-0.6,0.6-0.9c0.1-0.2,0.1-0.3,0.2-0.5c0.4-0.7,0.6-1.3,0.9-2c0.2-0.4,0.4-0.8,0.5-1.2c0-0.1,0.1-0.3,0.1-0.4
			c0.2-0.6,0.4-1.3,0.6-1.9c0.1-0.4,0.3-0.9,0.4-1.3c0-0.1,0-0.2,0-0.3c0.1-0.7,0.2-1.3,0.2-2c0-0.4,0.1-0.9,0.2-1.3
			c0-0.2,0-0.4,0-0.6l0.2-61.9C987.4,670.3,987.3,671,987.2,671.6z"/>
		<g>
			<linearGradient id="SVGID_2_" gradientUnits="userSpaceOnUse" x1="41.7836" y1="669.5198" x2="987.4011" y2="669.5198">
				<stop  offset="0" style="stop-color:#D7D8D5"/>
				<stop  offset="1" style="stop-color:#F6F6F9"/>
			</linearGradient>
			<path class="st6" d="M968.4,643.2c25.2,14.5,25.3,38.1,0.3,52.6L561.5,932.5c-25,14.5-65.7,14.5-90.9,0L60.8,695.8
				c-25.2-14.5-25.3-38.1-0.3-52.7l407.2-236.6c25-14.5,65.7-14.5,90.9,0L968.4,643.2z"/>
		</g>
	</g>
</g>
<g>
	<g>
		<g class="st4">
			<linearGradient id="SVGID_3_" gradientUnits="userSpaceOnUse" x1="206.3806" y1="381.9191" x2="596.2081" y2="381.9191">
				<stop  offset="0" style="stop-color:#FFA21E"/>
				<stop  offset="1" style="stop-color:#FFCB27"/>
			</linearGradient>
			<path class="st7" d="M581.6,48.2c0.6-0.2,1.3-0.5,1.9-0.6c0.4-0.1,0.8-0.2,1.2-0.3c0.4-0.1,0.7-0.2,1.1-0.2
				c0.5-0.1,1-0.2,1.4-0.2c0.3,0,0.5-0.1,0.8-0.1c0.6,0,1.2-0.1,1.7,0c0.1,0,0.3,0,0.4,0c0.7,0,1.3,0.1,2,0.2c0.2,0,0.3,0.1,0.5,0.1
				c0.5,0.1,1,0.3,1.5,0.4c0.2,0.1,0.3,0.1,0.5,0.2c0.6,0.2,1.2,0.5,1.7,0.8L547,19.8c0,0-0.1-0.1-0.1-0.1c-0.4-0.2-0.9-0.5-1.3-0.7
				c-0.1,0-0.2-0.1-0.3-0.1c-0.1-0.1-0.3-0.1-0.4-0.2c-0.2-0.1-0.5-0.2-0.7-0.2c-0.3-0.1-0.5-0.1-0.8-0.2c-0.2,0-0.3-0.1-0.5-0.1
				c-0.1,0-0.2,0-0.3-0.1c-0.5-0.1-1.1-0.2-1.6-0.2c0,0-0.1,0-0.1,0c-0.1,0-0.3,0-0.4,0c-0.4,0-0.8,0-1.3,0c-0.1,0-0.3,0-0.4,0
				c-0.3,0-0.5,0-0.8,0.1c-0.3,0-0.5,0-0.7,0.1c-0.2,0-0.4,0.1-0.7,0.1c-0.4,0.1-0.7,0.1-1.1,0.2c-0.2,0-0.4,0.1-0.6,0.1
				c-0.2,0.1-0.4,0.1-0.6,0.2c-0.6,0.2-1.2,0.4-1.9,0.7c-0.2,0.1-0.4,0.1-0.7,0.2c-0.1,0.1-0.3,0.1-0.4,0.2c-1.1,0.5-2.2,1-3.4,1.7
				L233,192c-1.4,0.8-2.8,1.8-4.2,2.8c-0.2,0.2-0.5,0.3-0.7,0.5c-1.3,1-2.5,2.1-3.8,3.3c-0.1,0.1-0.2,0.2-0.3,0.3
				c-0.2,0.2-0.4,0.4-0.6,0.6c-0.6,0.6-1.2,1.2-1.8,1.9c-0.2,0.2-0.4,0.4-0.6,0.6c-0.2,0.2-0.3,0.4-0.4,0.5c-0.4,0.4-0.7,0.8-1,1.3
				c-0.2,0.3-0.5,0.5-0.7,0.8c-0.2,0.2-0.3,0.5-0.5,0.7c-0.2,0.3-0.5,0.7-0.7,1c-0.2,0.2-0.3,0.5-0.5,0.7c-0.3,0.4-0.5,0.8-0.8,1.2
				c-0.2,0.3-0.3,0.5-0.5,0.8c-0.1,0.1-0.1,0.2-0.2,0.3c-0.5,0.7-0.9,1.5-1.4,2.3c0,0.1-0.1,0.1-0.1,0.2c-0.1,0.1-0.2,0.3-0.2,0.4
				c-0.3,0.5-0.6,1.1-0.9,1.6c-0.1,0.3-0.3,0.5-0.4,0.8c-0.1,0.3-0.3,0.5-0.4,0.8c-0.1,0.2-0.2,0.5-0.4,0.7
				c-0.3,0.6-0.6,1.3-0.9,1.9c-0.1,0.1-0.1,0.2-0.2,0.3c0,0,0,0.1,0,0.1c-0.3,0.8-0.7,1.6-1,2.4c-0.1,0.1-0.1,0.3-0.2,0.4
				c-0.1,0.3-0.2,0.6-0.3,0.9c-0.1,0.4-0.3,0.8-0.4,1.2c-0.1,0.3-0.2,0.6-0.3,0.9c-0.1,0.4-0.2,0.7-0.3,1.1
				c-0.1,0.2-0.1,0.5-0.2,0.7c-0.1,0.4-0.2,0.8-0.3,1.2c-0.1,0.5-0.2,0.9-0.3,1.4c0,0.2-0.1,0.3-0.1,0.5c-0.1,0.3-0.1,0.7-0.2,1
				c-0.1,0.7-0.3,1.4-0.4,2.1c0,0.2-0.1,0.4-0.1,0.6c0,0.2,0,0.4,0,0.5c-0.2,1.6-0.3,3.1-0.3,4.7l1.3,462.1c0,8.4,3,14.3,7.8,17.1
				l49.2,28.6c-4.8-2.8-7.8-8.7-7.8-17.1l-1.3-462.1c0-1.5,0.1-3.1,0.3-4.7c0-0.4,0.1-0.8,0.1-1.1c0.1-0.7,0.2-1.4,0.4-2.1
				c0.1-0.5,0.2-1,0.3-1.5c0.1-0.5,0.2-0.9,0.3-1.4c0.2-0.6,0.3-1.3,0.5-1.9c0.1-0.4,0.2-0.7,0.3-1.1c0.2-0.7,0.5-1.4,0.7-2.1
				c0.1-0.3,0.2-0.6,0.3-0.9c0.4-1,0.8-2,1.2-2.9c0-0.1,0.1-0.2,0.2-0.3c0.4-0.9,0.8-1.7,1.2-2.6c0.1-0.3,0.3-0.5,0.4-0.8
				c0.4-0.8,0.9-1.6,1.3-2.4c0.1-0.2,0.2-0.3,0.3-0.5c0.5-0.9,1.1-1.8,1.7-2.7c0.2-0.3,0.3-0.5,0.5-0.8c0.4-0.6,0.9-1.3,1.3-1.9
				c0.2-0.3,0.5-0.7,0.7-1c0.4-0.5,0.8-1,1.2-1.5c0.3-0.4,0.7-0.8,1-1.3c0.3-0.4,0.7-0.8,1-1.2c0.6-0.6,1.2-1.3,1.8-1.9
				c0.3-0.3,0.6-0.6,0.9-0.9c1.2-1.2,2.5-2.3,3.8-3.3c0.2-0.2,0.5-0.3,0.7-0.5c1.4-1,2.7-2,4.2-2.8L577.2,50.2
				c1.1-0.7,2.3-1.2,3.4-1.7C580.9,48.4,581.3,48.3,581.6,48.2z"/>
			<g>
				<linearGradient id="SVGID_4_" gradientUnits="userSpaceOnUse" x1="255.5682" y1="397.1077" x2="605.2999" y2="397.1077">
					<stop  offset="0" style="stop-color:#FFA21E"/>
					<stop  offset="1" style="stop-color:#FFCB27"/>
				</linearGradient>
				<path class="st8" d="M577.2,50.2c14.7-8.5,26.7-1.7,26.8,15.3l1.3,462.1c0,16.9-11.9,37.5-26.6,46.1L283.6,744
					c-14.7,8.5-26.7,1.7-26.8-15.3l-1.3-462.1c0-16.9,11.9-37.5,26.6-46.1L577.2,50.2z"/>
			</g>
		</g>
	</g>
</g>
<g>
	<path class="st9" d="M555.9,149.8c9.2-5.3,16.7-1.1,16.7,9.5l0,3.4c0,10.6-7.4,23.4-16.6,28.8L308.2,334.5
		c-9.2,5.3-16.7,1.1-16.7-9.5l0-3.4c0-10.6,7.4-23.4,16.6-28.8L555.9,149.8z"/>
	<g class="st4">
		<defs>
			<path id="SVGID_5_" class="st4" d="M555.9,149.8c9.2-5.3,16.7-1.1,16.7,9.5l0,3.4c0,10.6-7.4,23.4-16.6,28.8L308.2,334.5
				c-9.2,5.3-16.7,1.1-16.7-9.5l0-3.4c0-10.6,7.4-23.4,16.6-28.8L555.9,149.8z"/>
		</defs>
		<use xlink:href="#SVGID_5_"  style="overflow:visible;fill:#FFFFFF;"/>
		<clipPath id="SVGID_6_">
			<use xlink:href="#SVGID_5_"  style="overflow:visible;"/>
		</clipPath>
	</g>
</g>
<g>
	<path class="st9" d="M555.9,259.5c9.2-5.3,16.7-1.1,16.7,9.5l0,3.4c0,10.6-7.4,23.4-16.6,28.8L308.2,444.2
		c-9.2,5.3-16.7,1.1-16.7-9.5l0-3.4c0-10.6,7.4-23.4,16.6-28.8L555.9,259.5z"/>
	<g class="st4">
		<defs>
			<path id="SVGID_7_" class="st4" d="M555.9,259.5c9.2-5.3,16.7-1.1,16.7,9.5l0,3.4c0,10.6-7.4,23.4-16.6,28.8L308.2,444.2
				c-9.2,5.3-16.7,1.1-16.7-9.5l0-3.4c0-10.6,7.4-23.4,16.6-28.8L555.9,259.5z"/>
		</defs>
		<use xlink:href="#SVGID_7_"  style="overflow:visible;fill:#FFFFFF;"/>
		<clipPath id="SVGID_8_">
			<use xlink:href="#SVGID_7_"  style="overflow:visible;"/>
		</clipPath>
	</g>
</g>
<g>
	<path class="st9" d="M555.9,369.1c9.2-5.3,16.7-1,16.7,9.5l0,3.4c0,10.6-7.4,23.4-16.6,28.8L308.2,553.9c-9.2,5.3-16.7,1-16.7-9.5
		l0-3.4c0-10.6,7.4-23.4,16.6-28.8L555.9,369.1z"/>
	<g class="st4">
		<defs>
			<path id="SVGID_9_" class="st4" d="M555.9,369.1c9.2-5.3,16.7-1,16.7,9.5l0,3.4c0,10.6-7.4,23.4-16.6,28.8L308.2,553.9
				c-9.2,5.3-16.7,1-16.7-9.5l0-3.4c0-10.6,7.4-23.4,16.6-28.8L555.9,369.1z"/>
		</defs>
		<use xlink:href="#SVGID_9_"  style="overflow:visible;fill:#FFFFFF;"/>
		<clipPath id="SVGID_10_">
			<use xlink:href="#SVGID_9_"  style="overflow:visible;"/>
		</clipPath>
	</g>
</g>
<g>
	<path class="st9" d="M555.9,478.8c9.2-5.3,16.7-1.1,16.7,9.5l0,3.4c0,10.6-7.4,23.4-16.6,28.8L308.2,663.5
		c-9.2,5.3-16.7,1.1-16.7-9.5l0-3.4c0-10.6,7.4-23.4,16.6-28.8L555.9,478.8z"/>
	<g class="st4">
		<defs>
			<path id="SVGID_11_" class="st4" d="M555.9,478.8c9.2-5.3,16.7-1.1,16.7,9.5l0,3.4c0,10.6-7.4,23.4-16.6,28.8L308.2,663.5
				c-9.2,5.3-16.7,1.1-16.7-9.5l0-3.4c0-10.6,7.4-23.4,16.6-28.8L555.9,478.8z"/>
		</defs>
		<use xlink:href="#SVGID_11_"  style="overflow:visible;fill:#FFFFFF;"/>
		<clipPath id="SVGID_12_">
			<use xlink:href="#SVGID_11_"  style="overflow:visible;"/>
		</clipPath>
	</g>
</g>
<g>
	<g class="st4">
		<g>
			<linearGradient id="SVGID_13_" gradientUnits="userSpaceOnUse" x1="608.2388" y1="595.8129" x2="744.7322" y2="595.8129">
				<stop  offset="0" style="stop-color:#ED5833"/>
				<stop  offset="1" style="stop-color:#FF7B45"/>
			</linearGradient>
			<polygon class="st10" points="696.9,663 608.2,611.5 656.1,528.6 744.7,580.1 			"/>
		</g>
		<g>
			<linearGradient id="SVGID_14_" gradientUnits="userSpaceOnUse" x1="608.3171" y1="540.7745" x2="744.7321" y2="540.7745">
				<stop  offset="0" style="stop-color:#ED5833"/>
				<stop  offset="1" style="stop-color:#FF7B45"/>
			</linearGradient>
			<polygon class="st11" points="697,552.9 608.3,501.4 656.1,528.6 744.7,580.1 			"/>
		</g>
		<g>
			<linearGradient id="SVGID_15_" gradientUnits="userSpaceOnUse" x1="608.317" y1="419.5833" x2="821.2341" y2="419.5833">
				<stop  offset="0" style="stop-color:#ED5833"/>
				<stop  offset="1" style="stop-color:#FF7B45"/>
			</linearGradient>
			<polygon class="st12" points="697,552.9 608.3,501.4 732.6,286.2 821.2,337.8 			"/>
		</g>
		<g>
			<linearGradient id="SVGID_16_" gradientUnits="userSpaceOnUse" x1="732.5627" y1="325.8454" x2="869.8387" y2="325.8454">
				<stop  offset="0" style="stop-color:#ED5833"/>
				<stop  offset="1" style="stop-color:#FF7B45"/>
			</linearGradient>
			<polygon class="st13" points="821.2,337.8 732.6,286.2 781.2,313.9 869.8,365.5 			"/>
		</g>
		<g>
			<linearGradient id="SVGID_17_" gradientUnits="userSpaceOnUse" x1="496.5103" y1="588.4915" x2="633.7818" y2="588.4915">
				<stop  offset="0" style="stop-color:#ED5833"/>
				<stop  offset="1" style="stop-color:#FF7B45"/>
			</linearGradient>
			<polygon class="st14" points="585.2,600.4 496.5,548.9 545.1,576.6 633.8,628.1 			"/>
		</g>
		<g>
			<linearGradient id="SVGID_18_" gradientUnits="userSpaceOnUse" x1="593.4037" y1="522.9211" x2="696.9885" y2="522.9211">
				<stop  offset="0" style="stop-color:#ED5833"/>
				<stop  offset="1" style="stop-color:#FF7B45"/>
			</linearGradient>
			<polygon class="st15" points="682.1,544.4 593.4,492.9 608.3,501.4 697,552.9 			"/>
		</g>
		<g>
			<linearGradient id="SVGID_19_" gradientUnits="userSpaceOnUse" x1="788.9074" y1="313.5083" x2="910.7299" y2="313.5083">
				<stop  offset="0" style="stop-color:#ED5833"/>
				<stop  offset="1" style="stop-color:#FF7B45"/>
			</linearGradient>
			<path class="st16" d="M905.3,243.6c2.5-1.4,5-0.7,5,2.9l0.4,127.8c0,3.9-2.5,7.6-5.1,9.1c-1.3,0.8-2.6,1-3.7,0.4l-32.1-18.3
				l-48.6-27.7l-30.9-17.6c-3.2-1.8-0.7-9.7,3.8-12.3L905.3,243.6z"/>
		</g>
		<linearGradient id="SVGID_20_" gradientUnits="userSpaceOnUse" x1="700.2565" y1="255.765" x2="908.958" y2="255.765">
			<stop  offset="0" style="stop-color:#ED5833"/>
			<stop  offset="1" style="stop-color:#FF7B45"/>
		</linearGradient>
		<path class="st17" d="M820.3,191.7C820.3,191.7,820.3,191.7,820.3,191.7c-0.1-0.1-0.2-0.1-0.3-0.1c-0.1,0-0.2-0.1-0.3-0.1
			c-0.1,0-0.2,0-0.3-0.1c-0.1,0-0.2,0-0.3,0c-0.1,0-0.2,0-0.3,0c-0.1,0-0.1,0-0.2,0c0,0,0,0,0,0c0,0-0.1,0-0.1,0
			c-0.2,0-0.3,0.1-0.5,0.1c-0.2,0.1-0.4,0.1-0.6,0.2c-0.2,0.1-0.5,0.2-0.7,0.4l-111.3,64.2c-0.6,0.3-1.1,0.7-1.6,1.2c0,0,0,0,0,0
			c-0.2,0.2-0.4,0.4-0.6,0.6c-0.1,0.2-0.3,0.3-0.4,0.5c-0.1,0.1-0.2,0.3-0.3,0.4c0,0,0,0,0,0c0,0,0,0,0,0c-0.1,0.1-0.2,0.3-0.3,0.4
			c-0.1,0.1-0.2,0.3-0.3,0.5c-0.1,0.2-0.2,0.3-0.3,0.5c-0.1,0.1-0.1,0.2-0.2,0.3c0,0,0,0,0,0c0,0,0,0.1,0,0.1
			c-0.1,0.2-0.2,0.3-0.2,0.5c-0.1,0.2-0.1,0.3-0.2,0.5c-0.1,0.2-0.1,0.4-0.2,0.5c0,0.1,0,0.1-0.1,0.2c0,0,0,0.1,0,0.1
			c0,0.1-0.1,0.2-0.1,0.3c-0.1,0.2-0.1,0.4-0.2,0.7c-0.1,0.3-0.1,0.5-0.1,0.8c0,0,0,0,0,0c0,0.1,0,0.1,0,0.2c0,0.5,0,0.9,0,1.3
			c0,0.1,0,0.3,0.1,0.4c0.1,0.3,0.2,0.6,0.3,0.9c0.1,0.1,0.1,0.2,0.2,0.3c0.2,0.3,0.5,0.6,0.8,0.9l88.7,51.5
			c-0.4-0.2-0.6-0.5-0.8-0.9c-0.1-0.1-0.1-0.2-0.2-0.3c-0.1-0.3-0.2-0.6-0.3-0.9c0-0.1-0.1-0.3-0.1-0.4c0-0.4,0-0.9,0-1.3
			c0-0.1,0-0.1,0-0.2c0.1-0.6,0.2-1.2,0.4-1.8c0,0,0-0.1,0-0.1c0.2-0.6,0.4-1.2,0.7-1.8c0,0,0,0,0,0c0.3-0.6,0.7-1.2,1-1.8
			c0,0,0,0,0,0c0.4-0.5,0.8-1,1.3-1.5c0.5-0.5,1-0.9,1.6-1.2l111.3-64.2c0.7-0.4,1.3-0.6,1.9-0.7c0,0,0,0,0,0c0.6-0.1,1.2,0,1.7,0.3
			L820.3,191.7z"/>
		<linearGradient id="SVGID_21_" gradientUnits="userSpaceOnUse" x1="477.6281" y1="576.0686" x2="869.8387" y2="576.0686">
			<stop  offset="0" style="stop-color:#ED5833"/>
			<stop  offset="1" style="stop-color:#FF7B45"/>
		</linearGradient>
		<polygon class="st18" points="821.2,337.8 697,552.9 682.1,544.4 633.3,516.6 585.2,600.4 477.6,786.7 526.2,814.4 633.8,628.1 
			696.5,663.8 696.9,663 696.9,663 697.8,663.5 869.8,365.5 		"/>
		<g>
			<linearGradient id="SVGID_22_" gradientUnits="userSpaceOnUse" x1="544.5807" y1="504.7604" x2="682.075" y2="504.7604">
				<stop  offset="0" style="stop-color:#ED5833"/>
				<stop  offset="1" style="stop-color:#FF7B45"/>
			</linearGradient>
			<polygon class="st19" points="633.3,516.6 544.6,465.1 593.4,492.9 682.1,544.4 			"/>
		</g>
		<g>
			<linearGradient id="SVGID_23_" gradientUnits="userSpaceOnUse" x1="544.8159" y1="504.7407" x2="682.175" y2="504.7407">
				<stop  offset="0" style="stop-color:#ED5833"/>
				<stop  offset="1" style="stop-color:#FF7B45"/>
			</linearGradient>
			<polygon class="st20" points="633.5,516.7 544.8,465.2 593.5,492.7 682.2,544.3 			"/>
		</g>
		<linearGradient id="SVGID_24_" gradientUnits="userSpaceOnUse" x1="388.9567" y1="625.8953" x2="633.2522" y2="625.8953">
			<stop  offset="0" style="stop-color:#ED5833"/>
			<stop  offset="1" style="stop-color:#FF7B45"/>
		</linearGradient>
		<polygon class="st21" points="544.6,465.1 496.5,548.9 389,735.2 477.6,786.7 585.2,600.4 633.3,516.6 		"/>
	</g>
</g>
</svg>
