<?xml version="1.0" encoding="utf-8"?>
<!-- Generator: Adobe Illustrator 21.0.0, SVG Export Plug-In . SVG Version: 6.00 Build 0)  -->
<svg version="1.1" id="图层_1" xmlns="http://www.w3.org/2000/svg" xmlns:xlink="http://www.w3.org/1999/xlink" x="0px" y="0px"
	 viewBox="0 0 1024 1024" style="enable-background:new 0 0 1024 1024;" xml:space="preserve">
<style type="text/css">
	.st0{display:none;}
	.st1{display:inline;}
	.st2{opacity:0.25;}
	.st3{display:inline;opacity:0.25;}
	.st4{enable-background:new    ;}
	.st5{fill:url(#SVGID_1_);}
	.st6{fill:url(#SVGID_2_);}
	.st7{fill:url(#SVGID_3_);}
	.st8{fill:url(#SVGID_4_);}
	.st9{fill:url(#SVGID_5_);}
	.st10{fill:url(#SVGID_6_);}
	.st11{fill:#F7AEB0;}
	.st12{fill:#242100;}
	.st13{fill:#536FFF;}
</style>
<g id="图层_1_1_" class="st0">
	<g id="bg" class="st1">
		<g id="图层_2">
			<g id="图标参考线">
				<g id="图标尺寸" class="st2">
					<path d="M1018.2,5.8v1012.5H5.8V5.8H1018.2 M1024,0H0v1024h1024V0z"/>
					<path d="M512,28.8c266.9,0,483.2,216.4,483.2,483.2S778.9,995.2,512,995.2S28.8,778.9,28.8,512S245.1,28.8,512,28.8 M512,23
						C241.9,23,23,241.9,23,512s218.9,489,489,489s489-218.9,489-489C1000.7,242,782,23.3,512,23z"/>
					<path d="M949.2,74.8v874.4H74.8V74.8H949.2 M955,69H69v886h886V69z"/>
					<path d="M995.2,28.8v966.5H28.8V28.8H995.2 M1001,23H23v978h978V23z"/>
					<path d="M995.2,189.8v644.3H28.8V189.8H995.2 M1001,184.1H23v655.8h978V184.1z"/>
				</g>
			</g>
		</g>
	</g>
	<g id="图标尺寸_1_" class="st3">
		<g>
			<path d="M1017.1,4.6v1010.2H6.9V4.6H1017.1 M1021.7,0h-6.9H4.6H0v6.9v1010.2v6.9h6.9h1010.2h6.9v-6.9V6.9V0H1021.7z"/>
		</g>
		<g>
			<path d="M512,27.6c266.3,0,482.2,215.8,482.2,482.2S778.3,991.9,512,991.9S29.8,776.1,29.8,509.7S245.7,27.6,512,27.6 M512,23
				C243.4,23,23,241.1,23,509.7s218.1,486.7,489,486.7s489-218.1,489-486.7S780.6,23,512,23L512,23z"/>
		</g>
		<g>
			<path d="M948.2,73.5V946H75.8V73.5H948.2 M952.8,68.9h-6.9H73.5h-4.6v6.9v872.5v6.9h6.9h872.5h6.9v-6.9V75.8v-6.9H952.8z"/>
		</g>
		<g>
			<path d="M994.1,27.6v964.3H29.8V27.6H994.1 M998.7,23h-6.9H27.5h-4.6v6.9v964.3v6.9h6.9h964.3h6.9v-6.9V29.9V23H998.7z"/>
		</g>
		<g>
			<path d="M994.1,188.3v642.9H29.8V188.3H994.1 M998.7,183.7h-6.9H27.5h-4.6v4.6v642.9v6.9h6.9h964.3h6.9v-6.9V188.3v-4.6H998.7z"
				/>
		</g>
	</g>
</g>
<g>
	<g class="st4">
		<linearGradient id="SVGID_1_" gradientUnits="userSpaceOnUse" x1="118.522" y1="505.8478" x2="669.5325" y2="505.8478">
			<stop  offset="0" style="stop-color:#8EB0EC"/>
			<stop  offset="1" style="stop-color:#6386DB"/>
		</linearGradient>
		<path class="st5" d="M646.2,94.5c1-0.4,2-0.7,3-1c0.6-0.2,1.3-0.4,1.9-0.5c0.6-0.1,1.2-0.3,1.7-0.4c0.8-0.1,1.5-0.3,2.3-0.3
			c0.4,0,0.9-0.1,1.3-0.1c0.9-0.1,1.8-0.1,2.7-0.1c0.2,0,0.4,0,0.6,0c1.1,0.1,2.1,0.2,3.2,0.4c0.3,0,0.5,0.1,0.7,0.2
			c0.8,0.2,1.6,0.4,2.4,0.7c0.2,0.1,0.5,0.2,0.7,0.3c1,0.4,1.9,0.8,2.8,1.3l0,0c0,0,0,0,0,0L552.7,27c-0.1,0-0.2-0.1-0.2-0.1
			c-0.7-0.4-1.4-0.7-2.1-1c-0.1-0.1-0.3-0.1-0.4-0.1c-0.2-0.1-0.5-0.2-0.7-0.3c-0.4-0.1-0.7-0.3-1.1-0.4c-0.4-0.1-0.8-0.2-1.2-0.3
			c-0.3-0.1-0.5-0.1-0.8-0.2c-0.1,0-0.3-0.1-0.4-0.1c-0.8-0.1-1.7-0.2-2.6-0.3c-0.1,0-0.1,0-0.2,0c-0.2,0-0.4,0-0.6,0
			c-0.7,0-1.3,0-2,0c-0.2,0-0.5,0.1-0.7,0.1c-0.4,0-0.9,0.1-1.3,0.1c-0.4,0-0.8,0.1-1.2,0.1c-0.3,0.1-0.7,0.2-1.1,0.2
			c-0.6,0.1-1.2,0.2-1.7,0.4c-0.3,0.1-0.6,0.1-0.9,0.2c-0.3,0.1-0.6,0.2-1,0.3c-1,0.3-2,0.6-3,1c-0.4,0.1-0.7,0.2-1.1,0.4
			c-0.3,0.1-0.7,0.3-1.1,0.5c-0.3,0.1-0.7,0.3-1,0.5c-1.3,0.6-2.6,1.3-3.9,2L161.1,238.5c-1.4,0.8-2.7,1.7-4.1,2.6
			c-0.4,0.3-0.9,0.6-1.3,0.9c-0.9,0.7-1.8,1.3-2.7,2c-0.5,0.4-1,0.8-1.5,1.2c-0.8,0.7-1.6,1.4-2.4,2.1c-0.5,0.4-1,0.9-1.4,1.3
			c-0.3,0.3-0.6,0.6-0.9,0.8c-0.3,0.3-0.6,0.7-0.9,1c-1,1-1.9,2-2.8,3c-0.3,0.3-0.6,0.6-0.9,1c-0.2,0.3-0.5,0.6-0.7,0.9
			c-0.6,0.7-1.1,1.3-1.7,2c-0.4,0.4-0.7,0.9-1.1,1.3c-0.3,0.4-0.6,0.8-0.8,1.1c-0.4,0.5-0.8,1.1-1.2,1.6c-0.3,0.4-0.5,0.7-0.8,1.1
			c-0.4,0.6-0.9,1.3-1.3,2c-0.3,0.4-0.6,0.8-0.8,1.2c-0.1,0.2-0.2,0.3-0.3,0.5c-0.8,1.2-1.5,2.4-2.2,3.6c-0.1,0.1-0.1,0.2-0.1,0.3
			c-0.1,0.3-0.3,0.5-0.4,0.8c-0.5,0.9-1,1.7-1.4,2.6c-0.2,0.4-0.4,0.8-0.6,1.3c-0.2,0.4-0.4,0.9-0.7,1.3c-0.2,0.4-0.4,0.7-0.6,1.1
			c-0.5,1-1,2-1.4,3.1c-0.1,0.2-0.2,0.3-0.2,0.5c0,0,0,0.1-0.1,0.1c-0.6,1.3-1.1,2.6-1.6,3.8c-0.1,0.2-0.2,0.5-0.3,0.7
			c-0.2,0.5-0.3,1-0.5,1.4c-0.2,0.6-0.5,1.3-0.7,1.9c-0.2,0.5-0.3,1-0.5,1.5c-0.2,0.6-0.4,1.2-0.5,1.8c-0.1,0.4-0.2,0.7-0.3,1.1
			c-0.2,0.7-0.3,1.3-0.5,2c-0.2,0.7-0.4,1.5-0.5,2.2c-0.1,0.2-0.1,0.5-0.2,0.7c-0.1,0.5-0.2,1-0.3,1.6c-0.2,1.2-0.4,2.3-0.6,3.4
			c0,0.3-0.1,0.6-0.2,0.9c-0.1,0.7-0.1,1.4-0.2,2.1c-0.1,0.5-0.1,1-0.2,1.5c-0.1,1.6-0.2,3.2-0.2,4.7l1.6,579.9
			c0,13.5,4.8,23,12.5,27.4l116.8,67.9c-7.7-4.5-12.4-14-12.5-27.4l-1.6-579.9c0-1.6,0.1-3.1,0.2-4.7c0-0.5,0.1-1,0.1-1.5
			c0.1-1,0.2-2,0.4-3.1c0.2-1.1,0.4-2.3,0.6-3.4c0.1-0.8,0.3-1.5,0.5-2.3c0.2-0.7,0.4-1.5,0.5-2.2c0.3-1,0.5-2,0.8-3
			c0.2-0.6,0.4-1.2,0.5-1.8c0.4-1.1,0.7-2.3,1.1-3.4c0.2-0.5,0.3-1,0.5-1.4c0.6-1.6,1.2-3.1,1.9-4.7c0.1-0.2,0.2-0.3,0.2-0.5
			c0.6-1.4,1.3-2.8,2-4.2c0.2-0.4,0.4-0.9,0.6-1.3c0.7-1.3,1.3-2.6,2.1-3.8c0.1-0.3,0.3-0.5,0.4-0.8c0.9-1.5,1.8-2.9,2.7-4.4
			c0.3-0.4,0.5-0.8,0.8-1.2c0.7-1,1.4-2.1,2.1-3.1c0.4-0.5,0.8-1.1,1.2-1.6c0.6-0.8,1.3-1.6,1.9-2.5c0.5-0.7,1.1-1.4,1.7-2
			c0.5-0.6,1.1-1.2,1.6-1.8c0.9-1,1.9-2,2.8-3c0.6-0.6,1.2-1.2,1.8-1.8c0.5-0.5,1-0.9,1.4-1.3c0.8-0.7,1.6-1.4,2.4-2.1
			c0.5-0.4,1-0.8,1.5-1.2c0.9-0.7,1.8-1.4,2.7-2c0.4-0.3,0.9-0.6,1.3-0.9c1.3-0.9,2.7-1.8,4.1-2.6L639.1,97.9c1.3-0.8,2.6-1.4,3.9-2
			c0.3-0.2,0.7-0.3,1-0.5C644.8,95,645.5,94.8,646.2,94.5z"/>
		<g>
			<linearGradient id="SVGID_2_" gradientUnits="userSpaceOnUse" x1="235.3137" y1="541.2184" x2="683.6509" y2="541.2184">
				<stop  offset="0" style="stop-color:#6386DB"/>
				<stop  offset="1" style="stop-color:#8EB0EC"/>
			</linearGradient>
			<path class="st6" d="M639.1,97.9c23.6-13.6,42.8-2.7,42.9,24.5l1.6,579.9c0.1,27.1-19,60.2-42.6,73.8L279.8,984.6
				c-23.6,13.6-42.8,2.7-42.9-24.5l-1.6-579.9c-0.1-27.1,19-60.2,42.6-73.8L639.1,97.9z"/>
		</g>
	</g>
</g>
<g>
	<g class="st4">
		<g>
			<linearGradient id="SVGID_3_" gradientUnits="userSpaceOnUse" x1="280.6869" y1="665.0609" x2="313.7129" y2="665.0609">
				<stop  offset="0" style="stop-color:#C6CAD0"/>
				<stop  offset="1" style="stop-color:#C0C9CF"/>
			</linearGradient>
			<polygon class="st7" points="313.7,873.5 281.8,855 280.7,456.6 312.6,475.1 			"/>
		</g>
		<g>
			<linearGradient id="SVGID_4_" gradientUnits="userSpaceOnUse" x1="280.6869" y1="365.7571" x2="659.3156" y2="365.7571">
				<stop  offset="0" style="stop-color:#C6CAD0"/>
				<stop  offset="1" style="stop-color:#C0C9CF"/>
			</linearGradient>
			<polygon class="st8" points="312.6,475.1 280.7,456.6 627.4,256.4 659.3,274.9 			"/>
		</g>
		<g>
			<linearGradient id="SVGID_5_" gradientUnits="userSpaceOnUse" x1="312.5834" y1="574.236" x2="660.4451" y2="574.236">
				<stop  offset="0" style="stop-color:#FBFBFB"/>
				<stop  offset="1" style="stop-color:#FBFBFB"/>
			</linearGradient>
			<polygon class="st9" points="659.3,274.9 660.4,673.4 313.7,873.5 312.6,475.1 			"/>
		</g>
	</g>
</g>
<linearGradient id="SVGID_6_" gradientUnits="userSpaceOnUse" x1="405.7441" y1="607.1027" x2="852.6505" y2="607.1027">
	<stop  offset="0" style="stop-color:#FFA21E"/>
	<stop  offset="1" style="stop-color:#FFCB27"/>
</linearGradient>
<path class="st10" d="M406.1,508.8v179.5c0,0,96.3-58.8,166.7-58.1c0,0,98.3-5.3,121.7,56.6s48.7,69.4,48.7,69.4s37.9,22.6,109.5-3
	c0,0-46.2-9.8-58.6-159.9c0,0-5.2-163.7-246.7-142.6c0,0-91.8,19.8-141.6,52L406.1,508.8z"/>
<g>
	<path class="st11" d="M789.8,944.3c0,0-10.3,22.5-29.1,19.3c0,0-33.4,0.1-30.1,17.9c0,0-3.3,12.3,46.9,15c0,0,16-2.5,17.4,2.7
		c0,0,26.8,4.8,29.1-6c0,0,2.3-33.4-5.6-52.6L789.8,944.3z"/>
	<path class="st11" d="M851.3,894.5c0,0-21.5-1.1-20.2,12.6c0,0-3.3,22.6,20.2,28.3c0,0,9.9,0,13.6,9.4c0,0,9.4,14.1,21.1,11.3
		c0,0,12.7-2.8,9.9-15.5c0,0-2.8-29.1-11.3-40.4L851.3,894.5z"/>
	<path class="st12" d="M774.3,643.1c0,0-0.5,256.1,8,300.3c0,0,3.7,12.2,20.2,12.7c0,0,20.2,0,24.9-9.4c0,0,6.1-283.3,2.8-300.7
		C830.2,646,774.3,638.8,774.3,643.1z"/>
	<path class="st12" d="M882.4,915.4c5-1.5,7.9-3,7.9-3c-0.5-4.7-17.6-153.2-17.6-153.2c2.1-50.7-5.9-132.5-5.9-132.5l-59.7,19.7
		l2.3,27.2c5.4,41.1,27.4,177.1,35.2,225.6C844.7,899.3,846.7,923.6,882.4,915.4z"/>
	<path class="st11" d="M888.6,596.1c0,0-4.8,33.6-13.9,47c0,0-14.5-9.8-15-12.9c-0.5-3.1-2.9-19-2.9-19s14.6-23.2,15.1-24.5
		C871.9,586.7,888.3,593.2,888.6,596.1z"/>
	<path class="st11" d="M792.8,405.9c0,0-21.4,44.6-5.6,60.4c0,0,11.3,4,11.5,8c0,0,5.4,15,0,22.1c0,0,21.6,10.3,36.9-11.3
		c0,0-5.2-9.5-3.5-32.7c0,0,11.5-34-0.9-39.2C831.1,413.2,805.5,400.5,792.8,405.9z"/>
	<path class="st13" d="M804.2,389.1c0,0-18.7-2.3-16.9,12.9c0,0-1.1,10.2,16.9,15.9c0,0,1.4,2.5,0,6.3c0,0-10.9,13-1.4,26.1
		c0,0,4.2,2.1,7-3.2c0,0,5.6-2.3,7.8,3.6c0,0,2.1,3.5-5.3,6.6c0,0-4.4,6,5.6,12.3c0,0,6.8,4.6,15.6,0c0,0,1.1-2.1,2.8-6
		c0,0,3.2-4.2,8.1-7.4c0,0,16.6-7,13.4-31.4C857.8,424.8,850.7,385.4,804.2,389.1z"/>
	<path class="st13" d="M800.7,491.9c0,0-0.9,0.5-2.3,1.4c-6.2,3.9-23.2,15.4-31.1,29.6c0,0-16.8,5.6-24.7,76.7c0,0-3.4,5.6-11.3,0
		c0,0-18.4-8.6-31.3-14.3c0,0-5.4-1.2-8.9,4.8c0,0-4.4,4.4-0.8,15.3c0,0,27.1,30.9,46.7,38.5c0,0,16.4,7.8,22.5-1.6l11.7-23.5
		c0,0,0.4,12.6-1.5,24.4c0,0,0.8,12.2,14.9,13.7c0,0,49.9,12.3,84.1-18.4c0,0,4-8.4,0-15.4c0,0-6.3-71.8-1.2-91.6
		c0,0,4.5-3.3,12,10.6c0,0-7.1,38.8-9.9,47c0,0-2.3,0.5-0.2,2.3c0,0,11.7-2.6,19.3,12c0,0,0.9,0.7,1.6-4c0,0,23.7-55.4,25.7-72.8
		c0,0-0.8-8.5-12.8-20.2c0,0-28.7-40.8-69.8-27.6"/>
	<path class="st11" d="M691.3,604c0,0-0.9-0.9-2.4-2.4c-4.2-4.2-12.6-12.8-15.8-15.4c0,0-3-1.2-7.2-1.4c0,0-27.7-9.3-26.9-18.9
		c0,0,3.4-1.6,10.3-1.4c0,0,24.7,2.6,25.9,3c0,0,4.9,1,4.9-3.1c0,0-2.1-11.4,4.1-13.7c0,0,3.3-1.2,4.6,3.3c0,0,0.1,17.4,4.2,21.8
		c0,0,8.5,12,9.3,13.6C702.4,589.6,697.8,607,691.3,604z"/>
</g>
</svg>
