<?xml version="1.0" encoding="utf-8"?>
<svg version="1.1" xmlns:xlink="http://www.w3.org/1999/xlink" width="5px" height="5px" xmlns="http://www.w3.org/2000/svg">
  <g transform="matrix(1 0 0 1 -80 -768 )">
    <path d="M 82.5 768  C 83.9 768  85 769.1  85 770.5  C 85 771.9  83.9 773  82.5 773  C 81.1 773  80 771.9  80 770.5  C 80 769.1  81.1 768  82.5 768  Z " fill-rule="nonzero" fill="#d9001b" stroke="none" />
    <path d="M 82.5 768.5  C 83.62 768.5  84.5 769.38  84.5 770.5  C 84.5 771.62  83.62 772.5  82.5 772.5  C 81.38 772.5  80.5 771.62  80.5 770.5  C 80.5 769.38  81.38 768.5  82.5 768.5  Z " stroke-width="1" stroke="#d9001b" fill="none" />
  </g>
</svg>