<?xml version="1.0" encoding="utf-8"?>
<svg version="1.1" xmlns:xlink="http://www.w3.org/1999/xlink" width="10px" height="5px" preserveAspectRatio="xMinYMid meet" viewBox="95 75  10 3" xmlns="http://www.w3.org/2000/svg">
  <path d="M 68.5 73  L 68.5 55  A 5 5 0 0 1 73.5 50.5 L 105 50.5  A 5 5 0 0 1 110.5 55.5 L 110.5 69  A 5 5 0 0 1 105.5 74.5 L 100 74.5  " stroke-width="1" stroke="#0099ff" fill="none" />
  <path d="M 68.5 68  A 3 3 0 0 0 65.5 71 A 3 3 0 0 0 68.5 74 A 3 3 0 0 0 71.5 71 A 3 3 0 0 0 68.5 68 Z M 101 80  L 101 69  L 100 69  L 100 80  L 101 80  Z " fill-rule="nonzero" fill="#0099ff" stroke="none" />
</svg>