<?xml version="1.0" encoding="utf-8"?>
<svg version="1.1" xmlns:xlink="http://www.w3.org/1999/xlink" width="18px" height="18px" preserveAspectRatio="xMinYMid meet" viewBox="671 305  18 16" xmlns="http://www.w3.org/2000/svg">
  <path d="M 648.5 313  L 648.5 295  A 5 5 0 0 1 653.5 290.5 L 685 290.5  A 5 5 0 0 1 690.5 295.5 L 690.5 309  A 5 5 0 0 1 685.5 314.5 L 680 314.5  " stroke-width="1" stroke="#531dab" fill="none" />
  <path d="M 648.5 308  A 3 3 0 0 0 645.5 311 A 3 3 0 0 0 648.5 314 A 3 3 0 0 0 651.5 311 A 3 3 0 0 0 648.5 308 Z M 681 320  L 681 309  L 680 309  L 680 320  L 681 320  Z " fill-rule="nonzero" fill="#531dab" stroke="none" />
</svg>