<?xml version="1.0" encoding="utf-8"?>
<svg version="1.1" xmlns:xlink="http://www.w3.org/1999/xlink" width="120px" height="120px" xmlns="http://www.w3.org/2000/svg">
  <g transform="matrix(1 0 0 1 -825 -419 )">
    <path d="M 117.3046875 70.7421875  C 117.799479166667 71.2369791666667  118.046875 71.8229166666667  118.046875 72.5  C 118.046875 72.7604166666667  118.020833333333 72.9427083333333  117.96875 73.046875  C 114.635416666667 87.0052083333333  107.65625 98.3203125  97.03125 106.9921875  C 86.40625 115.6640625  73.9583333333333 120  59.6875 120  C 52.0833333333333 120  44.7265625 118.567708333333  37.6171875 115.703125  C 30.5078125 112.838541666667  24.1666666666667 108.75  18.59375 103.4375  L 8.515625 113.515625  C 7.52604166666667 114.505208333333  6.35416666666667 115  5 115  C 3.64583333333333 115  2.47395833333333 114.505208333333  1.484375 113.515625  C 0.494791666666667 112.526041666667  0 111.354166666667  0 110  L 0 75  C 0 73.6458333333333  0.494791666666667 72.4739583333333  1.484375 71.484375  C 2.47395833333333 70.4947916666667  3.64583333333333 70  5 70  L 40 70  C 41.3541666666667 70  42.5260416666667 70.4947916666667  43.515625 71.484375  C 44.5052083333333 72.4739583333333  45 73.6458333333333  45 75  C 45 76.3541666666667  44.5052083333333 77.5260416666667  43.515625 78.515625  L 32.8125 89.21875  C 36.5104166666667 92.65625  40.703125 95.3125  45.390625 97.1875  C 50.078125 99.0625  54.9479166666667 100  60 100  C 66.9791666666667 100  73.4895833333333 98.3072916666667  79.53125 94.921875  C 85.5729166666667 91.5364583333333  90.4166666666667 86.875  94.0625 80.9375  C 94.6354166666667 80.0520833333333  96.015625 77.0052083333333  98.203125 71.796875  C 98.6197916666667 70.5989583333333  99.4010416666667 70  100.546875 70  L 115.546875 70  C 116.223958333333 70  116.809895833333 70.2473958333333  117.3046875 70.7421875  Z M 118.515625 6.484375  C 119.505208333333 7.47395833333333  120 8.64583333333333  120 10  L 120 45  C 120 46.3541666666667  119.505208333333 47.5260416666667  118.515625 48.515625  C 117.526041666667 49.5052083333333  116.354166666667 50  115 50  L 80 50  C 78.6458333333333 50  77.4739583333333 49.5052083333333  76.484375 48.515625  C 75.4947916666667 47.5260416666667  75 46.3541666666667  75 45  C 75 43.6458333333333  75.4947916666667 42.4739583333333  76.484375 41.484375  L 87.265625 30.703125  C 79.5572916666667 23.5677083333333  70.46875 20  60 20  C 53.0208333333333 20  46.5104166666667 21.6927083333333  40.46875 25.078125  C 34.4270833333333 28.4635416666667  29.5833333333333 33.125  25.9375 39.0625  C 25.3645833333333 39.9479166666667  23.984375 42.9947916666667  21.796875 48.203125  C 21.3802083333333 49.4010416666667  20.5989583333333 50  19.453125 50  L 3.90625 50  C 3.22916666666667 50  2.64322916666667 49.7526041666667  2.1484375 49.2578125  C 1.65364583333333 48.7630208333333  1.40625 48.1770833333333  1.40625 47.5  L 1.40625 46.953125  C 4.79166666666667 32.9947916666667  11.8229166666667 21.6796875  22.5 13.0078125  C 33.1770833333333 4.3359375  45.6770833333333 0  60 0  C 67.6041666666667 0  75 1.4453125  82.1875 4.3359375  C 89.375 7.2265625  95.7552083333333 11.3020833333333  101.328125 16.5625  L 111.484375 6.484375  C 112.473958333333 5.49479166666666  113.645833333333 5  115 5  C 116.354166666667 5  117.526041666667 5.49479166666666  118.515625 6.484375  Z " fill-rule="nonzero" fill="#5899ba" stroke="none" transform="matrix(1 0 0 1 825 419 )" />
  </g>
</svg>