<?xml version="1.0" encoding="utf-8"?>
<svg version="1.1" xmlns:xlink="http://www.w3.org/1999/xlink" width="51px" height="81px" xmlns="http://www.w3.org/2000/svg">
  <defs>
    <linearGradient gradientUnits="userSpaceOnUse" x1="25" y1="0" x2="25" y2="80" id="LinearGradient979">
      <stop id="Stop980" stop-color="#000000" offset="0" />
      <stop id="Stop981" stop-color="#f2f2f2" offset="0" />
      <stop id="Stop982" stop-color="#e4e4e4" offset="1" />
      <stop id="Stop983" stop-color="#ffffff" offset="1" />
    </linearGradient>
    <mask fill="white" id="clip984">
      <path d="M 15 10  C 15 4.40000000000001  19.4 0  25 0  C 30.6 0  35 4.40000000000001  35 10  C 35 15.6  30.6 20  25 20  C 19.4 20  15 15.6  15 10  Z " fill-rule="evenodd" />
    </mask>
  </defs>
  <g transform="matrix(1 0 0 1 -706 -322 )">
    <path d="M 15 10  C 15 4.40000000000001  19.4 0  25 0  C 30.6 0  35 4.40000000000001  35 10  C 35 15.6  30.6 20  25 20  C 19.4 20  15 15.6  15 10  Z M 25 55  L 5 80  L 18.8536585365854 62.6829268292683  L 25 55  Z " fill-rule="nonzero" fill="url(#LinearGradient979)" stroke="none" transform="matrix(1 0 0 1 706 322 )" />
    <path d="M 15 10  C 15 4.40000000000001  19.4 0  25 0  C 30.6 0  35 4.40000000000001  35 10  C 35 15.6  30.6 20  25 20  C 19.4 20  15 15.6  15 10  Z " stroke-width="2" stroke="#000000" fill="none" transform="matrix(1 0 0 1 706 322 )" mask="url(#clip984)" />
    <path d="M 0 30.5  L 50 30.5  M 25.5 20  L 25.5 55  M 5 80  L 18.8536585365854 62.6829268292683  L 25 55  M 25 55  L 45 80  " stroke-width="1" stroke="#000000" fill="none" transform="matrix(1 0 0 1 706 322 )" mask="url(#clip984)" />
  </g>
</svg>