<?xml version="1.0" encoding="utf-8"?>
<svg version="1.1" xmlns:xlink="http://www.w3.org/1999/xlink" width="600px" height="600px" xmlns="http://www.w3.org/2000/svg">
  <g transform="matrix(1 0 0 1 -596 -179 )">
    <path d="M 896 179  C 1064 179  1196 311  1196 479  C 1196 647  1064 779  896 779  C 728 779  596 647  596 479  C 596 311  728 179  896 179  Z " fill-rule="nonzero" fill="#ffffff" stroke="none" fill-opacity="0" />
    <path d="M 896 179.5  C 1063.72 179.5  1195.5 311.28  1195.5 479  C 1195.5 646.72  1063.72 778.5  896 778.5  C 728.28 778.5  596.5 646.72  596.5 479  C 596.5 311.28  728.28 179.5  896 179.5  Z " stroke-width="1" stroke="#555555" fill="none" />
  </g>
</svg>