<?xml version="1.0" encoding="utf-8"?>
<svg version="1.1" xmlns:xlink="http://www.w3.org/1999/xlink" width="10px" height="5px" preserveAspectRatio="xMinYMid meet" viewBox="256 883  10 3" xmlns="http://www.w3.org/2000/svg">
  <path d="M 228 804.5  L 245 804.5  A 5 5 0 0 1 250.5 809.5 L 250.5 877  A 5 5 0 0 0 255.5 882.5 L 261 882.5  " stroke-width="1" stroke="#0099ff" fill="none" />
  <path d="M 230 801.5  A 3 3 0 0 0 227 804.5 A 3 3 0 0 0 230 807.5 A 3 3 0 0 0 233 804.5 A 3 3 0 0 0 230 801.5 Z M 260 877  L 260 888  L 261 888  L 261 877  L 260 877  Z " fill-rule="nonzero" fill="#0099ff" stroke="none" />
</svg>