<?xml version="1.0" encoding="utf-8"?>
<svg version="1.1" xmlns:xlink="http://www.w3.org/1999/xlink" width="10px" height="10px" xmlns="http://www.w3.org/2000/svg">
  <g transform="matrix(1 0 0 1 -80 -747 )">
    <path d="M 85 748  C 87.24 748  89 749.76  89 752  C 89 754.24  87.24 756  85 756  C 82.76 756  81 754.24  81 752  C 81 749.76  82.76 748  85 748  Z " fill-rule="nonzero" fill="#f9f9f9" stroke="none" />
    <path d="M 85 748  C 87.24 748  89 749.76  89 752  C 89 754.24  87.24 756  85 756  C 82.76 756  81 754.24  81 752  C 81 749.76  82.76 748  85 748  Z " stroke-width="2" stroke="#409eff" fill="none" />
  </g>
</svg>