<?xml version="1.0" encoding="utf-8"?>
<svg version="1.1" xmlns:xlink="http://www.w3.org/1999/xlink" width="10px" height="5px" preserveAspectRatio="xMinYMid meet" viewBox="1074 875  10 3" xmlns="http://www.w3.org/2000/svg">
  <path d="M 473.5 385  L 473.5 869  A 5 5 0 0 0 478 874.5 L 686 874.5  A 3 3 0 0 1 689 871.5 A 3 3 0 0 1 692 874.5 L 1079 874.5  " stroke-width="1" stroke="#fb6260" fill="none" />
  <path d="M 473.5 384  A 3 3 0 0 0 470.5 387 A 3 3 0 0 0 473.5 390 A 3 3 0 0 0 476.5 387 A 3 3 0 0 0 473.5 384 Z M 1078 869  L 1078 880  L 1079 880  L 1079 869  L 1078 869  Z " fill-rule="nonzero" fill="#fb6260" stroke="none" />
</svg>