<?xml version="1.0" encoding="utf-8"?>
<svg version="1.1" xmlns:xlink="http://www.w3.org/1999/xlink" width="71px" height="25px" xmlns="http://www.w3.org/2000/svg">
  <g transform="matrix(1 0 0 1 -210 -82 )">
    <path d="M 210.5 87  A 4.5 4.5 0 0 1 215 82.5 L 276 82.5  A 4.5 4.5 0 0 1 280.5 87 L 280.5 102  A 4.5 4.5 0 0 1 276 106.5 L 215 106.5  A 4.5 4.5 0 0 1 210.5 102 L 210.5 87  Z " fill-rule="nonzero" fill="#dd6161" stroke="none" />
    <path d="M 210.5 87  A 4.5 4.5 0 0 1 215 82.5 L 276 82.5  A 4.5 4.5 0 0 1 280.5 87 L 280.5 102  A 4.5 4.5 0 0 1 276 106.5 L 215 106.5  A 4.5 4.5 0 0 1 210.5 102 L 210.5 87  Z " stroke-width="1" stroke="#dd6161" fill="none" />
  </g>
</svg>