<?xml version="1.0" encoding="utf-8"?>
<svg version="1.1" xmlns:xlink="http://www.w3.org/1999/xlink" width="100px" height="35px" xmlns="http://www.w3.org/2000/svg">
  <g transform="matrix(1 0 0 1 -322 -329 )">
    <path d="M 323 334  A 4 4 0 0 1 327 330 L 417 330  A 4 4 0 0 1 421 334 L 421 359  A 4 4 0 0 1 417 363 L 327 363  A 4 4 0 0 1 323 359 L 323 334  Z " fill-rule="nonzero" fill="#409eff" stroke="none" fill-opacity="0.0784313725490196" />
    <path d="M 322.5 334  A 4.5 4.5 0 0 1 327 329.5 L 417 329.5  A 4.5 4.5 0 0 1 421.5 334 L 421.5 359  A 4.5 4.5 0 0 1 417 363.5 L 327 363.5  A 4.5 4.5 0 0 1 322.5 359 L 322.5 334  Z " stroke-width="1" stroke="#7abbff" fill="none" stroke-opacity="0.996078431372549" />
  </g>
</svg>