<?xml version="1.0" encoding="utf-8"?>
<svg version="1.1" xmlns:xlink="http://www.w3.org/1999/xlink" width="100px" height="35px" xmlns="http://www.w3.org/2000/svg">
  <g transform="matrix(1 0 0 1 -322 -329 )">
    <path d="M 322.5 334  A 4.5 4.5 0 0 1 327 329.5 L 417 329.5  A 4.5 4.5 0 0 1 421.5 334 L 421.5 359  A 4.5 4.5 0 0 1 417 363.5 L 327 363.5  A 4.5 4.5 0 0 1 322.5 359 L 322.5 334  Z " fill-rule="nonzero" fill="#ffffff" stroke="none" />
    <path d="M 322.5 334  A 4.5 4.5 0 0 1 327 329.5 L 417 329.5  A 4.5 4.5 0 0 1 421.5 334 L 421.5 359  A 4.5 4.5 0 0 1 417 363.5 L 327 363.5  A 4.5 4.5 0 0 1 322.5 359 L 322.5 334  Z " stroke-width="1" stroke="#e4e4e4" fill="none" />
  </g>
</svg>