<?xml version="1.0" encoding="utf-8"?>
<svg version="1.1" xmlns:xlink="http://www.w3.org/1999/xlink" width="21px" height="10px" preserveAspectRatio="xMinYMid meet" viewBox="184 119  21 8" xmlns="http://www.w3.org/2000/svg">
  <path d="M 185 123.5  L 195 123.5  A 5 5 0 0 0 200.5 118.5 L 200.5 91  A 5 5 0 0 1 205.5 86.5 L 213 86.5  " stroke-width="1" stroke="#0099ff" fill="none" />
  <path d="M 187 120.5  A 3 3 0 0 0 184 123.5 A 3 3 0 0 0 187 126.5 A 3 3 0 0 0 190 123.5 A 3 3 0 0 0 187 120.5 Z M 212 81  L 212 92  L 213 92  L 213 81  L 212 81  Z " fill-rule="nonzero" fill="#0099ff" stroke="none" />
</svg>