<?xml version="1.0" encoding="utf-8"?>
<svg version="1.1" xmlns:xlink="http://www.w3.org/1999/xlink" width="10px" height="29px" preserveAspectRatio="xMidYMin meet" viewBox="1306 1099  8 29" xmlns="http://www.w3.org/2000/svg">
  <path d="M 1178 1123.5  L 1305 1123.5  A 5 5 0 0 0 1310.5 1118.5 L 1310.5 1109  A 5 5 0 0 0 1305.5 1104.5 L 1300 1104.5  " stroke-width="1" stroke="#0099ff" fill="none" />
  <path d="M 1180 1120.5  A 3 3 0 0 0 1177 1123.5 A 3 3 0 0 0 1180 1126.5 A 3 3 0 0 0 1183 1123.5 A 3 3 0 0 0 1180 1120.5 Z M 1301 1110  L 1301 1099  L 1300 1099  L 1300 1110  L 1301 1110  Z " fill-rule="nonzero" fill="#0099ff" stroke="none" />
</svg>