<?xml version="1.0" encoding="utf-8"?>
<svg version="1.1" xmlns:xlink="http://www.w3.org/1999/xlink" width="110px" height="110px" xmlns="http://www.w3.org/2000/svg">
  <g transform="matrix(1 0 0 1 -1164 -1197 )">
    <path d="M 1164.5 1202  A 4.5 4.5 0 0 1 1169 1197.5 L 1269 1197.5  A 4.5 4.5 0 0 1 1273.5 1202 L 1273.5 1302  A 4.5 4.5 0 0 1 1269 1306.5 L 1169 1306.5  A 4.5 4.5 0 0 1 1164.5 1302 L 1164.5 1202  Z " fill-rule="nonzero" fill="#f0f7ff" stroke="none" />
    <path d="M 1164.5 1202  A 4.5 4.5 0 0 1 1169 1197.5 L 1269 1197.5  A 4.5 4.5 0 0 1 1273.5 1202 L 1273.5 1302  A 4.5 4.5 0 0 1 1269 1306.5 L 1169 1306.5  A 4.5 4.5 0 0 1 1164.5 1302 L 1164.5 1202  Z " stroke-width="1" stroke="#409eff" fill="none" />
  </g>
</svg>