<?xml version="1.0" encoding="utf-8"?>
<svg version="1.1" xmlns:xlink="http://www.w3.org/1999/xlink" width="10px" height="10px" xmlns="http://www.w3.org/2000/svg">
  <g transform="matrix(1 0 0 1 0 -10 )">
    <path d="M 5 11  C 7.24 11  9 12.76  9 15  C 9 17.24  7.24 19  5 19  C 2.76 19  1 17.24  1 15  C 1 12.76  2.76 11  5 11  Z " fill-rule="nonzero" fill="#f9f9f9" stroke="none" />
    <path d="M 5 11  C 7.24 11  9 12.76  9 15  C 9 17.24  7.24 19  5 19  C 2.76 19  1 17.24  1 15  C 1 12.76  2.76 11  5 11  Z " stroke-width="2" stroke="#409eff" fill="none" />
  </g>
</svg>