<?xml version="1.0" encoding="utf-8"?>
<svg version="1.1" xmlns:xlink="http://www.w3.org/1999/xlink" width="110px" height="110px" xmlns="http://www.w3.org/2000/svg">
  <g transform="matrix(1 0 0 1 -1050 0 )">
    <path d="M 1050.5 5  A 4.5 4.5 0 0 1 1055 0.5 L 1155 0.5  A 4.5 4.5 0 0 1 1159.5 5 L 1159.5 105  A 4.5 4.5 0 0 1 1155 109.5 L 1055 109.5  A 4.5 4.5 0 0 1 1050.5 105 L 1050.5 5  Z " fill-rule="nonzero" fill="#f0f7ff" stroke="none" />
    <path d="M 1050.5 5  A 4.5 4.5 0 0 1 1055 0.5 L 1155 0.5  A 4.5 4.5 0 0 1 1159.5 5 L 1159.5 105  A 4.5 4.5 0 0 1 1155 109.5 L 1055 109.5  A 4.5 4.5 0 0 1 1050.5 105 L 1050.5 5  Z " stroke-width="1" stroke="#409eff" fill="none" />
  </g>
</svg>