<?xml version="1.0" encoding="utf-8"?>
<svg version="1.1" xmlns:xlink="http://www.w3.org/1999/xlink" width="10px" height="114px" preserveAspectRatio="xMidYMin meet" viewBox="586 17  8 114" xmlns="http://www.w3.org/2000/svg">
  <path d="M 551 22.5  L 585 22.5  A 5 5 0 0 1 590.5 27.5 L 590.5 121  A 5 5 0 0 1 585.5 126.5 L 580 126.5  " stroke-width="1" stroke="#0099ff" fill="none" />
  <path d="M 553 19.5  A 3 3 0 0 0 550 22.5 A 3 3 0 0 0 553 25.5 A 3 3 0 0 0 556 22.5 A 3 3 0 0 0 553 19.5 Z M 581 132  L 581 121  L 580 121  L 580 132  L 581 132  Z " fill-rule="nonzero" fill="#0099ff" stroke="none" />
</svg>