<?xml version="1.0" encoding="utf-8"?>
<svg version="1.1" xmlns:xlink="http://www.w3.org/1999/xlink" width="18px" height="18px" preserveAspectRatio="xMinYMid meet" viewBox="75 732  18 16" xmlns="http://www.w3.org/2000/svg">
  <path d="M 360.5 657  L 360.5 715  A 5 5 0 0 1 355.5 720.5 L 75 720.5  A 5 5 0 0 0 70.5 725.5 L 70.5 736  A 5 5 0 0 0 75.5 741.5 L 84 741.5  " stroke-width="1" stroke="#ce3232" fill="none" />
  <path d="M 360.5 656  A 3 3 0 0 0 357.5 659 A 3 3 0 0 0 360.5 662 A 3 3 0 0 0 363.5 659 A 3 3 0 0 0 360.5 656 Z M 83 736  L 83 747  L 84 747  L 84 736  L 83 736  Z " fill-rule="nonzero" fill="#ce3232" stroke="none" />
</svg>