<?xml version="1.0" encoding="utf-8"?>
<svg version="1.1" xmlns:xlink="http://www.w3.org/1999/xlink" width="126px" height="10px" preserveAspectRatio="xMinYMid meet" viewBox="75 473  126 8" xmlns="http://www.w3.org/2000/svg">
  <path d="M 200 477.5  L 85 477.5  A 5 5 0 0 0 80.5 482.5 L 80.5 547  A 5 5 0 0 0 85.5 552.5 L 92 552.5  " stroke-width="1" stroke="#ce3232" fill="none" />
  <path d="M 198 474.5  A 3 3 0 0 0 195 477.5 A 3 3 0 0 0 198 480.5 A 3 3 0 0 0 201 477.5 A 3 3 0 0 0 198 474.5 Z M 91 547  L 91 558  L 92 558  L 92 547  L 91 547  Z " fill-rule="nonzero" fill="#ce3232" stroke="none" />
</svg>