<?xml version="1.0" encoding="utf-8"?>
<svg version="1.1" xmlns:xlink="http://www.w3.org/1999/xlink" width="10px" height="5px" preserveAspectRatio="xMinYMid meet" viewBox="575 1235  10 3" xmlns="http://www.w3.org/2000/svg">
  <path d="M 191 22.5  L 585 22.5  A 5 5 0 0 1 590.5 27.5 L 590.5 1229  A 5 5 0 0 1 585.5 1234.5 L 580 1234.5  " stroke-width="1" stroke="#ce3232" fill="none" />
  <path d="M 193 19.5  A 3 3 0 0 0 190 22.5 A 3 3 0 0 0 193 25.5 A 3 3 0 0 0 196 22.5 A 3 3 0 0 0 193 19.5 Z M 581 1240  L 581 1229  L 580 1229  L 580 1240  L 581 1240  Z " fill-rule="nonzero" fill="#ce3232" stroke="none" />
</svg>