<?xml version="1.0" encoding="utf-8"?>
<svg version="1.1" xmlns:xlink="http://www.w3.org/1999/xlink" width="75px" height="10px" preserveAspectRatio="xMinYMid meet" viewBox="490 18  75 8" xmlns="http://www.w3.org/2000/svg">
  <path d="M 491 22.5  L 555 22.5  A 5 5 0 0 1 560.5 27 L 560.5 1752  A 3 3 0 0 1 563.5 1755 A 3 3 0 0 1 560.5 1758 L 560.5 2843  A 5 5 0 0 1 555.5 2848.5 L 550 2848.5  " stroke-width="1" stroke="#531dab" fill="none" />
  <path d="M 493 19.5  A 3 3 0 0 0 490 22.5 A 3 3 0 0 0 493 25.5 A 3 3 0 0 0 496 22.5 A 3 3 0 0 0 493 19.5 Z M 551 2854  L 551 2843  L 550 2843  L 550 2854  L 551 2854  Z " fill-rule="nonzero" fill="#531dab" stroke="none" />
</svg>