<?xml version="1.0" encoding="utf-8"?>
<svg version="1.1" xmlns:xlink="http://www.w3.org/1999/xlink" width="18px" height="18px" preserveAspectRatio="xMinYMid meet" viewBox="555 1746  18 16" xmlns="http://www.w3.org/2000/svg">
  <path d="M 251 22.5  L 545 22.5  A 5 5 0 0 1 550.5 27.5 L 550.5 1750  A 5 5 0 0 0 555.5 1755.5 L 564 1755.5  " stroke-width="1" stroke="#ce3232" fill="none" />
  <path d="M 253 19.5  A 3 3 0 0 0 250 22.5 A 3 3 0 0 0 253 25.5 A 3 3 0 0 0 256 22.5 A 3 3 0 0 0 253 19.5 Z M 563 1750  L 563 1761  L 564 1761  L 564 1750  L 563 1750  Z " fill-rule="nonzero" fill="#ce3232" stroke="none" />
</svg>