<?xml version="1.0" encoding="utf-8"?>
<svg version="1.1" xmlns:xlink="http://www.w3.org/1999/xlink" width="10px" height="31px" preserveAspectRatio="xMidYMin meet" viewBox="86 955  8 31" xmlns="http://www.w3.org/2000/svg">
  <path d="M 360.5 657  L 360.5 955  A 5 5 0 0 1 355.5 960.5 L 95 960.5  A 5 5 0 0 0 90.5 965.5 L 90.5 976  A 5 5 0 0 0 95.5 981.5 L 101 981.5  " stroke-width="1" stroke="#531dab" fill="none" />
  <path d="M 360.5 656  A 3 3 0 0 0 357.5 659 A 3 3 0 0 0 360.5 662 A 3 3 0 0 0 363.5 659 A 3 3 0 0 0 360.5 656 Z M 100 976  L 100 987  L 101 987  L 101 976  L 100 976  Z " fill-rule="nonzero" fill="#531dab" stroke="none" />
</svg>