<?xml version="1.0" encoding="utf-8"?>
<svg version="1.1" xmlns:xlink="http://www.w3.org/1999/xlink" width="18px" height="18px" preserveAspectRatio="xMinYMid meet" viewBox="541 2288  18 16" xmlns="http://www.w3.org/2000/svg">
  <path d="M 431 22.5  L 555 22.5  A 5 5 0 0 1 560.5 27 L 560.5 1752  A 3 3 0 0 1 563.5 1755 A 3 3 0 0 1 560.5 1758 L 560.5 2292  A 5 5 0 0 1 555.5 2297.5 L 550 2297.5  " stroke-width="1" stroke="#0099ff" fill="none" />
  <path d="M 433 19.5  A 3 3 0 0 0 430 22.5 A 3 3 0 0 0 433 25.5 A 3 3 0 0 0 436 22.5 A 3 3 0 0 0 433 19.5 Z M 551 2303  L 551 2292  L 550 2292  L 550 2303  L 551 2303  Z " fill-rule="nonzero" fill="#0099ff" stroke="none" />
</svg>