<?xml version="1.0" encoding="utf-8"?>
<svg version="1.1" xmlns:xlink="http://www.w3.org/1999/xlink" width="18px" height="18px" preserveAspectRatio="xMinYMid meet" viewBox="567 375  18 16" xmlns="http://www.w3.org/2000/svg">
  <path d="M 71 22.5  L 555 22.5  A 5 5 0 0 1 560.5 27.5 L 560.5 379  A 5 5 0 0 0 565.5 384.5 L 576 384.5  " stroke-width="1" stroke="#0099ff" fill="none" />
  <path d="M 73 19.5  A 3 3 0 0 0 70 22.5 A 3 3 0 0 0 73 25.5 A 3 3 0 0 0 76 22.5 A 3 3 0 0 0 73 19.5 Z M 575 379  L 575 390  L 576 390  L 576 379  L 575 379  Z " fill-rule="nonzero" fill="#0099ff" stroke="none" />
</svg>