<?xml version="1.0" encoding="utf-8"?>
<svg version="1.1" xmlns:xlink="http://www.w3.org/1999/xlink" width="60px" height="25px" xmlns="http://www.w3.org/2000/svg">
  <g transform="matrix(1 0 0 1 -1301 -15 )">
    <path d="M 1302 20  A 4 4 0 0 1 1306 16 L 1356 16  A 4 4 0 0 1 1360 20 L 1360 35  A 4 4 0 0 1 1356 39 L 1306 39  A 4 4 0 0 1 1302 35 L 1302 20  Z " fill-rule="nonzero" fill="#e7f4ee" stroke="none" />
    <path d="M 1301.5 20  A 4.5 4.5 0 0 1 1306 15.5 L 1356 15.5  A 4.5 4.5 0 0 1 1360.5 20 L 1360.5 35  A 4.5 4.5 0 0 1 1356 39.5 L 1306 39.5  A 4.5 4.5 0 0 1 1301.5 35 L 1301.5 20  Z " stroke-width="1" stroke="#84dcb0" fill="none" stroke-opacity="0.996078431372549" />
  </g>
</svg>