<?xml version="1.0" encoding="utf-8"?>
<svg version="1.1" xmlns:xlink="http://www.w3.org/1999/xlink" width="107px" height="107px" xmlns="http://www.w3.org/2000/svg">
  <g transform="matrix(1 0 0 1 -124 -1005 )">
    <path d="M 177.5 1005  C 207.46 1005  231 1028.54  231 1058.5  C 231 1088.46  207.46 1112  177.5 1112  C 147.54 1112  124 1088.46  124 1058.5  C 124 1028.54  147.54 1005  177.5 1005  Z " fill-rule="nonzero" fill="#ffffff" stroke="none" />
    <path d="M 177.5 1005.5  C 207.18 1005.5  230.5 1028.82  230.5 1058.5  C 230.5 1088.18  207.18 1111.5  177.5 1111.5  C 147.82 1111.5  124.5 1088.18  124.5 1058.5  C 124.5 1028.82  147.82 1005.5  177.5 1005.5  Z " stroke-width="1" stroke="#ffffff" fill="none" />
  </g>
</svg>