<?xml version="1.0" encoding="utf-8"?>
<svg version="1.1" xmlns:xlink="http://www.w3.org/1999/xlink" width="246px" height="308px" xmlns="http://www.w3.org/2000/svg">
  <g transform="matrix(1 0 0 1 -93 -155 )">
    <path d="M 95 159  A 2 2 0 0 1 97 157 L 335 157  A 2 2 0 0 1 337 159 L 337 459  A 2 2 0 0 1 335 461 L 97 461  A 2 2 0 0 1 95 459 L 95 159  Z " fill-rule="nonzero" fill="#ff3399" stroke="none" fill-opacity="0.0980392156862745" />
    <path d="M 94 159  A 3 3 0 0 1 97 156 L 335 156  A 3 3 0 0 1 338 159 L 338 459  A 3 3 0 0 1 335 462 L 97 462  A 3 3 0 0 1 94 459 L 94 159  Z " stroke-width="2" stroke-dasharray="34,16" stroke="#ff3399" fill="none" />
  </g>
</svg>