<?xml version="1.0" encoding="utf-8"?>
<svg version="1.1" xmlns:xlink="http://www.w3.org/1999/xlink" width="150px" height="150px" xmlns="http://www.w3.org/2000/svg">
  <g transform="matrix(1 0 0 1 -63 -559 )">
    <path d="M 63 559  L 213 559  L 213 709  L 63 709  L 63 559  " fill-rule="nonzero" fill="#cccccc" stroke="none" />
    <path d="M 74 570  L 202 570  L 202 698  L 74 698  L 74 570  " fill-rule="nonzero" fill="#ffffff" stroke="none" />
    <path d="M 152.25 604  C 145.95 604  141 599.05  141 592.75  C 141 586.45  145.95 581.5  152.25 581.5  C 158.55 581.5  163.5 586.45  163.5 592.75  C 163.5 599.05  158.55 604  152.25 604  " fill-rule="nonzero" fill="#cccccc" stroke="none" />
    <path d="M 78 694  L 78 628  L 108 598  L 150 622  L 174 616  L 198 622  L 198 694  L 78 694  " fill-rule="nonzero" fill="#169bd5" stroke="none" />
  </g>
</svg>