<?xml version="1.0" encoding="utf-8"?>
<svg version="1.1" xmlns:xlink="http://www.w3.org/1999/xlink" width="90px" height="90px" xmlns="http://www.w3.org/2000/svg">
  <g transform="matrix(1 0 0 1 -63 -1075 )">
    <path d="M 63 1075  L 153 1075  L 153 1165  L 63 1165  L 63 1075  " fill-rule="nonzero" fill="#cccccc" stroke="none" />
    <path d="M 69 1081  L 147 1081  L 147 1159  L 69 1159  L 69 1081  " fill-rule="nonzero" fill="#ffffff" stroke="none" />
    <path d="M 116.55 1102  C 112.77 1102  109.8 1099.03  109.8 1095.25  C 109.8 1091.47  112.77 1088.5  116.55 1088.5  C 120.33 1088.5  123.3 1091.47  123.3 1095.25  C 123.3 1099.03  120.33 1102  116.55 1102  " fill-rule="nonzero" fill="#cccccc" stroke="none" />
    <path d="M 72 1157  L 72 1116.85  L 90.25 1098.6  L 115.8 1113.2  L 130.4 1109.55  L 145 1113.2  L 145 1157  L 72 1157  " fill-rule="nonzero" fill="#169bd5" stroke="none" />
  </g>
</svg>