<?xml version="1.0" encoding="utf-8"?>
<svg version="1.1" xmlns:xlink="http://www.w3.org/1999/xlink" width="18px" height="18px" preserveAspectRatio="xMinYMid meet" viewBox="471 81  18 16" xmlns="http://www.w3.org/2000/svg">
  <path d="M 366 102.5  L 485 102.5  A 5 5 0 0 0 490.5 97.5 L 490.5 95  A 5 5 0 0 0 485.5 90.5 L 480 90.5  " stroke-width="1" stroke="#ce3232" fill="none" />
  <path d="M 368 99.5  A 3 3 0 0 0 365 102.5 A 3 3 0 0 0 368 105.5 A 3 3 0 0 0 371 102.5 A 3 3 0 0 0 368 99.5 Z M 481 96  L 481 85  L 480 85  L 480 96  L 481 96  Z " fill-rule="nonzero" fill="#ce3232" stroke="none" />
</svg>