<?xml version="1.0" encoding="utf-8"?>
<svg version="1.1" xmlns:xlink="http://www.w3.org/1999/xlink" width="145px" height="45px" xmlns="http://www.w3.org/2000/svg">
  <g transform="matrix(1 0 0 1 -215 -529 )">
    <path d="M 216 533  A 3 3 0 0 1 219 530 L 356 530  A 3 3 0 0 1 359 533 L 359 570  A 3 3 0 0 1 356 573 L 219 573  A 3 3 0 0 1 216 570 L 216 533  Z " fill-rule="nonzero" fill="#ff3399" stroke="none" fill-opacity="0.0980392156862745" />
    <path d="M 215.5 533  A 3.5 3.5 0 0 1 219 529.5 L 356 529.5  A 3.5 3.5 0 0 1 359.5 533 L 359.5 570  A 3.5 3.5 0 0 1 356 573.5 L 219 573.5  A 3.5 3.5 0 0 1 215.5 570 L 215.5 533  Z " stroke-width="1" stroke-dasharray="9,4" stroke="#ff3399" fill="none" stroke-dashoffset="0.5" />
  </g>
</svg>