<?xml version="1.0" encoding="utf-8"?>
<svg version="1.1" xmlns:xlink="http://www.w3.org/1999/xlink" width="66px" height="16px" xmlns="http://www.w3.org/2000/svg">
  <g transform="matrix(1 0 0 1 -389 -475 )">
    <path d="M 390 479  A 3 3 0 0 1 393 476 L 451 476  A 3 3 0 0 1 454 479 L 454 487  A 3 3 0 0 1 451 490 L 393 490  A 3 3 0 0 1 390 487 L 390 479  Z " fill-rule="nonzero" fill="#ff3399" stroke="none" fill-opacity="0.0980392156862745" />
    <path d="M 389.5 479  A 3.5 3.5 0 0 1 393 475.5 L 451 475.5  A 3.5 3.5 0 0 1 454.5 479 L 454.5 487  A 3.5 3.5 0 0 1 451 490.5 L 393 490.5  A 3.5 3.5 0 0 1 389.5 487 L 389.5 479  Z " stroke-width="1" stroke-dasharray="9,4" stroke="#ff3399" fill="none" stroke-dashoffset="0.5" />
  </g>
</svg>