<?xml version="1.0" encoding="utf-8"?>
<svg version="1.1" xmlns:xlink="http://www.w3.org/1999/xlink" width="212px" height="25px" xmlns="http://www.w3.org/2000/svg">
  <g transform="matrix(1 0 0 1 -182 -424 )">
    <path d="M 183 428  A 3 3 0 0 1 186 425 L 390 425  A 3 3 0 0 1 393 428 L 393 445  A 3 3 0 0 1 390 448 L 186 448  A 3 3 0 0 1 183 445 L 183 428  Z " fill-rule="nonzero" fill="#ff3399" stroke="none" fill-opacity="0.0980392156862745" />
    <path d="M 182.5 428  A 3.5 3.5 0 0 1 186 424.5 L 390 424.5  A 3.5 3.5 0 0 1 393.5 428 L 393.5 445  A 3.5 3.5 0 0 1 390 448.5 L 186 448.5  A 3.5 3.5 0 0 1 182.5 445 L 182.5 428  Z " stroke-width="1" stroke-dasharray="9,4" stroke="#ff3399" fill="none" stroke-dashoffset="0.5" />
  </g>
</svg>