<?xml version="1.0" encoding="utf-8"?>
<svg version="1.1" xmlns:xlink="http://www.w3.org/1999/xlink" width="36px" height="46px" xmlns="http://www.w3.org/2000/svg">
  <g transform="matrix(1 0 0 1 -118 -174 )">
    <path d="M 119 178  A 3 3 0 0 1 122 175 L 150 175  A 3 3 0 0 1 153 178 L 153 216  A 3 3 0 0 1 150 219 L 122 219  A 3 3 0 0 1 119 216 L 119 178  Z " fill-rule="nonzero" fill="#ff3399" stroke="none" fill-opacity="0.0980392156862745" />
    <path d="M 118.5 178  A 3.5 3.5 0 0 1 122 174.5 L 150 174.5  A 3.5 3.5 0 0 1 153.5 178 L 153.5 216  A 3.5 3.5 0 0 1 150 219.5 L 122 219.5  A 3.5 3.5 0 0 1 118.5 216 L 118.5 178  Z " stroke-width="1" stroke-dasharray="9,4" stroke="#ff3399" fill="none" stroke-dashoffset="0.5" />
  </g>
</svg>