<?xml version="1.0" encoding="utf-8"?>
<svg version="1.1" xmlns:xlink="http://www.w3.org/1999/xlink" width="40px" height="50px" xmlns="http://www.w3.org/2000/svg">
  <defs>
    <filter x="114px" y="138px" width="40px" height="50px" filterUnits="userSpaceOnUse" id="filter1244">
      <feOffset dx="1" dy="1" in="SourceAlpha" result="shadowOffsetInner" />
      <feGaussianBlur stdDeviation="2.5" in="shadowOffsetInner" result="shadowGaussian" />
      <feComposite in2="shadowGaussian" operator="atop" in="SourceAlpha" result="shadowComposite" />
      <feColorMatrix type="matrix" values="0 0 0 0 0  0 0 0 0 0  0 0 0 0 0  0 0 0 0.698039215686274 0  " in="shadowComposite" />
    </filter>
    <g id="widget1245">
      <path d="M 133 181.036928468354  C 127.2 171.40734059591  118.5 165.629587872444  118.5 156  C 118.5 150.985714285714  121.4 142.5  133 142.5  C 144.6 142.5  147.5 150.985714285714  147.5 156  C 147.5 165.629587872444  138.8 171.40734059591  133 181.036928468354  Z " fill-rule="nonzero" fill="#009dd9" stroke="none" />
      <path d="M 133 182  C 127 172  118 166  118 156  C 118 150.8  121 142  133 142  C 145 142  148 150.8  148 156  C 148 166  139 172  133 182  Z M 133 180.073856936707  C 138.6 170.81468119182  147 165.259175744887  147 156  C 147 151.171428571429  144.2 143  133 143  C 121.8 143  119 151.171428571429  119 156  C 119 165.259175744887  127.4 170.81468119182  133 180.073856936707  Z " fill-rule="nonzero" fill="#ffffff" stroke="none" />
    </g>
  </defs>
  <g transform="matrix(1 0 0 1 -114 -138 )">
    <use xlink:href="#widget1245" filter="url(#filter1244)" />
    <use xlink:href="#widget1245" />
  </g>
</svg>