<?xml version="1.0" encoding="utf-8"?>
<svg version="1.1" xmlns:xlink="http://www.w3.org/1999/xlink" width="52px" height="10px" preserveAspectRatio="xMinYMid meet" viewBox="213 556  52 8" xmlns="http://www.w3.org/2000/svg">
  <path d="M 218.5 542  L 218.5 555  A 5 5 0 0 0 223.5 560.5 L 255 560.5  A 5 5 0 0 0 260.5 555.5 L 260.5 546  A 5 5 0 0 0 255.5 541.5 L 250 541.5  " stroke-width="1" stroke="#8400ff" fill="none" />
  <path d="M 218.5 541  A 3 3 0 0 0 215.5 544 A 3 3 0 0 0 218.5 547 A 3 3 0 0 0 221.5 544 A 3 3 0 0 0 218.5 541 Z M 251 547  L 251 536  L 250 536  L 250 547  L 251 547  Z " fill-rule="nonzero" fill="#8400ff" stroke="none" />
</svg>