<?xml version="1.0" encoding="utf-8"?>
<svg version="1.1" xmlns:xlink="http://www.w3.org/1999/xlink" width="285px" height="10px" preserveAspectRatio="xMinYMid meet" viewBox="170 410  285 8" xmlns="http://www.w3.org/2000/svg">
  <path d="M 171 414.5  L 445 414.5  A 5 5 0 0 0 450.5 409.5 L 450.5 371  A 5 5 0 0 0 445.5 366.5 L 440 366.5  " stroke-width="1" stroke="#8400ff" fill="none" />
  <path d="M 173 411.5  A 3 3 0 0 0 170 414.5 A 3 3 0 0 0 173 417.5 A 3 3 0 0 0 176 414.5 A 3 3 0 0 0 173 411.5 Z M 441 372  L 441 361  L 440 361  L 440 372  L 441 372  Z " fill-rule="nonzero" fill="#8400ff" stroke="none" />
</svg>