<?xml version="1.0" encoding="utf-8"?>
<svg version="1.1" xmlns:xlink="http://www.w3.org/1999/xlink" width="18px" height="18px" preserveAspectRatio="xMinYMid meet" viewBox="741 675  18 16" xmlns="http://www.w3.org/2000/svg">
  <path d="M 748 683.5  L 758 683.5  A 5 5 0 0 1 763.5 688.5 L 763.5 894  A 5 5 0 0 0 768.5 899.5 L 779 899.5  " stroke-width="1" stroke="#0099ff" fill="none" />
  <path d="M 750 680.5  A 3 3 0 0 0 747 683.5 A 3 3 0 0 0 750 686.5 A 3 3 0 0 0 753 683.5 A 3 3 0 0 0 750 680.5 Z M 778 894  L 778 905  L 779 905  L 779 894  L 778 894  Z " fill-rule="nonzero" fill="#0099ff" stroke="none" />
</svg>