<?xml version="1.0" encoding="utf-8"?>
<svg version="1.1" xmlns:xlink="http://www.w3.org/1999/xlink" width="10px" height="5px" preserveAspectRatio="xMinYMid meet" viewBox="118 349  10 3" xmlns="http://www.w3.org/2000/svg">
  <path d="M 92 348.5  L 113 348.5  A 3 3 0 0 1 116 345.5 A 3 3 0 0 1 119 348.5 L 123 348.5  " stroke-width="1" stroke="#8400ff" fill="none" />
  <path d="M 94 345.5  A 3 3 0 0 0 91 348.5 A 3 3 0 0 0 94 351.5 A 3 3 0 0 0 97 348.5 A 3 3 0 0 0 94 345.5 Z M 122 343  L 122 354  L 123 354  L 123 343  L 122 343  Z " fill-rule="nonzero" fill="#8400ff" stroke="none" />
</svg>