<?xml version="1.0" encoding="utf-8"?>
<svg version="1.1" xmlns:xlink="http://www.w3.org/1999/xlink" width="48px" height="43px" xmlns="http://www.w3.org/2000/svg">
  <g transform="matrix(1 0 0 1 -1942 -818 )">
    <path d="M 1944 822  A 2 2 0 0 1 1946 820 L 1986 820  A 2 2 0 0 1 1988 822 L 1988 857  A 2 2 0 0 1 1986 859 L 1946 859  A 2 2 0 0 1 1944 857 L 1944 822  Z " fill-rule="nonzero" fill="#ff3399" stroke="none" fill-opacity="0.0980392156862745" />
    <path d="M 1943 822  A 3 3 0 0 1 1946 819 L 1986 819  A 3 3 0 0 1 1989 822 L 1989 857  A 3 3 0 0 1 1986 860 L 1946 860  A 3 3 0 0 1 1943 857 L 1943 822  Z " stroke-width="2" stroke-dasharray="34,16" stroke="#ff3399" fill="none" />
  </g>
</svg>