<?xml version="1.0" encoding="utf-8"?>
<svg version="1.1" xmlns:xlink="http://www.w3.org/1999/xlink" width="59px" height="96px" xmlns="http://www.w3.org/2000/svg">
  <g transform="matrix(1 0 0 1 -155 -257 )">
    <path d="M 157 261  A 2 2 0 0 1 159 259 L 210 259  A 2 2 0 0 1 212 261 L 212 349  A 2 2 0 0 1 210 351 L 159 351  A 2 2 0 0 1 157 349 L 157 261  Z " fill-rule="nonzero" fill="#ff3399" stroke="none" fill-opacity="0.0980392156862745" />
    <path d="M 156 261  A 3 3 0 0 1 159 258 L 210 258  A 3 3 0 0 1 213 261 L 213 349  A 3 3 0 0 1 210 352 L 159 352  A 3 3 0 0 1 156 349 L 156 261  Z " stroke-width="2" stroke-dasharray="34,16" stroke="#ff3399" fill="none" />
  </g>
</svg>