<?xml version="1.0" encoding="utf-8"?>
<svg version="1.1" xmlns:xlink="http://www.w3.org/1999/xlink" width="348px" height="47px" xmlns="http://www.w3.org/2000/svg">
  <g transform="matrix(1 0 0 1 -1792 -381 )">
    <path d="M 1794 385  A 2 2 0 0 1 1796 383 L 2136 383  A 2 2 0 0 1 2138 385 L 2138 424  A 2 2 0 0 1 2136 426 L 1796 426  A 2 2 0 0 1 1794 424 L 1794 385  Z " fill-rule="nonzero" fill="#ff3399" stroke="none" fill-opacity="0.0980392156862745" />
    <path d="M 1793 385  A 3 3 0 0 1 1796 382 L 2136 382  A 3 3 0 0 1 2139 385 L 2139 424  A 3 3 0 0 1 2136 427 L 1796 427  A 3 3 0 0 1 1793 424 L 1793 385  Z " stroke-width="2" stroke-dasharray="34,16" stroke="#ff3399" fill="none" />
  </g>
</svg>