<?xml version="1.0" encoding="utf-8"?>
<svg version="1.1" xmlns:xlink="http://www.w3.org/1999/xlink" width="18px" height="18px" preserveAspectRatio="xMinYMid meet" viewBox="360 966  18 16" xmlns="http://www.w3.org/2000/svg">
  <path d="M 326 887.5  L 345 887.5  A 5 5 0 0 1 350.5 892.5 L 350.5 970  A 5 5 0 0 0 355.5 975.5 L 369 975.5  " stroke-width="1" stroke="#e85858" fill="none" />
  <path d="M 328 884.5  A 3 3 0 0 0 325 887.5 A 3 3 0 0 0 328 890.5 A 3 3 0 0 0 331 887.5 A 3 3 0 0 0 328 884.5 Z M 368 970  L 368 981  L 369 981  L 369 970  L 368 970  Z " fill-rule="nonzero" fill="#e85858" stroke="none" />
</svg>