<?xml version="1.0" encoding="utf-8"?>
<svg version="1.1" xmlns:xlink="http://www.w3.org/1999/xlink" width="188px" height="33px" xmlns="http://www.w3.org/2000/svg">
  <g transform="matrix(1 0 0 1 -563 -347 )">
    <path d="M 565 351  A 2 2 0 0 1 567 349 L 747 349  A 2 2 0 0 1 749 351 L 749 376  A 2 2 0 0 1 747 378 L 567 378  A 2 2 0 0 1 565 376 L 565 351  Z " fill-rule="nonzero" fill="#ff3399" stroke="none" fill-opacity="0.0980392156862745" />
    <path d="M 564 351  A 3 3 0 0 1 567 348 L 747 348  A 3 3 0 0 1 750 351 L 750 376  A 3 3 0 0 1 747 379 L 567 379  A 3 3 0 0 1 564 376 L 564 351  Z " stroke-width="2" stroke-dasharray="34,16" stroke="#ff3399" fill="none" />
  </g>
</svg>