<?xml version="1.0" encoding="utf-8"?>
<svg version="1.1" xmlns:xlink="http://www.w3.org/1999/xlink" width="240px" height="281px" xmlns="http://www.w3.org/2000/svg">
  <g transform="matrix(1 0 0 1 -106 -497 )">
    <path d="M 108 501  A 2 2 0 0 1 110 499 L 342 499  A 2 2 0 0 1 344 501 L 344 774  A 2 2 0 0 1 342 776 L 110 776  A 2 2 0 0 1 108 774 L 108 501  Z " fill-rule="nonzero" fill="#ff3399" stroke="none" fill-opacity="0.0980392156862745" />
    <path d="M 107 501  A 3 3 0 0 1 110 498 L 342 498  A 3 3 0 0 1 345 501 L 345 774  A 3 3 0 0 1 342 777 L 110 777  A 3 3 0 0 1 107 774 L 107 501  Z " stroke-width="2" stroke-dasharray="34,16" stroke="#ff3399" fill="none" />
  </g>
</svg>