<?xml version="1.0" encoding="utf-8"?>
<svg version="1.1" xmlns:xlink="http://www.w3.org/1999/xlink" width="64px" height="50px" xmlns="http://www.w3.org/2000/svg">
  <g transform="matrix(1 0 0 1 -563 -144 )">
    <path d="M 565 148  A 2 2 0 0 1 567 146 L 623 146  A 2 2 0 0 1 625 148 L 625 190  A 2 2 0 0 1 623 192 L 567 192  A 2 2 0 0 1 565 190 L 565 148  Z " fill-rule="nonzero" fill="#ff3399" stroke="none" fill-opacity="0.0980392156862745" />
    <path d="M 564 148  A 3 3 0 0 1 567 145 L 623 145  A 3 3 0 0 1 626 148 L 626 190  A 3 3 0 0 1 623 193 L 567 193  A 3 3 0 0 1 564 190 L 564 148  Z " stroke-width="2" stroke-dasharray="34,16" stroke="#ff3399" fill="none" />
  </g>
</svg>