<?xml version="1.0" encoding="utf-8"?>
<svg version="1.1" xmlns:xlink="http://www.w3.org/1999/xlink" width="213px" height="10px" preserveAspectRatio="xMinYMid meet" viewBox="725 549  213 8" xmlns="http://www.w3.org/2000/svg">
  <path d="M 725 553  L 842 553  A 3 3 0 0 1 845 550 A 3 3 0 0 1 848 553 L 928 553  A 5 5 0 0 1 933 558 L 933 1417  A 3 3 0 0 1 936 1420 A 3 3 0 0 1 933 1423 L 933 2140  A 5 5 0 0 0 938 2145 L 1057 2145  " stroke-width="2" stroke="#ff3399" fill="none" />
  <path d="M 1056 2152.6  L 1063 2145  L 1056 2137.4  L 1056 2152.6  Z " fill-rule="nonzero" fill="#ff3399" stroke="none" />
</svg>