<?xml version="1.0" encoding="utf-8"?>
<svg version="1.1" xmlns:xlink="http://www.w3.org/1999/xlink" width="74px" height="33px" xmlns="http://www.w3.org/2000/svg">
  <g transform="matrix(1 0 0 1 -651 -536 )">
    <path d="M 653 540  A 2 2 0 0 1 655 538 L 721 538  A 2 2 0 0 1 723 540 L 723 565  A 2 2 0 0 1 721 567 L 655 567  A 2 2 0 0 1 653 565 L 653 540  Z " fill-rule="nonzero" fill="#ff3399" stroke="none" fill-opacity="0.0980392156862745" />
    <path d="M 652 540  A 3 3 0 0 1 655 537 L 721 537  A 3 3 0 0 1 724 540 L 724 565  A 3 3 0 0 1 721 568 L 655 568  A 3 3 0 0 1 652 565 L 652 540  Z " stroke-width="2" stroke-dasharray="34,16" stroke="#ff3399" fill="none" />
  </g>
</svg>