<?xml version="1.0" encoding="utf-8"?>
<svg version="1.1" xmlns:xlink="http://www.w3.org/1999/xlink" width="39px" height="40px" xmlns="http://www.w3.org/2000/svg">
  <g transform="matrix(1 0 0 1 -878 -687 )">
    <path d="M 880 691  A 2 2 0 0 1 882 689 L 913 689  A 2 2 0 0 1 915 691 L 915 723  A 2 2 0 0 1 913 725 L 882 725  A 2 2 0 0 1 880 723 L 880 691  Z " fill-rule="nonzero" fill="#ff3399" stroke="none" fill-opacity="0.0980392156862745" />
    <path d="M 879 691  A 3 3 0 0 1 882 688 L 913 688  A 3 3 0 0 1 916 691 L 916 723  A 3 3 0 0 1 913 726 L 882 726  A 3 3 0 0 1 879 723 L 879 691  Z " stroke-width="2" stroke-dasharray="34,16" stroke="#ff3399" fill="none" />
  </g>
</svg>