<?xml version="1.0" encoding="utf-8"?>
<svg version="1.1" xmlns:xlink="http://www.w3.org/1999/xlink" width="58px" height="40px" xmlns="http://www.w3.org/2000/svg">
  <g transform="matrix(1 0 0 1 -1097 -2007 )">
    <path d="M 1099 2011  A 2 2 0 0 1 1101 2009 L 1151 2009  A 2 2 0 0 1 1153 2011 L 1153 2043  A 2 2 0 0 1 1151 2045 L 1101 2045  A 2 2 0 0 1 1099 2043 L 1099 2011  Z " fill-rule="nonzero" fill="#ff3399" stroke="none" fill-opacity="0.0980392156862745" />
    <path d="M 1098 2011  A 3 3 0 0 1 1101 2008 L 1151 2008  A 3 3 0 0 1 1154 2011 L 1154 2043  A 3 3 0 0 1 1151 2046 L 1101 2046  A 3 3 0 0 1 1098 2043 L 1098 2011  Z " stroke-width="2" stroke-dasharray="34,16" stroke="#ff3399" fill="none" />
  </g>
</svg>