<?xml version="1.0" encoding="utf-8"?>
<svg version="1.1" xmlns:xlink="http://www.w3.org/1999/xlink" width="104px" height="10px" preserveAspectRatio="xMinYMid meet" viewBox="665 249  104 8" xmlns="http://www.w3.org/2000/svg">
  <path d="M 768 253.5  L 675 253.5  A 5 5 0 0 0 670.5 258.5 L 670.5 298  A 5 5 0 0 0 675.5 303.5 L 689 303.5  " stroke-width="1" stroke="#0099ff" fill="none" />
  <path d="M 766 250.5  A 3 3 0 0 0 763 253.5 A 3 3 0 0 0 766 256.5 A 3 3 0 0 0 769 253.5 A 3 3 0 0 0 766 250.5 Z M 688 298  L 688 309  L 689 309  L 689 298  L 688 298  Z " fill-rule="nonzero" fill="#0099ff" stroke="none" />
</svg>