<?xml version="1.0" encoding="utf-8"?>
<svg version="1.1" xmlns:xlink="http://www.w3.org/1999/xlink" width="24px" height="10px" preserveAspectRatio="xMinYMid meet" viewBox="581 170  24 8" xmlns="http://www.w3.org/2000/svg">
  <path d="M 582 174.5  L 595 174.5  A 5 5 0 0 0 600.5 169.5 L 600.5 151  A 5 5 0 0 1 605.5 146.5 L 618 146.5  " stroke-width="1" stroke="#fb6260" fill="none" />
  <path d="M 584 171.5  A 3 3 0 0 0 581 174.5 A 3 3 0 0 0 584 177.5 A 3 3 0 0 0 587 174.5 A 3 3 0 0 0 584 171.5 Z M 617 141  L 617 152  L 618 152  L 618 141  L 617 141  Z " fill-rule="nonzero" fill="#fb6260" stroke="none" />
</svg>