<?xml version="1.0" encoding="utf-8"?>
<svg version="1.1" xmlns:xlink="http://www.w3.org/1999/xlink" width="26px" height="10px" preserveAspectRatio="xMinYMid meet" viewBox="497 639  26 8" xmlns="http://www.w3.org/2000/svg">
  <path d="M 487 621.5  L 497 621.5  A 5 5 0 0 1 502.5 626.5 L 502.5 638  A 5 5 0 0 0 507.5 643.5 L 518 643.5  " stroke-width="1" stroke="#0099ff" fill="none" />
  <path d="M 489 618.5  A 3 3 0 0 0 486 621.5 A 3 3 0 0 0 489 624.5 A 3 3 0 0 0 492 621.5 A 3 3 0 0 0 489 618.5 Z M 517 638  L 517 649  L 518 649  L 518 638  L 517 638  Z " fill-rule="nonzero" fill="#0099ff" stroke="none" />
</svg>