<?xml version="1.0" encoding="utf-8"?>
<svg version="1.1" xmlns:xlink="http://www.w3.org/1999/xlink" width="10px" height="69px" preserveAspectRatio="xMidYMin meet" viewBox="516 156  8 69" xmlns="http://www.w3.org/2000/svg">
  <path d="M 520.5 224  L 520.5 163  A 2 2 0 0 1 522 161.5 A 3 3 0 0 1 525 158.5 A 3 3 0 0 1 528 161.5 L 698 161.5  " stroke-width="1" stroke="#0099ff" fill="none" />
  <path d="M 520.5 219  A 3 3 0 0 0 517.5 222 A 3 3 0 0 0 520.5 225 A 3 3 0 0 0 523.5 222 A 3 3 0 0 0 520.5 219 Z M 697 156  L 697 167  L 698 167  L 698 156  L 697 156  Z " fill-rule="nonzero" fill="#0099ff" stroke="none" />
</svg>