<?xml version="1.0" encoding="utf-8"?>
<svg version="1.1" xmlns:xlink="http://www.w3.org/1999/xlink" width="18px" height="18px" preserveAspectRatio="xMinYMid meet" viewBox="641 311  18 16" xmlns="http://www.w3.org/2000/svg">
  <path d="M 549.5 326  L 549.5 305  A 5 5 0 0 1 554.5 300.5 L 655 300.5  A 5 5 0 0 1 660.5 305.5 L 660.5 315  A 5 5 0 0 1 655.5 320.5 L 650 320.5  " stroke-width="1" stroke="#fb6260" fill="none" />
  <path d="M 549.5 321  A 3 3 0 0 0 546.5 324 A 3 3 0 0 0 549.5 327 A 3 3 0 0 0 552.5 324 A 3 3 0 0 0 549.5 321 Z M 651 326  L 651 315  L 650 315  L 650 326  L 651 326  Z " fill-rule="nonzero" fill="#fb6260" stroke="none" />
</svg>