<?xml version="1.0" encoding="utf-8"?>
<svg version="1.1" xmlns:xlink="http://www.w3.org/1999/xlink" width="52px" height="10px" preserveAspectRatio="xMinYMid meet" viewBox="1483 726  52 8" xmlns="http://www.w3.org/2000/svg">
  <path d="M 1488.5 712  L 1488.5 725  A 5 5 0 0 0 1493.5 730.5 L 1525 730.5  A 5 5 0 0 0 1530.5 725.5 L 1530.5 716  A 5 5 0 0 0 1525.5 711.5 L 1520 711.5  " stroke-width="1" stroke="#8400ff" fill="none" />
  <path d="M 1488.5 711  A 3 3 0 0 0 1485.5 714 A 3 3 0 0 0 1488.5 717 A 3 3 0 0 0 1491.5 714 A 3 3 0 0 0 1488.5 711 Z M 1521 717  L 1521 706  L 1520 706  L 1520 717  L 1521 717  Z " fill-rule="nonzero" fill="#8400ff" stroke="none" />
</svg>