<?xml version="1.0" encoding="utf-8"?>
<svg version="1.1" xmlns:xlink="http://www.w3.org/1999/xlink" width="18px" height="18px" preserveAspectRatio="xMinYMid meet" viewBox="420 311  18 16" xmlns="http://www.w3.org/2000/svg">
  <path d="M 549.5 328  L 549.5 335  A 5 5 0 0 1 544.5 340.5 L 415 340.5  A 5 5 0 0 1 410.5 335.5 L 410.5 325  A 5 5 0 0 1 415.5 320.5 L 429 320.5  " stroke-width="1" stroke="#0099ff" fill="none" />
  <path d="M 549.5 327  A 3 3 0 0 0 546.5 330 A 3 3 0 0 0 549.5 333 A 3 3 0 0 0 552.5 330 A 3 3 0 0 0 549.5 327 Z M 428 315  L 428 326  L 429 326  L 429 315  L 428 315  Z " fill-rule="nonzero" fill="#0099ff" stroke="none" />
</svg>