<?xml version="1.0" encoding="utf-8"?>
<svg version="1.1" xmlns:xlink="http://www.w3.org/1999/xlink" width="10px" height="5px" preserveAspectRatio="xMinYMid meet" viewBox="645 517  10 3" xmlns="http://www.w3.org/2000/svg">
  <path d="M 576.5 501  L 576.5 535  A 5 5 0 0 0 581.5 540.5 L 655 540.5  A 5 5 0 0 0 660.5 535.5 L 660.5 521  A 5 5 0 0 0 655.5 516.5 L 650 516.5  " stroke-width="1" stroke="#0099ff" fill="none" />
  <path d="M 576.5 500  A 3 3 0 0 0 573.5 503 A 3 3 0 0 0 576.5 506 A 3 3 0 0 0 579.5 503 A 3 3 0 0 0 576.5 500 Z M 651 522  L 651 511  L 650 511  L 650 522  L 651 522  Z " fill-rule="nonzero" fill="#0099ff" stroke="none" />
</svg>