<?xml version="1.0" encoding="utf-8"?>
<svg version="1.1" xmlns:xlink="http://www.w3.org/1999/xlink" width="18px" height="18px" preserveAspectRatio="xMinYMid meet" viewBox="180 138  18 16" xmlns="http://www.w3.org/2000/svg">
  <path d="M 263 102.5  L 175 102.5  A 5 5 0 0 0 170.5 107.5 L 170.5 142  A 5 5 0 0 0 175.5 147.5 L 189 147.5  " stroke-width="1" stroke="#fb6260" fill="none" />
  <path d="M 261 99.5  A 3 3 0 0 0 258 102.5 A 3 3 0 0 0 261 105.5 A 3 3 0 0 0 264 102.5 A 3 3 0 0 0 261 99.5 Z M 188 142  L 188 153  L 189 153  L 189 142  L 188 142  Z " fill-rule="nonzero" fill="#fb6260" stroke="none" />
</svg>