<?xml version="1.0" encoding="utf-8"?>
<svg version="1.1" xmlns:xlink="http://www.w3.org/1999/xlink" width="10px" height="82px" preserveAspectRatio="xMidYMin meet" viewBox="16 416  8 82" xmlns="http://www.w3.org/2000/svg">
  <path d="M 216 421.5  L 25 421.5  A 5 5 0 0 0 20.5 426.5 L 20.5 488  A 5 5 0 0 0 25.5 493.5 L 36 493.5  " stroke-width="1" stroke="#0099ff" fill="none" />
  <path d="M 214 418.5  A 3 3 0 0 0 211 421.5 A 3 3 0 0 0 214 424.5 A 3 3 0 0 0 217 421.5 A 3 3 0 0 0 214 418.5 Z M 35 488  L 35 499  L 36 499  L 36 488  L 35 488  Z " fill-rule="nonzero" fill="#0099ff" stroke="none" />
</svg>