<?xml version="1.0" encoding="utf-8"?>
<svg version="1.1" xmlns:xlink="http://www.w3.org/1999/xlink" width="10px" height="25px" preserveAspectRatio="xMidYMin meet" viewBox="248 3525  8 25" xmlns="http://www.w3.org/2000/svg">
  <path d="M 392.5 3499  L 392.5 3525  A 5 5 0 0 1 387.5 3530.5 L 257 3530.5  A 5 5 0 0 0 252.5 3535.5 L 252.5 3550  " stroke-width="1" stroke="#0099ff" fill="none" />
  <path d="M 392.5 3498  A 3 3 0 0 0 389.5 3501 A 3 3 0 0 0 392.5 3504 A 3 3 0 0 0 395.5 3501 A 3 3 0 0 0 392.5 3498 Z M 258 3549  L 247 3549  L 247 3550  L 258 3550  L 258 3549  Z " fill-rule="nonzero" fill="#0099ff" stroke="none" />
</svg>