<?xml version="1.0" encoding="utf-8"?>
<svg version="1.1" xmlns:xlink="http://www.w3.org/1999/xlink" width="52px" height="10px" preserveAspectRatio="xMinYMid meet" viewBox="183 6  52 8" xmlns="http://www.w3.org/2000/svg">
  <path d="M 188.5 28  L 188.5 15  A 5 5 0 0 1 193.5 10.5 L 225 10.5  A 5 5 0 0 1 230.5 15.5 L 230.5 24  A 5 5 0 0 1 225.5 29.5 L 220 29.5  " stroke-width="1" stroke="#0099ff" fill="none" />
  <path d="M 188.5 23  A 3 3 0 0 0 185.5 26 A 3 3 0 0 0 188.5 29 A 3 3 0 0 0 191.5 26 A 3 3 0 0 0 188.5 23 Z M 221 35  L 221 24  L 220 24  L 220 35  L 221 35  Z " fill-rule="nonzero" fill="#0099ff" stroke="none" />
</svg>