<?xml version="1.0" encoding="utf-8"?>
<svg version="1.1" xmlns:xlink="http://www.w3.org/1999/xlink" width="10px" height="5px" preserveAspectRatio="xMinYMid meet" viewBox="1583 1608  10 3" xmlns="http://www.w3.org/2000/svg">
  <path d="M 1734 1540.5  L 1575 1540.5  A 5 5 0 0 0 1570.5 1545.5 L 1570.5 1602  A 5 5 0 0 0 1575.5 1607.5 L 1588 1607.5  " stroke-width="1" stroke="#ce3232" fill="none" />
  <path d="M 1732 1537.5  A 3 3 0 0 0 1729 1540.5 A 3 3 0 0 0 1732 1543.5 A 3 3 0 0 0 1735 1540.5 A 3 3 0 0 0 1732 1537.5 Z M 1587 1602  L 1587 1613  L 1588 1613  L 1588 1602  L 1587 1602  Z " fill-rule="nonzero" fill="#ce3232" stroke="none" />
</svg>