<?xml version="1.0" encoding="utf-8"?>
<svg version="1.1" xmlns:xlink="http://www.w3.org/1999/xlink" width="18px" height="18px" preserveAspectRatio="xMinYMid meet" viewBox="808 2705  18 16" xmlns="http://www.w3.org/2000/svg">
  <path d="M 819 2713.5  L 575 2713.5  A 5 5 0 0 1 570.5 2708.5 L 570.5 2636  A 5 5 0 0 1 575.5 2631.5 L 583 2631.5  " stroke-width="1" stroke="#0099ff" fill="none" />
  <path d="M 817 2710.5  A 3 3 0 0 0 814 2713.5 A 3 3 0 0 0 817 2716.5 A 3 3 0 0 0 820 2713.5 A 3 3 0 0 0 817 2710.5 Z M 582 2626  L 582 2637  L 583 2637  L 583 2626  L 582 2626  Z " fill-rule="nonzero" fill="#0099ff" stroke="none" />
</svg>