<?xml version="1.0" encoding="utf-8"?>
<svg version="1.1" xmlns:xlink="http://www.w3.org/1999/xlink" width="22px" height="10px" preserveAspectRatio="xMinYMid meet" viewBox="235 154  22 8" xmlns="http://www.w3.org/2000/svg">
  <path d="M 275 113.5  L 245 113.5  A 5 5 0 0 0 240.5 118.5 L 240.5 153  A 5 5 0 0 0 245.5 158.5 L 252 158.5  " stroke-width="1" stroke="#ce3232" fill="none" />
  <path d="M 273 110.5  A 3 3 0 0 0 270 113.5 A 3 3 0 0 0 273 116.5 A 3 3 0 0 0 276 113.5 A 3 3 0 0 0 273 110.5 Z M 251 153  L 251 164  L 252 164  L 252 153  L 251 153  Z " fill-rule="nonzero" fill="#ce3232" stroke="none" />
</svg>