<?xml version="1.0" encoding="utf-8"?>
<svg version="1.1" xmlns:xlink="http://www.w3.org/1999/xlink" width="18px" height="18px" preserveAspectRatio="xMinYMid meet" viewBox="105 2610  18 16" xmlns="http://www.w3.org/2000/svg">
  <path d="M 296 2705.5  L 105 2705.5  A 5 5 0 0 1 100.5 2700.5 L 100.5 2624  A 5 5 0 0 1 105.5 2619.5 L 114 2619.5  " stroke-width="1" stroke="#0099ff" fill="none" />
  <path d="M 294 2702.5  A 3 3 0 0 0 291 2705.5 A 3 3 0 0 0 294 2708.5 A 3 3 0 0 0 297 2705.5 A 3 3 0 0 0 294 2702.5 Z M 113 2614  L 113 2625  L 114 2625  L 114 2614  L 113 2614  Z " fill-rule="nonzero" fill="#0099ff" stroke="none" />
</svg>