<?xml version="1.0" encoding="utf-8"?>
<svg version="1.1" xmlns:xlink="http://www.w3.org/1999/xlink" width="18px" height="18px" preserveAspectRatio="xMinYMid meet" viewBox="138 2492  18 16" xmlns="http://www.w3.org/2000/svg">
  <path d="M 351 2422.5  L 135 2422.5  A 5 5 0 0 0 130.5 2427.5 L 130.5 2496  A 5 5 0 0 0 135.5 2501.5 L 147 2501.5  " stroke-width="1" stroke="#ce3232" fill="none" />
  <path d="M 349 2419.5  A 3 3 0 0 0 346 2422.5 A 3 3 0 0 0 349 2425.5 A 3 3 0 0 0 352 2422.5 A 3 3 0 0 0 349 2419.5 Z M 146 2496  L 146 2507  L 147 2507  L 147 2496  L 146 2496  Z " fill-rule="nonzero" fill="#ce3232" stroke="none" />
</svg>