<?xml version="1.0" encoding="utf-8"?>
<svg version="1.1" xmlns:xlink="http://www.w3.org/1999/xlink" width="59px" height="25px" xmlns="http://www.w3.org/2000/svg">
  <g transform="matrix(1 0 0 1 -1386 -110 )">
    <path d="M 1386.5 115  A 4.5 4.5 0 0 1 1391 110.5 L 1440 110.5  A 4.5 4.5 0 0 1 1444.5 115 L 1444.5 130  A 4.5 4.5 0 0 1 1440 134.5 L 1391 134.5  A 4.5 4.5 0 0 1 1386.5 130 L 1386.5 115  Z " fill-rule="nonzero" fill="#dd6161" stroke="none" />
    <path d="M 1386.5 115  A 4.5 4.5 0 0 1 1391 110.5 L 1440 110.5  A 4.5 4.5 0 0 1 1444.5 115 L 1444.5 130  A 4.5 4.5 0 0 1 1440 134.5 L 1391 134.5  A 4.5 4.5 0 0 1 1386.5 130 L 1386.5 115  Z " stroke-width="1" stroke="#dd6161" fill="none" />
  </g>
</svg>