<?xml version="1.0" encoding="utf-8"?>
<svg version="1.1" xmlns:xlink="http://www.w3.org/1999/xlink" width="26px" height="10px" preserveAspectRatio="xMinYMid meet" viewBox="495 1137  26 8" xmlns="http://www.w3.org/2000/svg">
  <path d="M 178 965.5  L 495 965.5  A 5 5 0 0 1 500.5 970.5 L 500.5 1136  A 5 5 0 0 0 505.5 1141.5 L 516 1141.5  " stroke-width="1" stroke="#531dab" fill="none" />
  <path d="M 180 962.5  A 3 3 0 0 0 177 965.5 A 3 3 0 0 0 180 968.5 A 3 3 0 0 0 183 965.5 A 3 3 0 0 0 180 962.5 Z M 515 1136  L 515 1147  L 516 1147  L 516 1136  L 515 1136  Z " fill-rule="nonzero" fill="#531dab" stroke="none" />
</svg>