<?xml version="1.0" encoding="utf-8"?>
<svg version="1.1" xmlns:xlink="http://www.w3.org/1999/xlink" width="28px" height="10px" preserveAspectRatio="xMinYMid meet" viewBox="435 209  28 8" xmlns="http://www.w3.org/2000/svg">
  <path d="M 106 88.5  L 435 88.5  A 5 5 0 0 1 440.5 93.5 L 440.5 208  A 5 5 0 0 0 445.5 213.5 L 458 213.5  " stroke-width="1" stroke="#0099ff" fill="none" />
  <path d="M 108 85.5  A 3 3 0 0 0 105 88.5 A 3 3 0 0 0 108 91.5 A 3 3 0 0 0 111 88.5 A 3 3 0 0 0 108 85.5 Z M 457 208  L 457 219  L 458 219  L 458 208  L 457 208  Z " fill-rule="nonzero" fill="#0099ff" stroke="none" />
</svg>