<?xml version="1.0" encoding="utf-8"?>
<svg version="1.1" xmlns:xlink="http://www.w3.org/1999/xlink" width="10px" height="5px" preserveAspectRatio="xMinYMid meet" viewBox="449 922  10 3" xmlns="http://www.w3.org/2000/svg">
  <path d="M 851 570.5  L 445 570.5  A 5 5 0 0 0 440.5 575.5 L 440.5 916  A 5 5 0 0 0 445.5 921.5 L 454 921.5  " stroke-width="1" stroke="#0099ff" fill="none" />
  <path d="M 849 567.5  A 3 3 0 0 0 846 570.5 A 3 3 0 0 0 849 573.5 A 3 3 0 0 0 852 570.5 A 3 3 0 0 0 849 567.5 Z M 453 916  L 453 927  L 454 927  L 454 916  L 453 916  Z " fill-rule="nonzero" fill="#0099ff" stroke="none" />
</svg>