<?xml version="1.0" encoding="utf-8"?>
<svg version="1.1" xmlns:xlink="http://www.w3.org/1999/xlink" width="74px" height="10px" preserveAspectRatio="xMinYMid meet" viewBox="351 526  74 8" xmlns="http://www.w3.org/2000/svg">
  <path d="M 352 530.5  L 415 530.5  A 5 5 0 0 1 420.5 535.5 L 420.5 626  A 5 5 0 0 0 425.5 631.5 L 436 631.5  " stroke-width="1" stroke="#0099ff" fill="none" />
  <path d="M 354 527.5  A 3 3 0 0 0 351 530.5 A 3 3 0 0 0 354 533.5 A 3 3 0 0 0 357 530.5 A 3 3 0 0 0 354 527.5 Z M 435 626  L 435 637  L 436 637  L 436 626  L 435 626  Z " fill-rule="nonzero" fill="#0099ff" stroke="none" />
</svg>