<?xml version="1.0" encoding="utf-8"?>
<svg version="1.1" xmlns:xlink="http://www.w3.org/1999/xlink" width="10px" height="30px" preserveAspectRatio="xMidYMin meet" viewBox="446 244  8 30" xmlns="http://www.w3.org/2000/svg">
  <path d="M 237 269.5  L 445 269.5  A 5 5 0 0 0 450.5 264.5 L 450.5 254  A 5 5 0 0 0 445.5 249.5 L 440 249.5  " stroke-width="1" stroke="#ce3232" fill="none" />
  <path d="M 239 266.5  A 3 3 0 0 0 236 269.5 A 3 3 0 0 0 239 272.5 A 3 3 0 0 0 242 269.5 A 3 3 0 0 0 239 266.5 Z M 441 255  L 441 244  L 440 244  L 440 255  L 441 255  Z " fill-rule="nonzero" fill="#ce3232" stroke="none" />
</svg>