<?xml version="1.0" encoding="utf-8"?>
<svg version="1.1" xmlns:xlink="http://www.w3.org/1999/xlink" width="10px" height="31px" preserveAspectRatio="xMidYMin meet" viewBox="566 375  8 31" xmlns="http://www.w3.org/2000/svg">
  <path d="M 313.5 395  L 313.5 385  A 5 5 0 0 1 318.5 380.5 L 565 380.5  A 5 5 0 0 1 570.5 385.5 L 570.5 396  A 5 5 0 0 1 565.5 401.5 L 560 401.5  " stroke-width="1" stroke="#ce3232" fill="none" />
  <path d="M 313.5 390  A 3 3 0 0 0 310.5 393 A 3 3 0 0 0 313.5 396 A 3 3 0 0 0 316.5 393 A 3 3 0 0 0 313.5 390 Z M 561 407  L 561 396  L 560 396  L 560 407  L 561 407  Z " fill-rule="nonzero" fill="#ce3232" stroke="none" />
</svg>