<?xml version="1.0" encoding="utf-8"?>
<svg version="1.1" xmlns:xlink="http://www.w3.org/1999/xlink" width="10px" height="5px" preserveAspectRatio="xMinYMid meet" viewBox="551 754  10 3" xmlns="http://www.w3.org/2000/svg">
  <path d="M 251 708.5  L 535 708.5  A 5 5 0 0 1 540.5 713.5 L 540.5 748  A 5 5 0 0 0 545.5 753.5 L 556 753.5  " stroke-width="1" stroke="#ce3232" fill="none" />
  <path d="M 253 705.5  A 3 3 0 0 0 250 708.5 A 3 3 0 0 0 253 711.5 A 3 3 0 0 0 256 708.5 A 3 3 0 0 0 253 705.5 Z M 555 748  L 555 759  L 556 759  L 556 748  L 555 748  Z " fill-rule="nonzero" fill="#ce3232" stroke="none" />
</svg>