<?xml version="1.0" encoding="utf-8"?>
<svg version="1.1" xmlns:xlink="http://www.w3.org/1999/xlink" width="97px" height="10px" preserveAspectRatio="xMinYMid meet" viewBox="45 617  97 8" xmlns="http://www.w3.org/2000/svg">
  <path d="M 141 621.5  L 55 621.5  A 5 5 0 0 0 50.5 626.5 L 50.5 763  A 5 5 0 0 0 55.5 768.5 L 63 768.5  " stroke-width="1" stroke="#0099ff" fill="none" />
  <path d="M 139 618.5  A 3 3 0 0 0 136 621.5 A 3 3 0 0 0 139 624.5 A 3 3 0 0 0 142 621.5 A 3 3 0 0 0 139 618.5 Z M 62 763  L 62 774  L 63 774  L 63 763  L 62 763  Z " fill-rule="nonzero" fill="#0099ff" stroke="none" />
</svg>