<?xml version="1.0" encoding="utf-8"?>
<svg version="1.1" xmlns:xlink="http://www.w3.org/1999/xlink" width="21px" height="10px" preserveAspectRatio="xMinYMid meet" viewBox="765 545  21 8" xmlns="http://www.w3.org/2000/svg">
  <path d="M 1164 353.5  L 775 353.5  A 5 5 0 0 0 770.5 358.5 L 770.5 544  A 5 5 0 0 0 775.5 549.5 L 781 549.5  " stroke-width="1" stroke="#fb6260" fill="none" />
  <path d="M 1162 350.5  A 3 3 0 0 0 1159 353.5 A 3 3 0 0 0 1162 356.5 A 3 3 0 0 0 1165 353.5 A 3 3 0 0 0 1162 350.5 Z M 780 544  L 780 555  L 781 555  L 781 544  L 780 544  Z " fill-rule="nonzero" fill="#fb6260" stroke="none" />
</svg>