<?xml version="1.0" encoding="utf-8"?>
<svg version="1.1" xmlns:xlink="http://www.w3.org/1999/xlink" width="85px" height="25px" xmlns="http://www.w3.org/2000/svg">
  <defs>
    <mask fill="white" id="clip645">
      <path d="M 0 20  L 0 5  C 0 2.19999999999999  2.56164383561649 0  5.82191780821918 0  L 31.8842902943748 0  L 79.1780821917808 0  C 82.4383561643835 0  85 2.19999999999999  85 5  L 85 20  C 85 22.8  82.4383561643835 25  79.1780821917808 25  L 25.0714077528418 25  L 5.82191780821918 25  C 2.56164383561649 25  0 22.8  0 20  Z " fill-rule="evenodd" />
    </mask>
  </defs>
  <g transform="matrix(1 0 0 1 -1039 -15 )">
    <path d="M 0 20  L 0 5  C 0 2.19999999999999  2.56164383561649 0  5.82191780821918 0  L 31.8842902943748 0  L 79.1780821917808 0  C 82.4383561643835 0  85 2.19999999999999  85 5  L 85 20  C 85 22.8  82.4383561643835 25  79.1780821917808 25  L 25.0714077528418 25  L 5.82191780821918 25  C 2.56164383561649 25  0 22.8  0 20  Z " fill-rule="nonzero" fill="#409eff" stroke="none" transform="matrix(1 0 0 1 1039 15 )" />
    <path d="M 0 20  L 0 5  C 0 2.19999999999999  2.56164383561649 0  5.82191780821918 0  L 31.8842902943748 0  L 79.1780821917808 0  C 82.4383561643835 0  85 2.19999999999999  85 5  L 85 20  C 85 22.8  82.4383561643835 25  79.1780821917808 25  L 25.0714077528418 25  L 5.82191780821918 25  C 2.56164383561649 25  0 22.8  0 20  Z " stroke-width="2" stroke="#409eff" fill="none" transform="matrix(1 0 0 1 1039 15 )" mask="url(#clip645)" />
  </g>
</svg>