<?xml version="1.0" encoding="utf-8"?>
<svg version="1.1" xmlns:xlink="http://www.w3.org/1999/xlink" width="88px" height="25px" xmlns="http://www.w3.org/2000/svg">
  <defs>
    <mask fill="white" id="clip521">
      <path d="M 0 20  L 0 5  C 0 2.19999999999999  2.6520547945206 0  6.02739726027397 0  L 33.0096181871174 0  L 81.972602739726 0  C 85.3479452054794 0  88 2.19999999999999  88 5  L 88 20  C 88 22.8  85.3479452054794 25  81.972602739726 25  L 25.956280967648 25  L 6.02739726027397 25  C 2.6520547945206 25  0 22.8  0 20  Z " fill-rule="evenodd" />
    </mask>
  </defs>
  <g transform="matrix(1 0 0 1 -1039 -48 )">
    <path d="M 0 20  L 0 5  C 0 2.19999999999999  2.6520547945206 0  6.02739726027397 0  L 33.0096181871174 0  L 81.972602739726 0  C 85.3479452054794 0  88 2.19999999999999  88 5  L 88 20  C 88 22.8  85.3479452054794 25  81.972602739726 25  L 25.956280967648 25  L 6.02739726027397 25  C 2.6520547945206 25  0 22.8  0 20  Z " fill-rule="nonzero" fill="#f0f7ff" stroke="none" transform="matrix(1 0 0 1 1039 48 )" />
    <path d="M 0 20  L 0 5  C 0 2.19999999999999  2.6520547945206 0  6.02739726027397 0  L 33.0096181871174 0  L 81.972602739726 0  C 85.3479452054794 0  88 2.19999999999999  88 5  L 88 20  C 88 22.8  85.3479452054794 25  81.972602739726 25  L 25.956280967648 25  L 6.02739726027397 25  C 2.6520547945206 25  0 22.8  0 20  Z " stroke-width="2" stroke="#7abbff" fill="none" transform="matrix(1 0 0 1 1039 48 )" mask="url(#clip521)" />
  </g>
</svg>