<?xml version="1.0" encoding="utf-8"?>
<svg version="1.1" xmlns:xlink="http://www.w3.org/1999/xlink" width="18px" height="18px" preserveAspectRatio="xMinYMid meet" viewBox="373 387  18 16" xmlns="http://www.w3.org/2000/svg">
  <path d="M 380 395.5  L 465 395.5  A 5 5 0 0 1 470.5 400.5 L 470.5 1437  A 5 5 0 0 1 465.5 1442.5 L 460 1442.5  " stroke-width="1" stroke="#fb6260" fill="none" />
  <path d="M 382 392.5  A 3 3 0 0 0 379 395.5 A 3 3 0 0 0 382 398.5 A 3 3 0 0 0 385 395.5 A 3 3 0 0 0 382 392.5 Z M 461 1448  L 461 1437  L 460 1437  L 460 1448  L 461 1448  Z " fill-rule="nonzero" fill="#fb6260" stroke="none" />
</svg>