<?xml version="1.0" encoding="utf-8"?>
<svg version="1.1" xmlns:xlink="http://www.w3.org/1999/xlink" width="10px" height="5px" preserveAspectRatio="xMinYMid meet" viewBox="255 962  10 3" xmlns="http://www.w3.org/2000/svg">
  <path d="M 214.5 993  L 214.5 982  A 5 5 0 0 1 219.5 977.5 L 265 977.5  A 5 5 0 0 0 270.5 972.5 L 270.5 966  A 5 5 0 0 0 265.5 961.5 L 260 961.5  " stroke-width="1" stroke="#0099ff" fill="none" />
  <path d="M 214.5 988  A 3 3 0 0 0 211.5 991 A 3 3 0 0 0 214.5 994 A 3 3 0 0 0 217.5 991 A 3 3 0 0 0 214.5 988 Z M 261 967  L 261 956  L 260 956  L 260 967  L 261 967  Z " fill-rule="nonzero" fill="#0099ff" stroke="none" />
</svg>