<?xml version="1.0" encoding="utf-8"?>
<svg version="1.1" xmlns:xlink="http://www.w3.org/1999/xlink" width="18px" height="18px" preserveAspectRatio="xMinYMid meet" viewBox="216 146  18 16" xmlns="http://www.w3.org/2000/svg">
  <path d="M 225.5 156  L 225.5 135  A 5 5 0 0 1 230.5 130.5 L 285 130.5  A 5 5 0 0 1 290.5 135.5 L 290.5 150  A 5 5 0 0 1 285.5 155.5 L 280 155.5  " stroke-width="1" stroke="#0099ff" fill="none" />
  <path d="M 225.5 151  A 3 3 0 0 0 222.5 154 A 3 3 0 0 0 225.5 157 A 3 3 0 0 0 228.5 154 A 3 3 0 0 0 225.5 151 Z M 281 161  L 281 150  L 280 150  L 280 161  L 281 161  Z " fill-rule="nonzero" fill="#0099ff" stroke="none" />
</svg>