<?xml version="1.0" encoding="utf-8"?>
<svg version="1.1" xmlns:xlink="http://www.w3.org/1999/xlink" width="20px" height="10px" preserveAspectRatio="xMinYMid meet" viewBox="415 563  20 8" xmlns="http://www.w3.org/2000/svg">
  <path d="M 388.5 566  L 388.5 555  A 5 5 0 0 1 393.5 550.5 L 425 550.5  A 5 5 0 0 1 430.5 555.5 L 430.5 562  A 5 5 0 0 1 425.5 567.5 L 420 567.5  " stroke-width="1" stroke="#0099ff" fill="none" />
  <path d="M 388.5 561  A 3 3 0 0 0 385.5 564 A 3 3 0 0 0 388.5 567 A 3 3 0 0 0 391.5 564 A 3 3 0 0 0 388.5 561 Z M 421 573  L 421 562  L 420 562  L 420 573  L 421 573  Z " fill-rule="nonzero" fill="#0099ff" stroke="none" />
</svg>