<?xml version="1.0" encoding="utf-8"?>
<svg version="1.1" xmlns:xlink="http://www.w3.org/1999/xlink" width="18px" height="18px" preserveAspectRatio="xMinYMid meet" viewBox="318 56  18 16" xmlns="http://www.w3.org/2000/svg">
  <path d="M 325 64.5  L 465 64.5  A 5 5 0 0 0 470.5 59.5 L 470.5 49  A 5 5 0 0 0 465.5 44.5 L 460 44.5  " stroke-width="1" stroke="#8400ff" fill="none" />
  <path d="M 327 61.5  A 3 3 0 0 0 324 64.5 A 3 3 0 0 0 327 67.5 A 3 3 0 0 0 330 64.5 A 3 3 0 0 0 327 61.5 Z M 461 50  L 461 39  L 460 39  L 460 50  L 461 50  Z " fill-rule="nonzero" fill="#8400ff" stroke="none" />
</svg>