<?xml version="1.0" encoding="utf-8"?>
<svg version="1.1" xmlns:xlink="http://www.w3.org/1999/xlink" width="20px" height="10px" preserveAspectRatio="xMinYMid meet" viewBox="225 390  20 8" xmlns="http://www.w3.org/2000/svg">
  <path d="M 198.5 393  L 198.5 375  A 5 5 0 0 1 203.5 370.5 L 235 370.5  A 5 5 0 0 1 240.5 375.5 L 240.5 389  A 5 5 0 0 1 235.5 394.5 L 230 394.5  " stroke-width="1" stroke="#8400ff" fill="none" />
  <path d="M 198.5 388  A 3 3 0 0 0 195.5 391 A 3 3 0 0 0 198.5 394 A 3 3 0 0 0 201.5 391 A 3 3 0 0 0 198.5 388 Z M 231 400  L 231 389  L 230 389  L 230 400  L 231 400  Z " fill-rule="nonzero" fill="#8400ff" stroke="none" />
</svg>