<?xml version="1.0" encoding="utf-8"?>
<svg version="1.1" xmlns:xlink="http://www.w3.org/1999/xlink" width="134px" height="66px" xmlns="http://www.w3.org/2000/svg">
  <g transform="matrix(1 0 0 1 -2528 -786 )">
    <path d="M 2530 790  A 2 2 0 0 1 2532 788 L 2658 788  A 2 2 0 0 1 2660 790 L 2660 848  A 2 2 0 0 1 2658 850 L 2532 850  A 2 2 0 0 1 2530 848 L 2530 790  Z " fill-rule="nonzero" fill="#ff3399" stroke="none" fill-opacity="0.0980392156862745" />
    <path d="M 2529 790  A 3 3 0 0 1 2532 787 L 2658 787  A 3 3 0 0 1 2661 790 L 2661 848  A 3 3 0 0 1 2658 851 L 2532 851  A 3 3 0 0 1 2529 848 L 2529 790  Z " stroke-width="2" stroke-dasharray="34,16" stroke="#ff3399" fill="none" />
  </g>
</svg>