<?xml version="1.0" encoding="utf-8"?>
<svg version="1.1" xmlns:xlink="http://www.w3.org/1999/xlink" width="371px" height="76px" xmlns="http://www.w3.org/2000/svg">
  <g transform="matrix(1 0 0 1 -1802 -814 )">
    <path d="M 1804 818  A 2 2 0 0 1 1806 816 L 2169 816  A 2 2 0 0 1 2171 818 L 2171 886  A 2 2 0 0 1 2169 888 L 1806 888  A 2 2 0 0 1 1804 886 L 1804 818  Z " fill-rule="nonzero" fill="#ff3399" stroke="none" fill-opacity="0.0980392156862745" />
    <path d="M 1803 818  A 3 3 0 0 1 1806 815 L 2169 815  A 3 3 0 0 1 2172 818 L 2172 886  A 3 3 0 0 1 2169 889 L 1806 889  A 3 3 0 0 1 1803 886 L 1803 818  Z " stroke-width="2" stroke-dasharray="34,16" stroke="#ff3399" fill="none" />
  </g>
</svg>