<?xml version="1.0" encoding="utf-8"?>
<svg version="1.1" xmlns:xlink="http://www.w3.org/1999/xlink" width="279px" height="56px" xmlns="http://www.w3.org/2000/svg">
  <g transform="matrix(1 0 0 1 -681 -769 )">
    <path d="M 683 773  A 2 2 0 0 1 685 771 L 956 771  A 2 2 0 0 1 958 773 L 958 821  A 2 2 0 0 1 956 823 L 685 823  A 2 2 0 0 1 683 821 L 683 773  Z " fill-rule="nonzero" fill="#ff3399" stroke="none" fill-opacity="0.0980392156862745" />
    <path d="M 682 773  A 3 3 0 0 1 685 770 L 956 770  A 3 3 0 0 1 959 773 L 959 821  A 3 3 0 0 1 956 824 L 685 824  A 3 3 0 0 1 682 821 L 682 773  Z " stroke-width="2" stroke-dasharray="34,16" stroke="#ff3399" fill="none" />
  </g>
</svg>