<?xml version="1.0" encoding="utf-8"?>
<svg version="1.1" xmlns:xlink="http://www.w3.org/1999/xlink" width="279px" height="56px" xmlns="http://www.w3.org/2000/svg">
  <g transform="matrix(1 0 0 1 -686 -763 )">
    <path d="M 688 767  A 2 2 0 0 1 690 765 L 961 765  A 2 2 0 0 1 963 767 L 963 815  A 2 2 0 0 1 961 817 L 690 817  A 2 2 0 0 1 688 815 L 688 767  Z " fill-rule="nonzero" fill="#ff3399" stroke="none" fill-opacity="0.0980392156862745" />
    <path d="M 687 767  A 3 3 0 0 1 690 764 L 961 764  A 3 3 0 0 1 964 767 L 964 815  A 3 3 0 0 1 961 818 L 690 818  A 3 3 0 0 1 687 815 L 687 767  Z " stroke-width="2" stroke-dasharray="34,16" stroke="#ff3399" fill="none" />
  </g>
</svg>