<?xml version="1.0" encoding="utf-8"?>
<svg version="1.1" xmlns:xlink="http://www.w3.org/1999/xlink" width="53px" height="406px" xmlns="http://www.w3.org/2000/svg">
  <g transform="matrix(1 0 0 1 -2130 -375 )">
    <path d="M 2132 379  A 2 2 0 0 1 2134 377 L 2179 377  A 2 2 0 0 1 2181 379 L 2181 777  A 2 2 0 0 1 2179 779 L 2134 779  A 2 2 0 0 1 2132 777 L 2132 379  Z " fill-rule="nonzero" fill="#ff3399" stroke="none" fill-opacity="0.0980392156862745" />
    <path d="M 2131 379  A 3 3 0 0 1 2134 376 L 2179 376  A 3 3 0 0 1 2182 379 L 2182 777  A 3 3 0 0 1 2179 780 L 2134 780  A 3 3 0 0 1 2131 777 L 2131 379  Z " stroke-width="2" stroke-dasharray="34,16" stroke="#ff3399" fill="none" />
  </g>
</svg>