<?xml version="1.0" encoding="utf-8"?>
<svg version="1.1" xmlns:xlink="http://www.w3.org/1999/xlink" width="139px" height="56px" xmlns="http://www.w3.org/2000/svg">
  <g transform="matrix(1 0 0 1 -1276 -775 )">
    <path d="M 1278 779  A 2 2 0 0 1 1280 777 L 1411 777  A 2 2 0 0 1 1413 779 L 1413 827  A 2 2 0 0 1 1411 829 L 1280 829  A 2 2 0 0 1 1278 827 L 1278 779  Z " fill-rule="nonzero" fill="#ff3399" stroke="none" fill-opacity="0.0980392156862745" />
    <path d="M 1277 779  A 3 3 0 0 1 1280 776 L 1411 776  A 3 3 0 0 1 1414 779 L 1414 827  A 3 3 0 0 1 1411 830 L 1280 830  A 3 3 0 0 1 1277 827 L 1277 779  Z " stroke-width="2" stroke-dasharray="34,16" stroke="#ff3399" fill="none" />
  </g>
</svg>