<?xml version="1.0" encoding="utf-8"?>
<svg version="1.1" xmlns:xlink="http://www.w3.org/1999/xlink" width="200px" height="35px" xmlns="http://www.w3.org/2000/svg">
  <g transform="matrix(1 0 0 1 -1808 -170 )">
    <path d="M 1810 174  A 2 2 0 0 1 1812 172 L 2004 172  A 2 2 0 0 1 2006 174 L 2006 201  A 2 2 0 0 1 2004 203 L 1812 203  A 2 2 0 0 1 1810 201 L 1810 174  Z " fill-rule="nonzero" fill="#ff3399" stroke="none" fill-opacity="0.0980392156862745" />
    <path d="M 1809 174  A 3 3 0 0 1 1812 171 L 2004 171  A 3 3 0 0 1 2007 174 L 2007 201  A 3 3 0 0 1 2004 204 L 1812 204  A 3 3 0 0 1 1809 201 L 1809 174  Z " stroke-width="2" stroke-dasharray="34,16" stroke="#ff3399" fill="none" />
  </g>
</svg>