<?xml version="1.0" encoding="utf-8"?>
<svg version="1.1" xmlns:xlink="http://www.w3.org/1999/xlink" width="348px" height="50px" xmlns="http://www.w3.org/2000/svg">
  <g transform="matrix(1 0 0 1 -1808 -294 )">
    <path d="M 1810 298  A 2 2 0 0 1 1812 296 L 2152 296  A 2 2 0 0 1 2154 298 L 2154 340  A 2 2 0 0 1 2152 342 L 1812 342  A 2 2 0 0 1 1810 340 L 1810 298  Z " fill-rule="nonzero" fill="#ff3399" stroke="none" fill-opacity="0.0980392156862745" />
    <path d="M 1809 298  A 3 3 0 0 1 1812 295 L 2152 295  A 3 3 0 0 1 2155 298 L 2155 340  A 3 3 0 0 1 2152 343 L 1812 343  A 3 3 0 0 1 1809 340 L 1809 298  Z " stroke-width="2" stroke-dasharray="34,16" stroke="#ff3399" fill="none" />
  </g>
</svg>