<?xml version="1.0" encoding="utf-8"?>
<svg version="1.1" xmlns:xlink="http://www.w3.org/1999/xlink" width="246px" height="313px" xmlns="http://www.w3.org/2000/svg">
  <g transform="matrix(1 0 0 1 -98 -327 )">
    <path d="M 100 331  A 2 2 0 0 1 102 329 L 340 329  A 2 2 0 0 1 342 331 L 342 636  A 2 2 0 0 1 340 638 L 102 638  A 2 2 0 0 1 100 636 L 100 331  Z " fill-rule="nonzero" fill="#ff3399" stroke="none" fill-opacity="0.0980392156862745" />
    <path d="M 99 331  A 3 3 0 0 1 102 328 L 340 328  A 3 3 0 0 1 343 331 L 343 636  A 3 3 0 0 1 340 639 L 102 639  A 3 3 0 0 1 99 636 L 99 331  Z " stroke-width="2" stroke-dasharray="34,16" stroke="#ff3399" fill="none" />
  </g>
</svg>