<?xml version="1.0" encoding="utf-8"?>
<svg version="1.1" xmlns:xlink="http://www.w3.org/1999/xlink" width="90px" height="30px" xmlns="http://www.w3.org/2000/svg">
  <g transform="matrix(1 0 0 1 -1411 -65 )">
    <path d="M 1411.5 70  A 4.5 4.5 0 0 1 1416 65.5 L 1496 65.5  A 4.5 4.5 0 0 1 1500.5 70 L 1500.5 90  A 4.5 4.5 0 0 1 1496 94.5 L 1416 94.5  A 4.5 4.5 0 0 1 1411.5 90 L 1411.5 70  Z " fill-rule="nonzero" fill="#ffffff" stroke="none" />
    <path d="M 1411.5 70  A 4.5 4.5 0 0 1 1416 65.5 L 1496 65.5  A 4.5 4.5 0 0 1 1500.5 70 L 1500.5 90  A 4.5 4.5 0 0 1 1496 94.5 L 1416 94.5  A 4.5 4.5 0 0 1 1411.5 90 L 1411.5 70  Z " stroke-width="1" stroke="#e4e4e4" fill="none" />
  </g>
</svg>